<svg width="21" height="20" viewBox="0 0 21 20" fill="none" xmlns="http://www.w3.org/2000/svg">
<path d="M9.25402 3.73366C9.79125 2.07592 10.2833 0.557561 10.3435 0.36341C10.4038 0.164281 10.4741 0 10.4992 0C10.5193 0 10.7753 0.721842 11.0615 1.60299C11.3477 2.48911 11.8046 3.88301 12.0707 4.70442C12.3368 5.52582 12.6531 6.50156 12.9945 7.542L16.976 7.52209C19.9934 7.50716 20.9675 7.51213 20.9976 7.55694C21.0177 7.59676 20.9122 7.70131 20.6963 7.85065C20.5055 7.98009 19.7926 8.48786 19.0997 8.98569C18.4119 9.48351 17.1316 10.3995 16.263 11.0218C15.3944 11.6441 14.6463 12.1767 14.6062 12.1966C14.5409 12.2365 14.5459 12.2813 14.6363 12.5551C14.6965 12.7293 14.8823 13.2819 15.048 13.7897C15.2137 14.2974 15.7107 15.8108 16.1525 17.15C16.5944 18.4891 16.9709 19.6391 16.986 19.7038C17.0011 19.7635 17.0011 19.8133 16.981 19.8133C16.9559 19.8133 16.4186 19.4399 15.781 18.982C15.1434 18.519 13.7275 17.4935 12.633 16.7019C11.5334 15.9104 10.6096 15.2383 10.5745 15.2134C10.5343 15.1836 10.1778 15.4076 9.43477 15.9403C8.84232 16.3684 7.3863 17.4238 6.19638 18.285C5.00646 19.1462 4.02239 19.8432 3.99729 19.8332C3.97721 19.8233 4.05252 19.5495 4.15795 19.2259C4.26841 18.9073 4.5797 17.9614 4.85584 17.1251C5.13198 16.2887 5.55874 15.0143 5.79974 14.2875C6.03572 13.5607 6.28675 12.804 6.47252 12.2464L5.57883 11.6142C5.09181 11.2657 4.46422 10.8226 4.18808 10.6235C3.91194 10.4244 2.8626 9.67268 1.85844 8.95084C0.849271 8.229 0.0158252 7.6117 0.000762893 7.57187C-0.0243409 7.51213 0.527943 7.50716 8.00385 7.57685L8.13942 7.16366C8.21473 6.93466 8.71178 5.39141 9.25402 3.73366Z" fill="#F35423"/>
</svg>
