<svg width="526" height="200" viewBox="0 0 526 200" fill="none" xmlns="http://www.w3.org/2000/svg">
<rect width="526" height="200" fill="white"/>
<path fill-rule="evenodd" clip-rule="evenodd" d="M100.92 64.0085C103.633 64.0514 104.804 64.1228 106.133 64.3659C107.075 64.5231 108.489 64.8233 109.275 65.0234C110.06 65.2236 111.288 65.5953 111.988 65.8383C112.688 66.0813 113.945 66.5674 114.773 66.939C115.844 67.4108 116.33 67.711 116.487 67.9826C116.644 68.2828 116.673 68.4544 116.558 68.7689C116.473 68.9833 116.23 69.2549 116.016 69.3407C115.673 69.5122 115.459 69.4551 113.816 68.7546C112.802 68.34 111.345 67.7825 110.56 67.5395C109.774 67.2821 108.618 66.9533 107.989 66.8104C107.361 66.6531 106.147 66.4244 105.276 66.2815C104.119 66.0956 102.862 66.0241 100.491 66.0241C98.0774 66.0241 96.8634 66.0956 95.6352 66.2815C94.7354 66.4244 93.1643 66.7532 92.136 67.0248C91.1077 67.2821 89.6367 67.7253 88.8511 68.0112C88.0656 68.2971 86.5232 68.9833 85.4234 69.5265C84.3237 70.0698 82.7812 70.9418 81.9957 71.4707C81.2102 71.9997 80.1105 72.7859 79.5678 73.2291C79.025 73.6579 77.8968 74.6586 77.0827 75.4592C76.2686 76.2454 75.0975 77.532 74.469 78.3183C73.8406 79.1045 73.2265 79.8336 73.0837 79.9337C72.9551 80.0337 72.6838 80.1052 72.4553 80.1052C72.1982 80.1052 71.9744 79.9718 71.784 79.7049C71.6126 79.4905 71.4841 79.2189 71.4841 79.1045C71.4841 78.9902 71.6555 78.6328 71.8697 78.3183C72.0696 78.0038 72.5838 77.3319 72.998 76.8172C73.4122 76.3026 74.4262 75.2162 75.2403 74.4013C76.0401 73.5865 77.354 72.3999 78.1396 71.7709C78.9251 71.1419 80.1819 70.2127 80.9246 69.7267C81.6672 69.2406 83.024 68.4544 83.9238 67.9683C84.8236 67.4966 86.3089 66.8104 87.2087 66.453C88.1085 66.0956 89.5938 65.581 90.4936 65.3094C91.3934 65.052 92.7216 64.7232 93.4214 64.5946C94.1212 64.4659 95.3209 64.2658 96.0636 64.1514C97.0062 64.0228 98.4916 63.9799 100.92 64.0085ZM101.062 68.2971C102.89 68.3257 104.476 68.4258 104.747 68.5116C104.99 68.5973 105.261 68.7975 105.347 68.9547C105.433 69.112 105.49 69.3836 105.49 69.5551C105.49 69.741 105.347 70.0269 104.847 70.5272L102.633 70.3557C100.92 70.227 99.9484 70.227 98.3488 70.3557C97.2062 70.4557 95.5066 70.6845 94.564 70.8846C93.6214 71.0705 92.1789 71.4564 91.3505 71.728C90.5222 71.9997 89.3082 72.4571 88.6369 72.743C87.9657 73.0289 86.9373 73.5293 86.3518 73.8438C85.7662 74.1726 84.7379 74.8016 84.0666 75.2447C83.3954 75.6879 82.2671 76.5456 81.5673 77.1318C80.8532 77.7322 79.782 78.7328 79.1679 79.3761C78.568 80.0051 77.5826 81.1917 76.9827 81.9922C76.3829 82.8071 75.6545 83.8792 75.3545 84.3939C75.0546 84.9085 74.5262 85.9092 74.1691 86.6097C73.8264 87.3102 73.2979 88.511 73.0266 89.2543C72.7409 89.9977 72.3267 91.3844 72.0982 92.3279C71.8697 93.2714 71.5841 94.6581 71.4841 95.4014C71.3698 96.202 71.2984 97.8888 71.2984 99.4756C71.3127 100.962 71.3841 102.606 71.4698 103.121C71.5555 103.636 71.7269 104.736 71.8554 105.58C72.0125 106.752 72.0411 107.381 71.9268 108.153C71.8554 108.725 71.684 109.554 71.5555 109.983C71.427 110.412 71.0985 111.212 70.8128 111.77C70.5129 112.327 69.9987 113.071 69.6417 113.442C69.2561 113.857 68.8705 114.129 68.6705 114.129C68.4991 114.129 68.1992 113.971 67.9992 113.771C67.7993 113.571 67.6422 113.271 67.6422 113.085C67.6422 112.913 67.9278 112.384 68.2849 111.913C68.6419 111.441 69.0704 110.769 69.2418 110.412C69.4132 110.054 69.6417 109.44 69.7417 109.054C69.8416 108.653 69.9273 107.924 69.9273 107.41C69.9273 106.895 69.7845 105.68 69.6131 104.694C69.3418 103.192 69.2989 102.378 69.2989 99.5471C69.2989 96.9453 69.356 95.8589 69.5417 94.7581C69.6845 93.9719 69.9987 92.5852 70.2273 91.6846C70.4701 90.784 70.8842 89.4259 71.1699 88.6825C71.4412 87.9392 72.0982 86.4953 72.6124 85.466C73.1408 84.4368 73.9406 83.0215 74.4119 82.321C74.8689 81.6205 75.783 80.3911 76.4257 79.6049C77.0827 78.8186 78.1396 77.6607 78.7965 77.0317C79.4535 76.3884 80.3533 75.5878 80.7817 75.2162C81.2102 74.8588 82.2671 74.0868 83.1383 73.5007C84.0095 72.9146 85.4806 72.0568 86.4232 71.5708C87.3658 71.099 88.7797 70.4557 89.5653 70.1698C90.3508 69.8696 91.8218 69.4265 92.8501 69.1691C93.8785 68.8975 95.4066 68.5973 96.2778 68.4687C97.4347 68.3114 98.7058 68.2685 101.062 68.2971ZM109.56 69.6695C109.76 69.6695 110.546 69.8982 111.317 70.1841C112.074 70.47 113.374 71.0419 114.202 71.4564C115.03 71.8567 116.216 72.5143 116.844 72.9003C117.473 73.2863 118.529 74.0296 119.201 74.53C119.872 75.0303 121.172 76.1882 122.114 77.1032C123.043 78.0038 124.185 79.2332 124.671 79.8193C125.142 80.4054 125.985 81.5634 126.527 82.3925C127.07 83.2216 127.884 84.6369 128.341 85.5375C128.798 86.4381 129.384 87.7962 129.669 88.5396C129.941 89.2829 130.369 90.5981 130.598 91.4702C130.841 92.3422 131.198 94.0005 131.398 95.187C131.598 96.3592 131.855 98.1605 131.983 99.1897C132.097 100.205 132.269 102.392 132.354 104.05C132.483 106.28 132.483 107.853 132.369 110.126C132.269 111.813 132.126 113.871 132.026 114.7C131.897 115.787 131.783 116.273 131.598 116.444C131.455 116.587 131.126 116.702 130.883 116.702C130.583 116.716 130.312 116.602 130.126 116.402C129.841 116.116 129.841 116.058 130.055 113.8C130.198 112.313 130.269 109.868 130.269 106.981C130.269 104.265 130.198 101.792 130.084 100.762C129.984 99.8187 129.769 98.1748 129.598 97.1169C129.441 96.059 129.155 94.4436 128.97 93.543C128.784 92.6424 128.398 91.1985 128.113 90.3265C127.827 89.4545 127.356 88.2108 127.056 87.5389C126.77 86.867 126.199 85.7377 125.799 85.0372C125.399 84.3367 124.699 83.2216 124.242 82.5783C123.785 81.935 122.9 80.82 122.271 80.0909C121.643 79.3619 120.443 78.1753 119.615 77.4748C118.786 76.7601 117.53 75.788 116.83 75.3162C116.13 74.8445 114.659 74.001 113.559 73.4578C112.459 72.9003 110.96 72.2141 110.217 71.9568C109.46 71.6709 108.832 71.3421 108.76 71.1991C108.689 71.0705 108.632 70.7988 108.632 70.5987C108.632 70.3986 108.76 70.1127 108.918 69.9554C109.075 69.7982 109.36 69.6695 109.56 69.6695ZM120.243 70.1127C120.3 70.0984 120.486 70.1698 120.672 70.2556C120.843 70.3557 121.529 70.8417 122.2 71.3707C122.871 71.8853 124.214 73.0718 125.185 74.0296C126.156 74.9731 127.441 76.3598 128.041 77.1032C128.641 77.8465 129.555 79.1045 130.084 79.8908C130.598 80.677 131.383 81.9922 131.812 82.8214C132.255 83.6505 132.826 84.837 133.097 85.466C133.369 86.095 133.854 87.4102 134.168 88.3966C134.497 89.383 134.882 90.7268 135.04 91.3987C135.211 92.0706 135.439 93.2285 135.554 93.9719C135.668 94.7152 135.839 96.3878 135.925 97.6887C136.025 99.347 136.025 100.162 135.925 100.433C135.839 100.662 135.625 100.934 135.454 101.048C135.225 101.205 134.997 101.234 134.711 101.163C134.483 101.091 134.211 100.919 134.111 100.762C134.011 100.591 133.911 99.59 133.868 98.189C133.811 96.8882 133.654 95.1298 133.468 94.1148C133.311 93.1284 132.94 91.5273 132.669 90.5409C132.397 89.5546 131.912 88.0535 131.569 87.1815C131.226 86.3095 130.669 85.0658 130.341 84.3939C129.998 83.722 129.37 82.5926 128.927 81.8922C128.498 81.1917 127.656 79.9623 127.07 79.176C126.499 78.3898 125.142 76.8744 124.071 75.8166C123 74.7587 121.5 73.4149 120.743 72.8431C119.729 72.0997 119.315 71.6995 119.258 71.4135C119.201 71.1991 119.243 70.8846 119.358 70.6988C119.458 70.5272 119.672 70.3128 119.829 70.2413C120 70.1698 120.172 70.1127 120.243 70.1127ZM100.92 72.6001C102.219 72.6287 103.862 72.7573 104.561 72.8717C105.276 72.9861 106.49 73.2577 107.275 73.4578C108.061 73.6722 109.417 74.1297 110.274 74.4728C111.146 74.8302 112.388 75.4163 113.059 75.7737C113.731 76.1311 114.759 76.7458 115.344 77.146C115.93 77.5463 116.744 78.1181 117.13 78.4326C117.53 78.7471 118.444 79.5906 119.172 80.3054C119.915 81.0201 120.886 82.0637 121.329 82.6069C121.786 83.1502 122.543 84.1937 123 84.8942C123.471 85.5947 124.199 86.8813 124.614 87.7533C125.042 88.6253 125.67 90.1979 126.013 91.2557C126.399 92.4137 126.813 94.1005 127.056 95.4729C127.27 96.7309 127.413 97.8602 127.37 97.9746C127.327 98.089 127.199 98.3034 127.07 98.4464C126.942 98.5893 126.656 98.6894 126.413 98.6894C126.185 98.6894 125.913 98.6322 125.828 98.575C125.742 98.5178 125.599 98.3463 125.528 98.189C125.442 98.0318 125.328 97.6172 125.285 97.2598C125.228 96.9025 125.028 95.816 124.828 94.8296C124.628 93.8432 124.242 92.3708 123.971 91.5416C123.7 90.7125 123.143 89.3687 122.757 88.5396C122.357 87.7104 121.543 86.2952 120.943 85.3946C120.143 84.1794 119.372 83.2645 118.001 81.8922C116.958 80.8486 115.53 79.6049 114.773 79.0616C114.031 78.5327 112.574 77.6893 111.56 77.1889C110.546 76.6743 109.06 76.0596 108.275 75.8166C107.489 75.5735 106.275 75.2447 105.561 75.0875C104.861 74.9445 103.433 74.7444 102.419 74.6586C100.991 74.5157 100.134 74.5157 98.7058 74.6586C97.6918 74.7444 96.2064 74.9588 95.4209 75.1161C94.6354 75.2733 93.3786 75.6021 92.6359 75.8309C91.8932 76.0739 90.3793 76.7172 89.2796 77.2604C88.1799 77.8036 86.666 78.6757 85.9233 79.2046C85.1806 79.7478 83.7953 80.9487 82.8527 81.8922C81.91 82.8357 80.7103 84.2223 80.1676 84.9657C79.6392 85.7091 78.768 87.2244 78.211 88.3251C77.6682 89.4259 76.997 91.0699 76.7256 91.9705C76.4543 92.8711 76.1401 94.0291 76.0544 94.5437C75.9401 95.1441 75.7544 95.5873 75.5545 95.7874C75.3688 95.9732 75.1117 96.1162 74.9689 96.1162C74.8261 96.1305 74.5405 96.0018 74.3262 95.8303C73.9977 95.6016 73.9263 95.43 73.9263 94.9726C73.9263 94.6581 74.1263 93.6431 74.3691 92.7139C74.5976 91.799 75.0975 90.3408 75.4402 89.4688C75.7973 88.5968 76.3543 87.4102 76.6685 86.8241C76.997 86.238 77.6825 85.1087 78.2252 84.3224C78.7537 83.5361 79.7249 82.2781 80.3818 81.5348C81.0531 80.7914 82.2242 79.6335 83.0098 78.9902C83.781 78.3326 85.0093 77.4034 85.7091 76.9316C86.4232 76.4599 87.7657 75.7022 88.7083 75.2447C89.6509 74.7873 91.1077 74.1726 91.9646 73.901C92.8073 73.6151 94.1498 73.2577 94.9639 73.1004C95.7637 72.9432 96.9063 72.743 97.4918 72.6715C98.0774 72.6001 99.6199 72.5715 100.92 72.6001ZM101.062 76.903C102.305 76.9316 103.705 77.0746 104.561 77.2461C105.347 77.4034 106.532 77.7036 107.204 77.9037C107.875 78.1038 109.132 78.6042 109.989 79.0188C110.86 79.4333 112.045 80.0766 112.631 80.4483C113.216 80.8343 113.988 81.3775 114.33 81.6634C114.673 81.9493 115.002 82.3067 115.059 82.464C115.116 82.6212 115.102 82.9071 115.045 83.1073C114.973 83.3074 114.759 83.5504 114.559 83.6505C114.359 83.7363 114.116 83.8221 114.031 83.8221C113.931 83.8221 113.331 83.4504 112.702 82.9929C112.074 82.5212 111.046 81.8636 110.417 81.5062C109.789 81.1631 108.789 80.677 108.203 80.434C107.618 80.191 106.69 79.8622 106.133 79.6906C105.59 79.5334 104.561 79.3047 103.847 79.176C103.09 79.0473 101.719 78.9616 100.491 78.9616C99.2771 78.9616 97.8917 79.0473 97.1348 79.176C96.4349 79.3047 95.4066 79.5191 94.8496 79.6764C94.3069 79.8336 93.3643 80.1481 92.7787 80.3911C92.1932 80.6342 91.5219 80.82 91.2934 80.7914C91.0363 80.7628 90.7649 80.5913 90.5793 80.3482C90.3365 80.0337 90.3079 79.8908 90.4222 79.5763C90.5079 79.3619 90.8221 79.0331 91.1363 78.8615C91.4505 78.6757 92.3788 78.3183 93.2072 78.0467C94.0356 77.775 95.1924 77.4605 95.778 77.3319C96.3635 77.2032 97.3347 77.0317 97.9203 76.9602C98.5059 76.8887 99.9198 76.8601 101.062 76.903ZM100.92 81.1917C101.662 81.2346 102.862 81.3632 103.562 81.4776C104.276 81.6062 105.433 81.8922 106.133 82.1352C106.847 82.3639 108.032 82.8785 108.775 83.2645C109.517 83.6505 110.674 84.3796 111.345 84.8799C112.017 85.3803 113.016 86.2666 113.559 86.8384C114.116 87.4245 114.845 88.2823 115.202 88.754C115.544 89.2258 116.087 90.0692 116.401 90.6124C116.701 91.1557 117.144 92.0706 117.373 92.6138C117.601 93.157 117.944 94.2006 118.129 94.9011C118.315 95.6016 118.644 97.317 118.829 98.6894C119.029 100.062 119.258 102.063 119.343 103.121C119.415 104.179 119.486 106.023 119.486 107.195C119.486 108.382 119.415 110.212 119.343 111.269C119.272 112.327 119.101 113.943 118.972 114.843C118.829 115.887 118.658 116.616 118.501 116.845C118.344 117.059 118.072 117.216 117.83 117.245C117.572 117.274 117.273 117.188 117.058 117.016C116.787 116.802 116.701 116.602 116.73 116.244C116.744 115.987 116.858 115.001 116.973 114.057C117.101 113.114 117.273 111.212 117.358 109.84C117.473 108.053 117.473 106.566 117.358 104.622C117.273 103.135 117.101 101.134 116.987 100.19C116.858 99.2469 116.601 97.6744 116.401 96.688C116.187 95.7016 115.844 94.3864 115.616 93.7574C115.387 93.1284 114.945 92.1563 114.659 91.6131C114.359 91.0699 113.831 90.2264 113.488 89.7547C113.145 89.2829 112.388 88.4109 111.788 87.8248C111.188 87.2244 110.089 86.3381 109.346 85.852C108.603 85.366 107.546 84.7656 106.989 84.5368C106.447 84.3081 105.376 83.9507 104.633 83.7506C103.605 83.4647 102.805 83.3503 101.348 83.2931C100.134 83.2359 98.9772 83.2788 98.2059 83.3932C97.5347 83.479 96.4492 83.722 95.778 83.9078C95.1067 84.108 93.9213 84.5797 93.1358 84.9514C92.3503 85.3374 91.1934 86.0236 90.565 86.4953C89.9366 86.9671 89.0082 87.7962 88.5084 88.3394C88.0085 88.8827 87.2373 89.8691 86.7945 90.5409C86.3518 91.2128 85.7519 92.2993 85.4806 92.9712C85.1949 93.6431 84.8236 94.7295 84.6522 95.4014C84.4237 96.2449 84.3094 97.2312 84.2523 98.6179C84.1809 100.348 84.2095 100.877 84.5094 102.478C84.795 104.022 84.8521 104.808 84.8521 107.081C84.8521 109.726 84.8379 109.84 84.5379 110.14C84.3666 110.326 84.0381 110.469 83.7953 110.469C83.5525 110.483 83.2526 110.369 83.1097 110.226C82.8812 109.997 82.8527 109.668 82.8384 107.438C82.8384 105.38 82.767 104.579 82.4956 103.192C82.2385 101.906 82.1671 101.005 82.1671 99.5471C82.1671 98.3606 82.2528 97.1455 82.3956 96.4021C82.5242 95.7302 82.7955 94.6723 82.9955 94.0433C83.2097 93.4143 83.6239 92.3565 83.9381 91.6846C84.2523 91.0127 84.8807 89.9262 85.3235 89.2686C85.7662 88.5968 86.566 87.6104 87.0802 87.0528C87.5943 86.4953 88.4655 85.6662 89.0082 85.223C89.551 84.7799 90.5364 84.0794 91.2077 83.6791C91.879 83.2788 92.9073 82.7499 93.4928 82.5069C94.0784 82.2638 95.1781 81.9207 95.9208 81.7206C96.6635 81.5348 97.7918 81.3203 98.4202 81.2489C99.0486 81.1917 100.177 81.1631 100.92 81.1917ZM86.7231 81.6777C86.9516 81.6634 87.2944 81.7778 87.4801 81.9207C87.6943 82.0923 87.8228 82.321 87.8228 82.6069C87.8371 82.9643 87.5515 83.3074 86.0518 84.8227C84.895 85.9807 83.9524 87.0814 83.3668 87.9678C82.8669 88.7111 82.1814 89.9119 81.8529 90.6124C81.5101 91.3129 81.0674 92.4137 80.8674 93.0427C80.6675 93.6717 80.3961 94.6438 80.2676 95.187C80.139 95.7588 80.0105 97.2169 79.9677 98.6179C79.8963 100.748 79.9248 101.277 80.2247 102.978C80.4818 104.45 80.5675 105.423 80.5675 107.124C80.5532 108.696 80.4818 109.697 80.3104 110.555C80.1676 111.227 79.8534 112.327 79.6249 113.028C79.3964 113.714 78.9822 114.743 78.6966 115.301C78.4109 115.873 77.8968 116.759 77.554 117.274C77.2255 117.788 76.54 118.689 76.0401 119.275C75.5402 119.861 74.7547 120.647 74.3119 121.019C73.8692 121.405 73.355 121.705 73.1837 121.705C72.998 121.705 72.7266 121.619 72.5695 121.519C72.4124 121.405 72.241 121.148 72.1839 120.948C72.1125 120.733 72.1411 120.433 72.2125 120.276C72.2982 120.118 72.6552 119.718 73.0266 119.375C73.3836 119.046 73.9549 118.489 74.2977 118.131C74.6261 117.774 75.1689 117.131 75.4974 116.702C75.8258 116.273 76.3686 115.401 76.7113 114.772C77.0541 114.143 77.4826 113.185 77.6825 112.628C77.8825 112.07 78.1538 111.041 78.2967 110.34C78.4538 109.554 78.5537 108.382 78.5537 107.338C78.5537 106.123 78.4538 105.079 78.211 103.764C77.9396 102.263 77.8682 101.434 77.8682 99.4756C77.8682 97.56 77.9396 96.7166 78.1824 95.4729C78.3538 94.6009 78.6966 93.2857 78.9251 92.5423C79.1679 91.799 79.6963 90.5124 80.0819 89.6832C80.4818 88.8541 81.2245 87.5389 81.7529 86.7526C82.3813 85.8091 83.3097 84.7084 84.5094 83.4933C85.9804 82.0208 86.3946 81.6777 86.7231 81.6777ZM69.6131 82.6784C69.6988 82.6784 69.9273 82.7499 70.113 82.8357C70.2844 82.9357 70.4701 83.0787 70.5272 83.1645C70.5843 83.2502 70.6414 83.479 70.6414 83.6791C70.6414 83.8792 70.3129 84.7799 69.9131 85.6805C69.4989 86.5811 68.899 88.1822 68.5562 89.2115C68.2135 90.255 67.7707 91.899 67.5851 92.8568C67.3851 93.8289 67.1566 95.4157 67.0566 96.4021C66.9567 97.5315 66.9281 99.0897 66.9852 100.619C67.0281 101.963 67.1852 103.721 67.3423 104.551C67.4994 105.38 67.6993 106.523 67.9992 108.153L67.6136 108.496C67.3851 108.682 67.0852 108.839 66.9281 108.839C66.771 108.839 66.4853 108.696 66.2997 108.51C66.0712 108.301 65.8807 107.862 65.7284 107.195C65.5998 106.638 65.3999 105.58 65.2571 104.836C65.0714 103.779 65.0143 102.621 65 99.6186C65 96.5165 65.0571 95.4443 65.2571 94.1863C65.3999 93.3143 65.6713 91.9705 65.8569 91.1842C66.0426 90.398 66.3996 89.14 66.6424 88.3966C66.8995 87.6532 67.328 86.4953 67.5993 85.8234C67.8707 85.1515 68.2992 84.2366 68.5277 83.7935C68.7705 83.3503 69.0704 82.9214 69.1989 82.8357C69.3275 82.7499 69.5132 82.6784 69.6131 82.6784ZM100.248 85.5518C101.919 85.5375 101.919 85.5375 102.205 85.9235C102.376 86.1522 102.505 86.4238 102.505 86.5382C102.505 86.6526 102.376 86.9242 102.205 87.1386C101.934 87.5246 101.876 87.5389 100.562 87.5389C99.8198 87.5389 98.7058 87.639 98.106 87.7676C97.4918 87.882 96.5064 88.1822 95.9208 88.4252C95.3352 88.6539 94.464 89.0828 93.9927 89.3687C93.5214 89.6546 92.693 90.3122 92.1503 90.8269C91.6076 91.3415 90.9363 92.1135 90.6364 92.5423C90.3508 92.9712 89.908 93.7288 89.6509 94.2149C89.4081 94.7152 89.0797 95.5873 88.9083 96.1448C88.7512 96.7452 88.5798 97.846 88.5369 98.6894C88.4655 99.9188 88.5227 100.519 88.794 101.977C89.0939 103.536 89.1368 104.193 89.1368 107.124C89.1368 110.097 89.0939 110.669 88.794 112.127C88.6083 113.028 88.2084 114.543 87.8942 115.487C87.5943 116.43 87.0088 117.903 86.5803 118.775C86.1661 119.647 85.4948 120.89 85.0807 121.562C84.6522 122.234 84.0238 123.163 83.6667 123.635C83.2954 124.107 82.2956 125.222 81.4244 126.108C80.5675 126.98 79.7106 127.738 79.5392 127.781C79.3535 127.824 79.0536 127.795 78.8537 127.709C78.6537 127.624 78.4252 127.395 78.3538 127.166C78.2681 126.952 78.2395 126.68 78.2681 126.566C78.3109 126.451 79.0108 125.679 79.8248 124.85C80.6389 124.021 81.7529 122.734 82.3099 121.991C82.8669 121.248 83.6096 120.118 83.9667 119.489C84.338 118.86 84.895 117.731 85.2092 116.988C85.5377 116.244 85.9804 115.015 86.1947 114.271C86.4232 113.528 86.7231 112.27 86.8659 111.484C87.0802 110.383 87.1373 109.397 87.1373 107.195C87.1373 104.865 87.0802 104.107 86.8516 103.121C86.6231 102.177 86.566 101.391 86.566 99.5471C86.566 97.5029 86.6089 97.0311 86.8945 96.0447C87.0802 95.4157 87.4229 94.4436 87.6657 93.9004C87.9085 93.3572 88.3941 92.4422 88.7512 91.899C89.0939 91.3558 89.8795 90.398 90.4793 89.769C91.0792 89.1543 91.9504 88.3823 92.4217 88.0392C92.893 87.7104 93.6928 87.2244 94.2069 86.9671C94.7211 86.7097 95.4923 86.381 95.9208 86.2237C96.3493 86.0664 97.1205 85.8663 97.6346 85.7519C98.1488 85.6519 99.3199 85.5518 100.248 85.5518ZM117.772 85.6948C117.815 85.6948 118.001 85.7234 118.201 85.7805C118.444 85.852 118.844 86.3381 119.529 87.3959C120.058 88.2251 120.772 89.5688 121.129 90.398C121.472 91.2271 121.929 92.4851 122.128 93.1856C122.343 93.8861 122.657 95.3442 122.843 96.4021C123.028 97.46 123.3 99.2612 123.442 100.405C123.642 102.035 123.7 103.493 123.685 107.267C123.685 111.37 123.642 112.399 123.371 114.457C123.2 115.773 122.885 117.702 122.685 118.732C122.486 119.775 122.1 121.534 121.814 122.634C121.529 123.735 120.957 125.665 120.529 126.923C120.015 128.467 119.658 129.296 119.443 129.468C119.272 129.611 118.958 129.725 118.744 129.711C118.515 129.711 118.201 129.568 118.044 129.382C117.815 129.153 117.758 128.953 117.801 128.638C117.844 128.41 118.201 127.28 118.601 126.137C119.001 124.993 119.586 123.063 119.886 121.848C120.2 120.633 120.629 118.703 120.829 117.559C121.029 116.416 121.314 114.557 121.443 113.414C121.6 111.999 121.686 110.112 121.686 107.481C121.7 105.251 121.614 102.864 121.514 101.834C121.414 100.848 121.2 99.2469 121.057 98.2605C120.9 97.2741 120.657 95.8875 120.5 95.187C120.358 94.4865 120.086 93.4858 119.915 92.9712C119.743 92.4565 119.301 91.3987 118.929 90.6124C118.558 89.8262 118.001 88.7969 117.672 88.3251C117.358 87.8534 117.015 87.3102 116.93 87.11C116.787 86.8527 116.787 86.6526 116.901 86.3952C116.987 86.1951 117.201 85.9664 117.373 85.8663C117.558 85.7805 117.73 85.6948 117.772 85.6948ZM106.675 87.11C106.804 87.11 107.161 87.2244 107.461 87.3816C107.746 87.5246 108.475 88.0249 109.06 88.4967C109.646 88.9684 110.417 89.6546 110.76 90.0549C111.103 90.4409 111.617 91.1128 111.917 91.5416C112.202 91.9705 112.688 92.7996 112.974 93.3715C113.259 93.929 113.645 94.9583 113.859 95.6444C114.059 96.3449 114.373 97.9317 114.559 99.1897C114.745 100.448 114.973 102.606 115.059 103.979C115.173 105.437 115.202 107.381 115.145 108.625C115.102 109.797 114.987 111.47 114.902 112.342C114.816 113.214 114.588 114.843 114.402 115.987C114.216 117.131 113.831 118.96 113.545 120.061C113.274 121.162 112.759 122.906 112.431 123.921C112.088 124.936 111.474 126.58 111.06 127.566C110.646 128.553 109.989 129.997 109.603 130.783C109.203 131.569 108.632 132.641 108.332 133.17C108.018 133.713 107.632 134.214 107.461 134.3C107.275 134.385 106.989 134.414 106.818 134.371C106.632 134.328 106.39 134.185 106.275 134.071C106.161 133.956 106.061 133.656 106.061 133.427C106.061 133.17 106.39 132.398 106.875 131.526C107.318 130.726 107.975 129.425 108.346 128.638C108.718 127.852 109.375 126.28 109.817 125.136C110.246 123.992 110.846 122.263 111.131 121.276C111.403 120.29 111.831 118.589 112.06 117.488C112.288 116.387 112.588 114.686 112.731 113.7C112.931 112.27 112.988 110.969 112.988 107.267C112.988 103.164 112.945 102.363 112.659 100.405C112.474 99.1897 112.202 97.6029 112.045 96.9025C111.888 96.202 111.588 95.2299 111.388 94.7581C111.174 94.2864 110.746 93.4858 110.417 92.9712C110.089 92.4565 109.532 91.7132 109.175 91.3272C108.818 90.9269 107.946 90.2121 107.232 89.7118C106.475 89.1972 105.861 88.6682 105.775 88.4681C105.675 88.2251 105.675 88.0106 105.79 87.7676C105.89 87.5818 106.061 87.353 106.19 87.2673C106.318 87.1815 106.532 87.11 106.675 87.11ZM100.277 89.8405C100.991 89.8405 101.976 89.9262 102.491 90.0549C103.005 90.1693 103.876 90.4838 104.419 90.7411C104.976 90.9984 105.833 91.5273 106.332 91.9133C106.847 92.2993 107.532 92.9712 107.889 93.4C108.232 93.8289 108.703 94.5008 108.918 94.9011C109.146 95.2871 109.46 96.0304 109.632 96.5451C109.789 97.0597 110.089 98.5321 110.274 99.833C110.474 101.134 110.703 103.278 110.774 104.622C110.888 106.323 110.888 107.167 110.788 107.438C110.703 107.667 110.503 107.896 110.346 107.981C110.189 108.067 109.932 108.124 109.774 108.124C109.617 108.124 109.332 107.967 109.132 107.767C108.803 107.438 108.775 107.295 108.775 106.152C108.775 105.465 108.703 104.207 108.632 103.335C108.56 102.463 108.389 101.091 108.261 100.262C108.146 99.4328 107.918 98.2462 107.746 97.6172C107.589 96.9882 107.261 96.1019 107.018 95.6301C106.761 95.1727 106.175 94.4007 105.704 93.9433C105.133 93.3715 104.504 92.9283 103.847 92.6138C103.29 92.3565 102.505 92.0706 102.105 91.9848C101.691 91.899 100.977 91.8275 100.534 91.8275C100.077 91.8275 99.1914 91.9562 98.563 92.1135C97.9346 92.285 97.0491 92.6138 96.5778 92.8711C96.1207 93.1284 95.3781 93.7146 94.921 94.1863C94.4783 94.6581 93.9499 95.3728 93.7499 95.7588C93.55 96.1591 93.2643 96.8596 93.1358 97.3313C92.993 97.8031 92.7787 98.3034 92.6502 98.4464C92.5217 98.5893 92.2217 98.7037 91.9646 98.6894C91.6933 98.6894 91.3791 98.575 91.2077 98.4035C91.0506 98.2462 90.9221 97.946 90.9221 97.7316C90.9221 97.5029 91.0934 96.8739 91.2791 96.3306C91.4791 95.7874 91.8504 94.9869 92.1075 94.5723C92.3503 94.1434 92.893 93.4429 93.2786 93.0141C93.6785 92.5709 94.3783 91.9419 94.8496 91.5988C95.3209 91.27 96.0922 90.8126 96.5635 90.6124C97.0348 90.398 97.7775 90.1407 98.2059 90.0406C98.6344 89.9405 99.577 89.8405 100.277 89.8405ZM100.562 94.1577C101.305 94.1863 101.805 94.315 102.491 94.6295C103.005 94.8725 103.705 95.3156 104.047 95.6301C104.39 95.9304 104.819 96.445 105.004 96.7595C105.19 97.074 105.433 97.6172 105.561 97.9746C105.675 98.332 105.918 99.59 106.075 100.762C106.261 102.106 106.404 104.065 106.447 105.98C106.504 107.853 106.461 109.783 106.361 110.912C106.261 111.927 106.061 113.514 105.918 114.414C105.761 115.315 105.447 116.83 105.218 117.774C104.99 118.717 104.519 120.29 104.19 121.276C103.862 122.263 103.276 123.807 102.89 124.707C102.505 125.608 101.734 127.195 101.177 128.21C100.634 129.225 99.6341 130.869 98.9915 131.855C98.3345 132.841 97.549 133.914 97.249 134.242C96.9491 134.571 96.5778 134.857 96.4207 134.857C96.2636 134.857 95.9636 134.743 95.7494 134.571C95.4495 134.357 95.3495 134.171 95.3495 133.828C95.3638 133.47 95.5923 133.042 96.2636 132.141C96.7777 131.469 97.5632 130.311 98.0345 129.568C98.4916 128.824 99.2342 127.538 99.677 126.709C100.105 125.879 100.762 124.507 101.134 123.635C101.505 122.763 102.019 121.419 102.291 120.633C102.562 119.847 103.005 118.303 103.276 117.202C103.547 116.101 103.905 114.271 104.076 113.128C104.347 111.398 104.404 110.44 104.404 107.338C104.404 104.236 104.362 103.264 104.09 101.477C103.919 100.305 103.676 98.9753 103.547 98.5464C103.419 98.1176 103.162 97.5457 102.976 97.3027C102.79 97.0454 102.376 96.7023 102.062 96.5451C101.748 96.3878 101.248 96.2163 100.962 96.1734C100.662 96.1162 100.105 96.1591 99.7056 96.2449C99.3199 96.3306 98.7201 96.5879 98.3916 96.831C98.0488 97.0597 97.6632 97.5029 97.5061 97.8031C97.3633 98.089 97.2062 98.5035 97.1491 98.7323C97.1062 98.9467 97.1919 99.9045 97.349 100.877C97.5061 101.834 97.6918 103.321 97.7775 104.193C97.8489 105.065 97.9203 106.395 97.9203 107.167C97.9203 107.924 97.8489 109.34 97.7632 110.312C97.6775 111.269 97.4918 112.699 97.3347 113.485C97.1348 114.6 96.992 114.972 96.7492 115.172C96.5635 115.315 96.2778 115.429 96.1065 115.415C95.9208 115.415 95.6066 115.244 95.3924 115.029C95.0781 114.686 95.0353 114.557 95.121 114.129C95.1781 113.857 95.3209 113.114 95.4352 112.485C95.5637 111.827 95.678 110.011 95.7351 108.196C95.7923 106.18 95.7494 104.536 95.6494 103.621C95.5637 102.835 95.3781 101.677 95.2495 101.048C95.1353 100.419 95.0639 99.5614 95.0924 99.1183C95.1353 98.6751 95.3495 97.9174 95.578 97.4028C95.8208 96.8882 96.2636 96.1877 96.5778 95.8446C96.8777 95.5015 97.4204 95.0583 97.7775 94.8582C98.1345 94.6438 98.6772 94.4007 98.9915 94.3007C99.3057 94.2006 100.005 94.1434 100.562 94.1577ZM100.391 98.4178C100.448 98.4035 100.648 98.4893 100.848 98.5893C101.048 98.6751 101.277 98.9181 101.348 99.1183C101.419 99.3184 101.577 100.062 101.691 100.762C101.819 101.463 101.991 102.849 102.076 103.836C102.176 104.908 102.205 106.709 102.162 108.339C102.105 109.826 101.976 111.727 101.848 112.556C101.719 113.385 101.462 114.758 101.277 115.63C101.091 116.502 100.762 117.788 100.562 118.489C100.348 119.189 99.9626 120.39 99.677 121.133C99.4056 121.877 98.7772 123.335 98.2916 124.35C97.806 125.365 97.0634 126.794 96.6349 127.495C96.2207 128.195 95.5209 129.296 95.0781 129.925C94.6497 130.554 93.8356 131.655 93.2786 132.355C92.7073 133.056 92.1503 133.685 92.0218 133.756C91.879 133.813 91.6219 133.856 91.4219 133.856C91.222 133.856 90.9363 133.728 90.7792 133.57C90.6221 133.413 90.4936 133.099 90.4936 132.856C90.4936 132.541 90.7078 132.184 91.2505 131.54C91.679 131.04 92.4217 130.097 92.9073 129.425C93.4071 128.753 94.1641 127.624 94.6068 126.923C95.0353 126.223 95.8637 124.679 96.435 123.492C97.0062 122.32 97.7346 120.576 98.0631 119.632C98.3773 118.689 98.8058 117.302 98.9915 116.559C99.1771 115.815 99.4628 114.457 99.6341 113.557C99.7912 112.656 99.9912 110.855 100.091 109.554C100.205 107.767 100.205 106.638 100.091 104.908C99.9912 103.65 99.7912 101.892 99.6341 101.02C99.3913 99.6901 99.3771 99.347 99.5342 99.0468C99.6199 98.8466 99.8341 98.6322 99.9912 98.5607C100.148 98.4893 100.32 98.4178 100.391 98.4178ZM74.6119 99.4185C74.6976 99.4042 74.9546 99.5471 75.1546 99.733C75.4831 100.019 75.5402 100.19 75.6402 101.406C75.7116 102.149 75.8687 103.307 75.983 103.979C76.1115 104.651 76.2543 105.708 76.2972 106.337C76.3543 106.981 76.3114 108.053 76.2257 108.768C76.1258 109.468 75.8544 110.64 75.6259 111.341C75.3974 112.041 74.9689 113.085 74.669 113.657C74.3834 114.229 73.8549 115.086 73.4979 115.572C73.1408 116.058 72.4553 116.83 71.9697 117.288C71.3698 117.86 70.9556 118.131 70.7128 118.131C70.5129 118.131 70.1987 117.96 69.9702 117.745C69.6703 117.417 69.6131 117.259 69.6988 116.916C69.7559 116.659 70.0702 116.259 70.4701 115.901C70.8414 115.587 71.4698 114.872 71.8697 114.329C72.2839 113.785 72.798 112.956 73.0408 112.485C73.2693 112.013 73.6121 111.184 73.7835 110.626C73.9977 109.94 74.1263 109.111 74.1691 107.981C74.2263 106.723 74.1834 105.909 73.9549 104.479C73.7835 103.464 73.6121 102.106 73.555 101.477C73.4836 100.634 73.5121 100.248 73.655 100.005C73.7549 99.8187 73.9692 99.6186 74.1406 99.5471C74.2977 99.4756 74.5119 99.4185 74.6119 99.4185ZM92.3788 102.149C92.6502 102.177 92.9216 102.335 93.0787 102.549C93.2786 102.821 93.3786 103.378 93.5071 104.979C93.6357 106.566 93.6357 107.567 93.5071 109.197C93.4071 110.383 93.2072 112.013 93.0501 112.842C92.8787 113.671 92.5359 115.086 92.2789 115.987C92.0218 116.888 91.4648 118.431 91.0506 119.418C90.6221 120.404 89.8652 121.934 89.351 122.835C88.8369 123.721 87.9085 125.136 87.2801 125.98C86.6517 126.809 85.5377 128.124 84.7807 128.896C83.6096 130.082 83.3525 130.282 82.9669 130.282C82.6241 130.282 82.4242 130.182 82.21 129.897C82.0386 129.668 81.91 129.382 81.9243 129.253C81.9243 129.11 82.4528 128.438 83.0954 127.752C83.7381 127.052 84.6522 126.008 85.1235 125.422C85.5805 124.836 86.3518 123.764 86.8231 123.063C87.2801 122.363 88.0085 121.105 88.4227 120.276C88.8369 119.446 89.4081 118.131 89.7081 117.345C90.008 116.559 90.4365 115.172 90.665 114.271C90.8792 113.371 91.1791 111.856 91.2934 110.912C91.4648 109.611 91.5076 108.525 91.4362 106.409C91.3934 104.879 91.322 103.45 91.2791 103.235C91.222 102.935 91.2934 102.749 91.5647 102.463C91.8361 102.206 92.0503 102.12 92.3788 102.149ZM126.899 102.12C127.099 102.106 127.427 102.235 127.984 102.664V107.438C127.984 110.426 127.913 112.828 127.798 113.914C127.684 114.858 127.427 116.716 127.199 118.06C126.97 119.404 126.599 121.348 126.356 122.391C126.028 123.807 125.828 124.35 125.599 124.564C125.413 124.722 125.113 124.85 124.914 124.85C124.714 124.85 124.414 124.707 124.228 124.521C124.057 124.35 123.914 124.064 123.914 123.892C123.914 123.707 124.071 122.935 124.257 122.177C124.456 121.405 124.742 120.104 124.899 119.275C125.056 118.446 125.285 117.102 125.399 116.273C125.513 115.444 125.699 114.1 125.785 113.271C125.885 112.442 125.985 109.711 125.999 107.195C126.042 103.135 126.07 102.592 126.285 102.378C126.413 102.235 126.699 102.12 126.899 102.12ZM109.46 111.555C109.674 111.555 109.989 111.655 110.174 111.77C110.431 111.941 110.489 112.113 110.489 112.699C110.489 113.099 110.36 114.171 110.203 115.101C110.046 116.016 109.717 117.574 109.489 118.56C109.246 119.547 108.789 121.148 108.475 122.134C108.146 123.12 107.589 124.636 107.247 125.493C106.889 126.366 106.19 127.909 105.675 128.924C105.161 129.939 104.29 131.526 103.747 132.427C103.205 133.327 102.591 134.285 102.405 134.543C102.134 134.9 101.962 135 101.562 135C101.248 135 100.948 134.886 100.777 134.714C100.62 134.557 100.491 134.271 100.491 134.071C100.491 133.871 100.834 133.184 101.248 132.541C101.676 131.884 102.319 130.84 102.676 130.211C103.033 129.582 103.776 128.138 104.319 126.995C104.876 125.851 105.618 124.078 105.99 123.063C106.361 122.048 106.875 120.404 107.147 119.418C107.418 118.431 107.789 116.788 107.989 115.773C108.175 114.758 108.375 113.528 108.432 113.056C108.503 112.57 108.66 112.056 108.818 111.884C108.975 111.684 109.246 111.555 109.46 111.555ZM82.4385 113.986C82.7384 113.986 83.0383 114.1 83.2097 114.271C83.3668 114.429 83.4953 114.729 83.4953 114.958C83.4953 115.172 83.1669 116.016 82.767 116.845C82.3671 117.674 81.7101 118.86 81.2959 119.489C80.8817 120.118 80.0676 121.219 79.4678 121.92C78.8679 122.634 78.011 123.535 77.554 123.935C77.0827 124.336 76.5685 124.736 76.3971 124.822C76.1686 124.936 75.9544 124.95 75.683 124.85C75.4545 124.779 75.1974 124.55 75.1117 124.35C75.0118 124.15 74.9261 123.892 74.9261 123.778C74.9261 123.664 75.7116 122.777 76.6828 121.82C77.8825 120.619 78.7537 119.604 79.3964 118.632C79.9105 117.845 80.6389 116.559 81.0103 115.773C81.3673 114.986 81.7386 114.257 81.8101 114.171C81.8957 114.071 82.1671 113.986 82.4385 113.986ZM94.564 118.703C94.8211 118.689 95.1067 118.817 95.2781 119.003C95.4352 119.175 95.5495 119.475 95.5352 119.675C95.5209 119.89 95.2781 120.604 94.9925 121.276C94.7068 121.948 94.1641 123.078 93.7928 123.778C93.4214 124.493 92.7359 125.651 92.2789 126.351C91.8218 127.066 91.0649 128.152 90.5793 128.781C90.108 129.41 89.2796 130.425 88.7512 131.04C88.1513 131.712 87.6229 132.184 87.3944 132.241C87.1659 132.298 86.8945 132.327 86.7802 132.298C86.666 132.284 86.4517 132.155 86.3089 132.027C86.1661 131.884 86.0518 131.583 86.0661 131.326C86.0661 130.94 86.2518 130.654 87.0373 129.811C87.5658 129.239 88.5084 128.095 89.1368 127.252C89.7652 126.423 90.5793 125.236 90.9506 124.621C91.3077 123.992 91.9361 122.849 92.3217 122.063C92.7216 121.276 93.1786 120.276 93.35 119.847C93.5071 119.418 93.7642 118.975 93.8927 118.889C94.0213 118.789 94.3212 118.703 94.564 118.703ZM116.53 120.576C116.587 120.562 116.787 120.647 116.987 120.747C117.187 120.833 117.415 121.076 117.501 121.276C117.63 121.562 117.544 122.005 117.058 123.635C116.73 124.736 116.159 126.437 115.773 127.423C115.402 128.41 114.787 129.882 114.416 130.711C114.045 131.54 113.645 132.327 113.516 132.47C113.374 132.613 113.074 132.727 112.802 132.713C112.545 132.713 112.231 132.598 112.06 132.427C111.902 132.27 111.774 131.998 111.774 131.826C111.774 131.641 112.074 130.826 112.459 129.997C112.845 129.167 113.459 127.724 113.816 126.78C114.173 125.837 114.702 124.293 114.987 123.349C115.273 122.406 115.559 121.476 115.63 121.276C115.702 121.076 115.916 120.847 116.087 120.747C116.273 120.662 116.458 120.576 116.516 120.576H116.53Z" fill="#F35423"/>
<path d="M140.919 59.5576H61.5586V140.43H140.919V59.5576Z" stroke="black" stroke-width="3.02326"/>
<circle cx="140.164" cy="59.5581" r="8.31395" fill="#F35423" stroke="#7F1E00" stroke-width="1.51163"/>
<circle cx="140.164" cy="139.674" r="8.31395" fill="#F35423" stroke="#7F1E00" stroke-width="1.51163"/>
<circle cx="61.5581" cy="139.674" r="8.31395" fill="#F35423" stroke="#7F1E00" stroke-width="1.51163"/>
<circle cx="61.5581" cy="59.5581" r="8.31395" fill="#F35423" stroke="#7F1E00" stroke-width="1.51163"/>
<path d="M303.153 59.5576H223.793V140.43H303.153V59.5576Z" stroke="black" stroke-width="3.02326"/>
<path d="M214.723 98.3945C252.856 63.0523 274.589 62.4205 312.223 98.3945C276.723 134.459 254.976 134.594 214.723 98.3945Z" fill="#FFC3B1"/>
<circle cx="263.094" cy="98.8598" r="25.6977" fill="#F35423"/>
<mask id="path-10-inside-1_1813_4626" fill="white">
<path d="M261.457 80.6232C261.39 79.8856 260.738 79.3368 260.006 79.4531C256.038 80.0846 252.357 81.9185 249.462 84.7063C248.929 85.22 248.974 86.0717 249.523 86.5688C250.072 87.0658 250.916 87.0194 251.455 86.5115C253.889 84.2168 256.949 82.6923 260.247 82.1311C260.977 82.0069 261.523 81.3607 261.457 80.6232Z"/>
</mask>
<path d="M261.457 80.6232C261.39 79.8856 260.738 79.3368 260.006 79.4531C256.038 80.0846 252.357 81.9185 249.462 84.7063C248.929 85.22 248.974 86.0717 249.523 86.5688C250.072 87.0658 250.916 87.0194 251.455 86.5115C253.889 84.2168 256.949 82.6923 260.247 82.1311C260.977 82.0069 261.523 81.3607 261.457 80.6232Z" stroke="white" stroke-width="3.02326" mask="url(#path-10-inside-1_1813_4626)"/>
<mask id="path-11-inside-2_1813_4626" fill="white">
<path d="M247.569 89.1533C246.941 88.7607 246.109 88.9496 245.76 89.6027C245.015 90.999 244.441 92.4802 244.05 94.0142C243.868 94.7318 244.355 95.4318 245.083 95.5651C245.811 95.6983 246.505 95.214 246.695 94.4984C247.015 93.2957 247.466 92.1318 248.041 91.0278C248.382 90.3709 248.197 89.5458 247.569 89.1533Z"/>
</mask>
<path d="M247.569 89.1533C246.941 88.7607 246.109 88.9496 245.76 89.6027C245.015 90.999 244.441 92.4802 244.05 94.0142C243.868 94.7318 244.355 95.4318 245.083 95.5651C245.811 95.6983 246.505 95.214 246.695 94.4984C247.015 93.2957 247.466 92.1318 248.041 91.0278C248.382 90.3709 248.197 89.5458 247.569 89.1533Z" stroke="white" stroke-width="3.02326" mask="url(#path-11-inside-2_1813_4626)"/>
<circle cx="263.095" cy="98.8597" r="10.5814" fill="#7F1E00"/>
<circle cx="260.072" cy="95.8367" r="3.02326" fill="white"/>
<circle cx="302.398" cy="59.5581" r="8.31395" fill="#F35423" stroke="#7F1E00" stroke-width="1.51163"/>
<circle cx="302.398" cy="139.674" r="8.31395" fill="#F35423" stroke="#7F1E00" stroke-width="1.51163"/>
<circle cx="223.793" cy="139.674" r="8.31395" fill="#F35423" stroke="#7F1E00" stroke-width="1.51163"/>
<circle cx="223.793" cy="59.5581" r="8.31395" fill="#F35423" stroke="#7F1E00" stroke-width="1.51163"/>
<path d="M466.142 59.5586H386.781V140.431H466.142V59.5586Z" stroke="black" stroke-width="3.02326"/>
<circle cx="465.386" cy="59.5581" r="8.31395" fill="#F35423" stroke="#7F1E00" stroke-width="1.51163"/>
<circle cx="465.386" cy="139.674" r="8.31395" fill="#F35423" stroke="#7F1E00" stroke-width="1.51163"/>
<circle cx="386.781" cy="139.674" r="8.31395" fill="#F35423" stroke="#7F1E00" stroke-width="1.51163"/>
<circle cx="386.781" cy="59.5581" r="8.31395" fill="#F35423" stroke="#7F1E00" stroke-width="1.51163"/>
<path d="M412.822 127.079V111.458L426.212 103.927V119.548L412.822 127.079Z" fill="#F35423" stroke="black" stroke-linejoin="round"/>
<path d="M426.211 103.927L412.821 111.458L399.711 103.927L412.821 96.1162L426.211 103.927Z" fill="white" stroke="black" stroke-linejoin="round"/>
<path d="M399.711 103.927L412.821 111.458V127.079L399.711 119.548V103.927Z" fill="#FFC3B1" stroke="black" stroke-linejoin="round"/>
<path d="M426.322 104.079V88.4583L439.712 80.9268V96.5478L426.322 104.079Z" fill="#F35423" stroke="black" stroke-linejoin="round"/>
<path d="M439.711 80.9267L426.321 88.4583L413.211 80.9267L426.321 73.1162L439.711 80.9267Z" fill="white" stroke="black" stroke-linejoin="round"/>
<path d="M413.211 80.9268L426.321 88.4583V104.079L413.211 96.5478V80.9268Z" fill="#FFC3B1" stroke="black" stroke-linejoin="round"/>
<path d="M439.822 127.079V111.458L453.212 103.927V119.548L439.822 127.079Z" fill="#F35423" stroke="black" stroke-linejoin="round"/>
<path d="M453.211 103.927L439.821 111.458L426.711 103.927L439.821 96.1162L453.211 103.927Z" fill="white" stroke="black" stroke-linejoin="round"/>
<path d="M426.711 103.927L439.821 111.458V127.079L426.711 119.548V103.927Z" fill="#FFC3B1" stroke="black" stroke-linejoin="round"/>
</svg>
