<svg width="526" height="200" viewBox="0 0 526 200" fill="none" xmlns="http://www.w3.org/2000/svg">
<rect width="526" height="200" fill="white"/>
<path d="M267.242 28.7476C267.733 28.4937 268.41 28.2061 268.731 28.1214C269.086 28.0199 273.097 27.9691 287.938 28.0199L289.038 28.5445C289.647 28.8322 290.459 29.4075 290.865 29.8136C291.271 30.2198 291.813 30.9813 292.05 31.4889C292.473 32.3519 292.507 32.6227 292.591 35.2964C292.642 37.2762 292.743 38.3085 292.913 38.5962C293.031 38.8331 293.336 39.2223 294.029 39.9499H293.353C292.98 39.9499 292.405 39.8653 292.083 39.7638C291.762 39.6453 291.305 39.3915 290.645 38.7823L288.124 40.0345H268.477L267.462 39.5269C266.904 39.2561 266.125 38.6808 265.719 38.2577C265.313 37.8347 264.788 37.0732 264.534 36.5655C264.162 35.7702 264.095 35.3979 264.078 34.1118C264.078 32.8258 264.145 32.4366 264.501 31.6581C264.738 31.1505 265.245 30.389 265.634 29.9659C266.024 29.5429 266.734 29.0014 267.242 28.7476Z" fill="#F35423"/>
<path d="M227.12 60.7978C227.712 60.4086 228.508 60.0025 228.88 59.9348C229.252 59.8502 242.722 59.7994 288.107 59.8332L289.122 60.324C289.681 60.6116 290.527 61.2208 290.984 61.6777C291.61 62.3208 291.931 62.8115 292.202 63.6407C292.574 64.6898 292.591 65.0114 292.642 77.9398H228.88L227.865 77.4321C227.306 77.1614 226.528 76.6198 226.139 76.2476C225.766 75.8753 225.225 75.1138 224.48 73.54L224.429 69.2249C224.396 65.8236 224.429 64.7237 224.632 64.0637C224.768 63.6068 225.14 62.8454 225.445 62.3715C225.8 61.847 226.443 61.2547 227.12 60.7978Z" fill="#F35423"/>
<path d="M227.865 80.2242C228.321 80.0042 228.981 79.7673 229.303 79.6996C229.624 79.632 244.025 79.5981 292.676 79.632L292.625 84.2009C292.574 87.213 292.625 89.0237 292.743 89.5313C292.845 89.9544 293.166 90.5466 293.437 90.8512C293.725 91.1389 293.945 91.4266 293.945 91.4773C293.945 91.5281 293.64 91.562 293.268 91.562C292.896 91.562 292.303 91.4435 291.965 91.2912C291.61 91.1558 291.17 90.8851 290.984 90.6989C290.645 90.3774 290.628 90.3774 288.141 91.6466H228.711L227.628 91.0543C227.035 90.7328 226.24 90.1236 225.885 89.7005C225.529 89.2775 225.056 88.6006 224.852 88.1776C224.548 87.5514 224.48 87.1284 224.48 85.7239C224.497 84.2855 224.565 83.8963 224.903 83.1856C225.123 82.7287 225.699 81.9503 226.172 81.4934C226.629 81.0196 227.391 80.4442 227.865 80.2242Z" fill="#F35423"/>
<path d="M248.272 112.494C248.78 112.139 249.525 111.75 249.948 111.615C250.574 111.428 253.857 111.395 288.107 111.445L289.207 111.97C289.934 112.325 290.577 112.816 291.119 113.408C291.576 113.916 292.083 114.711 292.27 115.219C292.523 115.93 292.591 116.539 292.591 118.434C292.591 119.703 292.676 121.04 292.76 121.395C292.862 121.734 293.15 122.292 293.945 123.206L293.488 123.308C293.217 123.375 292.71 123.325 292.337 123.206C291.965 123.105 291.407 122.817 291.119 122.597C290.814 122.377 290.51 122.191 290.442 122.191C290.357 122.174 290.121 122.326 289.884 122.495C289.647 122.665 289.122 122.952 288.699 123.121C287.971 123.443 287.311 123.46 270 123.511C258.24 123.544 251.674 123.494 250.929 123.375C250.286 123.291 249.457 123.037 249.068 122.834C248.662 122.631 248.002 122.157 247.579 121.768C247.156 121.362 246.597 120.6 246.326 120.059C245.988 119.365 245.819 118.705 245.751 117.876C245.7 117.08 245.751 116.386 245.937 115.76C246.09 115.253 246.462 114.457 246.783 113.984C247.088 113.527 247.765 112.85 248.272 112.494Z" fill="#F35423"/>
<path d="M227.865 80.2247C228.322 80.0047 228.982 79.7678 229.303 79.7001C229.625 79.6324 244.025 79.5986 292.676 79.6324L292.625 84.2014C292.575 87.2135 292.625 89.0241 292.744 89.5318C292.845 89.9548 293.167 90.5471 293.438 90.8517C293.725 91.1394 293.945 91.427 293.945 91.4778C293.945 91.5286 293.641 91.5624 293.268 91.5624C292.896 91.5624 292.304 91.444 291.965 91.2917C291.61 91.1563 291.17 90.8855 290.984 90.6994C290.645 90.3779 290.628 90.3779 288.141 91.647H228.711L227.628 91.0548C227.036 90.7332 226.24 90.124 225.885 89.701C225.53 89.2779 225.056 88.6011 224.853 88.178C224.548 87.5519 224.48 87.1289 224.48 85.7243C224.497 84.286 224.565 83.8968 224.904 83.186C225.124 82.7291 225.699 81.9507 226.173 81.4938C226.63 81.02 227.391 80.4447 227.865 80.2247Z" fill="black"/>
<path d="M211.279 44.5701C211.736 44.3332 212.43 44.0793 212.802 44.0116C213.174 43.927 222.532 43.8932 253.753 43.927L254.769 44.4008C255.327 44.6547 256.072 45.1623 256.444 45.5008C256.799 45.8392 257.256 46.3976 257.459 46.7192C257.662 47.0407 257.967 47.6837 258.153 48.1575C258.39 48.8006 258.441 49.3082 258.373 50.2728C258.322 51.2035 258.17 51.8127 257.815 52.5572C257.527 53.1326 256.952 53.9279 256.461 54.3848C255.97 54.8586 255.226 55.3663 253.753 55.9416H212.464L211.702 55.5694C211.279 55.3663 210.755 55.0786 210.518 54.9094C210.112 54.6386 210.061 54.6556 209.333 55.1632C208.842 55.5017 208.25 55.7386 207.675 55.8232C207.184 55.8909 206.795 55.8909 206.795 55.8063C206.795 55.7386 207.049 55.3324 207.895 54.131L207.979 51.2373C208.064 48.5975 208.098 48.2421 208.487 47.4806C208.707 47.0238 209.249 46.2623 209.672 45.8054C210.095 45.3654 210.805 44.7901 211.279 44.5701Z" fill="#FFF1ED"/>
<path d="M210.619 96.5544C211.144 96.1821 211.939 95.7929 212.362 95.6744C212.954 95.5221 219.96 95.4883 269.169 95.5391L270.337 96.1313C270.997 96.4698 271.741 97.0113 272.063 97.4005C272.384 97.7728 272.841 98.5004 273.095 99.0081C273.501 99.8203 273.552 100.142 273.552 101.546C273.552 102.917 273.484 103.289 273.112 104.085C272.875 104.592 272.351 105.354 271.928 105.743C271.521 106.149 270.692 106.724 268.983 107.554H212.616L210.01 106.285L209.384 106.708C209.029 106.944 208.47 107.215 208.149 107.3C207.827 107.401 207.421 107.469 207.252 107.469C207.099 107.469 206.93 107.384 206.879 107.3C206.829 107.215 206.913 107.029 207.083 106.911C207.235 106.809 207.489 106.403 207.658 106.031C207.912 105.472 207.979 104.914 207.979 102.9C207.979 101.123 208.047 100.243 208.233 99.6849C208.386 99.2619 208.758 98.5342 209.062 98.0774C209.384 97.6035 210.078 96.9267 210.619 96.5544Z" fill="#FFF1ED"/>
<path d="M211.11 127.978C211.567 127.742 212.142 127.505 212.379 127.42C212.616 127.352 225.511 127.302 269.322 127.352L270.168 127.759C270.625 127.995 271.352 128.486 271.775 128.875C272.215 129.298 272.74 130.043 273.044 130.669C273.501 131.634 273.552 131.921 273.552 133.36C273.552 134.781 273.501 135.069 273.078 135.847C272.824 136.338 272.266 137.099 271.809 137.522C271.369 137.946 270.591 138.504 269.152 139.198L207.979 139.282L208.013 135.424L208.014 135.401C208.064 131.633 208.065 131.564 208.521 130.737C208.758 130.263 209.249 129.552 209.621 129.146C209.976 128.74 210.636 128.215 211.11 127.978Z" fill="#FFF1ED"/>
<path d="M207.81 151.162C207.895 150.823 207.979 148.386 207.979 145.747V140.975L235.647 141.059L236.578 141.516C237.085 141.753 237.813 142.261 238.185 142.616C238.557 142.971 239.065 143.614 239.302 144.021C239.539 144.444 239.827 145.205 239.962 145.713C240.08 146.237 240.131 147.05 240.08 147.574C240.03 148.082 239.827 148.877 239.607 149.351C239.404 149.808 238.845 150.603 238.371 151.094C237.897 151.602 237.085 152.211 235.647 152.905L224.394 152.955C216.559 152.989 212.904 152.938 212.379 152.82C211.956 152.718 211.228 152.397 210.772 152.109C210.061 151.686 209.892 151.635 209.756 151.838C209.672 151.974 209.265 152.262 208.859 152.465C208.436 152.668 207.827 152.82 206.592 152.82L207.116 152.312C207.404 152.042 207.709 151.517 207.81 151.162Z" fill="#FFF1ED"/>
<path d="M207.81 151.162C207.895 150.823 207.979 148.386 207.979 145.747V140.975L235.647 141.059L236.578 141.516C237.085 141.753 237.813 142.261 238.185 142.616C238.557 142.971 239.065 143.614 239.302 144.021C239.539 144.444 239.827 145.205 239.962 145.713C240.08 146.237 240.131 147.05 240.08 147.574C240.03 148.082 239.827 148.877 239.607 149.351C239.404 149.808 238.845 150.603 238.371 151.094C237.897 151.602 237.085 152.211 235.647 152.905L224.394 152.955C216.559 152.989 212.904 152.938 212.379 152.82C211.956 152.718 211.228 152.397 210.772 152.109C210.061 151.686 209.892 151.635 209.756 151.839C209.672 151.974 209.265 152.262 208.859 152.465C208.436 152.668 207.827 152.82 206.592 152.82L207.116 152.312C207.404 152.042 207.709 151.517 207.81 151.162Z" fill="black"/>
<path fill-rule="evenodd" clip-rule="evenodd" d="M171.852 76.9443C173.155 76.9782 174.39 77.1474 175.321 77.3674C176.116 77.5704 177.182 77.9427 177.69 78.1966C178.198 78.4504 178.959 78.9919 179.382 79.398C179.788 79.8041 180.262 80.4472 180.431 80.8195C180.584 81.1917 180.77 81.9194 180.838 82.4271C180.939 83.307 180.99 83.3916 181.734 83.8823C182.157 84.17 182.784 84.7284 183.122 85.1515C183.46 85.5576 184.053 86.4206 184.442 87.0806C184.831 87.7406 185.457 88.9928 185.846 89.8727C186.354 90.9896 186.557 91.7172 186.557 92.2418C186.557 92.6648 186.405 93.4602 185.931 95.0339L186.371 95.88C186.608 96.3369 187.369 97.2507 188.063 97.9107C188.74 98.5706 189.62 99.366 190.009 99.6875C190.635 100.212 190.703 100.364 190.72 101.041C190.737 101.718 190.669 101.87 190.043 102.429C189.671 102.784 189.095 103.207 188.774 103.36C188.436 103.529 188.182 103.749 188.182 103.833C188.182 103.918 188.419 104.341 188.723 104.764C189.079 105.272 189.248 105.695 189.231 106.033C189.214 106.304 189.095 106.642 188.994 106.778C188.875 106.913 188.537 107.15 187.759 107.607L188.351 107.912C188.672 108.064 188.994 108.284 189.062 108.385C189.129 108.487 189.197 108.724 189.18 108.91C189.18 109.096 188.909 109.553 188.571 109.925C188.097 110.467 187.996 110.687 188.08 111.025C188.148 111.262 188.232 111.973 188.3 112.633C188.368 113.547 188.334 113.936 188.114 114.359C187.962 114.663 187.589 115.07 187.285 115.256C186.997 115.442 186.439 115.628 186.066 115.662C185.694 115.713 184.137 115.797 182.597 115.848C181.058 115.899 179.568 116.017 179.298 116.102C179.01 116.186 178.621 116.474 178.435 116.728C178.232 116.999 177.792 117.726 177.47 118.386C177.132 119.046 176.607 120.248 176.286 121.094C175.964 121.94 175.524 123.26 175.287 124.055C175.05 124.85 174.763 125.849 174.475 127.101L175.473 128.235C176.269 129.166 176.641 129.792 177.352 131.501C177.825 132.668 178.333 133.853 178.452 134.124C178.57 134.394 179.01 135.477 179.433 136.493C179.856 137.508 180.482 139.031 180.821 139.877C181.159 140.723 181.887 142.432 182.428 143.685C182.953 144.937 183.664 146.815 184.002 147.831C184.323 148.846 184.73 150.301 184.882 151.046C185.034 151.79 185.237 153.195 185.339 154.176C185.44 155.192 185.474 157.07 185.406 158.576C185.356 160.014 185.237 161.503 185.136 161.876C185.051 162.248 184.899 164.414 184.797 166.699C184.696 168.983 184.577 171.251 184.527 171.724C184.493 172.215 184.408 172.621 184.323 172.621C184.256 172.621 184.256 170.997 184.323 169.034C184.391 167.054 184.527 164.668 184.611 163.737C184.713 162.806 184.865 161.283 184.983 160.353C185.085 159.354 185.136 157.578 185.068 156.038C185.017 154.599 184.865 152.806 184.73 152.061C184.594 151.316 184.34 150.132 184.154 149.438C183.968 148.744 183.528 147.407 183.19 146.477C182.834 145.546 181.921 143.295 181.159 141.485C180.381 139.674 179.112 136.628 178.316 134.716C177.521 132.804 176.692 130.824 176.472 130.316C176.184 129.673 175.541 128.844 174.373 127.626C173.46 126.661 172.055 125.324 171.26 124.664C170.464 124.004 169.398 123.141 168.891 122.769C168.383 122.397 167.503 121.821 166.945 121.483C166.386 121.145 165.286 120.552 164.491 120.18C163.696 119.808 162.359 119.3 161.53 119.046C160.43 118.725 159.465 118.572 158.061 118.505C156.994 118.454 155.911 118.471 155.641 118.539C155.302 118.606 154.642 119.351 153.001 121.466C151.816 123.04 150.327 125.07 149.701 126.001C149.075 126.932 148.043 128.759 147.4 130.062C146.757 131.365 145.978 133.193 145.64 134.124C145.318 135.054 144.895 136.391 144.709 137.085C144.523 137.779 144.218 139.15 144.032 140.131C143.846 141.112 143.609 142.703 143.508 143.685C143.406 144.666 143.338 146.375 143.338 147.492C143.338 148.609 143.457 150.521 143.575 151.723C143.711 152.924 144.015 154.802 144.252 155.868C144.506 156.935 144.811 158.153 144.946 158.576C145.064 158.999 145.471 160.336 145.843 161.537C146.215 162.739 146.926 164.989 147.4 166.529C147.874 168.069 148.5 170.066 148.77 170.963C149.041 171.877 149.261 172.655 149.261 172.706C149.261 172.757 149.21 172.79 149.126 172.79C149.058 172.79 148.821 172.215 148.601 171.487C148.381 170.76 148.026 169.592 147.806 168.898C147.586 168.205 147.332 167.392 147.247 167.122C147.163 166.851 146.791 165.616 146.418 164.414C146.029 163.213 145.42 161.216 145.048 160.014C144.675 158.813 144.252 157.324 144.117 156.715C143.965 156.105 143.745 155.005 143.609 154.261C143.457 153.516 143.271 152.112 143.169 151.13C143.085 150.149 143 148.457 143 147.357C143 146.274 143.085 144.632 143.169 143.718C143.271 142.822 143.423 141.62 143.525 141.062C143.626 140.503 143.812 139.556 143.931 138.946C144.066 138.337 144.388 137.085 144.658 136.154C144.929 135.224 145.471 133.684 145.86 132.719C146.232 131.772 146.909 130.282 147.332 129.419C147.772 128.573 148.5 127.253 148.973 126.509C149.447 125.764 150.344 124.478 150.97 123.632C151.596 122.786 152.459 121.652 152.882 121.094C153.322 120.535 153.881 119.825 154.135 119.503C154.388 119.182 154.71 118.792 154.845 118.64C154.981 118.471 155.421 118.268 155.81 118.149C156.368 118.014 156.741 117.726 157.384 116.982C157.857 116.457 158.433 115.594 158.687 115.086C159.025 114.393 159.16 113.817 159.211 112.802C159.262 112.057 159.194 111.042 159.093 110.551C158.907 109.705 158.873 109.655 157.841 109.096C157.265 108.775 156.335 108.182 155.776 107.759C155.218 107.353 154.456 106.71 154.084 106.355C153.712 105.982 153.119 105.339 152.764 104.933C152.409 104.51 151.749 103.41 151.292 102.48C150.835 101.549 150.31 100.178 150.124 99.4336C149.938 98.6891 149.684 97.0476 149.566 95.7954C149.413 94.0186 149.413 93.0541 149.566 91.4803C149.684 90.3635 149.887 89.0266 150.04 88.519C150.192 88.0113 150.53 87.1652 150.784 86.6575C151.055 86.1499 151.444 85.5069 151.664 85.2192C151.884 84.9484 152.426 84.3054 152.899 83.8147C153.356 83.307 154.169 82.5793 154.676 82.1901C155.184 81.8009 155.979 81.2425 156.453 80.9548C156.91 80.6502 158.027 80.0749 158.907 79.6688C159.787 79.2626 160.971 78.755 161.53 78.5688C162.088 78.3658 163.306 78.0273 164.237 77.7904C165.168 77.5704 166.505 77.2997 167.198 77.1982C167.892 77.0966 168.772 76.9782 169.144 76.9443C169.517 76.9105 170.735 76.9105 171.852 76.9443ZM333.88 78.0443C334.015 78.0273 334.929 78.1119 335.911 78.2135C336.892 78.315 338.313 78.5858 339.075 78.8057C339.853 79.0257 341.038 79.4826 341.698 79.8211C342.375 80.1595 343.356 80.7349 343.864 81.0733C344.372 81.4287 345.285 82.2071 345.878 82.7993C346.47 83.3747 347.282 84.3223 347.671 84.8807C348.061 85.4392 348.602 86.3191 348.89 86.8268C349.16 87.3344 349.516 88.0959 349.685 88.519C349.854 88.942 350.142 89.7712 350.311 90.3804C350.497 90.9896 350.751 92.2249 350.887 93.1217C351.022 94.0355 351.14 95.2878 351.14 95.9139C351.14 96.5569 351.022 97.7414 350.87 98.5875C350.734 99.4336 350.43 100.669 350.193 101.329C349.973 102.006 349.516 103.123 349.177 103.783C348.856 104.459 348.247 105.509 347.841 106.118C347.434 106.727 346.673 107.692 346.165 108.267C345.319 109.231 345.235 109.384 345.37 109.79C345.455 110.061 345.675 110.67 345.844 111.144C346.081 111.837 346.284 112.108 346.724 112.328C347.265 112.616 347.35 112.785 348.264 115.51C348.805 117.1 349.685 119.689 350.227 121.297C351.174 124.038 351.259 124.207 351.817 124.512C352.139 124.681 352.866 125.274 353.442 125.832C354.068 126.441 354.694 127.27 355.015 127.896C355.303 128.489 355.692 129.521 355.862 130.181C356.048 130.858 356.318 131.992 356.454 132.685C356.589 133.379 356.826 134.902 356.962 136.07C357.114 137.237 357.317 139.251 357.401 140.554C357.486 141.857 357.571 144.328 357.571 146.054C357.571 147.78 357.452 150.673 357.317 152.484C357.181 154.295 356.945 156.731 356.792 157.899C356.657 159.067 356.42 160.657 356.285 161.453C356.149 162.248 355.811 164.025 355.523 165.429C355.252 166.817 354.745 169.034 354.406 170.337C354.085 171.64 353.78 172.74 353.746 172.79C353.712 172.841 353.645 172.841 353.594 172.79C353.543 172.74 353.696 171.944 353.932 171.014C354.169 170.083 354.592 168.323 354.863 167.122C355.134 165.92 355.54 163.822 355.777 162.468C356.014 161.114 356.352 158.762 356.538 157.222C356.725 155.682 356.962 153.212 357.08 151.723C357.215 149.946 357.249 147.424 357.181 144.446C357.131 141.925 356.995 139.116 356.894 138.185C356.792 137.254 356.606 135.731 356.454 134.801C356.318 133.87 356.031 132.262 355.794 131.247C355.557 130.232 355.134 128.895 354.829 128.286C354.525 127.676 353.865 126.746 353.34 126.187C352.663 125.477 352.037 125.02 351.056 124.546C350.176 124.123 349.262 123.818 348.433 123.7C347.654 123.581 346.318 123.547 344.964 123.615C343.695 123.666 341.952 123.886 340.818 124.123C339.752 124.36 338.415 124.681 337.857 124.867C337.298 125.054 336.418 125.375 335.911 125.578C335.403 125.781 334.405 126.238 333.711 126.576C333.017 126.932 331.9 127.558 331.257 127.981C330.614 128.404 329.497 129.199 328.803 129.741C328.11 130.299 326.942 131.365 326.214 132.093C325.487 132.838 324.37 134.124 323.744 134.97C323.118 135.816 322.271 137.068 321.865 137.762C321.459 138.456 320.816 139.708 320.427 140.554C320.038 141.4 319.361 143.075 318.904 144.277C318.464 145.478 317.872 147.154 317.601 148C317.33 148.846 316.823 150.656 316.467 152.061C316.095 153.449 315.57 155.733 315.283 157.138C314.995 158.525 314.504 161.199 314.183 163.06C313.861 164.922 313.337 167.866 313.032 169.626C312.727 171.369 312.423 172.79 312.338 172.79C312.271 172.79 312.22 172.706 312.22 172.621C312.22 172.537 312.44 171.183 312.711 169.609C312.998 168.052 313.455 165.379 313.743 163.653C314.03 161.927 314.42 159.76 314.606 158.83C314.775 157.899 315.097 156.41 315.283 155.53C315.486 154.65 315.824 153.246 316.027 152.399C316.247 151.553 316.586 150.301 316.772 149.607C316.958 148.914 317.432 147.424 317.804 146.308C318.193 145.191 318.853 143.431 319.276 142.415C319.682 141.4 320.241 140.131 320.478 139.623C320.732 139.116 321.256 138.134 321.645 137.457C322.051 136.797 322.898 135.528 323.541 134.682C324.167 133.819 325.487 132.347 326.451 131.416C327.416 130.469 328.786 129.284 329.48 128.776C330.174 128.269 331.325 127.524 332.019 127.118C332.712 126.712 333.305 126.373 333.321 126.357C333.338 126.34 333.237 125.73 333.102 124.986C332.966 124.241 332.628 122.414 332.34 120.925C332.069 119.435 331.799 118.031 331.663 117.371L330.36 117.676C329.649 117.845 328.177 118.031 327.111 118.082C325.639 118.149 324.827 118.116 323.727 117.896C322.847 117.726 321.696 117.32 320.765 116.88C319.919 116.474 318.819 115.814 318.312 115.425C317.804 115.019 317.093 114.427 316.721 114.088C316.366 113.75 315.672 112.988 315.181 112.379C314.707 111.77 313.861 110.602 313.303 109.756C312.761 108.91 312.135 107.81 311.932 107.302C311.661 106.625 311.543 106.016 311.543 105.103C311.543 104.29 311.661 103.461 311.864 102.818C312.051 102.26 312.338 100.77 312.524 99.5182C312.727 98.266 312.964 96.5907 313.083 95.7954C313.184 95.0001 313.387 93.8663 313.523 93.2571C313.641 92.6479 313.963 91.548 314.2 90.8034C314.453 90.0589 314.944 88.8743 315.317 88.1805C315.689 87.4867 316.264 86.5222 316.62 86.0653C316.958 85.5915 317.703 84.7623 318.244 84.2208C318.786 83.6793 319.699 82.9009 320.258 82.4947C320.816 82.1055 322.153 81.361 323.219 80.8533C324.285 80.3456 325.893 79.7026 326.773 79.4149C327.653 79.1442 328.956 78.7888 329.649 78.6365C330.343 78.4842 331.528 78.2981 332.272 78.2135C333.017 78.1289 333.745 78.0612 333.88 78.0443ZM343.221 130.164C344.05 130.147 345.116 130.232 345.59 130.333C346.081 130.435 346.944 130.672 347.502 130.858C348.061 131.061 348.89 131.433 349.364 131.687C349.82 131.941 350.667 132.533 351.225 132.973C351.766 133.413 352.596 134.242 353.053 134.801C353.509 135.359 354.186 136.425 354.542 137.17C354.897 137.914 355.32 138.98 355.455 139.539C355.608 140.097 355.777 141.197 355.828 141.992C355.895 143.025 355.845 143.837 355.642 144.869C355.472 145.664 355.117 146.832 354.863 147.492C354.592 148.152 354 149.201 353.543 149.861C353.086 150.521 352.342 151.384 351.885 151.807C351.428 152.23 350.87 152.721 350.633 152.873C350.243 153.144 350.243 153.195 350.497 153.33C350.785 153.499 350.785 153.55 350.48 154.65C350.294 155.276 349.803 157.121 349.38 158.745C348.957 160.37 348.501 162.163 348.348 162.722C348.196 163.28 347.773 164.922 347.401 166.36C347.028 167.798 346.487 169.795 346.216 170.811C345.945 171.809 345.725 172.655 345.725 172.706C345.725 172.757 345.641 172.757 345.556 172.706C345.455 172.655 345.607 171.775 345.962 170.472C346.284 169.271 346.741 167.578 346.978 166.699C347.198 165.819 347.587 164.329 347.841 163.399C348.077 162.468 348.585 160.573 348.957 159.168C349.313 157.781 349.77 156.105 349.956 155.445C350.142 154.785 350.294 154.109 350.294 153.922C350.294 153.652 349.888 153.432 347.976 152.687C346.69 152.196 344.642 151.486 343.441 151.113C342.222 150.758 340.327 150.217 339.21 149.929C338.093 149.641 335.927 149.15 334.388 148.829C332.188 148.389 331.562 148.304 331.409 148.474C331.291 148.575 331.003 149.438 330.766 150.369C330.512 151.3 330.089 152.856 329.836 153.838C329.565 154.819 329.108 156.495 328.803 157.561C328.499 158.627 328.126 159.997 327.957 160.607C327.788 161.216 327.162 163.5 326.553 165.683C325.944 167.866 325.25 170.337 325.013 171.183C324.759 172.029 324.522 172.74 324.471 172.79C324.437 172.841 324.404 172.74 324.404 172.587C324.404 172.418 324.827 170.743 325.351 168.865C325.859 166.969 326.654 164.093 327.111 162.468C327.551 160.844 328.482 157.527 329.142 155.107C329.819 152.687 330.546 150.098 330.749 149.353C331.071 148.203 331.189 148 331.494 148C331.68 148 331.849 147.949 331.849 147.881C331.849 147.797 331.731 147.458 331.595 147.12C331.443 146.764 331.223 146.003 331.088 145.428C330.952 144.835 330.834 143.583 330.834 142.635C330.834 141.265 330.919 140.571 331.257 139.42C331.494 138.591 331.9 137.491 332.171 136.967C332.458 136.425 332.831 135.748 333.017 135.477C333.22 135.207 333.812 134.513 334.354 133.954C334.895 133.396 335.792 132.635 336.351 132.262C336.892 131.907 337.84 131.382 338.449 131.129C339.058 130.875 340.04 130.553 340.649 130.418C341.258 130.282 342.409 130.181 343.221 130.164ZM175.287 144.192C175.372 144.192 175.406 144.632 175.372 145.174C175.338 145.698 175.219 146.815 175.135 147.661C175.033 148.507 174.847 149.76 174.712 150.453C174.576 151.147 174.187 152.636 173.849 153.753C173.375 155.361 173.256 156.055 173.273 157.053C173.29 157.747 173.375 160.234 173.46 162.553C173.544 164.888 173.663 168.12 173.73 169.744C173.798 171.758 173.781 172.655 173.663 172.537C173.561 172.435 173.426 170.455 173.324 167.798C173.223 165.277 173.104 161.52 172.935 155.615L173.46 154.007C173.764 153.127 174.052 152.095 174.136 151.723C174.204 151.35 174.39 150.436 174.543 149.692C174.678 148.947 174.881 147.492 174.983 146.477C175.067 145.461 175.152 144.514 175.152 144.412C175.152 144.294 175.219 144.192 175.287 144.192ZM148.55 145.208C148.669 145.208 148.804 145.343 148.855 145.512C148.906 145.664 149.413 147.052 150.987 151.384L150.784 153.753C150.683 155.056 150.513 156.884 150.446 157.814C150.361 158.745 150.293 160.285 150.276 161.25C150.276 162.519 150.327 162.976 150.48 162.976C150.649 162.976 150.649 163.01 150.48 163.111C150.293 163.213 150.276 163.602 150.446 165.26C150.547 166.377 150.784 168.018 150.953 168.898C151.139 169.778 151.393 170.929 151.546 171.437C151.681 171.944 151.799 172.486 151.799 172.621C151.799 172.79 151.749 172.819 151.647 172.706C151.563 172.621 151.292 171.741 151.055 170.76C150.818 169.778 150.496 168.306 150.361 167.46C150.209 166.614 150.056 164.651 150.006 163.06C149.938 161.368 149.972 159.304 150.09 158.068C150.192 156.901 150.361 154.955 150.48 153.753C150.649 151.689 150.649 151.486 150.327 150.538C150.124 149.98 149.667 148.677 149.295 147.661C148.923 146.646 148.567 145.664 148.5 145.512C148.415 145.309 148.432 145.208 148.55 145.208Z" fill="#FFF1ED"/>
<path d="M175.321 77.3674C174.39 77.1474 173.155 76.9782 171.852 76.9443C170.735 76.9105 169.517 76.9105 169.144 76.9443C168.772 76.9782 167.892 77.0966 167.198 77.1982C166.505 77.2997 165.168 77.5704 164.237 77.7904C163.306 78.0273 162.088 78.3658 161.53 78.5688C160.971 78.755 159.787 79.2626 158.907 79.6688C158.027 80.0749 156.91 80.6502 156.453 80.9548C155.979 81.2425 155.184 81.8009 154.676 82.1901C154.169 82.5793 153.356 83.307 152.899 83.8147C152.426 84.3054 151.884 84.9484 151.664 85.2192C151.444 85.5069 151.055 86.1499 150.784 86.6575C150.53 87.1652 150.192 88.0113 150.04 88.519C149.887 89.0266 149.684 90.3635 149.566 91.4803C149.413 93.0541 149.413 94.0186 149.566 95.7954C149.684 97.0476 149.938 98.6891 150.124 99.4336C150.31 100.178 150.835 101.549 151.292 102.48C151.749 103.41 152.409 104.51 152.764 104.933C153.119 105.339 153.712 105.982 154.084 106.355C154.456 106.71 155.218 107.353 155.776 107.759C156.335 108.182 157.265 108.775 157.841 109.096C158.873 109.655 158.907 109.705 159.093 110.551C159.194 111.042 159.262 112.057 159.211 112.802C159.16 113.817 159.025 114.393 158.687 115.086C158.433 115.594 157.857 116.457 157.384 116.982C156.741 117.726 156.368 118.014 155.81 118.149C155.421 118.268 154.981 118.471 154.845 118.64C154.71 118.792 154.388 119.182 154.135 119.503C153.881 119.825 153.322 120.535 152.882 121.094C152.459 121.652 151.596 122.786 150.97 123.632C150.344 124.478 149.447 125.764 148.973 126.509C148.5 127.253 147.772 128.573 147.332 129.419C146.909 130.282 146.232 131.772 145.86 132.719C145.471 133.684 144.929 135.224 144.658 136.154C144.388 137.085 144.066 138.337 143.931 138.946C143.812 139.556 143.626 140.503 143.525 141.062C143.423 141.62 143.271 142.822 143.169 143.718C143.085 144.632 143 146.274 143 147.357C143 148.457 143.085 150.149 143.169 151.13C143.271 152.112 143.457 153.516 143.609 154.261C143.745 155.005 143.965 156.105 144.117 156.715C144.252 157.324 144.675 158.813 145.048 160.014C145.42 161.216 146.029 163.213 146.418 164.414C146.791 165.615 147.163 166.851 147.247 167.122L147.247 167.122C147.332 167.393 147.586 168.205 147.806 168.898C148.026 169.592 148.381 170.76 148.601 171.487C148.821 172.215 149.058 172.79 149.126 172.79C149.21 172.79 149.261 172.757 149.261 172.706C149.261 172.655 149.041 171.877 148.77 170.963C148.5 170.066 147.874 168.069 147.4 166.529C146.926 164.989 146.215 162.739 145.843 161.537C145.471 160.336 145.064 158.999 144.946 158.576C144.811 158.153 144.506 156.935 144.252 155.868C144.015 154.802 143.711 152.924 143.575 151.723C143.457 150.521 143.338 148.609 143.338 147.492C143.338 146.375 143.406 144.666 143.508 143.685C143.609 142.703 143.846 141.112 144.032 140.131C144.218 139.15 144.523 137.779 144.709 137.085C144.895 136.391 145.318 135.054 145.64 134.124C145.978 133.193 146.757 131.365 147.4 130.062C148.043 128.759 149.075 126.932 149.701 126.001C150.327 125.07 151.816 123.04 153.001 121.466C154.642 119.351 155.302 118.606 155.641 118.539C155.911 118.471 156.994 118.454 158.061 118.505C159.465 118.572 160.43 118.725 161.53 119.046C162.359 119.3 163.696 119.808 164.491 120.18C165.286 120.552 166.386 121.145 166.945 121.483C167.503 121.821 168.383 122.397 168.891 122.769C169.398 123.141 170.464 124.004 171.26 124.664C172.055 125.324 173.46 126.661 174.373 127.626C175.541 128.844 176.184 129.673 176.472 130.316C176.692 130.824 177.521 132.804 178.316 134.716C179.112 136.628 180.381 139.674 181.159 141.485C181.921 143.295 182.834 145.546 183.19 146.477C183.528 147.407 183.968 148.744 184.154 149.438C184.34 150.132 184.594 151.316 184.73 152.061C184.865 152.806 185.017 154.599 185.068 156.038C185.136 157.578 185.085 159.354 184.983 160.353C184.865 161.283 184.713 162.806 184.611 163.737C184.527 164.668 184.391 167.054 184.323 169.034C184.256 170.997 184.256 172.621 184.323 172.621C184.408 172.621 184.493 172.215 184.527 171.724C184.577 171.251 184.696 168.983 184.797 166.699C184.899 164.414 185.051 162.248 185.136 161.876C185.237 161.503 185.356 160.014 185.406 158.576C185.474 157.07 185.44 155.192 185.339 154.176C185.237 153.195 185.034 151.79 184.882 151.046C184.73 150.301 184.323 148.846 184.002 147.831C183.664 146.815 182.953 144.937 182.428 143.685C181.887 142.432 181.159 140.723 180.821 139.877C180.482 139.031 179.856 137.508 179.433 136.493C179.01 135.477 178.57 134.394 178.452 134.124C178.333 133.853 177.825 132.668 177.352 131.501C176.641 129.792 176.269 129.166 175.473 128.235L174.475 127.101C174.763 125.849 175.05 124.85 175.287 124.055C175.524 123.26 175.964 121.94 176.286 121.094C176.607 120.248 177.132 119.046 177.47 118.386C177.792 117.726 178.232 116.999 178.435 116.728C178.621 116.474 179.01 116.186 179.298 116.102C179.568 116.017 181.058 115.899 182.597 115.848C184.137 115.797 185.694 115.713 186.066 115.662C186.439 115.628 186.997 115.442 187.285 115.256C187.589 115.07 187.962 114.663 188.114 114.359C188.334 113.936 188.368 113.547 188.3 112.633C188.232 111.973 188.148 111.262 188.08 111.025C187.996 110.687 188.097 110.467 188.571 109.925C188.909 109.553 189.18 109.096 189.18 108.91C189.197 108.724 189.129 108.487 189.062 108.385C188.994 108.284 188.672 108.064 188.351 107.912L187.759 107.607C188.537 107.15 188.875 106.913 188.994 106.778C189.095 106.642 189.214 106.304 189.231 106.033C189.248 105.695 189.079 105.272 188.723 104.764C188.419 104.341 188.182 103.918 188.182 103.833C188.182 103.749 188.436 103.529 188.774 103.36C189.095 103.207 189.671 102.784 190.043 102.429C190.669 101.87 190.737 101.718 190.72 101.041C190.703 100.364 190.635 100.212 190.009 99.6875C189.62 99.3659 188.74 98.5706 188.063 97.9107C187.369 97.2507 186.608 96.3369 186.371 95.88L185.931 95.0339C186.405 93.4602 186.557 92.6648 186.557 92.2418C186.557 91.7172 186.354 90.9896 185.846 89.8727C185.457 88.9928 184.831 87.7406 184.442 87.0806C184.053 86.4206 183.46 85.5576 183.122 85.1515C182.784 84.7284 182.157 84.17 181.734 83.8823C180.99 83.3916 180.939 83.307 180.838 82.4271C180.77 81.9194 180.584 81.1917 180.431 80.8195C180.262 80.4472 179.788 79.8041 179.382 79.398C178.959 78.9919 178.198 78.4504 177.69 78.1966C177.182 77.9427 176.116 77.5704 175.321 77.3674Z" fill="#F35423"/>
<path d="M175.372 145.174C175.406 144.632 175.372 144.192 175.287 144.192C175.219 144.192 175.152 144.294 175.152 144.412C175.152 144.514 175.067 145.461 174.983 146.477C174.881 147.492 174.678 148.947 174.543 149.692C174.39 150.436 174.204 151.35 174.136 151.723C174.052 152.095 173.764 153.127 173.46 154.007L172.935 155.615C173.104 161.52 173.223 165.277 173.324 167.798C173.426 170.455 173.561 172.435 173.663 172.537C173.781 172.655 173.798 171.758 173.73 169.744C173.663 168.12 173.544 164.888 173.46 162.553C173.375 160.234 173.29 157.747 173.273 157.053C173.256 156.055 173.375 155.361 173.849 153.753C174.187 152.636 174.576 151.147 174.712 150.453C174.847 149.76 175.033 148.507 175.135 147.661C175.219 146.815 175.338 145.698 175.372 145.174Z" fill="#F35423"/>
<path d="M148.855 145.512C148.804 145.343 148.669 145.208 148.55 145.208C148.432 145.208 148.415 145.309 148.5 145.512C148.567 145.664 148.923 146.646 149.295 147.661C149.667 148.677 150.124 149.98 150.327 150.538C150.649 151.486 150.649 151.689 150.48 153.753C150.361 154.955 150.192 156.9 150.09 158.068L150.09 158.068C149.972 159.304 149.938 161.368 150.006 163.06C150.056 164.651 150.209 166.614 150.361 167.46C150.496 168.306 150.818 169.778 151.055 170.76C151.292 171.741 151.563 172.621 151.647 172.706C151.749 172.819 151.799 172.79 151.799 172.621C151.799 172.486 151.681 171.944 151.546 171.437C151.393 170.929 151.139 169.778 150.953 168.898C150.784 168.018 150.547 166.377 150.446 165.26C150.276 163.602 150.293 163.213 150.48 163.111C150.649 163.01 150.649 162.976 150.48 162.976C150.327 162.976 150.276 162.519 150.276 161.25C150.293 160.285 150.361 158.745 150.446 157.814C150.513 156.884 150.683 155.056 150.784 153.753L150.987 151.384C149.413 147.052 148.906 145.664 148.855 145.512Z" fill="#F35423"/>
<path d="M335.911 78.2134C334.929 78.1118 334.015 78.0272 333.88 78.0442C333.745 78.0611 333.017 78.1288 332.272 78.2134C331.528 78.298 330.343 78.4841 329.649 78.6364C328.956 78.7887 327.653 79.1441 326.773 79.4148C325.893 79.7025 324.285 80.3455 323.219 80.8532C322.153 81.3609 320.816 82.1054 320.258 82.4946C319.699 82.9008 318.786 83.6792 318.244 84.2207C317.703 84.7622 316.958 85.5914 316.62 86.0652C316.264 86.5221 315.689 87.4866 315.317 88.1804C314.944 88.8742 314.454 90.0588 314.2 90.8033C313.963 91.5479 313.641 92.6478 313.523 93.257C313.387 93.8662 313.184 95 313.083 95.7953C312.964 96.5906 312.728 98.2659 312.524 99.5181C312.338 100.77 312.051 102.26 311.864 102.818C311.661 103.461 311.543 104.29 311.543 105.102C311.543 106.016 311.661 106.625 311.932 107.302C312.135 107.81 312.761 108.91 313.303 109.756C313.861 110.602 314.707 111.77 315.181 112.379C315.672 112.988 316.366 113.75 316.721 114.088C317.093 114.426 317.804 115.019 318.312 115.425C318.819 115.814 319.919 116.474 320.765 116.88C321.696 117.32 322.847 117.726 323.727 117.895C324.827 118.115 325.639 118.149 327.111 118.082C328.177 118.031 329.649 117.845 330.36 117.675L331.663 117.371C331.799 118.031 332.069 119.435 332.34 120.924C332.628 122.414 332.966 124.241 333.102 124.986C333.237 125.73 333.338 126.339 333.322 126.356C333.305 126.373 332.712 126.712 332.019 127.118C331.325 127.524 330.174 128.269 329.48 128.776C328.786 129.284 327.416 130.468 326.451 131.416C325.487 132.347 324.167 133.819 323.541 134.682C322.898 135.528 322.052 136.797 321.645 137.457C321.256 138.134 320.732 139.116 320.478 139.623C320.241 140.131 319.682 141.4 319.276 142.415C318.853 143.431 318.193 145.191 317.804 146.307C317.432 147.424 316.958 148.913 316.772 149.607C316.586 150.301 316.247 151.553 316.027 152.399C315.824 153.245 315.486 154.65 315.283 155.53C315.097 156.41 314.775 157.899 314.606 158.83C314.42 159.76 314.03 161.926 313.743 163.652C313.455 165.378 312.998 168.052 312.711 169.609C312.44 171.183 312.22 172.536 312.22 172.621C312.22 172.706 312.271 172.79 312.338 172.79C312.423 172.79 312.728 171.369 313.032 169.626C313.337 167.866 313.861 164.922 314.183 163.06C314.504 161.199 314.995 158.525 315.283 157.137C315.57 155.733 316.095 153.449 316.467 152.061C316.823 150.656 317.33 148.846 317.601 148C317.872 147.154 318.464 145.478 318.904 144.277C319.361 143.075 320.038 141.4 320.427 140.554C320.816 139.708 321.459 138.456 321.865 137.762C322.272 137.068 323.118 135.816 323.744 134.97C324.37 134.124 325.487 132.838 326.214 132.093C326.942 131.365 328.11 130.299 328.803 129.741C329.497 129.199 330.614 128.404 331.257 127.981C331.9 127.558 333.017 126.932 333.711 126.576C334.405 126.238 335.403 125.781 335.911 125.578C336.418 125.375 337.298 125.053 337.857 124.867C338.415 124.681 339.752 124.36 340.818 124.123C341.952 123.886 343.695 123.666 344.964 123.615C346.318 123.547 347.654 123.581 348.433 123.7C349.262 123.818 350.176 124.123 351.056 124.546C352.037 125.02 352.663 125.476 353.34 126.187C353.865 126.746 354.525 127.676 354.829 128.286C355.134 128.895 355.557 130.232 355.794 131.247C356.031 132.262 356.319 133.87 356.454 134.8C356.606 135.731 356.792 137.254 356.894 138.185C356.995 139.116 357.131 141.925 357.182 144.446C357.249 147.424 357.215 149.946 357.08 151.722C356.962 153.212 356.725 155.682 356.539 157.222C356.352 158.762 356.014 161.114 355.777 162.468C355.54 163.822 355.134 165.92 354.863 167.121C354.592 168.323 354.169 170.083 353.933 171.014C353.696 171.944 353.543 172.74 353.594 172.79C353.645 172.841 353.713 172.841 353.746 172.79C353.78 172.74 354.085 171.64 354.406 170.337C354.745 169.034 355.252 166.817 355.523 165.429C355.811 164.025 356.149 162.248 356.285 161.453C356.42 160.657 356.657 159.067 356.792 157.899C356.945 156.731 357.182 154.295 357.317 152.484C357.452 150.673 357.571 147.78 357.571 146.054C357.571 144.328 357.486 141.857 357.402 140.554C357.317 139.251 357.114 137.237 356.962 136.07C356.826 134.902 356.589 133.379 356.454 132.685C356.319 131.991 356.048 130.858 355.862 130.181C355.692 129.521 355.303 128.489 355.016 127.896C354.694 127.27 354.068 126.441 353.442 125.832C352.866 125.273 352.139 124.681 351.817 124.512C351.259 124.207 351.174 124.038 350.227 121.297C349.685 119.689 348.805 117.1 348.264 115.509C347.35 112.785 347.265 112.616 346.724 112.328C346.284 112.108 346.081 111.837 345.844 111.144C345.675 110.67 345.455 110.061 345.37 109.79C345.235 109.384 345.319 109.231 346.165 108.267C346.673 107.691 347.434 106.727 347.841 106.118C348.247 105.509 348.856 104.459 349.177 103.782C349.516 103.123 349.973 102.006 350.193 101.329C350.43 100.669 350.734 99.4335 350.87 98.5874C351.022 97.7413 351.14 96.5568 351.14 95.9138C351.14 95.2877 351.022 94.0354 350.887 93.1216C350.751 92.2248 350.497 90.9895 350.311 90.3803C350.142 89.7711 349.854 88.9419 349.685 88.5189C349.516 88.0958 349.161 87.3343 348.89 86.8267C348.602 86.319 348.061 85.4391 347.671 84.8806C347.282 84.3222 346.47 83.3746 345.878 82.7992C345.285 82.207 344.372 81.4286 343.864 81.0732C343.356 80.7348 342.375 80.1594 341.698 79.821C341.038 79.4825 339.853 79.0256 339.075 78.8056C338.314 78.5857 336.892 78.3149 335.911 78.2134Z" fill="#F35423"/>
<path d="M345.59 130.333C345.116 130.232 344.05 130.147 343.221 130.164C342.409 130.181 341.258 130.282 340.649 130.418C340.04 130.553 339.058 130.875 338.449 131.128C337.84 131.382 336.892 131.907 336.351 132.262C335.792 132.634 334.895 133.396 334.354 133.954C333.812 134.513 333.22 135.207 333.017 135.477C332.831 135.748 332.459 136.425 332.171 136.966C331.9 137.491 331.494 138.591 331.257 139.42C330.919 140.571 330.834 141.265 330.834 142.635C330.834 143.583 330.952 144.835 331.088 145.427C331.223 146.003 331.443 146.764 331.596 147.12C331.731 147.458 331.849 147.797 331.849 147.881C331.849 147.949 331.68 148 331.494 148C331.189 148 331.071 148.203 330.749 149.353C330.546 150.098 329.819 152.687 329.142 155.107C328.482 157.527 327.551 160.843 327.111 162.468C326.654 164.092 325.859 166.969 325.351 168.864C324.827 170.743 324.404 172.418 324.404 172.587C324.404 172.74 324.438 172.841 324.471 172.79C324.522 172.74 324.759 172.029 325.013 171.183C325.25 170.337 325.944 167.866 326.553 165.683C327.162 163.5 327.788 161.216 327.957 160.606C328.127 159.997 328.499 158.627 328.803 157.561C329.108 156.494 329.565 154.819 329.836 153.838C330.089 152.856 330.513 151.299 330.766 150.369C331.003 149.438 331.291 148.575 331.409 148.473C331.562 148.304 332.188 148.389 334.388 148.829C335.928 149.15 338.094 149.641 339.21 149.929C340.327 150.216 342.223 150.758 343.441 151.113C344.642 151.486 346.69 152.196 347.976 152.687C349.888 153.432 350.294 153.652 350.294 153.922C350.294 154.108 350.142 154.785 349.956 155.445C349.77 156.105 349.313 157.781 348.957 159.168C348.585 160.573 348.078 162.468 347.841 163.399C347.587 164.329 347.198 165.818 346.978 166.698C346.741 167.578 346.284 169.271 345.962 170.472C345.607 171.775 345.455 172.655 345.556 172.706C345.641 172.756 345.725 172.756 345.725 172.706C345.725 172.655 345.945 171.809 346.216 170.81C346.487 169.795 347.028 167.798 347.401 166.36C347.773 164.922 348.196 163.28 348.348 162.722C348.501 162.163 348.957 160.37 349.381 158.745C349.804 157.121 350.294 155.276 350.48 154.65C350.785 153.55 350.785 153.499 350.497 153.33C350.244 153.195 350.244 153.144 350.633 152.873C350.87 152.721 351.428 152.23 351.885 151.807C352.342 151.384 353.086 150.521 353.543 149.861C354 149.201 354.592 148.152 354.863 147.492C355.117 146.832 355.472 145.664 355.642 144.869C355.845 143.837 355.895 143.025 355.828 141.992C355.777 141.197 355.608 140.097 355.456 139.539C355.32 138.98 354.897 137.914 354.542 137.17C354.186 136.425 353.509 135.359 353.053 134.8C352.596 134.242 351.767 133.413 351.225 132.973C350.667 132.533 349.82 131.941 349.364 131.687C348.89 131.433 348.061 131.061 347.502 130.858C346.944 130.672 346.081 130.435 345.59 130.333Z" fill="#F35423"/>
<path d="M163.221 78.4501C164.05 78.2132 165.539 77.8579 166.52 77.6886C167.942 77.4179 168.906 77.3671 171.343 77.4179C173.543 77.4517 174.677 77.5533 175.404 77.7563C175.963 77.9086 176.877 78.264 177.435 78.5347C177.994 78.8055 178.738 79.3132 179.11 79.6685C179.466 80.0239 179.906 80.6161 180.075 80.9884C180.244 81.3607 180.396 82.1053 180.43 82.6299C180.481 83.4929 180.532 83.6283 180.904 83.7806C181.141 83.8821 181.699 84.3221 182.156 84.762C182.613 85.202 183.256 85.9804 183.612 86.4881C183.95 86.9957 184.39 87.7234 184.593 88.0957C184.796 88.4679 185.236 89.4156 186.133 91.6493L185.507 91.7508C185.168 91.8185 184.678 91.9708 184.424 92.0892C184.17 92.2246 183.273 93.02 182.427 93.8491C181.429 94.8475 180.955 95.4229 181.056 95.5413C181.158 95.6598 181.784 95.1521 182.85 94.103C183.73 93.223 184.593 92.4446 184.762 92.3769C184.915 92.3092 185.338 92.2585 185.676 92.2585C186.031 92.2415 186.319 92.2585 186.319 92.2754C186.319 92.3092 186.167 92.7831 185.981 93.3415C185.795 93.8999 185.642 94.5599 185.642 94.8137C185.642 95.0844 185.828 95.6429 186.048 96.0828C186.268 96.5397 186.894 97.352 187.453 97.9104C187.994 98.4688 188.807 99.1965 189.23 99.518C189.67 99.8395 190.093 100.279 190.194 100.483C190.296 100.703 190.38 101.041 190.38 101.244C190.363 101.464 190.093 101.887 189.737 102.209C189.399 102.53 188.722 102.97 188.265 103.19C187.791 103.393 187.284 103.579 187.114 103.579C186.962 103.579 186.674 103.325 186.488 103.021C186.263 102.66 186.15 102.575 186.15 102.767C186.15 102.936 186.336 103.258 186.573 103.495C186.827 103.748 187.114 103.884 187.284 103.833C187.504 103.782 187.757 104.019 188.214 104.73C188.57 105.255 188.857 105.864 188.857 106.067C188.857 106.354 188.621 106.608 188.045 106.964C187.605 107.251 187.148 107.471 187.03 107.471C186.928 107.471 186.827 107.302 186.81 107.082C186.793 106.727 186.793 106.727 186.658 107.133C186.59 107.37 186.522 107.894 186.522 108.317C186.522 109.062 186.522 109.062 186.674 108.52C186.827 107.996 186.844 107.979 187.538 108.081C187.944 108.131 188.417 108.317 188.604 108.487C188.925 108.791 188.925 108.825 188.671 109.197C188.502 109.417 188.214 109.773 187.994 110.01C187.69 110.365 187.639 110.551 187.724 111.11C187.791 111.482 187.876 112.125 187.944 112.548C188.011 112.971 188.011 113.512 187.944 113.766C187.893 114.037 187.639 114.426 187.368 114.663C187.03 114.985 186.725 115.103 186.235 115.086C185.862 115.086 184.948 114.934 184.204 114.731C183.459 114.545 182.461 114.24 182.004 114.071C181.53 113.902 180.549 113.546 179.804 113.259C179.06 112.988 177.723 112.429 176.843 112.006C175.794 111.516 175.066 111.059 174.744 110.67C174.474 110.348 174.118 109.807 173.949 109.451C173.763 109.113 173.577 108.504 173.492 108.131C173.425 107.742 173.323 107.404 173.238 107.37C173.171 107.336 173.171 107.59 173.222 107.928C173.289 108.284 173.458 108.893 173.611 109.282C173.763 109.671 174.169 110.331 174.508 110.754C174.964 111.313 175.506 111.702 176.369 112.108C177.046 112.429 178.433 113.005 179.466 113.394C180.498 113.783 181.936 114.291 182.681 114.528C183.425 114.765 184.339 115.052 184.712 115.154C185.338 115.357 185.152 115.374 182.596 115.475C181.056 115.526 179.516 115.662 179.161 115.763C178.721 115.882 178.383 116.152 178.01 116.66C177.74 117.049 177.215 117.98 176.843 118.724C176.487 119.469 175.811 121.263 175.337 122.701C174.88 124.139 174.44 125.51 174.406 125.747C174.355 125.984 174.237 126.289 174.152 126.424C174.017 126.627 173.746 126.458 172.748 125.493C172.071 124.833 171.022 123.919 170.412 123.446C169.803 122.972 168.703 122.177 167.959 121.686C167.214 121.178 165.776 120.383 164.744 119.892C163.711 119.401 162.307 118.843 161.613 118.657C160.919 118.454 159.616 118.2 157.078 117.878L157.738 117.168C158.093 116.761 158.686 115.848 159.024 115.137C159.565 113.969 159.65 113.665 159.65 112.463C159.667 111.702 159.549 110.737 159.413 110.263C159.227 109.654 159.024 109.367 158.669 109.164C158.415 109.028 157.569 108.504 156.807 108.013C156.063 107.505 154.946 106.642 154.37 106.067C153.778 105.491 152.983 104.561 152.594 104.002C152.221 103.444 151.663 102.462 151.358 101.802C151.071 101.143 150.648 99.941 150.428 99.0949C150.055 97.6904 150.021 97.2505 150.021 93.5953C150.021 89.6863 150.038 89.6017 150.495 88.3495C150.749 87.6557 151.206 86.6742 151.511 86.1666C151.798 85.6758 152.475 84.7959 153 84.2205C153.524 83.6621 154.557 82.7652 155.284 82.2407C156.029 81.7161 157.112 81.0223 157.721 80.6838C158.33 80.3623 159.464 79.8208 160.259 79.4993C161.055 79.1609 162.391 78.704 163.221 78.4501Z" fill="#F35423"/>
<path d="M327.956 79.4655C328.464 79.3132 329.564 79.0424 330.41 78.8732C331.611 78.6194 332.508 78.5686 334.64 78.6024C336.992 78.6532 337.551 78.7209 338.82 79.1101C339.649 79.347 340.749 79.7531 341.274 80.007C341.815 80.2608 342.712 80.7684 343.27 81.1407C343.829 81.513 344.777 82.2745 345.352 82.8329C345.944 83.4083 346.807 84.3559 347.264 84.9651C347.721 85.5743 348.398 86.6742 348.753 87.4188C349.126 88.1634 349.616 89.3987 349.853 90.1601C350.09 90.9386 350.428 92.4954 350.581 93.6291C350.835 95.5583 350.835 95.8629 350.598 97.7412C350.445 98.858 350.124 100.381 349.87 101.126C349.633 101.87 349.159 103.004 348.821 103.664C348.499 104.324 347.856 105.373 347.399 106.033C346.959 106.693 346.096 107.742 345.504 108.402C344.912 109.062 343.829 110.094 343.084 110.703C342.357 111.313 341.138 112.226 340.394 112.717C339.649 113.225 338.194 114.054 337.179 114.595C336.163 115.12 334.606 115.831 333.743 116.169C332.897 116.508 331.408 116.981 330.444 117.235C328.988 117.608 328.362 117.692 326.433 117.692C325.096 117.692 323.827 117.608 323.387 117.489C322.964 117.371 322.203 117.1 321.695 116.914C321.187 116.711 320.375 116.322 319.918 116.034C319.444 115.763 318.497 115.052 317.803 114.477C317.109 113.885 316.263 113.089 315.941 112.7C315.62 112.311 314.875 111.346 314.3 110.534C313.725 109.739 312.963 108.554 312.625 107.894C312.134 106.947 311.999 106.456 311.931 105.441C311.863 104.442 311.914 103.918 312.185 102.987C312.388 102.327 312.625 101.413 312.709 100.956C312.811 100.483 313.014 99.1965 313.149 98.0796C313.285 96.9628 313.555 95.2875 313.725 94.3568C313.911 93.4261 314.131 92.3431 314.232 91.937C314.334 91.5477 314.639 90.6678 314.909 89.9909C315.18 89.331 315.603 88.3833 315.857 87.9264C316.111 87.4526 316.568 86.7419 316.872 86.3189C317.177 85.8958 318.023 84.9989 318.751 84.3051C319.495 83.6283 320.426 82.8329 320.849 82.5622C321.272 82.2745 322.372 81.6822 323.303 81.2423C324.233 80.7854 325.452 80.2777 326.01 80.0916C326.568 79.8885 327.448 79.6178 327.956 79.4655Z" fill="#F35423"/>
<path d="M340.817 112.971C341.697 112.379 342.966 111.448 343.609 110.873C344.252 110.314 344.861 109.857 344.946 109.857C345.013 109.84 345.25 110.433 345.453 111.16C345.792 112.345 345.876 112.48 346.367 112.633C346.773 112.768 346.959 112.971 347.146 113.479C347.281 113.851 347.738 115.188 348.161 116.44C348.584 117.692 349.312 119.824 349.769 121.178C350.225 122.532 350.581 123.666 350.53 123.716C350.479 123.767 350.175 123.7 349.819 123.581C349.481 123.446 348.212 123.31 346.993 123.26C345.741 123.209 344.066 123.243 343.101 123.361C342.171 123.463 340.563 123.75 339.548 124.004C338.532 124.241 336.789 124.816 335.706 125.273C333.727 126.086 333.71 126.086 333.625 125.713C333.591 125.493 333.32 124.106 333.05 122.617C332.762 121.127 332.44 119.317 332.102 117.303L333.879 116.575C334.86 116.186 336.451 115.459 337.432 114.951C338.414 114.46 339.937 113.563 340.817 112.971Z" fill="#F35423"/>
<path d="M340.225 130.925C340.783 130.79 341.426 130.638 341.663 130.587C341.9 130.553 342.864 130.536 343.829 130.587C345.047 130.638 345.944 130.773 346.875 131.077C347.586 131.314 348.753 131.822 349.447 132.211C350.141 132.6 351.173 133.379 351.731 133.937C352.29 134.513 353.018 135.359 353.339 135.816C353.644 136.289 354.117 137.119 354.371 137.677C354.625 138.235 354.947 139.149 355.082 139.708C355.234 140.266 355.387 141.18 355.454 141.738C355.505 142.297 355.471 143.363 355.37 144.107C355.268 144.852 354.997 146.037 354.761 146.73C354.507 147.424 353.982 148.507 353.576 149.15C353.17 149.776 352.425 150.69 351.951 151.198C351.461 151.688 350.75 152.298 349.701 152.958L348.77 152.568C348.262 152.348 346.926 151.858 345.809 151.468C344.692 151.096 343.101 150.589 342.255 150.352C341.409 150.115 339.751 149.658 338.532 149.353C337.314 149.049 335.436 148.626 332.373 147.999L331.95 146.9C331.713 146.29 331.442 145.343 331.34 144.784C331.256 144.226 331.171 143.244 331.171 142.584C331.171 141.924 331.273 140.909 331.408 140.3C331.544 139.691 331.797 138.777 331.984 138.269C332.187 137.762 332.711 136.763 333.168 136.069C333.625 135.376 334.37 134.445 334.826 134.022C335.283 133.599 335.96 133.024 336.332 132.753C336.705 132.465 337.5 132.008 338.109 131.721C338.718 131.433 339.666 131.077 340.225 130.925Z" fill="#F35423"/>
<path d="M163.221 78.4501C164.05 78.2132 165.539 77.8579 166.52 77.6886C167.942 77.4179 168.906 77.3671 171.343 77.4179C173.543 77.4517 174.677 77.5533 175.404 77.7563C175.963 77.9086 176.877 78.264 177.435 78.5347C177.994 78.8055 178.738 79.3132 179.11 79.6685C179.466 80.0239 179.906 80.6161 180.075 80.9884C180.244 81.3607 180.396 82.1053 180.43 82.6299C180.481 83.4929 180.532 83.6283 180.904 83.7806C181.141 83.8821 181.699 84.3221 182.156 84.762C182.613 85.202 183.256 85.9804 183.612 86.4881C183.95 86.9957 184.39 87.7234 184.593 88.0957C184.796 88.4679 185.236 89.4156 186.133 91.6493L185.507 91.7508C185.168 91.8185 184.678 91.9708 184.424 92.0892C184.17 92.2246 183.273 93.02 182.427 93.8491C181.429 94.8475 180.955 95.4229 181.056 95.5413C181.158 95.6598 181.784 95.1521 182.85 94.103C183.73 93.223 184.593 92.4446 184.762 92.3769C184.915 92.3092 185.338 92.2585 185.676 92.2585C186.031 92.2415 186.319 92.2585 186.319 92.2754C186.319 92.3092 186.167 92.7831 185.981 93.3415C185.795 93.8999 185.642 94.5599 185.642 94.8137C185.642 95.0844 185.828 95.6429 186.048 96.0828C186.268 96.5397 186.894 97.352 187.453 97.9104C187.994 98.4688 188.807 99.1965 189.23 99.518C189.67 99.8395 190.093 100.279 190.194 100.483C190.296 100.703 190.38 101.041 190.38 101.244C190.363 101.464 190.093 101.887 189.737 102.209C189.399 102.53 188.722 102.97 188.265 103.19C187.791 103.393 187.284 103.579 187.114 103.579C186.962 103.579 186.674 103.325 186.488 103.021C186.263 102.66 186.15 102.575 186.15 102.767C186.15 102.936 186.336 103.258 186.573 103.495C186.827 103.748 187.114 103.884 187.284 103.833C187.504 103.782 187.757 104.019 188.214 104.73C188.57 105.255 188.857 105.864 188.857 106.067C188.857 106.354 188.621 106.608 188.045 106.964C187.605 107.251 187.148 107.471 187.03 107.471C186.928 107.471 186.827 107.302 186.81 107.082C186.793 106.727 186.793 106.727 186.658 107.133C186.59 107.37 186.522 107.894 186.522 108.317C186.522 109.062 186.522 109.062 186.674 108.52C186.827 107.996 186.844 107.979 187.538 108.081C187.944 108.131 188.417 108.317 188.604 108.487C188.925 108.791 188.925 108.825 188.671 109.197C188.502 109.417 188.214 109.773 187.994 110.01C187.69 110.365 187.639 110.551 187.724 111.11C187.791 111.482 187.876 112.125 187.944 112.548C188.011 112.971 188.011 113.512 187.944 113.766C187.893 114.037 187.639 114.426 187.368 114.663C187.03 114.985 186.725 115.103 186.235 115.086C185.862 115.086 184.948 114.934 184.204 114.731C183.459 114.545 182.461 114.24 182.004 114.071C181.53 113.902 180.549 113.546 179.804 113.259C179.06 112.988 177.723 112.429 176.843 112.006C175.794 111.516 175.066 111.059 174.744 110.67C174.474 110.348 174.118 109.807 173.949 109.451C173.763 109.113 173.577 108.504 173.492 108.131C173.425 107.742 173.323 107.404 173.238 107.37C173.171 107.336 173.171 107.59 173.222 107.928C173.289 108.284 173.458 108.893 173.611 109.282C173.763 109.671 174.169 110.331 174.508 110.754C174.964 111.313 175.506 111.702 176.369 112.108C177.046 112.429 178.433 113.005 179.466 113.394C180.498 113.783 181.936 114.291 182.681 114.528C183.425 114.765 184.339 115.052 184.712 115.154C185.338 115.357 185.152 115.374 182.596 115.475C181.056 115.526 179.516 115.662 179.161 115.763C178.721 115.882 178.383 116.152 178.01 116.66C177.74 117.049 177.215 117.98 176.843 118.724C176.487 119.469 175.811 121.263 175.337 122.701C174.88 124.139 174.44 125.51 174.406 125.747C174.355 125.984 174.237 126.289 174.152 126.424C174.017 126.627 173.746 126.458 172.748 125.493C172.071 124.833 171.022 123.919 170.412 123.446C169.803 122.972 168.703 122.177 167.959 121.686C167.214 121.178 165.776 120.383 164.744 119.892C163.711 119.401 162.307 118.843 161.613 118.657C160.919 118.454 159.616 118.2 157.078 117.878L157.738 117.168C158.093 116.761 158.686 115.848 159.024 115.137C159.565 113.969 159.65 113.665 159.65 112.463C159.667 111.702 159.549 110.737 159.413 110.263C159.227 109.654 159.024 109.367 158.669 109.164C158.415 109.028 157.569 108.504 156.807 108.013C156.063 107.505 154.946 106.642 154.37 106.067C153.778 105.491 152.983 104.561 152.594 104.002C152.221 103.444 151.663 102.462 151.358 101.802C151.071 101.143 150.648 99.941 150.428 99.0949C150.055 97.6904 150.021 97.2505 150.021 93.5953C150.021 89.6863 150.038 89.6017 150.495 88.3495C150.749 87.6557 151.206 86.6742 151.511 86.1666C151.798 85.6758 152.475 84.7959 153 84.2205C153.524 83.6621 154.557 82.7652 155.284 82.2407C156.029 81.7161 157.112 81.0223 157.721 80.6838C158.33 80.3623 159.464 79.8208 160.259 79.4993C161.055 79.1609 162.391 78.704 163.221 78.4501Z" fill="#F35423"/>
<path d="M334.896 78.4837C334.473 78.5175 333.83 78.5175 333.458 78.4837C333.086 78.4499 333.424 78.416 334.219 78.416C335.015 78.416 335.319 78.4499 334.896 78.4837Z" fill="#0B4B8D"/>
<path d="M184.593 96.2003C184.576 96.0142 184.627 95.7942 184.712 95.7435C184.796 95.6758 184.948 95.625 185.084 95.625C185.219 95.625 185.304 95.8281 185.304 96.1665C185.304 96.4711 185.253 96.7757 185.185 96.8434C185.118 96.928 184.948 96.8772 184.83 96.7588C184.712 96.6572 184.61 96.4034 184.593 96.2003Z" fill="white"/>
<path d="M333.424 94.0175C333.864 93.6452 334.659 93.1714 335.201 92.9684C335.895 92.6976 336.555 92.5961 337.57 92.5961C338.738 92.5792 339.127 92.6468 340.024 93.053C340.599 93.3068 341.445 93.8652 341.885 94.2714C342.376 94.7282 342.917 95.4728 343.239 96.1328C343.73 97.1312 343.78 97.3681 343.78 98.8403C343.78 100.245 343.73 100.566 343.323 101.412C343.053 101.954 342.511 102.749 342.105 103.189C341.699 103.646 340.954 104.221 340.464 104.475C339.956 104.729 339.127 105 338.619 105.068C338.111 105.135 337.198 105.135 336.588 105.051C335.861 104.966 335.15 104.729 334.49 104.374C333.932 104.069 333.187 103.494 332.832 103.071C332.459 102.648 331.986 101.92 331.749 101.463C331.512 100.989 331.292 100.143 331.241 99.5172C331.173 98.8403 331.207 98.0619 331.343 97.4865C331.461 96.9789 331.783 96.1328 332.087 95.6251C332.375 95.1175 332.967 94.4067 333.424 94.0175Z" fill="white"/>
<path d="M184.037 95.8959C183.851 95.9297 183.969 95.8282 184.291 95.642C184.612 95.4559 184.984 95.3036 185.086 95.2867C185.204 95.2867 185.306 95.3713 185.306 95.4559C185.306 95.5405 185.103 95.659 184.832 95.7097C184.578 95.7605 184.223 95.8451 184.037 95.8959Z" fill="white"/>
<path d="M317.5 96.3189C317.687 96.0989 318.008 95.8451 318.211 95.7774C318.397 95.7097 318.702 95.642 318.871 95.642C319.023 95.6251 319.328 95.7097 319.548 95.8282C319.751 95.9297 320.039 96.1666 320.174 96.3697C320.309 96.5558 320.513 96.945 320.631 97.2327C320.733 97.5035 320.834 98.0111 320.834 98.3326C320.851 98.6541 320.716 99.2972 320.563 99.771C320.36 100.329 320.09 100.702 319.751 100.905C319.463 101.074 319.074 101.209 318.871 101.209C318.651 101.209 318.245 101.074 317.974 100.905C317.687 100.752 317.297 100.313 317.128 99.9402C316.942 99.5679 316.79 98.908 316.79 98.4511C316.79 98.0111 316.874 97.4527 316.976 97.1819C317.077 96.9281 317.297 96.5389 317.5 96.3189Z" fill="white"/>
<path d="M166.793 99.1787C167.03 98.9418 167.436 98.6711 167.673 98.5526C167.927 98.4511 168.384 98.3496 168.689 98.3496C168.976 98.3326 169.484 98.4342 169.788 98.5526C170.076 98.688 170.465 98.908 170.635 99.0603C170.787 99.2295 170.922 99.4326 170.922 99.5172C170.922 99.6018 170.702 99.5002 170.415 99.2633C170.144 99.0264 169.619 98.7895 169.281 98.7388C168.925 98.688 168.418 98.6711 168.13 98.7388C167.859 98.7895 167.369 99.0772 167.064 99.3818C166.743 99.7033 166.421 100.245 166.336 100.617C166.235 100.989 166.218 101.531 166.269 101.802C166.336 102.072 166.523 102.546 166.692 102.817C166.861 103.088 167.402 103.697 167.91 104.171C168.418 104.628 169.162 105.186 169.585 105.389C169.992 105.592 170.567 105.812 170.838 105.88C171.244 105.964 171.464 105.88 171.904 105.508C172.208 105.237 172.513 105.084 172.581 105.152C172.648 105.22 172.496 105.474 172.242 105.728C171.921 106.049 171.616 106.168 171.142 106.168C170.787 106.168 170.076 105.964 169.569 105.728C169.061 105.474 168.232 104.915 167.724 104.475C167.216 104.035 166.641 103.358 166.421 102.986C166.218 102.614 165.981 102.005 165.93 101.632C165.846 101.176 165.896 100.736 166.083 100.279C166.218 99.9064 166.539 99.4156 166.793 99.1787Z" fill="white"/>
<path d="M333.965 94.0517C334.337 93.7471 335.014 93.3749 335.488 93.2226C335.978 93.0533 336.858 92.9349 337.569 92.918C338.364 92.918 339.092 93.0364 339.684 93.2395C340.175 93.4256 340.97 93.9333 341.478 94.3902C342.07 94.9317 342.561 95.5747 342.917 96.3024C343.39 97.2838 343.441 97.5546 343.441 98.9253C343.424 100.33 343.39 100.533 342.849 101.531C342.51 102.14 341.884 102.936 341.41 103.359C340.954 103.765 340.158 104.256 339.684 104.442C339.092 104.645 338.348 104.763 337.518 104.763C336.689 104.763 335.945 104.645 335.369 104.442C334.862 104.256 334.066 103.748 333.559 103.291C332.966 102.75 332.476 102.107 332.12 101.379C331.663 100.414 331.596 100.11 331.596 98.8407C331.596 97.6223 331.663 97.25 332.07 96.387C332.34 95.8285 332.713 95.1855 332.916 94.9825C333.119 94.7625 333.592 94.3394 333.965 94.0517Z" fill="black"/>
<path d="M335.741 97.8259C335.826 97.6397 336.165 97.3351 336.469 97.149C336.757 96.9628 337.231 96.8105 337.518 96.8105C337.806 96.8105 338.127 96.8952 338.246 97.0136C338.364 97.1321 338.449 97.149 338.449 97.0644C338.449 96.9798 338.635 97.0813 338.872 97.3182C339.109 97.5551 339.38 98.0289 339.464 98.3674C339.583 98.8412 339.566 99.1627 339.397 99.5519C339.278 99.8565 339.007 100.263 338.787 100.449C338.517 100.703 338.178 100.787 337.484 100.787C336.621 100.787 336.52 100.736 336.063 100.195C335.691 99.738 335.572 99.4335 335.572 98.892C335.572 98.4858 335.657 98.012 335.741 97.8259Z" fill="white"/>
<path d="M335.962 97.9938C336.081 97.7569 336.436 97.4354 336.758 97.2831C337.079 97.1139 337.401 96.9785 337.485 96.9785C337.553 96.9785 337.857 97.08 338.162 97.1985C338.45 97.317 338.839 97.6046 339.008 97.8415C339.16 98.0615 339.296 98.5184 339.296 98.8399C339.296 99.1615 339.194 99.6183 339.076 99.8383C338.957 100.058 338.568 100.329 338.23 100.464C337.756 100.634 337.451 100.651 337.011 100.532C336.69 100.448 336.267 100.16 336.081 99.906C335.878 99.6353 335.742 99.2122 335.742 98.9245C335.742 98.6538 335.844 98.2307 335.962 97.9938Z" fill="black"/>
<path fill-rule="evenodd" clip-rule="evenodd" d="M318.394 56.3201C318.961 56.3291 319.207 56.3441 319.484 56.3949C319.682 56.4278 319.978 56.4906 320.142 56.5325C320.306 56.5744 320.563 56.6522 320.71 56.703C320.856 56.7539 321.119 56.8556 321.293 56.9334C321.517 57.0321 321.618 57.0949 321.651 57.1518C321.684 57.2146 321.69 57.2505 321.666 57.3163C321.648 57.3612 321.597 57.418 321.553 57.436C321.481 57.4719 321.436 57.4599 321.092 57.3133C320.88 57.2266 320.575 57.1099 320.411 57.059C320.247 57.0052 320.004 56.9364 319.873 56.9065C319.741 56.8736 319.487 56.8257 319.305 56.7958C319.063 56.7569 318.8 56.7419 318.304 56.7419C317.799 56.7419 317.545 56.7569 317.288 56.7958C317.099 56.8257 316.771 56.8945 316.556 56.9513C316.34 57.0052 316.032 57.0979 315.868 57.1578C315.704 57.2176 315.381 57.3612 315.151 57.4749C314.921 57.5885 314.598 57.771 314.434 57.8817C314.269 57.9924 314.039 58.1569 313.925 58.2497C313.812 58.3394 313.576 58.5488 313.405 58.7163C313.235 58.8809 312.99 59.1501 312.858 59.3146C312.727 59.4792 312.598 59.6317 312.569 59.6527C312.542 59.6736 312.485 59.6886 312.437 59.6886C312.383 59.6886 312.336 59.6607 312.297 59.6048C312.261 59.5599 312.234 59.5031 312.234 59.4792C312.234 59.4552 312.27 59.3805 312.315 59.3146C312.356 59.2488 312.464 59.1082 312.551 59.0005C312.637 58.8928 312.85 58.6655 313.02 58.495C313.187 58.3244 313.462 58.0762 313.627 57.9445C313.791 57.8129 314.054 57.6185 314.209 57.5167C314.365 57.415 314.649 57.2505 314.837 57.1488C315.025 57.0501 315.336 56.9065 315.524 56.8317C315.713 56.7569 316.024 56.6492 316.212 56.5924C316.4 56.5385 316.678 56.4697 316.824 56.4428C316.971 56.4159 317.222 56.374 317.377 56.35C317.575 56.3231 317.885 56.3141 318.394 56.3201ZM318.423 57.2176C318.806 57.2236 319.138 57.2445 319.195 57.2625C319.245 57.2804 319.302 57.3223 319.32 57.3552C319.338 57.3881 319.35 57.4449 319.35 57.4808C319.35 57.5197 319.32 57.5796 319.215 57.6843L318.752 57.6484C318.394 57.6214 318.19 57.6214 317.856 57.6484C317.617 57.6693 317.261 57.7172 317.064 57.7591C316.866 57.7979 316.564 57.8787 316.391 57.9356C316.218 57.9924 315.964 58.0881 315.823 58.1479C315.683 58.2078 315.468 58.3125 315.345 58.3783C315.223 58.4471 315.007 58.5787 314.867 58.6715C314.726 58.7642 314.49 58.9437 314.344 59.0663C314.194 59.192 313.97 59.4014 313.842 59.536C313.716 59.6676 313.51 59.9159 313.384 60.0835C313.259 60.254 313.107 60.4783 313.044 60.586C312.981 60.6937 312.87 60.9031 312.796 61.0497C312.724 61.1963 312.613 61.4476 312.557 61.6032C312.497 61.7587 312.41 62.0489 312.362 62.2463C312.315 62.4438 312.255 62.7339 312.234 62.8895C312.21 63.057 312.195 63.41 312.195 63.7421C312.198 64.0532 312.213 64.3972 312.231 64.5049C312.249 64.6126 312.285 64.843 312.312 65.0195C312.344 65.2648 312.35 65.3964 312.326 65.5579C312.312 65.6776 312.276 65.8511 312.249 65.9409C312.222 66.0306 312.153 66.1981 312.093 66.3148C312.031 66.4315 311.923 66.587 311.848 66.6648C311.768 66.7516 311.687 66.8084 311.645 66.8084C311.609 66.8084 311.546 66.7755 311.505 66.7336C311.463 66.6917 311.43 66.6289 311.43 66.59C311.43 66.5541 311.49 66.4434 311.564 66.3447C311.639 66.246 311.729 66.1054 311.765 66.0306C311.8 65.9558 311.848 65.8272 311.869 65.7464C311.89 65.6626 311.908 65.5101 311.908 65.4024C311.908 65.2947 311.878 65.0404 311.842 64.834C311.786 64.5199 311.777 64.3494 311.777 63.757C311.777 63.2126 311.789 62.9852 311.827 62.7549C311.857 62.5904 311.923 62.3002 311.971 62.1117C312.022 61.9232 312.108 61.6391 312.168 61.4835C312.225 61.3279 312.362 61.0258 312.47 60.8104C312.581 60.595 312.748 60.2989 312.847 60.1523C312.942 60.0057 313.133 59.7484 313.268 59.5839C313.405 59.4193 313.627 59.177 313.764 59.0454C313.902 58.9108 314.09 58.7433 314.179 58.6655C314.269 58.5907 314.49 58.4292 314.673 58.3065C314.855 58.1838 315.163 58.0044 315.36 57.9026C315.557 57.8039 315.853 57.6693 316.018 57.6095C316.182 57.5467 316.49 57.4539 316.705 57.4001C316.92 57.3432 317.24 57.2804 317.422 57.2535C317.664 57.2206 317.93 57.2116 318.423 57.2176ZM320.202 57.5048C320.244 57.5048 320.408 57.5526 320.569 57.6125C320.728 57.6723 321 57.792 321.173 57.8787C321.346 57.9625 321.594 58.1001 321.726 58.1809C321.857 58.2616 322.079 58.4172 322.219 58.5219C322.36 58.6266 322.632 58.8689 322.829 59.0604C323.023 59.2488 323.262 59.5061 323.364 59.6288C323.462 59.7514 323.639 59.9937 323.752 60.1672C323.866 60.3407 324.036 60.6369 324.132 60.8254C324.228 61.0138 324.35 61.298 324.41 61.4536C324.467 61.6091 324.556 61.8844 324.604 62.0668C324.655 62.2493 324.73 62.5963 324.771 62.8446C324.813 63.0899 324.867 63.4669 324.894 63.6823C324.918 63.8947 324.954 64.3524 324.972 64.6994C324.999 65.1661 324.999 65.4951 324.975 65.9708C324.954 66.3238 324.924 66.7545 324.903 66.9281C324.876 67.1554 324.852 67.2571 324.813 67.293C324.783 67.3229 324.715 67.3469 324.664 67.3469C324.601 67.3499 324.544 67.3259 324.505 67.284C324.446 67.2242 324.446 67.2123 324.491 66.7396C324.52 66.4285 324.535 65.9169 324.535 65.3126C324.535 64.7442 324.52 64.2267 324.497 64.0113C324.476 63.8139 324.431 63.4699 324.395 63.2485C324.362 63.0271 324.302 62.6891 324.263 62.5006C324.225 62.3121 324.144 62.01 324.084 61.8275C324.024 61.645 323.926 61.3848 323.863 61.2442C323.803 61.1036 323.684 60.8672 323.6 60.7207C323.516 60.5741 323.37 60.3407 323.274 60.2061C323.179 60.0715 322.993 59.8382 322.862 59.6856C322.73 59.533 322.479 59.2847 322.306 59.1381C322.132 58.9886 321.869 58.7851 321.723 58.6864C321.577 58.5877 321.269 58.4112 321.039 58.2975C320.808 58.1809 320.495 58.0373 320.339 57.9834C320.181 57.9236 320.049 57.8548 320.034 57.8249C320.019 57.7979 320.007 57.7411 320.007 57.6992C320.007 57.6573 320.034 57.5975 320.067 57.5646C320.1 57.5317 320.16 57.5048 320.202 57.5048ZM322.437 57.5975C322.449 57.5945 322.488 57.6095 322.527 57.6274C322.563 57.6484 322.706 57.7501 322.847 57.8608C322.987 57.9685 323.268 58.2168 323.471 58.4172C323.675 58.6146 323.944 58.9048 324.069 59.0604C324.195 59.2159 324.386 59.4792 324.497 59.6437C324.604 59.8082 324.769 60.0835 324.858 60.257C324.951 60.4305 325.07 60.6788 325.127 60.8104C325.184 60.942 325.286 61.2172 325.351 61.4237C325.42 61.6301 325.501 61.9113 325.534 62.0519C325.569 62.1925 325.617 62.4348 325.641 62.5904C325.665 62.7459 325.701 63.0959 325.719 63.3681C325.74 63.7152 325.74 63.8857 325.719 63.9425C325.701 63.9904 325.656 64.0472 325.62 64.0712C325.572 64.1041 325.525 64.11 325.465 64.0951C325.417 64.0801 325.36 64.0442 325.339 64.0113C325.318 63.9754 325.298 63.766 325.289 63.4729C325.277 63.2006 325.244 62.8327 325.205 62.6203C325.172 62.4139 325.094 62.0788 325.037 61.8724C324.981 61.666 324.879 61.3519 324.807 61.1694C324.736 60.9869 324.619 60.7266 324.55 60.586C324.479 60.4454 324.347 60.2091 324.254 60.0625C324.165 59.9159 323.988 59.6587 323.866 59.4941C323.746 59.3296 323.462 59.0125 323.238 58.7911C323.014 58.5698 322.7 58.2886 322.542 58.1689C322.33 58.0133 322.243 57.9296 322.231 57.8697C322.219 57.8249 322.228 57.7591 322.252 57.7202C322.273 57.6843 322.318 57.6394 322.351 57.6244C322.386 57.6095 322.422 57.5975 322.437 57.5975ZM318.394 58.118C318.666 58.124 319.009 58.1509 319.156 58.1749C319.305 58.1988 319.559 58.2556 319.724 58.2975C319.888 58.3424 320.172 58.4381 320.351 58.5099C320.533 58.5847 320.794 58.7074 320.934 58.7822C321.074 58.8569 321.29 58.9856 321.412 59.0693C321.535 59.1531 321.705 59.2728 321.786 59.3386C321.869 59.4044 322.061 59.5809 322.213 59.7305C322.369 59.88 322.572 60.0984 322.664 60.2121C322.76 60.3258 322.918 60.5442 323.014 60.6907C323.113 60.8373 323.265 61.1066 323.352 61.289C323.442 61.4715 323.573 61.8006 323.645 62.022C323.725 62.2643 323.812 62.6173 323.863 62.9045C323.908 63.1677 323.938 63.404 323.929 63.428C323.92 63.4519 323.893 63.4968 323.866 63.5267C323.839 63.5566 323.779 63.5776 323.728 63.5776C323.681 63.5776 323.624 63.5656 323.606 63.5536C323.588 63.5417 323.558 63.5058 323.543 63.4729C323.525 63.4399 323.501 63.3532 323.492 63.2784C323.48 63.2036 323.439 62.9763 323.397 62.7698C323.355 62.5634 323.274 62.2553 323.217 62.0818C323.161 61.9083 323.044 61.6271 322.963 61.4536C322.88 61.2801 322.709 60.9839 322.584 60.7954C322.416 60.5412 322.255 60.3497 321.968 60.0625C321.75 59.8441 321.451 59.5839 321.293 59.4702C321.137 59.3595 320.832 59.183 320.62 59.0783C320.408 58.9706 320.097 58.842 319.933 58.7911C319.768 58.7403 319.514 58.6715 319.365 58.6386C319.218 58.6086 318.92 58.5668 318.707 58.5488C318.409 58.5189 318.229 58.5189 317.93 58.5488C317.718 58.5668 317.407 58.6116 317.243 58.6445C317.079 58.6774 316.816 58.7463 316.66 58.7941C316.505 58.845 316.188 58.9796 315.958 59.0933C315.728 59.2069 315.411 59.3894 315.255 59.5001C315.1 59.6138 314.81 59.8651 314.613 60.0625C314.416 60.26 314.165 60.5501 314.051 60.7057C313.94 60.8613 313.758 61.1784 313.642 61.4087C313.528 61.6391 313.387 61.9831 313.331 62.1715C313.274 62.36 313.208 62.6023 313.19 62.71C313.166 62.8357 313.127 62.9284 313.086 62.9703C313.047 63.0092 312.993 63.0391 312.963 63.0391C312.933 63.0421 312.873 63.0151 312.829 62.9793C312.76 62.9314 312.745 62.8955 312.745 62.7998C312.745 62.7339 312.787 62.5215 312.838 62.3271C312.885 62.1356 312.99 61.8305 313.062 61.648C313.136 61.4655 313.253 61.2172 313.319 61.0946C313.387 60.9719 313.531 60.7356 313.645 60.5711C313.755 60.4065 313.958 60.1433 314.096 59.9877C314.236 59.8322 314.481 59.5899 314.646 59.4552C314.807 59.3176 315.064 59.1232 315.211 59.0245C315.36 58.9257 315.641 58.7672 315.838 58.6715C316.035 58.5757 316.34 58.4471 316.52 58.3903C316.696 58.3304 316.977 58.2556 317.147 58.2227C317.315 58.1898 317.554 58.1479 317.676 58.133C317.799 58.118 318.122 58.1121 318.394 58.118ZM318.423 59.0185C318.683 59.0245 318.976 59.0544 319.156 59.0903C319.32 59.1232 319.568 59.186 319.709 59.2279C319.849 59.2698 320.112 59.3745 320.291 59.4612C320.474 59.548 320.722 59.6826 320.844 59.7604C320.967 59.8411 321.128 59.9548 321.2 60.0147C321.272 60.0745 321.34 60.1493 321.352 60.1822C321.364 60.2151 321.361 60.2749 321.349 60.3168C321.334 60.3587 321.29 60.4095 321.248 60.4305C321.206 60.4484 321.155 60.4664 321.137 60.4664C321.116 60.4664 320.991 60.3886 320.859 60.2929C320.728 60.1941 320.513 60.0565 320.381 59.9817C320.25 59.91 320.04 59.8082 319.918 59.7574C319.795 59.7065 319.601 59.6377 319.484 59.6018C319.371 59.5689 319.156 59.5211 319.006 59.4941C318.848 59.4672 318.561 59.4493 318.304 59.4493C318.05 59.4493 317.76 59.4672 317.602 59.4941C317.455 59.5211 317.24 59.5659 317.123 59.5988C317.01 59.6317 316.813 59.6976 316.69 59.7484C316.567 59.7993 316.427 59.8382 316.379 59.8322C316.325 59.8262 316.269 59.7903 316.23 59.7394C316.179 59.6736 316.173 59.6437 316.197 59.5779C316.215 59.533 316.281 59.4642 316.346 59.4283C316.412 59.3894 316.606 59.3146 316.78 59.2578C316.953 59.201 317.195 59.1351 317.318 59.1082C317.44 59.0813 317.643 59.0454 317.766 59.0304C317.888 59.0155 318.184 59.0095 318.423 59.0185ZM318.394 59.9159C318.549 59.9249 318.8 59.9518 318.946 59.9758C319.096 60.0027 319.338 60.0625 319.484 60.1134C319.634 60.1612 319.882 60.2689 320.037 60.3497C320.193 60.4305 320.435 60.583 320.575 60.6877C320.716 60.7925 320.925 60.9779 321.039 61.0976C321.155 61.2202 321.308 61.3997 321.382 61.4984C321.454 61.5972 321.568 61.7737 321.633 61.8873C321.696 62.001 321.789 62.1925 321.837 62.3062C321.884 62.4198 321.956 62.6382 321.995 62.7848C322.034 62.9314 322.103 63.2904 322.141 63.5776C322.183 63.8647 322.231 64.2836 322.249 64.5049C322.264 64.7263 322.279 65.1122 322.279 65.3575C322.279 65.6058 322.264 65.9887 322.249 66.2101C322.234 66.4315 322.198 66.7695 322.171 66.958C322.141 67.1764 322.106 67.3289 322.073 67.3768C322.04 67.4217 321.983 67.4546 321.932 67.4605C321.878 67.4665 321.816 67.4486 321.771 67.4127C321.714 67.3678 321.696 67.3259 321.702 67.2511C321.705 67.1973 321.729 66.9909 321.753 66.7934C321.78 66.596 321.816 66.1981 321.834 65.9109C321.857 65.537 321.857 65.2259 321.834 64.819C321.816 64.5079 321.78 64.0891 321.756 63.8917C321.729 63.6942 321.675 63.3652 321.633 63.1587C321.589 62.9523 321.517 62.6771 321.469 62.5455C321.421 62.4139 321.328 62.2104 321.269 62.0968C321.206 61.9831 321.095 61.8066 321.024 61.7079C320.952 61.6091 320.794 61.4267 320.668 61.304C320.542 61.1784 320.312 60.9929 320.157 60.8912C320.002 60.7895 319.78 60.6638 319.664 60.616C319.55 60.5681 319.326 60.4933 319.171 60.4514C318.955 60.3916 318.788 60.3677 318.483 60.3557C318.229 60.3437 317.987 60.3527 317.826 60.3766C317.685 60.3946 317.458 60.4454 317.318 60.4843C317.177 60.5262 316.929 60.6249 316.765 60.7027C316.6 60.7835 316.358 60.9271 316.227 61.0258C316.095 61.1245 315.901 61.298 315.796 61.4117C315.692 61.5254 315.53 61.7318 315.438 61.8724C315.345 62.013 315.22 62.2403 315.163 62.3809C315.103 62.5215 315.025 62.7489 314.989 62.8895C314.942 63.066 314.918 63.2724 314.906 63.5626C314.891 63.9246 314.897 64.0353 314.96 64.3703C315.019 64.6934 315.031 64.8579 315.031 65.3336C315.031 65.887 315.028 65.9109 314.966 65.9738C314.93 66.0127 314.861 66.0426 314.81 66.0426C314.759 66.0456 314.697 66.0216 314.667 65.9917C314.619 65.9438 314.613 65.875 314.61 65.4084C314.61 64.9776 314.595 64.8101 314.538 64.5199C314.484 64.2506 314.469 64.0622 314.469 63.757C314.469 63.5087 314.487 63.2545 314.517 63.0989C314.544 62.9583 314.601 62.7369 314.643 62.6053C314.688 62.4737 314.774 62.2523 314.84 62.1117C314.906 61.9711 315.037 61.7438 315.13 61.6061C315.223 61.4655 315.39 61.2591 315.498 61.1425C315.605 61.0258 315.787 60.8523 315.901 60.7595C316.015 60.6668 316.221 60.5202 316.361 60.4365C316.502 60.3527 316.717 60.242 316.839 60.1912C316.962 60.1403 317.192 60.0685 317.348 60.0266C317.503 59.9877 317.739 59.9429 317.871 59.9279C318.002 59.9159 318.238 59.91 318.394 59.9159ZM315.423 60.0176C315.471 60.0147 315.542 60.0386 315.581 60.0685C315.626 60.1044 315.653 60.1523 315.653 60.2121C315.656 60.2869 315.596 60.3587 315.282 60.6758C315.04 60.9181 314.843 61.1484 314.72 61.3339C314.616 61.4895 314.472 61.7408 314.404 61.8873C314.332 62.0339 314.239 62.2643 314.197 62.3959C314.156 62.5275 314.099 62.731 314.072 62.8446C314.045 62.9643 314.018 63.2694 314.009 63.5626C313.994 64.0083 314 64.119 314.063 64.475C314.117 64.7831 314.135 64.9866 314.135 65.3426C314.132 65.6716 314.117 65.881 314.081 66.0605C314.051 66.2011 313.985 66.4315 313.937 66.578C313.89 66.7216 313.803 66.937 313.743 67.0537C313.683 67.1734 313.576 67.3588 313.504 67.4665C313.435 67.5742 313.292 67.7627 313.187 67.8853C313.083 68.008 312.918 68.1725 312.826 68.2503C312.733 68.3311 312.625 68.3939 312.589 68.3939C312.551 68.3939 312.494 68.376 312.461 68.355C312.428 68.3311 312.392 68.2772 312.38 68.2353C312.365 68.1905 312.371 68.1277 312.386 68.0947C312.404 68.0618 312.479 67.9781 312.557 67.9063C312.631 67.8375 312.751 67.7208 312.823 67.646C312.891 67.5712 313.005 67.4366 313.074 67.3469C313.142 67.2571 313.256 67.0746 313.328 66.943C313.399 66.8114 313.489 66.611 313.531 66.4943C313.573 66.3776 313.63 66.1622 313.659 66.0156C313.692 65.8511 313.713 65.6058 313.713 65.3874C313.713 65.1331 313.692 64.9148 313.642 64.6395C313.585 64.3254 313.57 64.1519 313.57 63.7421C313.57 63.3412 313.585 63.1647 313.636 62.9045C313.671 62.722 313.743 62.4468 313.791 62.2912C313.842 62.1356 313.952 61.8664 314.033 61.6929C314.117 61.5194 314.272 61.2442 314.383 61.0796C314.514 60.8822 314.708 60.6518 314.96 60.3976C315.267 60.0894 315.354 60.0176 315.423 60.0176ZM311.842 60.2271C311.86 60.2271 311.908 60.242 311.947 60.26C311.983 60.2809 312.022 60.3108 312.034 60.3288C312.046 60.3467 312.057 60.3946 312.057 60.4365C312.057 60.4783 311.989 60.6668 311.905 60.8553C311.818 61.0437 311.693 61.3788 311.621 61.5942C311.549 61.8126 311.457 62.1566 311.418 62.357C311.376 62.5604 311.328 62.8925 311.307 63.0989C311.286 63.3352 311.28 63.6613 311.292 63.9814C311.301 64.2626 311.334 64.6306 311.367 64.8041C311.4 64.9776 311.442 65.2169 311.505 65.5579L311.424 65.6297C311.376 65.6686 311.313 65.7015 311.28 65.7015C311.248 65.7015 311.188 65.6716 311.149 65.6327C311.101 65.5889 311.061 65.4971 311.029 65.3575C311.002 65.2408 310.961 65.0195 310.931 64.8639C310.892 64.6425 310.88 64.4002 310.877 63.772C310.877 63.1228 310.889 62.8985 310.931 62.6352C310.961 62.4527 311.017 62.1715 311.056 62.007C311.095 61.8425 311.17 61.5792 311.221 61.4237C311.274 61.2681 311.364 61.0258 311.421 60.8852C311.478 60.7446 311.567 60.5531 311.615 60.4604C311.666 60.3677 311.729 60.2779 311.756 60.26C311.783 60.242 311.821 60.2271 311.842 60.2271ZM318.253 60.8283C318.603 60.8254 318.603 60.8254 318.663 60.9061C318.698 60.954 318.725 61.0108 318.725 61.0348C318.725 61.0587 318.698 61.1155 318.663 61.1604C318.606 61.2412 318.594 61.2442 318.319 61.2442C318.163 61.2442 317.93 61.2651 317.805 61.292C317.676 61.316 317.47 61.3788 317.348 61.4296C317.225 61.4775 317.043 61.5673 316.944 61.6271C316.845 61.6869 316.672 61.8245 316.559 61.9322C316.445 62.0399 316.304 62.2015 316.242 62.2912C316.182 62.3809 316.089 62.5395 316.035 62.6412C315.985 62.7459 315.916 62.9284 315.88 63.0451C315.847 63.1707 315.811 63.4011 315.802 63.5776C315.787 63.8348 315.799 63.9605 315.856 64.2656C315.919 64.5917 315.928 64.7293 315.928 65.3426C315.928 65.9648 315.919 66.0844 315.856 66.3896C315.817 66.578 315.734 66.8951 315.668 67.0926C315.605 67.29 315.483 67.5982 315.393 67.7806C315.306 67.9631 315.166 68.2234 315.079 68.364C314.989 68.5046 314.858 68.699 314.783 68.7978C314.705 68.8965 314.496 69.1298 314.314 69.3153C314.135 69.4978 313.955 69.6563 313.919 69.6653C313.881 69.6743 313.818 69.6683 313.776 69.6503C313.734 69.6324 313.686 69.5845 313.671 69.5367C313.653 69.4918 313.647 69.4349 313.653 69.411C313.662 69.3871 313.809 69.2255 313.979 69.052C314.15 68.8785 314.383 68.6093 314.499 68.4537C314.616 68.2982 314.771 68.0618 314.846 67.9302C314.924 67.7986 315.04 67.5623 315.106 67.4067C315.175 67.2511 315.267 66.9939 315.312 66.8383C315.36 66.6828 315.423 66.4195 315.453 66.255C315.498 66.0246 315.509 65.8182 315.509 65.3575C315.509 64.8699 315.498 64.7113 315.45 64.5049C315.402 64.3075 315.39 64.143 315.39 63.757C315.39 63.3293 315.399 63.2305 315.459 63.0241C315.498 62.8925 315.569 62.6891 315.62 62.5754C315.671 62.4617 315.772 62.2703 315.847 62.1566C315.919 62.0429 316.083 61.8425 316.209 61.7108C316.334 61.5822 316.517 61.4207 316.615 61.3489C316.714 61.2801 316.881 61.1784 316.989 61.1245C317.096 61.0707 317.258 61.0019 317.348 60.969C317.437 60.936 317.599 60.8942 317.706 60.8702C317.814 60.8493 318.059 60.8283 318.253 60.8283ZM321.92 60.8583C321.929 60.8583 321.968 60.8642 322.01 60.8762C322.061 60.8912 322.144 60.9929 322.288 61.2143C322.398 61.3878 322.548 61.669 322.623 61.8425C322.694 62.016 322.79 62.2792 322.832 62.4258C322.877 62.5724 322.942 62.8775 322.981 63.0989C323.02 63.3203 323.077 63.6972 323.107 63.9365C323.149 64.2776 323.161 64.5827 323.158 65.3725C323.158 66.231 323.149 66.4464 323.092 66.8772C323.056 67.1524 322.99 67.5563 322.948 67.7717C322.907 67.99 322.826 68.358 322.766 68.5883C322.706 68.8187 322.587 69.2226 322.497 69.4858C322.389 69.8089 322.315 69.9824 322.27 70.0183C322.234 70.0482 322.168 70.0721 322.123 70.0691C322.076 70.0691 322.01 70.0392 321.977 70.0003C321.929 69.9525 321.917 69.9106 321.926 69.8448C321.935 69.7969 322.01 69.5606 322.094 69.3213C322.177 69.0819 322.3 68.6781 322.363 68.4238C322.428 68.1695 322.518 67.7657 322.56 67.5264C322.602 67.287 322.661 66.8981 322.688 66.6588C322.721 66.3627 322.739 65.9678 322.739 65.4173C322.742 64.9507 322.724 64.4511 322.703 64.2357C322.682 64.0293 322.638 63.6942 322.608 63.4878C322.575 63.2814 322.524 62.9912 322.491 62.8446C322.461 62.698 322.404 62.4886 322.369 62.3809C322.333 62.2733 322.24 62.0519 322.162 61.8873C322.085 61.7228 321.968 61.5074 321.899 61.4087C321.834 61.31 321.762 61.1963 321.744 61.1544C321.714 61.1006 321.714 61.0587 321.738 61.0048C321.756 60.963 321.801 60.9151 321.837 60.8942C321.875 60.8762 321.911 60.8583 321.92 60.8583ZM319.598 61.1544C319.625 61.1544 319.7 61.1784 319.762 61.2113C319.822 61.2412 319.975 61.3459 320.097 61.4446C320.22 61.5433 320.381 61.6869 320.453 61.7707C320.525 61.8514 320.632 61.9921 320.695 62.0818C320.755 62.1715 320.856 62.345 320.916 62.4647C320.976 62.5814 321.057 62.7968 321.101 62.9404C321.143 63.0869 321.209 63.419 321.248 63.6823C321.287 63.9455 321.334 64.3972 321.352 64.6844C321.376 64.9896 321.382 65.3964 321.37 65.6567C321.361 65.902 321.337 66.252 321.32 66.4345C321.302 66.6169 321.254 66.958 321.215 67.1973C321.176 67.4366 321.095 67.8195 321.036 68.0499C320.979 68.2802 320.871 68.6452 320.802 68.8576C320.731 69.07 320.602 69.414 320.516 69.6204C320.429 69.8268 320.291 70.129 320.211 70.2935C320.127 70.458 320.007 70.6824 319.945 70.7931C319.879 70.9068 319.798 71.0115 319.762 71.0294C319.724 71.0474 319.664 71.0534 319.628 71.0444C319.589 71.0354 319.538 71.0055 319.514 70.9816C319.49 70.9576 319.47 70.8948 319.47 70.8469C319.47 70.7931 319.538 70.6316 319.64 70.4491C319.733 70.2815 319.87 70.0093 319.948 69.8448C320.025 69.6803 320.163 69.3512 320.256 69.1119C320.345 68.8725 320.471 68.5106 320.531 68.3042C320.587 68.0977 320.677 67.7417 320.725 67.5114C320.773 67.2811 320.835 66.9251 320.865 66.7186C320.907 66.4195 320.919 66.1473 320.919 65.3725C320.919 64.5139 320.91 64.3464 320.85 63.9365C320.811 63.6823 320.755 63.3502 320.722 63.2036C320.689 63.057 320.626 62.8536 320.584 62.7549C320.539 62.6562 320.45 62.4886 320.381 62.3809C320.312 62.2733 320.196 62.1177 320.121 62.0369C320.046 61.9532 319.864 61.8036 319.715 61.6989C319.556 61.5912 319.428 61.4805 319.41 61.4386C319.389 61.3878 319.389 61.3429 319.413 61.292C319.434 61.2531 319.47 61.2053 319.496 61.1873C319.523 61.1694 319.568 61.1544 319.598 61.1544ZM318.259 61.7258C318.409 61.7258 318.615 61.7438 318.722 61.7707C318.83 61.7946 319.012 61.8604 319.126 61.9143C319.242 61.9681 319.422 62.0788 319.526 62.1596C319.634 62.2403 319.777 62.3809 319.852 62.4707C319.924 62.5604 320.022 62.701 320.067 62.7848C320.115 62.8656 320.181 63.0211 320.217 63.1288C320.25 63.2365 320.312 63.5446 320.351 63.8169C320.393 64.0891 320.441 64.5378 320.456 64.819C320.48 65.175 320.48 65.3515 320.459 65.4084C320.441 65.4562 320.399 65.5041 320.366 65.522C320.333 65.54 320.279 65.552 320.247 65.552C320.214 65.552 320.154 65.5191 320.112 65.4772C320.043 65.4084 320.037 65.3784 320.037 65.1391C320.037 64.9955 320.022 64.7323 320.007 64.5498C319.993 64.3673 319.957 64.0801 319.93 63.9066C319.906 63.7331 319.858 63.4848 319.822 63.3532C319.789 63.2216 319.721 63.0361 319.67 62.9374C319.616 62.8416 319.493 62.6801 319.395 62.5844C319.275 62.4647 319.144 62.372 319.006 62.3062C318.89 62.2523 318.725 62.1925 318.642 62.1745C318.555 62.1566 318.406 62.1416 318.313 62.1416C318.217 62.1416 318.032 62.1685 317.9 62.2015C317.769 62.2374 317.584 62.3062 317.485 62.36C317.389 62.4139 317.234 62.5365 317.138 62.6352C317.046 62.7339 316.935 62.8835 316.893 62.9643C316.851 63.0481 316.792 63.1946 316.765 63.2934C316.735 63.3921 316.69 63.4968 316.663 63.5267C316.636 63.5566 316.573 63.5805 316.52 63.5776C316.463 63.5776 316.397 63.5536 316.361 63.5177C316.328 63.4848 316.301 63.422 316.301 63.3771C316.301 63.3293 316.337 63.1976 316.376 63.084C316.418 62.9703 316.496 62.8028 316.55 62.716C316.6 62.6263 316.714 62.4797 316.795 62.3899C316.878 62.2972 317.025 62.1656 317.123 62.0938C317.222 62.025 317.383 61.9292 317.482 61.8873C317.581 61.8425 317.736 61.7886 317.826 61.7677C317.915 61.7467 318.113 61.7258 318.259 61.7258ZM318.319 62.6292C318.474 62.6352 318.579 62.6622 318.722 62.728C318.83 62.7788 318.976 62.8716 319.048 62.9374C319.12 63.0002 319.209 63.1079 319.248 63.1737C319.287 63.2395 319.338 63.3532 319.365 63.428C319.389 63.5028 319.44 63.766 319.472 64.0113C319.511 64.2925 319.541 64.7024 319.55 65.1032C319.562 65.4951 319.553 65.899 319.532 66.1353C319.511 66.3477 319.47 66.6798 319.44 66.8682C319.407 67.0567 319.341 67.3738 319.293 67.5712C319.245 67.7687 319.147 68.0977 319.078 68.3042C319.009 68.5106 318.887 68.8337 318.806 69.0221C318.725 69.2106 318.564 69.5426 318.447 69.755C318.334 69.9674 318.125 70.3115 317.99 70.5179C317.853 70.7243 317.688 70.9487 317.625 71.0175C317.563 71.0863 317.485 71.1461 317.452 71.1461C317.419 71.1461 317.356 71.1222 317.312 71.0863C317.249 71.0414 317.228 71.0025 317.228 70.9307C317.231 70.8559 317.279 70.7662 317.419 70.5777C317.527 70.4371 317.691 70.1948 317.79 70.0392C317.885 69.8837 318.041 69.6144 318.134 69.4409C318.223 69.2674 318.361 68.9802 318.438 68.7978C318.516 68.6153 318.624 68.3341 318.68 68.1695C318.737 68.005 318.83 67.6819 318.887 67.4516C318.943 67.2212 319.018 66.8383 319.054 66.599C319.111 66.237 319.123 66.0366 319.123 65.3874C319.123 64.7383 319.114 64.5348 319.057 64.1609C319.021 63.9156 318.97 63.6374 318.943 63.5476C318.917 63.4579 318.863 63.3382 318.824 63.2874C318.785 63.2335 318.698 63.1617 318.633 63.1288C318.567 63.0959 318.462 63.06 318.403 63.051C318.34 63.0391 318.223 63.0481 318.14 63.066C318.059 63.084 317.933 63.1378 317.865 63.1887C317.793 63.2365 317.712 63.3293 317.679 63.3921C317.649 63.4519 317.617 63.5387 317.605 63.5865C317.596 63.6314 317.614 63.8318 317.646 64.0353C317.679 64.2357 317.718 64.5468 317.736 64.7293C317.751 64.9118 317.766 65.19 317.766 65.3515C317.766 65.5101 317.751 65.8062 317.733 66.0097C317.715 66.2101 317.676 66.5092 317.643 66.6738C317.602 66.9071 317.572 66.9849 317.521 67.0268C317.482 67.0567 317.422 67.0806 317.386 67.0776C317.348 67.0776 317.282 67.0417 317.237 66.9969C317.171 66.9251 317.162 66.8981 317.18 66.8084C317.192 66.7516 317.222 66.596 317.246 66.4644C317.273 66.3268 317.297 65.9468 317.309 65.5669C317.321 65.1451 317.312 64.8011 317.291 64.6096C317.273 64.4451 317.234 64.2028 317.207 64.0712C317.183 63.9395 317.168 63.76 317.174 63.6673C317.183 63.5746 317.228 63.416 317.276 63.3083C317.327 63.2006 317.419 63.054 317.485 62.9822C317.548 62.9104 317.661 62.8177 317.736 62.7758C317.811 62.731 317.924 62.6801 317.99 62.6592C318.056 62.6382 318.202 62.6263 318.319 62.6292ZM318.283 63.5207C318.295 63.5177 318.337 63.5357 318.379 63.5566C318.42 63.5746 318.468 63.6254 318.483 63.6673C318.498 63.7092 318.531 63.8647 318.555 64.0113C318.582 64.1579 318.618 64.4481 318.636 64.6545C318.657 64.8789 318.663 65.2558 318.654 65.5968C318.642 65.9079 318.615 66.3058 318.588 66.4793C318.561 66.6528 318.507 66.94 318.468 67.1225C318.429 67.305 318.361 67.5742 318.319 67.7208C318.274 67.8674 318.193 68.1187 318.134 68.2742C318.077 68.4298 317.945 68.7349 317.844 68.9473C317.742 69.1597 317.587 69.4589 317.497 69.6055C317.41 69.752 317.264 69.9824 317.171 70.114C317.082 70.2456 316.911 70.476 316.795 70.6226C316.675 70.7692 316.559 70.9008 316.532 70.9158C316.502 70.9277 316.448 70.9367 316.406 70.9367C316.364 70.9367 316.304 70.9098 316.272 70.8769C316.239 70.844 316.212 70.7781 316.212 70.7273C316.212 70.6615 316.257 70.5867 316.37 70.4521C316.46 70.3474 316.615 70.1499 316.717 70.0093C316.822 69.8687 316.98 69.6324 317.073 69.4858C317.162 69.3392 317.336 69.0161 317.455 68.7678C317.575 68.5225 317.727 68.1576 317.796 67.9601C317.862 67.7627 317.951 67.4725 317.99 67.317C318.029 67.1614 318.089 66.8772 318.125 66.6887C318.157 66.5003 318.199 66.1233 318.22 65.8511C318.244 65.4772 318.244 65.2408 318.22 64.8789C318.199 64.6156 318.157 64.2477 318.125 64.0652C318.074 63.787 318.071 63.7152 318.104 63.6523C318.122 63.6105 318.166 63.5656 318.199 63.5506C318.232 63.5357 318.268 63.5207 318.283 63.5207ZM312.888 63.7301C312.906 63.7271 312.96 63.757 313.002 63.7959C313.071 63.8558 313.083 63.8917 313.104 64.1459C313.118 64.3015 313.151 64.5438 313.175 64.6844C313.202 64.825 313.232 65.0464 313.241 65.178C313.253 65.3126 313.244 65.537 313.226 65.6866C313.205 65.8332 313.148 66.0785 313.101 66.225C313.053 66.3716 312.963 66.59 312.9 66.7097C312.841 66.8293 312.73 67.0088 312.655 67.1105C312.581 67.2122 312.437 67.3738 312.335 67.4695C312.21 67.5892 312.123 67.646 312.072 67.646C312.031 67.646 311.965 67.6101 311.917 67.5653C311.854 67.4964 311.842 67.4635 311.86 67.3917C311.872 67.3379 311.938 67.2541 312.022 67.1793C312.099 67.1135 312.231 66.964 312.315 66.8503C312.401 66.7366 312.509 66.5631 312.56 66.4644C312.607 66.3657 312.679 66.1921 312.715 66.0755C312.76 65.9319 312.787 65.7584 312.796 65.522C312.808 65.2588 312.799 65.0883 312.751 64.7891C312.715 64.5767 312.679 64.2925 312.667 64.1609C312.652 63.9844 312.658 63.9036 312.688 63.8528C312.709 63.8139 312.754 63.772 312.79 63.757C312.823 63.7421 312.867 63.7301 312.888 63.7301ZM316.606 64.3015C316.663 64.3075 316.72 64.3404 316.753 64.3853C316.795 64.4421 316.816 64.5588 316.842 64.8938C316.869 65.2259 316.869 65.4353 316.842 65.7763C316.822 66.0246 316.78 66.3657 316.747 66.5392C316.711 66.7127 316.639 67.0088 316.585 67.1973C316.532 67.3858 316.415 67.7088 316.328 67.9153C316.239 68.1217 316.08 68.4418 315.973 68.6302C315.865 68.8157 315.671 69.1119 315.539 69.2884C315.408 69.4619 315.175 69.7371 315.016 69.8986C314.771 70.1469 314.717 70.1888 314.637 70.1888C314.565 70.1888 314.523 70.1679 314.478 70.108C314.442 70.0602 314.416 70.0003 314.419 69.9734C314.419 69.9435 314.529 69.8029 314.664 69.6593C314.798 69.5127 314.989 69.2943 315.088 69.1717C315.184 69.049 315.345 68.8247 315.444 68.6781C315.539 68.5315 315.692 68.2683 315.778 68.0947C315.865 67.9212 315.985 67.646 316.047 67.4815C316.11 67.317 316.2 67.0268 316.248 66.8383C316.293 66.6498 316.355 66.3327 316.379 66.1353C316.415 65.8631 316.424 65.6357 316.409 65.193C316.4 64.8729 316.385 64.5737 316.376 64.5289C316.364 64.466 316.379 64.4271 316.436 64.3673C316.493 64.3135 316.538 64.2955 316.606 64.3015ZM323.83 64.2955C323.872 64.2925 323.941 64.3195 324.057 64.4092V65.4084C324.057 66.0336 324.042 66.5362 324.018 66.7635C323.994 66.961 323.941 67.3499 323.893 67.6311C323.845 67.9123 323.767 68.3191 323.716 68.5375C323.648 68.8337 323.606 68.9473 323.558 68.9922C323.519 69.0251 323.456 69.052 323.415 69.052C323.373 69.052 323.31 69.0221 323.271 68.9832C323.235 68.9473 323.205 68.8875 323.205 68.8516C323.205 68.8127 323.238 68.6512 323.277 68.4926C323.319 68.3311 323.379 68.0588 323.412 67.8853C323.445 67.7118 323.492 67.4306 323.516 67.2571C323.54 67.0836 323.579 66.8024 323.597 66.6289C323.618 66.4554 323.639 65.884 323.642 65.3575C323.651 64.5079 323.657 64.3942 323.702 64.3494C323.728 64.3195 323.788 64.2955 323.83 64.2955ZM320.181 66.2699C320.226 66.2699 320.291 66.2909 320.33 66.3148C320.384 66.3507 320.396 66.3866 320.396 66.5092C320.396 66.593 320.369 66.8174 320.336 67.0118C320.303 67.2033 320.235 67.5294 320.187 67.7358C320.136 67.9422 320.04 68.2772 319.975 68.4836C319.906 68.6901 319.789 69.0072 319.718 69.1867C319.643 69.3691 319.496 69.6922 319.389 69.9046C319.281 70.117 319.099 70.4491 318.985 70.6375C318.872 70.826 318.743 71.0264 318.704 71.0803C318.648 71.1551 318.612 71.176 318.528 71.176C318.462 71.176 318.4 71.1521 318.364 71.1162C318.331 71.0833 318.304 71.0234 318.304 70.9816C318.304 70.9397 318.376 70.7961 318.462 70.6615C318.552 70.5239 318.686 70.3055 318.761 70.1739C318.836 70.0422 318.991 69.7401 319.105 69.5008C319.221 69.2614 319.377 68.8905 319.455 68.6781C319.532 68.4657 319.64 68.1217 319.697 67.9153C319.753 67.7088 319.831 67.3648 319.873 67.1524C319.912 66.94 319.954 66.6828 319.966 66.584C319.981 66.4823 320.013 66.3746 320.046 66.3387C320.079 66.2968 320.136 66.2699 320.181 66.2699ZM314.526 66.7785C314.589 66.7785 314.652 66.8024 314.688 66.8383C314.72 66.8712 314.747 66.934 314.747 66.9819C314.747 67.0268 314.679 67.2033 314.595 67.3768C314.511 67.5503 314.374 67.7986 314.287 67.9302C314.2 68.0618 314.03 68.2922 313.905 68.4388C313.779 68.5883 313.6 68.7768 313.504 68.8606C313.405 68.9443 313.298 69.0281 313.262 69.0461C313.214 69.07 313.169 69.073 313.113 69.052C313.065 69.0371 313.011 68.9892 312.993 68.9473C312.972 68.9054 312.954 68.8516 312.954 68.8277C312.954 68.8037 313.118 68.6183 313.322 68.4178C313.573 68.1665 313.755 67.9541 313.89 67.7507C313.997 67.5862 314.15 67.317 314.227 67.1524C314.302 66.9879 314.38 66.8353 314.395 66.8174C314.413 66.7964 314.469 66.7785 314.526 66.7785ZM317.064 67.7657C317.117 67.7627 317.177 67.7896 317.213 67.8285C317.246 67.8644 317.27 67.9272 317.267 67.9691C317.264 68.014 317.213 68.1636 317.153 68.3042C317.093 68.4448 316.98 68.6811 316.902 68.8277C316.824 68.9772 316.681 69.2196 316.585 69.3661C316.49 69.5157 316.331 69.7431 316.23 69.8747C316.131 70.0063 315.958 70.2187 315.847 70.3474C315.722 70.488 315.611 70.5867 315.563 70.5986C315.515 70.6106 315.459 70.6166 315.435 70.6106C315.411 70.6076 315.366 70.5807 315.336 70.5538C315.306 70.5239 315.282 70.461 315.285 70.4072C315.285 70.3264 315.324 70.2666 315.489 70.0901C315.599 69.9704 315.796 69.7311 315.928 69.5546C316.059 69.3811 316.23 69.1328 316.307 69.0042C316.382 68.8725 316.514 68.6332 316.594 68.4687C316.678 68.3042 316.774 68.0947 316.81 68.005C316.842 67.9153 316.896 67.8225 316.923 67.8046C316.95 67.7836 317.013 67.7657 317.064 67.7657ZM321.66 68.1576C321.672 68.1546 321.714 68.1725 321.756 68.1935C321.798 68.2114 321.846 68.2623 321.863 68.3042C321.89 68.364 321.872 68.4567 321.771 68.7978C321.702 69.0281 321.583 69.3841 321.502 69.5905C321.424 69.7969 321.296 70.105 321.218 70.2786C321.14 70.4521 321.057 70.6166 321.03 70.6465C321 70.6764 320.937 70.7004 320.88 70.6974C320.826 70.6974 320.761 70.6734 320.725 70.6375C320.692 70.6046 320.665 70.5478 320.665 70.5119C320.665 70.473 320.728 70.3025 320.808 70.129C320.889 69.9555 321.018 69.6533 321.092 69.4559C321.167 69.2584 321.278 68.9354 321.337 68.7379C321.397 68.5405 321.457 68.346 321.472 68.3042C321.487 68.2623 321.532 68.2144 321.568 68.1935C321.606 68.1755 321.645 68.1576 321.657 68.1576H321.66Z" fill="#F35423"/>
<path d="M326.761 55.3887H310.154V72.3122H326.761V55.3887Z" stroke="black" stroke-width="0.632655"/>
<circle cx="326.603" cy="55.3893" r="1.7398" fill="#F35423" stroke="#7F1E00" stroke-width="0.316327"/>
<circle cx="326.603" cy="72.1549" r="1.7398" fill="#F35423" stroke="#7F1E00" stroke-width="0.316327"/>
<circle cx="310.154" cy="72.1549" r="1.7398" fill="#F35423" stroke="#7F1E00" stroke-width="0.316327"/>
<circle cx="310.154" cy="55.3893" r="1.7398" fill="#F35423" stroke="#7F1E00" stroke-width="0.316327"/>
<path d="M365.504 46.5811H348.896V63.5046H365.504V46.5811Z" stroke="black" stroke-width="0.632655"/>
<path d="M347 54.7089C354.98 47.313 359.528 47.1808 367.403 54.7089C359.974 62.2559 355.423 62.2841 347 54.7089Z" fill="#FFC3B1"/>
<circle cx="357.124" cy="54.8063" r="5.37756" fill="#F35423"/>
<mask id="path-25-inside-1_3017_6599" fill="white">
<path d="M356.781 50.9903C356.767 50.8359 356.631 50.7211 356.478 50.7454C355.647 50.8776 354.877 51.2613 354.271 51.8447C354.16 51.9522 354.169 52.1304 354.284 52.2345C354.399 52.3385 354.575 52.3288 354.688 52.2225C355.198 51.7423 355.838 51.4233 356.528 51.3058C356.681 51.2798 356.795 51.1446 356.781 50.9903Z"/>
</mask>
<path d="M356.781 50.9903C356.767 50.8359 356.631 50.7211 356.478 50.7454C355.647 50.8776 354.877 51.2613 354.271 51.8447C354.16 51.9522 354.169 52.1304 354.284 52.2345C354.399 52.3385 354.575 52.3288 354.688 52.2225C355.198 51.7423 355.838 51.4233 356.528 51.3058C356.681 51.2798 356.795 51.1446 356.781 50.9903Z" stroke="white" stroke-width="0.632655" mask="url(#path-25-inside-1_3017_6599)"/>
<mask id="path-26-inside-2_3017_6599" fill="white">
<path d="M353.875 52.7753C353.744 52.6932 353.57 52.7327 353.497 52.8694C353.341 53.1615 353.22 53.4715 353.139 53.7925C353.101 53.9427 353.202 54.0892 353.355 54.1171C353.507 54.1449 353.652 54.0436 353.692 53.8938C353.759 53.6422 353.854 53.3986 353.974 53.1676C354.045 53.0301 354.006 52.8575 353.875 52.7753Z"/>
</mask>
<path d="M353.875 52.7753C353.744 52.6932 353.57 52.7327 353.497 52.8694C353.341 53.1615 353.22 53.4715 353.139 53.7925C353.101 53.9427 353.202 54.0892 353.355 54.1171C353.507 54.1449 353.652 54.0436 353.692 53.8938C353.759 53.6422 353.854 53.3986 353.974 53.1676C354.045 53.0301 354.006 52.8575 353.875 52.7753Z" stroke="white" stroke-width="0.632655" mask="url(#path-26-inside-2_3017_6599)"/>
<circle cx="357.122" cy="54.8061" r="2.21429" fill="#7F1E00"/>
<circle cx="356.49" cy="54.1746" r="0.632655" fill="white"/>
<circle cx="365.347" cy="46.5816" r="1.7398" fill="#F35423" stroke="#7F1E00" stroke-width="0.316327"/>
<circle cx="365.347" cy="63.3473" r="1.7398" fill="#F35423" stroke="#7F1E00" stroke-width="0.316327"/>
<circle cx="348.896" cy="63.3473" r="1.7398" fill="#F35423" stroke="#7F1E00" stroke-width="0.316327"/>
<circle cx="348.896" cy="46.5816" r="1.7398" fill="#F35423" stroke="#7F1E00" stroke-width="0.316327"/>
<path d="M381.189 86.5811H364.582V103.505H381.189V86.5811Z" stroke="black" stroke-width="0.632655"/>
<circle cx="381.031" cy="86.5816" r="1.7398" fill="#F35423" stroke="#7F1E00" stroke-width="0.316327"/>
<circle cx="381.031" cy="103.347" r="1.7398" fill="#F35423" stroke="#7F1E00" stroke-width="0.316327"/>
<circle cx="364.582" cy="103.347" r="1.7398" fill="#F35423" stroke="#7F1E00" stroke-width="0.316327"/>
<circle cx="364.582" cy="86.5816" r="1.7398" fill="#F35423" stroke="#7F1E00" stroke-width="0.316327"/>
<path d="M370.033 100.712V97.4433L372.835 95.8672V99.1361L370.033 100.712Z" fill="#F35423" stroke="black" stroke-width="0.209263" stroke-linejoin="round"/>
<path d="M372.835 95.8669L370.033 97.443L367.289 95.8669L370.033 94.2324L372.835 95.8669Z" fill="white" stroke="black" stroke-width="0.209263" stroke-linejoin="round"/>
<path d="M367.289 95.8672L370.033 97.4433V100.712L367.289 99.1361V95.8672Z" fill="#FFC3B1" stroke="black" stroke-width="0.209263" stroke-linejoin="round"/>
<path d="M372.857 95.8997V92.6308L375.659 91.0547V94.3236L372.857 95.8997Z" fill="#F35423" stroke="black" stroke-width="0.209263" stroke-linejoin="round"/>
<path d="M375.659 91.0544L372.857 92.6305L370.113 91.0544L372.857 89.4199L375.659 91.0544Z" fill="white" stroke="black" stroke-width="0.209263" stroke-linejoin="round"/>
<path d="M370.113 91.0547L372.857 92.6308V95.8997L370.113 94.3236V91.0547Z" fill="#FFC3B1" stroke="black" stroke-width="0.209263" stroke-linejoin="round"/>
<path d="M375.682 100.712V97.4433L378.484 95.8672V99.1361L375.682 100.712Z" fill="#F35423" stroke="black" stroke-width="0.209263" stroke-linejoin="round"/>
<path d="M378.483 95.8669L375.681 97.443L372.938 95.8669L375.681 94.2324L378.483 95.8669Z" fill="white" stroke="black" stroke-width="0.209263" stroke-linejoin="round"/>
<path d="M372.938 95.8672L375.681 97.4433V100.712L372.938 99.1361V95.8672Z" fill="#FFC3B1" stroke="black" stroke-width="0.209263" stroke-linejoin="round"/>
</svg>
