<svg width="526" height="200" viewBox="0 0 526 200" fill="none" xmlns="http://www.w3.org/2000/svg">
<rect width="526" height="200" fill="white"/>
<rect y="23" width="123.065" height="124.174" rx="17.7391" fill="#FFF1ED"/>
<rect x="134.152" y="23" width="123.065" height="124.174" rx="17.7391" fill="#F35423"/>
<path d="M194.857 62H205.879L184.983 92.3537H174L194.857 62Z" fill="white" stroke="white" stroke-width="0.0779691"/>
<path d="M205.794 77.0312H216.816L195.921 107.385H184.938L205.794 77.0312Z" fill="white" stroke="white" stroke-width="0.0779691"/>
<path d="M143.815 156.738H145.964L151.018 169.082H151.192L156.246 156.738H158.395V171.608H156.711V160.31H156.565L151.918 171.608H150.292L145.645 160.31H145.5V171.608H143.815V156.738ZM166.1 171.841C165.093 171.841 164.209 171.601 163.449 171.122C162.694 170.643 162.104 169.972 161.678 169.111C161.257 168.249 161.046 167.242 161.046 166.09C161.046 164.928 161.257 163.914 161.678 163.048C162.104 162.181 162.694 161.508 163.449 161.029C164.209 160.55 165.093 160.31 166.1 160.31C167.106 160.31 167.987 160.55 168.743 161.029C169.503 161.508 170.093 162.181 170.514 163.048C170.94 163.914 171.153 164.928 171.153 166.09C171.153 167.242 170.94 168.249 170.514 169.111C170.093 169.972 169.503 170.643 168.743 171.122C167.987 171.601 167.106 171.841 166.1 171.841ZM166.1 170.301C166.864 170.301 167.494 170.105 167.987 169.713C168.481 169.321 168.847 168.806 169.084 168.167C169.321 167.528 169.44 166.836 169.44 166.09C169.44 165.345 169.321 164.65 169.084 164.006C168.847 163.362 168.481 162.842 167.987 162.445C167.494 162.048 166.864 161.85 166.1 161.85C165.335 161.85 164.705 162.048 164.212 162.445C163.718 162.842 163.353 163.362 163.115 164.006C162.878 164.65 162.76 165.345 162.76 166.09C162.76 166.836 162.878 167.528 163.115 168.167C163.353 168.806 163.718 169.321 164.212 169.713C164.705 170.105 165.335 170.301 166.1 170.301ZM173.797 171.608V156.738H175.51V162.227H175.656C175.781 162.034 175.956 161.787 176.178 161.487C176.406 161.182 176.73 160.911 177.151 160.673C177.577 160.431 178.153 160.31 178.879 160.31C179.819 160.31 180.646 160.545 181.363 161.015C182.079 161.484 182.638 162.15 183.04 163.011C183.442 163.873 183.643 164.89 183.643 166.061C183.643 167.242 183.442 168.266 183.04 169.132C182.638 169.994 182.081 170.662 181.37 171.136C180.658 171.606 179.838 171.841 178.908 171.841C178.192 171.841 177.618 171.722 177.188 171.485C176.757 171.243 176.425 170.969 176.193 170.664C175.961 170.355 175.781 170.098 175.656 169.895H175.452V171.608H173.797ZM175.481 166.032C175.481 166.874 175.605 167.617 175.852 168.261C176.098 168.9 176.459 169.401 176.934 169.764C177.408 170.122 177.989 170.301 178.676 170.301C179.393 170.301 179.99 170.113 180.47 169.735C180.954 169.353 181.317 168.84 181.559 168.196C181.806 167.547 181.929 166.826 181.929 166.032C181.929 165.248 181.808 164.541 181.566 163.912C181.329 163.278 180.968 162.777 180.484 162.409C180.005 162.036 179.402 161.85 178.676 161.85C177.979 161.85 177.393 162.026 176.919 162.38C176.445 162.728 176.086 163.217 175.844 163.846C175.602 164.471 175.481 165.199 175.481 166.032ZM186.059 171.608V160.456H187.773V171.608H186.059ZM186.931 158.597C186.597 158.597 186.309 158.483 186.067 158.256C185.829 158.028 185.711 157.755 185.711 157.435C185.711 157.116 185.829 156.842 186.067 156.615C186.309 156.387 186.597 156.273 186.931 156.273C187.265 156.273 187.55 156.387 187.787 156.615C188.029 156.842 188.15 157.116 188.15 157.435C188.15 157.755 188.029 158.028 187.787 158.256C187.55 158.483 187.265 158.597 186.931 158.597ZM192.421 156.738V171.608H190.707V156.738H192.421ZM200.031 171.841C198.956 171.841 198.029 171.604 197.25 171.129C196.475 170.65 195.877 169.982 195.456 169.125C195.04 168.264 194.832 167.262 194.832 166.119C194.832 164.977 195.04 163.97 195.456 163.099C195.877 162.222 196.463 161.54 197.213 161.051C197.969 160.557 198.85 160.31 199.856 160.31C200.437 160.31 201.011 160.407 201.577 160.601C202.144 160.794 202.659 161.109 203.124 161.545C203.588 161.976 203.959 162.547 204.235 163.258C204.511 163.97 204.649 164.846 204.649 165.887V166.613H196.052V165.132H202.906C202.906 164.502 202.78 163.941 202.528 163.447C202.282 162.953 201.928 162.564 201.468 162.278C201.013 161.993 200.476 161.85 199.856 161.85C199.174 161.85 198.583 162.019 198.085 162.358C197.591 162.692 197.211 163.128 196.945 163.665C196.679 164.202 196.545 164.778 196.545 165.393V166.381C196.545 167.223 196.691 167.937 196.981 168.523C197.276 169.103 197.685 169.546 198.208 169.851C198.731 170.151 199.338 170.301 200.031 170.301C200.481 170.301 200.887 170.239 201.25 170.113C201.618 169.982 201.935 169.788 202.202 169.532C202.468 169.27 202.674 168.946 202.819 168.559L204.474 169.024C204.3 169.585 204.007 170.079 203.596 170.505C203.184 170.926 202.676 171.255 202.071 171.492C201.466 171.725 200.786 171.841 200.031 171.841ZM213.439 171.608H211.551L217.012 156.738H218.87L224.331 171.608H222.443L217.999 159.091H217.883L213.439 171.608ZM214.136 165.8H221.746V167.397H214.136V165.8ZM226.21 175.791V160.456H227.865V162.227H228.069C228.195 162.034 228.369 161.787 228.592 161.487C228.819 161.182 229.143 160.911 229.565 160.673C229.991 160.431 230.567 160.31 231.293 160.31C232.232 160.31 233.059 160.545 233.776 161.015C234.492 161.484 235.051 162.15 235.453 163.011C235.855 163.873 236.056 164.89 236.056 166.061C236.056 167.242 235.855 168.266 235.453 169.132C235.051 169.994 234.495 170.662 233.783 171.136C233.072 171.606 232.251 171.841 231.322 171.841C230.605 171.841 230.032 171.722 229.601 171.485C229.17 171.243 228.838 170.969 228.606 170.664C228.374 170.355 228.195 170.098 228.069 169.895H227.924V175.791H226.21ZM227.895 166.032C227.895 166.874 228.018 167.617 228.265 168.261C228.512 168.9 228.872 169.401 229.347 169.764C229.821 170.122 230.402 170.301 231.089 170.301C231.806 170.301 232.404 170.113 232.883 169.735C233.367 169.353 233.73 168.84 233.972 168.196C234.219 167.547 234.342 166.826 234.342 166.032C234.342 165.248 234.221 164.541 233.979 163.912C233.742 163.278 233.381 162.777 232.897 162.409C232.418 162.036 231.815 161.85 231.089 161.85C230.392 161.85 229.807 162.026 229.332 162.38C228.858 162.728 228.5 163.217 228.258 163.846C228.016 164.471 227.895 165.199 227.895 166.032ZM238.465 175.791V160.456H240.121V162.227H240.324C240.45 162.034 240.624 161.787 240.847 161.487C241.074 161.182 241.399 160.911 241.82 160.673C242.246 160.431 242.822 160.31 243.548 160.31C244.487 160.31 245.315 160.545 246.031 161.015C246.748 161.484 247.307 162.15 247.708 163.011C248.11 163.873 248.311 164.89 248.311 166.061C248.311 167.242 248.11 168.266 247.708 169.132C247.307 169.994 246.75 170.662 246.038 171.136C245.327 171.606 244.506 171.841 243.577 171.841C242.861 171.841 242.287 171.722 241.856 171.485C241.425 171.243 241.094 170.969 240.861 170.664C240.629 170.355 240.45 170.098 240.324 169.895H240.179V175.791H238.465ZM240.15 166.032C240.15 166.874 240.273 167.617 240.52 168.261C240.767 168.9 241.128 169.401 241.602 169.764C242.076 170.122 242.657 170.301 243.345 170.301C244.061 170.301 244.659 170.113 245.138 169.735C245.622 169.353 245.985 168.84 246.227 168.196C246.474 167.547 246.597 166.826 246.597 166.032C246.597 165.248 246.476 164.541 246.234 163.912C245.997 163.278 245.637 162.777 245.153 162.409C244.673 162.036 244.071 161.85 243.345 161.85C242.648 161.85 242.062 162.026 241.587 162.38C241.113 162.728 240.755 163.217 240.513 163.846C240.271 164.471 240.15 165.199 240.15 166.032Z" fill="#F35423"/>
<rect x="268.305" y="23" width="123.065" height="124.174" rx="17.7391" fill="#FFF1ED"/>
<rect x="402.457" y="23" width="123.065" height="124.174" rx="17.7391" fill="#FFF1ED"/>
</svg>
