<svg width="526" height="200" viewBox="0 0 526 200" fill="none" xmlns="http://www.w3.org/2000/svg">
<rect width="526" height="200" fill="white"/>
<rect x="200.739" y="50.377" width="4.74666" height="12.1304" stroke="black" stroke-width="0.263703"/>
<rect x="200.739" y="65.1455" width="4.74666" height="12.1304" stroke="black" stroke-width="0.263703"/>
<rect x="202.849" y="20.0528" width="85.7036" height="172.989" rx="10.68" fill="white"/>
<rect x="202.849" y="20.0528" width="85.7036" height="172.989" rx="10.68" stroke="black" stroke-width="0.263703"/>
<rect width="73.5733" height="135.544" transform="translate(209.045 36.0068)" fill="black"/>
<line x1="215.375" y1="43.2588" x2="223.55" y2="43.2588" stroke="white" stroke-width="0.263703"/>
<line x1="215.375" y1="45.6328" x2="223.55" y2="45.6328" stroke="white" stroke-width="0.263703"/>
<line x1="215.375" y1="48.0049" x2="223.55" y2="48.0049" stroke="white" stroke-width="0.263703"/>
<circle cx="273.653" cy="46.0286" r="2.24148" stroke="white" stroke-width="0.263703"/>
<rect x="215.507" y="54.0703" width="60.3881" height="48.2577" stroke="white" stroke-width="0.263703"/>
<path d="M239.371 79.7819L233.438 85.7152H245.963L239.371 79.7819Z" fill="white"/>
<path d="M247.941 85.7152L242.667 80.4411L248.6 74.5078L259.808 85.7152H247.941Z" fill="white"/>
<circle cx="233.834" cy="72.6604" r="1.84592" fill="white"/>
<rect x="215.507" y="109.184" width="27.1615" height="14.24" stroke="#F35423" stroke-width="0.263703"/>
<path d="M227.372 118.49L227.372 114.38L230.932 116.435L227.372 118.49Z" stroke="#F35423" stroke-width="0.263703"/>
<rect x="249.129" y="109.052" width="26.8978" height="1.84592" fill="#F35423"/>
<rect x="249.129" y="112.742" width="17.4044" height="1.84592" fill="#F35423"/>
<rect x="215.507" y="129.488" width="27.1615" height="14.24" stroke="#F35423" stroke-width="0.263703"/>
<rect x="249.129" y="129.356" width="26.8978" height="1.84592" fill="#F35423"/>
<rect x="249.129" y="133.048" width="17.4044" height="1.84592" fill="#F35423"/>
<circle cx="245.7" cy="181.835" r="4.74666" stroke="black" stroke-width="0.527407"/>
<circle cx="236.998" cy="28.3595" r="1.05481" stroke="black" stroke-width="0.527407"/>
<rect x="240.953" y="27.3047" width="14.24" height="1.84592" rx="0.922962" stroke="black" stroke-width="0.527407"/>
<rect x="164.482" y="109.316" width="26.8978" height="13.9763" stroke="#F35423" stroke-width="0.527407" stroke-dasharray="1.32 1.32"/>
<path d="M176.216 118.492L176.216 114.382L179.775 116.437L176.216 118.492Z" stroke="#F35423" stroke-width="0.263703"/>
<circle cx="144.832" cy="116.568" r="7.25185" stroke="#F35423" stroke-width="0.527407" stroke-dasharray="1.32 1.32"/>
<path d="M143.778 118.492L143.778 114.382L147.338 116.437L143.778 118.492Z" stroke="#F35423" stroke-width="0.263703"/>
<rect x="302.398" y="150.452" width="59.0696" height="13.9763" stroke="#F35423" stroke-width="0.527407"/>
<path d="M354.27 158.023C354.373 157.92 354.373 157.753 354.27 157.65L352.592 155.972C352.489 155.869 352.322 155.869 352.219 155.972C352.116 156.075 352.116 156.242 352.219 156.345L353.71 157.837L352.219 159.329C352.116 159.432 352.116 159.599 352.219 159.702C352.322 159.805 352.489 159.805 352.592 159.702L354.27 158.023ZM343.535 157.837V158.101H354.083V157.837V157.573H343.535V157.837Z" fill="#F35423"/>
<circle cx="381.373" cy="157.177" r="9.28745" stroke="#F35423" stroke-width="0.675451" stroke-dasharray="1.69 1.69"/>
<path d="M379.988 150.552C380.124 150.522 380.32 150.488 380.419 150.475C380.518 150.461 380.703 150.451 380.829 150.454C381.029 150.459 381.061 150.467 381.121 150.525C381.16 150.562 381.194 150.623 381.202 150.663C381.21 150.705 381.196 150.777 381.176 150.822C381.155 150.87 381.108 150.925 381.071 150.941C381.035 150.96 380.868 150.986 380.701 151.002C380.531 151.015 380.327 151.039 380.249 151.055C380.171 151.071 379.993 151.113 379.858 151.15C379.722 151.188 379.511 151.262 379.388 151.312C379.265 151.362 379.072 151.452 378.957 151.511C378.843 151.569 378.626 151.699 378.475 151.8C378.323 151.898 378.159 151.993 378.109 152.012C378.042 152.033 378.002 152.033 377.953 152.012C377.916 151.993 377.864 151.948 377.838 151.908C377.809 151.868 377.788 151.797 377.791 151.744C377.794 151.68 377.817 151.627 377.867 151.574C377.906 151.532 378.052 151.423 378.188 151.333C378.323 151.243 378.511 151.127 378.605 151.074C378.699 151.023 378.882 150.933 379.01 150.875C379.138 150.817 379.357 150.732 379.492 150.687C379.628 150.642 379.853 150.581 379.988 150.552Z" fill="#F35423"/>
<path d="M381.533 150.62C381.551 150.578 381.596 150.528 381.632 150.509C381.669 150.491 381.765 150.475 381.849 150.472C381.93 150.472 382.112 150.496 382.251 150.525C382.392 150.552 382.613 150.607 382.741 150.644C382.869 150.681 383.088 150.756 383.224 150.809C383.36 150.859 383.608 150.973 383.772 151.058C383.937 151.142 384.19 151.291 384.333 151.389C384.477 151.484 384.683 151.638 384.79 151.731C384.897 151.823 385.051 151.967 385.132 152.051C385.213 152.139 385.288 152.242 385.299 152.287C385.309 152.337 385.304 152.396 385.28 152.443C385.262 152.486 385.218 152.544 385.181 152.571C385.145 152.597 385.085 152.621 385.046 152.618C384.996 152.618 384.912 152.568 384.792 152.467C384.693 152.383 384.503 152.218 384.37 152.104C384.234 151.988 384.03 151.831 383.916 151.755C383.801 151.68 383.618 151.574 383.511 151.519C383.404 151.463 383.208 151.378 383.081 151.328C382.953 151.278 382.692 151.195 382.506 151.148C382.321 151.1 382.06 151.044 381.932 151.026C381.786 151.005 381.669 150.97 381.622 150.936C381.575 150.904 381.536 150.846 381.523 150.79C381.507 150.726 381.51 150.673 381.533 150.62Z" fill="#F35423"/>
<path d="M379.949 151.662C380.064 151.633 380.257 151.59 380.38 151.572C380.536 151.545 380.761 151.537 381.136 151.545C381.58 151.553 381.724 151.566 381.972 151.619C382.136 151.657 382.418 151.736 382.598 151.794C382.778 151.855 383.013 151.951 383.12 152.004C383.279 152.083 383.323 152.12 383.362 152.2C383.402 152.287 383.402 152.311 383.373 152.385C383.355 152.433 383.31 152.494 383.274 152.52C383.24 152.544 383.18 152.565 383.141 152.565C383.099 152.565 382.942 152.512 382.788 152.449C382.632 152.385 382.379 152.295 382.219 152.25C382.06 152.205 381.825 152.147 381.698 152.123C381.541 152.094 381.322 152.078 381.045 152.078C380.748 152.078 380.56 152.091 380.393 152.126C380.265 152.152 380.064 152.202 379.949 152.239C379.834 152.274 379.589 152.38 379.401 152.473C379.213 152.565 378.978 152.698 378.879 152.767C378.78 152.836 378.639 152.931 378.566 152.981C378.483 153.04 378.404 153.071 378.352 153.069C378.295 153.069 378.237 153.042 378.182 152.992C378.112 152.928 378.096 152.894 378.096 152.804C378.096 152.701 378.109 152.679 378.24 152.56C378.318 152.489 378.49 152.356 378.618 152.269C378.746 152.181 378.947 152.062 379.062 152.001C379.177 151.943 379.378 151.855 379.505 151.805C379.633 151.755 379.834 151.691 379.949 151.662Z" fill="#F35423"/>
<path d="M383.636 152.743C383.639 152.661 383.663 152.616 383.72 152.56C383.772 152.51 383.827 152.486 383.884 152.486C383.934 152.486 384.02 152.52 384.098 152.568C384.171 152.613 384.328 152.732 384.451 152.83C384.573 152.928 384.772 153.117 384.897 153.244C385.019 153.374 385.184 153.57 385.262 153.678C385.34 153.787 385.461 153.967 385.528 154.076C385.594 154.184 385.708 154.404 385.784 154.566C385.857 154.728 385.956 154.966 386.003 155.096C386.05 155.226 386.126 155.462 386.17 155.618C386.215 155.777 386.251 155.954 386.251 156.015C386.251 156.079 386.233 156.156 386.212 156.188C386.191 156.222 386.126 156.259 386.069 156.275C386.006 156.291 385.941 156.291 385.907 156.278C385.873 156.264 385.828 156.233 385.805 156.206C385.781 156.177 385.729 156.047 385.693 155.917C385.654 155.787 385.581 155.56 385.528 155.414C385.479 155.268 385.356 154.977 385.254 154.765C385.155 154.553 384.999 154.266 384.91 154.129C384.819 153.991 384.628 153.758 384.487 153.609C384.346 153.461 384.111 153.252 383.968 153.143C383.824 153.034 383.689 152.923 383.668 152.897C383.644 152.867 383.631 152.806 383.636 152.743Z" fill="#F35423"/>
<path d="M380.327 152.724C380.385 152.695 380.494 152.661 380.57 152.645C380.643 152.632 380.823 152.626 380.967 152.632C381.11 152.64 381.322 152.661 381.437 152.682C381.551 152.703 381.739 152.743 381.854 152.775C381.969 152.804 382.17 152.865 382.298 152.91C382.426 152.955 382.687 153.069 382.872 153.159C383.057 153.252 383.342 153.416 383.498 153.522C383.657 153.631 383.9 153.832 384.044 153.97C384.184 154.108 384.357 154.298 384.425 154.394C384.495 154.489 384.571 154.611 384.592 154.664C384.628 154.754 384.628 154.775 384.594 154.857C384.573 154.908 384.516 154.974 384.471 155.003C384.425 155.032 384.362 155.056 384.333 155.056C384.304 155.053 384.224 154.993 384.151 154.916C384.08 154.839 383.95 154.69 383.863 154.584C383.777 154.476 383.613 154.309 383.498 154.208C383.383 154.11 383.214 153.978 383.12 153.917C383.026 153.856 382.809 153.737 382.637 153.652C382.465 153.567 382.201 153.453 382.05 153.4C381.898 153.347 381.658 153.281 381.515 153.249C381.301 153.201 381.176 153.193 380.81 153.196C380.568 153.196 380.338 153.188 380.301 153.175C380.265 153.162 380.22 153.119 380.205 153.082C380.187 153.045 380.171 152.987 380.171 152.95C380.171 152.912 380.184 152.859 380.197 152.83C380.213 152.801 380.27 152.753 380.327 152.724Z" fill="#F35423"/>
<path d="M379.231 153.093C379.338 153.032 379.464 152.973 379.505 152.963C379.55 152.95 379.599 152.939 379.618 152.939C379.633 152.936 379.678 152.947 379.714 152.963C379.751 152.976 379.803 153.029 379.832 153.074C379.86 153.122 379.884 153.188 379.884 153.22C379.884 153.254 379.853 153.315 379.813 153.358C379.772 153.4 379.659 153.48 379.558 153.533C379.459 153.588 379.323 153.67 379.258 153.715C379.192 153.76 379.059 153.874 378.957 153.972C378.858 154.068 378.715 154.235 378.642 154.343C378.569 154.452 378.467 154.622 378.415 154.725C378.365 154.826 378.287 155.019 378.242 155.149C378.195 155.279 378.135 155.477 378.109 155.586C378.083 155.695 378.018 156.029 377.966 156.328C377.916 156.627 377.843 156.996 377.807 157.149C377.768 157.303 377.7 157.518 377.655 157.626C377.611 157.735 377.507 157.926 377.426 158.05C377.347 158.175 377.233 158.321 377.173 158.374C377.115 158.429 377.034 158.482 376.995 158.49C376.951 158.501 376.888 158.49 376.838 158.464C376.786 158.44 376.737 158.384 376.713 158.329C376.692 158.276 376.682 158.209 376.692 158.175C376.7 158.143 376.765 158.045 376.836 157.958C376.906 157.87 377.016 157.69 377.079 157.56C377.144 157.43 377.225 157.221 377.259 157.096C377.293 156.972 377.363 156.633 377.415 156.341C377.467 156.05 377.538 155.687 377.574 155.533C377.611 155.379 377.671 155.159 377.707 155.043C377.747 154.926 377.838 154.701 377.911 154.539C377.987 154.378 378.107 154.158 378.18 154.049C378.25 153.941 378.373 153.782 378.451 153.694C378.529 153.609 378.691 153.464 378.814 153.371C378.937 153.275 379.124 153.151 379.231 153.093Z" fill="#F35423"/>
<path d="M377.418 153.392C377.475 153.326 377.559 153.249 377.6 153.222C377.645 153.196 377.694 153.175 377.713 153.175C377.728 153.175 377.781 153.193 377.822 153.215C377.867 153.236 377.919 153.281 377.94 153.313C377.961 153.347 377.979 153.416 377.979 153.466C377.976 153.538 377.945 153.599 377.838 153.731C377.762 153.827 377.666 153.956 377.621 154.023C377.577 154.089 377.488 154.251 377.423 154.38C377.36 154.51 377.266 154.738 377.214 154.884C377.165 155.03 377.063 155.411 376.987 155.732C376.912 156.052 376.823 156.434 376.786 156.58C376.752 156.725 376.705 156.871 376.685 156.903C376.666 156.937 376.619 156.975 376.583 156.99C376.539 157.008 376.483 157.008 376.413 156.99C376.356 156.975 376.29 156.937 376.27 156.903C376.249 156.871 376.23 156.797 376.23 156.739C376.23 156.68 376.288 156.37 376.358 156.05C376.431 155.729 376.525 155.329 376.57 155.162C376.614 154.995 376.692 154.743 376.745 154.606C376.797 154.468 376.891 154.245 376.953 154.115C377.019 153.986 377.126 153.795 377.193 153.694C377.259 153.593 377.36 153.458 377.418 153.392Z" fill="#F35423"/>
<path d="M380.301 153.85C380.395 153.824 380.536 153.795 380.615 153.784C380.693 153.774 380.829 153.763 380.915 153.76C381.001 153.76 381.165 153.768 381.28 153.784C381.395 153.797 381.596 153.84 381.724 153.877C381.851 153.917 382.065 153.994 382.193 154.052C382.321 154.11 382.546 154.237 382.689 154.335C382.833 154.433 383.068 154.627 383.208 154.765C383.349 154.902 383.535 155.106 383.616 155.215C383.696 155.324 383.806 155.48 383.856 155.56C383.908 155.639 384.015 155.835 384.093 155.997C384.171 156.158 384.284 156.426 384.341 156.593C384.398 156.76 384.458 156.964 384.477 157.043C384.505 157.165 384.505 157.205 384.474 157.279C384.453 157.33 384.414 157.385 384.385 157.406C384.357 157.425 384.286 157.441 384.229 157.441C384.148 157.441 384.109 157.425 384.057 157.369C384.01 157.319 383.96 157.202 383.905 157.004C383.858 156.842 383.775 156.598 383.715 156.46C383.657 156.323 383.558 156.119 383.495 156.01C383.43 155.901 383.318 155.726 383.245 155.626C383.169 155.522 383.002 155.334 382.872 155.204C382.736 155.067 382.522 154.892 382.363 154.786C382.212 154.685 382 154.566 381.893 154.521C381.786 154.476 381.585 154.412 381.45 154.378C381.27 154.33 381.129 154.314 380.941 154.314C380.763 154.314 380.615 154.33 380.471 154.367C380.356 154.399 380.181 154.468 380.08 154.521C379.978 154.577 379.826 154.69 379.738 154.778C379.652 154.865 379.539 154.995 379.492 155.069C379.443 155.141 379.365 155.297 379.315 155.414C379.268 155.53 379.182 155.779 379.124 155.97C379.067 156.158 379.002 156.336 378.976 156.365C378.952 156.392 378.905 156.423 378.874 156.437C378.837 156.45 378.772 156.45 378.71 156.434C378.652 156.418 378.587 156.381 378.566 156.347C378.545 156.315 378.527 156.256 378.527 156.214C378.527 156.174 378.558 156.026 378.595 155.883C378.631 155.742 378.686 155.554 378.715 155.467C378.743 155.379 378.804 155.223 378.85 155.122C378.897 155.019 378.981 154.865 379.038 154.778C379.093 154.69 379.205 154.55 379.284 154.463C379.362 154.378 379.498 154.256 379.584 154.192C379.67 154.131 379.829 154.039 379.936 153.988C380.043 153.935 380.207 153.874 380.301 153.85Z" fill="#F35423"/>
<path d="M380.615 154.99C380.693 154.963 380.834 154.934 380.928 154.924C381.022 154.916 381.163 154.91 381.241 154.916C381.319 154.924 381.46 154.945 381.554 154.966C381.648 154.987 381.771 155.032 381.825 155.064C381.883 155.096 381.951 155.151 381.977 155.189C382.021 155.247 382.024 155.271 382 155.366C381.982 155.438 381.945 155.501 381.901 155.533C381.859 155.565 381.799 155.586 381.763 155.586C381.726 155.586 381.627 155.562 381.541 155.536C381.455 155.507 381.314 155.477 381.228 155.467C381.139 155.456 381.003 155.462 380.915 155.477C380.829 155.493 380.677 155.546 380.578 155.594C380.458 155.65 380.356 155.726 380.262 155.825C380.189 155.904 380.09 156.047 380.046 156.142C380.001 156.238 379.941 156.41 379.913 156.527C379.884 156.643 379.819 157.03 379.766 157.388C379.714 157.746 379.654 158.119 379.633 158.223C379.612 158.326 379.56 158.546 379.516 158.713C379.472 158.88 379.398 159.118 379.352 159.243C379.302 159.367 379.203 159.592 379.127 159.746C379.051 159.9 378.916 160.138 378.827 160.276C378.738 160.414 378.61 160.599 378.54 160.687C378.469 160.774 378.329 160.938 378.229 161.052C378.128 161.169 377.976 161.32 377.895 161.392C377.768 161.5 377.726 161.521 377.64 161.521C377.559 161.521 377.517 161.503 377.457 161.442C377.405 161.389 377.379 161.336 377.379 161.283C377.379 161.241 377.392 161.177 377.407 161.143C377.423 161.111 377.551 160.965 377.692 160.819C377.83 160.674 378.015 160.472 378.099 160.369C378.182 160.265 378.318 160.075 378.404 159.945C378.488 159.812 378.608 159.606 378.67 159.481C378.73 159.357 378.819 159.147 378.866 159.017C378.91 158.885 378.981 158.641 379.023 158.474C379.062 158.307 379.127 157.968 379.166 157.719C379.203 157.47 379.265 157.083 379.299 156.858C379.336 156.625 379.401 156.339 379.448 156.195C379.495 156.058 379.573 155.872 379.623 155.785C379.672 155.697 379.803 155.538 379.91 155.427C380.04 155.295 380.166 155.197 380.288 155.133C380.39 155.08 380.536 155.016 380.615 154.99Z" fill="#F35423"/>
<path d="M384.571 155.382C384.594 155.348 384.649 155.31 384.693 155.297C384.74 155.284 384.806 155.276 384.842 155.284C384.879 155.292 384.939 155.332 384.978 155.374C385.033 155.435 385.103 155.615 385.257 156.095C385.372 156.45 385.502 156.887 385.547 157.07C385.591 157.253 385.643 157.483 385.664 157.587C385.682 157.69 385.714 157.91 385.729 158.077C385.753 158.281 385.758 158.578 385.748 158.978C385.74 159.306 385.716 159.693 385.695 159.839C385.674 159.985 385.646 160.17 385.635 160.25C385.625 160.329 385.591 160.43 385.56 160.472C385.531 160.515 385.471 160.56 385.429 160.573C385.385 160.583 385.314 160.581 385.265 160.568C385.21 160.549 385.166 160.512 385.14 160.454C385.098 160.374 385.1 160.334 385.145 159.879C385.181 159.531 385.194 159.192 385.192 158.713C385.192 158.196 385.181 157.973 385.147 157.772C385.121 157.626 385.072 157.383 385.035 157.229C384.999 157.075 384.871 156.649 384.748 156.28C384.628 155.915 384.529 155.573 384.529 155.525C384.529 155.48 384.547 155.414 384.571 155.382Z" fill="#F35423"/>
<path d="M382.209 155.822C382.212 155.79 382.251 155.726 382.298 155.676C382.363 155.61 382.407 155.586 382.47 155.586C382.52 155.586 382.6 155.613 382.65 155.647C382.7 155.681 382.801 155.793 382.874 155.893C382.95 155.994 383.078 156.19 383.161 156.328C383.245 156.466 383.362 156.686 383.422 156.818C383.482 156.948 383.574 157.176 383.623 157.322C383.673 157.467 383.743 157.724 383.78 157.891C383.816 158.058 383.861 158.313 383.874 158.453C383.89 158.596 383.903 158.853 383.903 159.023C383.903 159.195 383.89 159.478 383.874 159.653C383.861 159.828 383.83 160.096 383.809 160.25C383.788 160.403 383.736 160.671 383.694 160.846C383.652 161.021 383.569 161.307 383.509 161.482C383.446 161.657 383.331 161.929 383.25 162.091C383.172 162.25 383.028 162.502 382.932 162.648C382.835 162.793 382.681 163.008 382.59 163.125C382.496 163.241 382.355 163.405 382.274 163.488C382.139 163.631 382.12 163.641 382.011 163.641C381.914 163.641 381.878 163.625 381.815 163.562C381.765 163.511 381.737 163.456 381.737 163.408C381.739 163.368 381.752 163.31 381.771 163.278C381.789 163.246 381.901 163.106 382.024 162.966C382.146 162.825 382.319 162.608 382.41 162.481C382.499 162.353 382.653 162.083 382.752 161.879C382.851 161.675 382.971 161.389 383.015 161.243C383.06 161.097 383.133 160.835 383.175 160.66C383.214 160.485 383.266 160.234 383.289 160.104C383.31 159.974 383.342 159.698 383.357 159.494C383.381 159.219 383.378 159.028 383.357 158.752C383.342 158.548 383.302 158.262 383.274 158.117C383.245 157.971 383.175 157.708 383.117 157.534C383.062 157.359 382.945 157.073 382.859 156.898C382.762 156.699 382.621 156.468 382.486 156.288C382.366 156.127 382.253 155.97 382.238 155.936C382.219 155.904 382.206 155.854 382.209 155.822Z" fill="#F35423"/>
<path d="M380.8 156.248C380.878 156.198 380.988 156.142 381.045 156.124C381.11 156.103 381.228 156.095 381.358 156.1C381.53 156.111 381.601 156.129 381.755 156.206C381.885 156.272 382.003 156.357 382.123 156.479C382.219 156.58 382.355 156.749 382.428 156.858C382.499 156.967 382.606 157.163 382.666 157.295C382.726 157.425 382.809 157.648 382.854 157.785C382.895 157.923 382.953 158.156 382.979 158.302C383.01 158.485 383.026 158.713 383.026 159.036C383.028 159.471 383.026 159.508 382.974 159.579C382.945 159.619 382.877 159.664 382.825 159.68C382.757 159.698 382.713 159.698 382.666 159.672C382.629 159.656 382.577 159.608 382.553 159.566C382.517 159.508 382.504 159.396 382.488 158.991C382.475 158.676 382.449 158.397 382.42 158.249C382.392 158.117 382.321 157.886 382.261 157.732C382.201 157.579 382.107 157.383 382.055 157.295C382.003 157.208 381.917 157.073 381.862 156.996C381.807 156.922 381.724 156.829 381.677 156.794C381.632 156.757 381.549 156.71 381.494 156.688C381.442 156.664 381.361 156.646 381.319 156.646C381.277 156.646 381.202 156.662 381.155 156.68C381.11 156.699 381.022 156.768 380.959 156.834C380.899 156.898 380.821 157.004 380.787 157.07C380.75 157.136 380.698 157.279 380.669 157.388C380.641 157.497 380.604 157.706 380.588 157.852C380.573 157.997 380.549 158.159 380.536 158.209C380.523 158.26 380.492 158.323 380.466 158.347C380.44 158.371 380.39 158.397 380.354 158.408C380.317 158.419 380.244 158.413 380.189 158.397C380.121 158.376 380.08 158.344 380.051 158.281C380.014 158.207 380.012 158.159 380.038 157.905C380.053 157.743 380.095 157.494 380.132 157.348C380.168 157.202 380.249 156.975 380.312 156.845C380.377 156.712 380.479 156.545 380.544 156.474C380.607 156.4 380.722 156.299 380.8 156.248Z" fill="#F35423"/>
<path d="M378.188 157.52C378.3 157.086 378.323 157.022 378.396 156.956C378.438 156.916 378.506 156.884 378.54 156.884C378.576 156.884 378.639 156.903 378.683 156.924C378.725 156.945 378.783 157.004 378.806 157.051C378.85 157.136 378.85 157.147 378.798 157.351C378.767 157.465 378.712 157.674 378.676 157.812C378.639 157.95 378.566 158.188 378.511 158.342C378.459 158.495 378.373 158.715 378.318 158.832C378.263 158.949 378.148 159.153 378.062 159.282C377.976 159.412 377.82 159.616 377.713 159.733C377.606 159.849 377.444 159.995 377.35 160.059C377.259 160.12 377.146 160.178 377.105 160.186C377.058 160.197 376.992 160.186 376.94 160.159C376.88 160.13 376.849 160.088 376.828 160.016C376.812 159.963 376.807 159.887 376.815 159.844C376.825 159.794 376.906 159.712 377.081 159.566C377.217 159.455 377.4 159.272 377.486 159.163C377.569 159.055 377.697 158.851 377.768 158.713C377.838 158.575 377.935 158.36 377.979 158.236C378.023 158.111 378.117 157.791 378.188 157.52Z" fill="#F35423"/>
<path d="M381.071 157.499C381.108 157.449 381.176 157.388 381.223 157.359C381.267 157.332 381.35 157.308 381.403 157.308C381.457 157.308 381.546 157.33 381.598 157.353C381.651 157.38 381.739 157.454 381.794 157.52C381.851 157.587 381.932 157.714 381.974 157.804C382.016 157.897 382.073 158.058 382.099 158.162C382.125 158.268 382.162 158.474 382.18 158.62C382.201 158.787 382.209 159.017 382.199 159.243C382.191 159.439 382.159 159.738 382.131 159.905C382.102 160.072 382.047 160.311 382.013 160.435C381.977 160.56 381.909 160.766 381.859 160.899C381.81 161.029 381.721 161.243 381.658 161.376C381.598 161.506 381.465 161.752 381.366 161.919C381.264 162.086 381.1 162.338 380.996 162.475C380.894 162.613 380.703 162.846 380.573 162.992C380.442 163.138 380.249 163.339 380.142 163.44C380.035 163.541 379.913 163.644 379.871 163.67C379.826 163.7 379.756 163.721 379.714 163.721C379.67 163.721 379.607 163.7 379.573 163.676C379.537 163.649 379.492 163.588 379.474 163.541C379.448 163.477 379.448 163.437 379.469 163.382C379.485 163.342 379.688 163.119 379.92 162.886C380.197 162.61 380.424 162.356 380.565 162.157C380.688 161.99 380.836 161.776 380.894 161.68C380.951 161.585 381.045 161.413 381.103 161.296C381.16 161.18 381.251 160.97 381.306 160.833C381.361 160.695 381.439 160.462 381.481 160.316C381.523 160.17 381.575 159.942 381.601 159.812C381.632 159.64 381.645 159.433 381.645 159.07C381.645 158.673 381.635 158.53 381.598 158.395C381.575 158.299 381.533 158.177 381.507 158.122C381.484 158.066 381.457 158.021 381.45 158.024C381.442 158.024 381.426 158.074 381.416 158.135C381.405 158.199 381.384 158.578 381.371 158.978C381.356 159.465 381.335 159.767 381.306 159.892C381.285 159.995 381.236 160.178 381.196 160.303C381.157 160.427 381.056 160.671 380.967 160.846C380.881 161.021 380.742 161.264 380.662 161.389C380.581 161.513 380.408 161.744 380.283 161.906C380.158 162.065 379.876 162.38 379.662 162.605C379.445 162.83 379.216 163.058 379.145 163.117C379.049 163.196 378.999 163.217 378.918 163.217C378.837 163.217 378.796 163.199 378.736 163.138C378.681 163.082 378.657 163.032 378.657 162.971C378.657 162.926 378.678 162.854 378.704 162.817C378.728 162.78 378.856 162.648 378.984 162.523C379.111 162.398 379.354 162.144 379.519 161.959C379.683 161.773 379.905 161.508 380.009 161.368C380.116 161.225 380.26 161.015 380.327 160.899C380.398 160.782 380.494 160.597 380.544 160.488C380.594 160.379 380.667 160.189 380.706 160.064C380.742 159.94 380.792 159.725 380.813 159.587C380.842 159.404 380.847 159.235 380.834 158.964C380.823 158.734 380.829 158.48 380.849 158.289C380.868 158.122 380.909 157.894 380.943 157.785C380.977 157.677 381.037 157.547 381.071 157.499Z" fill="#F35423"/>
<path d="M384.171 158.042C384.19 157.997 384.234 157.936 384.271 157.91C384.304 157.886 384.372 157.865 384.417 157.865C384.469 157.865 384.531 157.889 384.573 157.926C384.615 157.96 384.654 158.018 384.665 158.053C384.675 158.087 384.709 158.294 384.738 158.514C384.769 158.731 384.8 159.113 384.808 159.362C384.819 159.698 384.811 159.895 384.779 160.144C384.753 160.326 384.706 160.599 384.67 160.753C384.633 160.907 384.545 161.217 384.471 161.442C384.398 161.667 384.318 161.903 384.291 161.964C384.257 162.038 384.213 162.091 384.156 162.12C384.106 162.147 384.041 162.157 383.994 162.147C383.952 162.139 383.887 162.11 383.85 162.081C383.796 162.038 383.785 162.009 383.788 161.9C383.79 161.824 383.848 161.593 383.937 161.323C384.017 161.074 384.109 160.772 384.137 160.647C384.169 160.522 384.211 160.308 384.231 160.17C384.25 160.032 384.268 159.751 384.268 159.547C384.268 159.343 384.25 159.009 384.229 158.805C384.208 158.601 384.179 158.366 384.164 158.281C384.143 158.167 384.145 158.109 384.171 158.042Z" fill="#F35423"/>
<path d="M379.954 158.949C379.978 158.906 380.022 158.858 380.053 158.845C380.082 158.832 380.127 158.821 380.15 158.821C380.176 158.819 380.236 158.835 380.281 158.853C380.338 158.877 380.38 158.919 380.403 158.98C380.434 159.057 380.434 159.108 380.408 159.296C380.39 159.42 380.346 159.619 380.312 159.738C380.278 159.86 380.194 160.075 380.129 160.215C380.064 160.358 379.936 160.589 379.847 160.727C379.759 160.864 379.579 161.108 379.448 161.27C379.32 161.429 379.067 161.72 378.89 161.916C378.712 162.11 378.54 162.306 378.506 162.345C378.475 162.388 378.409 162.441 378.362 162.465C378.313 162.491 378.248 162.502 378.201 162.491C378.156 162.483 378.094 162.446 378.057 162.409C378.008 162.356 377.995 162.314 377.997 162.242C378 162.187 378.036 162.096 378.075 162.033C378.115 161.972 378.308 161.747 378.506 161.529C378.702 161.315 378.939 161.042 379.036 160.925C379.132 160.809 379.273 160.618 379.349 160.501C379.425 160.385 379.542 160.181 379.605 160.051C379.67 159.918 379.746 159.736 379.774 159.64C379.806 159.545 379.847 159.37 379.871 159.248C379.892 159.129 379.931 158.994 379.954 158.949Z" fill="#F35423"/>
<path d="M382.413 160.223C382.439 160.186 382.488 160.141 382.522 160.125C382.556 160.106 382.593 160.091 382.603 160.091C382.616 160.091 382.666 160.112 382.718 160.136C382.77 160.162 382.83 160.218 382.851 160.26C382.88 160.324 382.88 160.366 382.856 160.485C382.84 160.568 382.791 160.748 382.749 160.886C382.705 161.023 382.624 161.256 382.566 161.402C382.509 161.548 382.379 161.834 382.277 162.038C382.175 162.242 381.99 162.565 381.865 162.754C381.739 162.942 381.512 163.241 381.363 163.416C381.215 163.591 381.043 163.774 380.977 163.824C380.878 163.901 380.847 163.909 380.758 163.898C380.69 163.888 380.633 163.858 380.594 163.816C380.555 163.768 380.536 163.713 380.536 163.641C380.536 163.546 380.557 163.511 380.755 163.289C380.878 163.156 381.043 162.963 381.123 162.86C381.204 162.756 381.353 162.55 381.452 162.396C381.554 162.242 381.711 161.969 381.799 161.786C381.891 161.604 382.018 161.317 382.084 161.15C382.149 160.984 382.238 160.721 382.282 160.568C382.326 160.414 382.386 160.26 382.413 160.223Z" fill="#F35423"/>
<circle cx="325.341" cy="29.9422" r="22.8104" fill="#FFF1ED" stroke="#F35423" stroke-width="0.263703"/>
<g clip-path="url(#clip0_3024_6012)">
<path d="M329.176 23.1519C329.298 23.0113 329.471 22.9249 329.657 22.9119C329.843 22.8988 330.026 22.9601 330.167 23.0823C331.077 23.8718 331.807 24.846 332.311 25.9401C332.389 26.1096 332.396 26.3032 332.331 26.4782C332.267 26.6532 332.135 26.7953 331.965 26.8733C331.796 26.9512 331.602 26.9587 331.427 26.8939C331.252 26.8292 331.11 26.6975 331.032 26.528C330.613 25.6155 330.004 24.8028 329.246 24.1441C329.105 24.0219 329.019 23.8488 329.006 23.6629C328.992 23.477 329.054 23.2927 329.176 23.1519Z" fill="#F35423"/>
<path d="M320.518 23.0826C320.658 22.9602 320.842 22.8988 321.028 22.9119C321.214 22.9249 321.387 23.0114 321.51 23.1522C321.632 23.293 321.693 23.4766 321.68 23.6627C321.667 23.8488 321.581 24.0221 321.44 24.1444C320.682 24.8031 320.073 25.6158 319.654 26.5283C319.617 26.6139 319.562 26.6911 319.495 26.7555C319.427 26.8199 319.347 26.8702 319.26 26.9034C319.173 26.9366 319.08 26.9521 318.986 26.949C318.893 26.9458 318.801 26.9241 318.716 26.8851C318.631 26.8461 318.555 26.7906 318.492 26.7218C318.429 26.653 318.38 26.5723 318.348 26.4844C318.317 26.3965 318.303 26.3032 318.308 26.21C318.312 26.1167 318.336 26.0253 318.376 25.9411C318.879 24.847 319.609 23.8725 320.518 23.0826Z" fill="#F35423"/>
<path d="M326.917 34.8643C327.525 34.8643 327.846 35.5843 327.44 36.0372C327.177 36.3322 326.854 36.5681 326.493 36.7295C326.132 36.8909 325.74 36.9742 325.345 36.9739C324.949 36.9742 324.558 36.8909 324.197 36.7295C323.836 36.5681 323.513 36.3322 323.249 36.0372C322.861 35.604 323.138 34.9268 323.695 34.8692L323.772 34.865L326.917 34.8643Z" fill="#F35423"/>
<path d="M325.342 22.9102C326.297 22.9102 327.104 23.5452 327.364 24.4157L327.396 24.536L327.402 24.5662C328.177 25.0035 328.837 25.6183 329.329 26.3601C329.821 27.1019 330.13 27.9497 330.231 28.834L330.251 29.0358L330.264 29.239V31.3001L330.279 31.3958C330.375 31.9139 330.662 32.3773 331.083 32.6946L331.2 32.7769L331.314 32.8465C331.919 33.189 331.708 34.0884 331.049 34.1573L330.968 34.1615H319.716C318.993 34.1615 318.741 33.2023 319.37 32.8465C319.638 32.6949 319.869 32.4864 320.048 32.2358C320.227 31.9852 320.348 31.6985 320.405 31.3958L320.419 31.2952L320.42 29.2067C320.463 28.2882 320.73 27.3942 321.199 26.603C321.667 25.8118 322.322 25.1475 323.107 24.6682L323.282 24.5655L323.289 24.5353C323.388 24.1148 323.614 23.7349 323.936 23.4469C324.258 23.159 324.661 22.9768 325.09 22.9249L325.218 22.913L325.342 22.9102Z" fill="#F35423"/>
</g>
<circle cx="291.852" cy="106.416" r="22.8104" fill="#FFF1ED" stroke="#F35423" stroke-width="0.263703"/>
<g clip-path="url(#clip1_3024_6012)">
<path d="M291.854 99.1514C292.525 99.1514 293.151 99.4798 293.535 100.028L293.608 100.141L299.314 109.668C299.488 109.968 299.582 110.308 299.588 110.654C299.595 111.001 299.513 111.344 299.351 111.65C299.189 111.957 298.952 112.217 298.662 112.407C298.371 112.597 298.038 112.71 297.692 112.736L297.555 112.742H286.145C285.799 112.738 285.459 112.646 285.158 112.476C284.857 112.305 284.604 112.061 284.423 111.766C284.241 111.471 284.138 111.135 284.121 110.789C284.105 110.443 284.177 110.099 284.33 109.788L284.399 109.658L290.102 100.138C290.285 99.8369 290.542 99.5879 290.849 99.4151C291.156 99.2423 291.502 99.1514 291.854 99.1514ZM291.854 105.712H291.151L291.068 105.717C290.897 105.738 290.74 105.82 290.626 105.949C290.511 106.077 290.448 106.243 290.448 106.416C290.448 106.588 290.511 106.754 290.626 106.882C290.74 107.011 290.897 107.093 291.068 107.114L291.151 107.119V109.228L291.156 109.311C291.174 109.468 291.245 109.614 291.357 109.726C291.468 109.837 291.615 109.908 291.772 109.927L291.854 109.932H292.557L292.639 109.927C292.796 109.908 292.942 109.837 293.054 109.726C293.166 109.614 293.237 109.468 293.255 109.311L293.26 109.228L293.255 109.146C293.239 109.003 293.178 108.868 293.082 108.76C292.986 108.652 292.859 108.577 292.718 108.543L292.639 108.529L292.557 108.525V106.416L292.552 106.333C292.534 106.176 292.463 106.03 292.351 105.918C292.239 105.807 292.093 105.736 291.936 105.717L291.854 105.712ZM291.861 103.603L291.772 103.608C291.601 103.628 291.443 103.71 291.329 103.839C291.215 103.968 291.151 104.134 291.151 104.306C291.151 104.478 291.215 104.644 291.329 104.773C291.443 104.902 291.601 104.984 291.772 105.004L291.854 105.009L291.943 105.004C292.114 104.984 292.272 104.902 292.386 104.773C292.5 104.644 292.563 104.478 292.563 104.306C292.563 104.134 292.5 103.968 292.386 103.839C292.272 103.71 292.114 103.628 291.943 103.608L291.861 103.603Z" fill="#F35423"/>
</g>
<circle cx="158.942" cy="74.5086" r="22.8104" fill="#FFF1ED" stroke="#F35423" stroke-width="0.263703"/>
<g clip-path="url(#clip2_3024_6012)">
<path d="M163.415 69.3312C164.577 70.493 165.242 72.0612 165.269 73.7041C165.295 75.347 164.682 76.9359 163.558 78.1347L163.415 78.2824L160.432 81.2654C160.053 81.6438 159.545 81.8641 159.01 81.8817C158.475 81.8993 157.953 81.7129 157.551 81.3603L157.449 81.2654L154.465 78.2817C153.278 77.0948 152.611 75.485 152.611 73.8065C152.611 72.1279 153.278 70.5181 154.465 69.3312C155.652 68.1443 157.262 67.4775 158.94 67.4775C160.619 67.4775 162.229 68.1443 163.415 69.3312ZM158.94 71.6968C158.663 71.6968 158.389 71.7514 158.133 71.8574C157.877 71.9634 157.644 72.1188 157.449 72.3147C157.253 72.5106 157.097 72.7432 156.991 72.9991C156.885 73.2551 156.831 73.5294 156.831 73.8065C156.831 74.0835 156.885 74.3578 156.991 74.6138C157.097 74.8697 157.253 75.1023 157.449 75.2982C157.644 75.4941 157.877 75.6495 158.133 75.7555C158.389 75.8615 158.663 75.9161 158.94 75.9161C159.5 75.9161 160.036 75.6938 160.432 75.2982C160.828 74.9026 161.05 74.366 161.05 73.8065C161.05 73.247 160.828 72.7104 160.432 72.3147C160.036 71.9191 159.5 71.6968 158.94 71.6968Z" fill="#F35423"/>
</g>
<line x1="182.148" y1="76.4853" x2="203.508" y2="76.4853" stroke="#F35423" stroke-width="0.263703"/>
<circle cx="181.885" cy="76.6174" r="1.58222" fill="#F35423"/>
<path d="M288.947 74.5065H326.393V52.751" stroke="#F35423" stroke-width="0.263703"/>
<circle cx="326.393" cy="52.3557" r="1.84592" fill="#F35423"/>
<circle cx="292.637" cy="129.885" r="1.84592" fill="#F35423"/>
<path d="M288.947 157.178H292.507V129.885" stroke="#F35423" stroke-width="0.263703"/>
<rect x="225.857" y="155.323" width="12.5019" height="12.6145" rx="1.80207" fill="#FFF1ED"/>
<rect x="212.232" y="155.323" width="12.5019" height="12.6145" rx="1.80207" fill="#FFF1ED"/>
<rect x="239.488" y="155.323" width="12.5019" height="12.6145" rx="1.80207" fill="#F35423"/>
<path d="M245.656 159.286H246.775L244.653 162.37H243.537L245.656 159.286Z" fill="white" stroke="white" stroke-width="0.00792067"/>
<path d="M246.765 160.812H247.885L245.762 163.896H244.646L246.765 160.812Z" fill="white" stroke="white" stroke-width="0.00792067"/>
<rect x="253.115" y="155.323" width="12.5019" height="12.6145" rx="1.80207" fill="#FFF1ED"/>
<rect x="266.742" y="155.323" width="12.5019" height="12.6145" rx="1.80207" fill="#FFF1ED"/>
<defs>
<clipPath id="clip0_3024_6012">
<rect width="16.877" height="16.877" fill="white" transform="translate(316.902 21.5039)"/>
</clipPath>
<clipPath id="clip1_3024_6012">
<rect width="16.877" height="16.877" fill="white" transform="translate(283.414 97.9775)"/>
</clipPath>
<clipPath id="clip2_3024_6012">
<rect width="16.877" height="16.877" fill="white" transform="translate(150.504 66.0703)"/>
</clipPath>
</defs>
</svg>
