<svg width="526" height="200" viewBox="0 0 526 200" fill="none" xmlns="http://www.w3.org/2000/svg">
<rect width="526" height="200" fill="white"/>
<path d="M312.945 95.2593C312.945 81.8884 308.556 68.8871 300.453 58.2515C292.349 47.616 280.979 39.9342 268.088 36.3855" stroke="#F35423" stroke-width="1.67297"/>
<path d="M240.085 35.3459C233.434 36.6554 227.048 39.0633 221.187 42.4706" stroke="black" stroke-width="1.67297"/>
<path d="M221.056 42.5475C210.603 48.6604 202.203 57.7432 196.925 68.6414" stroke="#F35423" stroke-width="1.67297"/>
<path d="M190.818 95.2593C190.818 109.569 195.843 123.424 205.017 134.406" stroke="black" stroke-width="1.67297"/>
<path d="M205.255 134.69C212.795 143.606 222.733 150.173 233.891 153.613" stroke="#F35423" stroke-width="1.67297"/>
<path d="M280.179 149.371C289.66 144.412 297.672 137.05 303.412 128.021" stroke="black" stroke-width="1.67297"/>
<rect x="279.74" y="128.607" width="10.9625" height="46.9812" rx="5.48124" transform="rotate(-45 279.74 128.607)" fill="#F35423"/>
<rect x="290.453" y="58.6626" width="5.25873" height="13.761" transform="rotate(45 290.453 58.6626)" fill="#F35423" stroke="#F35423" stroke-width="0.256226"/>
<rect x="282.998" y="60.2686" width="6.40768" height="13.5312" transform="rotate(-45 282.998 60.2686)" fill="#F35423" stroke="#F35423" stroke-width="0.256226"/>
<rect x="212.369" y="61.9453" width="5.25873" height="13.761" transform="rotate(-45 212.369 61.9453)" fill="#F35423" stroke="#F35423" stroke-width="0.256226"/>
<rect x="213.975" y="69.4018" width="6.40768" height="13.5312" transform="rotate(-135 213.975 69.4018)" fill="#F35423" stroke="#F35423" stroke-width="0.256226"/>
<circle cx="253.533" cy="96.5695" r="43.2089" fill="black" stroke="#F35423" stroke-width="0.48394"/>
<circle cx="253.965" cy="97.0027" r="36.6988" fill="#F35423" stroke="#F35423" stroke-width="0.48394"/>
<mask id="path-14-inside-1_3017_6247" fill="white">
<path d="M271.977 96.8955C271.977 94.4875 271.502 92.103 270.581 89.8783C269.659 87.6535 268.309 85.6321 266.606 83.9293C264.903 82.2266 262.882 80.8759 260.657 79.9544C258.432 79.0329 256.048 78.5586 253.64 78.5586V84.1709C255.311 84.1709 256.965 84.5001 258.509 85.1395C260.053 85.779 261.456 86.7163 262.637 87.8979C263.819 89.0795 264.756 90.4822 265.396 92.026C266.035 93.5698 266.364 95.2245 266.364 96.8955H271.977Z"/>
</mask>
<path d="M271.977 96.8955C271.977 94.4875 271.502 92.103 270.581 89.8783C269.659 87.6535 268.309 85.6321 266.606 83.9293C264.903 82.2266 262.882 80.8759 260.657 79.9544C258.432 79.0329 256.048 78.5586 253.64 78.5586V84.1709C255.311 84.1709 256.965 84.5001 258.509 85.1395C260.053 85.779 261.456 86.7163 262.637 87.8979C263.819 89.0795 264.756 90.4822 265.396 92.026C266.035 93.5698 266.364 95.2245 266.364 96.8955H271.977Z" fill="white" stroke="#F35423" stroke-width="1.2779" mask="url(#path-14-inside-1_3017_6247)"/>
<mask id="path-15-inside-2_3017_6247" fill="white">
<path d="M263.079 96.8958C263.079 95.6561 262.834 94.4286 262.36 93.2833C261.886 92.1381 261.19 91.0974 260.314 90.2209C259.437 89.3443 258.397 88.649 257.251 88.1746C256.106 87.7002 254.879 87.4561 253.639 87.4561V96.8958H263.079Z"/>
</mask>
<path d="M263.079 96.8958C263.079 95.6561 262.834 94.4286 262.36 93.2833C261.886 92.1381 261.19 91.0974 260.314 90.2209C259.437 89.3443 258.397 88.649 257.251 88.1746C256.106 87.7002 254.879 87.4561 253.639 87.4561V96.8958H263.079Z" fill="white" stroke="#F35423" stroke-width="0.657856" mask="url(#path-15-inside-2_3017_6247)"/>
<mask id="path-16-inside-3_3017_6247" fill="white">
<path d="M280.223 96.8956C280.223 93.4046 279.535 89.9479 278.199 86.7227C276.863 83.4975 274.905 80.567 272.437 78.0985C269.968 75.63 267.038 73.6719 263.813 72.336C260.587 71.0001 257.131 70.3125 253.64 70.3125L253.64 75.5961C256.437 75.5961 259.207 76.147 261.791 77.2174C264.375 78.2878 266.723 79.8567 268.701 81.8346C270.679 83.8124 272.247 86.1604 273.318 88.7446C274.388 91.3288 274.939 94.0985 274.939 96.8956H280.223Z"/>
</mask>
<path d="M280.223 96.8956C280.223 93.4046 279.535 89.9479 278.199 86.7227C276.863 83.4975 274.905 80.567 272.437 78.0985C269.968 75.63 267.038 73.6719 263.813 72.336C260.587 71.0001 257.131 70.3125 253.64 70.3125L253.64 75.5961C256.437 75.5961 259.207 76.147 261.791 77.2174C264.375 78.2878 266.723 79.8567 268.701 81.8346C270.679 83.8124 272.247 86.1604 273.318 88.7446C274.388 91.3288 274.939 94.0985 274.939 96.8956H280.223Z" fill="white" stroke="#F35423" stroke-width="1.85258" mask="url(#path-16-inside-3_3017_6247)"/>
<path d="M255.245 91.1562C256.68 91.1562 262.092 91.6858 268.412 92.6074C274.526 93.499 281.469 94.7571 286.461 96.2471C281.536 97.8 274.595 99.0574 268.466 99.9316C262.129 100.835 256.681 101.33 255.245 101.33C252.436 101.33 250.158 99.0527 250.158 96.2432C250.158 93.4337 252.436 91.1563 255.245 91.1562Z" fill="white" stroke="#F35423" stroke-width="0.316143"/>
<circle cx="255.671" cy="96.1002" r="2.11013" fill="#F35423" stroke="#F35423" stroke-width="0.316143"/>
<rect x="328.62" y="27.9213" width="87.1115" height="33.5851" rx="4.72291" fill="white"/>
<rect x="328.62" y="27.9213" width="87.1115" height="33.5851" rx="4.72291" stroke="#F35423" stroke-width="1.04954"/>
<rect x="390.02" y="34.7432" width="19.9412" height="19.9412" fill="#FFF1ED"/>
<rect x="333.344" y="47.3379" width="48.2786" height="2.09907" rx="1.04954" fill="#FFF1ED"/>
<rect x="333.344" y="52.5859" width="34.6347" height="2.09907" rx="1.04954" fill="#FFF1ED"/>
<rect x="333.344" y="34.7432" width="22.0402" height="5.24768" rx="2.62384" fill="#F35423"/>
<rect x="344.365" y="126.578" width="87.1115" height="46.1796" rx="4.72291" fill="white"/>
<rect x="344.365" y="126.578" width="87.1115" height="46.1796" rx="4.72291" stroke="#F35423" stroke-width="1.04954"/>
<rect x="349.088" y="130.251" width="77.6656" height="38.8328" fill="#FFF1ED"/>
<path d="M392.117 150.19L385.82 153.826L385.82 146.555L392.117 150.19Z" fill="#F35423"/>
<rect x="93.5248" y="89.8451" width="87.1115" height="67.1703" rx="4.72291" fill="white"/>
<rect x="93.5248" y="89.8451" width="87.1115" height="67.1703" rx="4.72291" stroke="#F35423" stroke-width="1.04954"/>
<rect x="98.248" y="94.5674" width="76.6161" height="40.9319" rx="5.24768" fill="#FFF1ED"/>
<rect x="98.248" y="138.648" width="76.6161" height="2.09907" rx="1.04954" fill="#FFF1ED"/>
<rect x="98.248" y="143.896" width="34.6347" height="2.09907" rx="1.04954" fill="#FFF1ED"/>
<rect x="98.248" y="148.095" width="10.4954" height="4.19814" rx="2.09907" fill="#F35423"/>
<circle cx="102.432" cy="172.219" r="9.43196" fill="#FFF1ED"/>
<mask id="path-33-inside-4_3017_6247" fill="white">
<path d="M102.432 162.787C104.852 162.787 107.179 163.717 108.932 165.385C110.685 167.052 111.731 169.33 111.852 171.746C111.973 174.163 111.161 176.534 109.584 178.368C108.006 180.203 105.784 181.361 103.377 181.604C100.969 181.846 98.5606 181.154 96.6491 179.67C94.7376 178.187 93.4693 176.025 93.1066 173.633C92.7438 171.241 93.3144 168.801 94.7002 166.817C96.086 164.834 98.181 163.459 100.552 162.976L100.713 163.767C98.5448 164.208 96.629 165.466 95.3618 167.279C94.0946 169.093 93.5729 171.325 93.9046 173.512C94.2363 175.7 95.396 177.676 97.144 179.033C98.8919 180.389 101.094 181.022 103.296 180.801C105.497 180.579 107.529 179.52 108.972 177.842C110.414 176.164 111.157 173.996 111.046 171.787C110.935 169.577 109.979 167.494 108.376 165.969C106.772 164.445 104.645 163.594 102.432 163.594V162.787Z"/>
</mask>
<path d="M102.432 162.787C104.852 162.787 107.179 163.717 108.932 165.385C110.685 167.052 111.731 169.33 111.852 171.746C111.973 174.163 111.161 176.534 109.584 178.368C108.006 180.203 105.784 181.361 103.377 181.604C100.969 181.846 98.5606 181.154 96.6491 179.67C94.7376 178.187 93.4693 176.025 93.1066 173.633C92.7438 171.241 93.3144 168.801 94.7002 166.817C96.086 164.834 98.181 163.459 100.552 162.976L100.713 163.767C98.5448 164.208 96.629 165.466 95.3618 167.279C94.0946 169.093 93.5729 171.325 93.9046 173.512C94.2363 175.7 95.396 177.676 97.144 179.033C98.8919 180.389 101.094 181.022 103.296 180.801C105.497 180.579 107.529 179.52 108.972 177.842C110.414 176.164 111.157 173.996 111.046 171.787C110.935 169.577 109.979 167.494 108.376 165.969C106.772 164.445 104.645 163.594 102.432 163.594V162.787Z" fill="#FFF1ED" stroke="#F35423" stroke-width="1.53991" mask="url(#path-33-inside-4_3017_6247)"/>
<path d="M99.4248 170.007V174.562H98.5996V170.81H98.5729L97.5074 171.491V170.735L98.6396 170.007H99.4248ZM102.265 174.649C101.899 174.649 101.585 174.557 101.322 174.371C101.061 174.184 100.86 173.915 100.719 173.564C100.58 173.211 100.51 172.786 100.51 172.289C100.512 171.793 100.582 171.37 100.722 171.021C100.862 170.671 101.063 170.405 101.324 170.221C101.587 170.037 101.9 169.945 102.265 169.945C102.63 169.945 102.944 170.037 103.206 170.221C103.469 170.405 103.669 170.671 103.809 171.021C103.95 171.371 104.02 171.794 104.02 172.289C104.02 172.788 103.95 173.213 103.809 173.566C103.669 173.917 103.469 174.186 103.206 174.371C102.945 174.557 102.631 174.649 102.265 174.649ZM102.265 173.953C102.55 173.953 102.775 173.813 102.939 173.533C103.105 173.251 103.188 172.836 103.188 172.289C103.188 171.927 103.15 171.623 103.075 171.377C102.999 171.131 102.892 170.946 102.755 170.821C102.617 170.695 102.454 170.632 102.265 170.632C101.982 170.632 101.758 170.773 101.593 171.055C101.429 171.335 101.346 171.747 101.344 172.289C101.343 172.653 101.379 172.958 101.453 173.206C101.529 173.453 101.636 173.64 101.774 173.766C101.912 173.891 102.075 173.953 102.265 173.953ZM106.443 174.649C106.077 174.649 105.762 174.557 105.5 174.371C105.239 174.184 105.038 173.915 104.897 173.564C104.758 173.211 104.688 172.786 104.688 172.289C104.689 171.793 104.76 171.37 104.899 171.021C105.04 170.671 105.241 170.405 105.502 170.221C105.765 170.037 106.078 169.945 106.443 169.945C106.808 169.945 107.121 170.037 107.384 170.221C107.646 170.405 107.847 170.671 107.987 171.021C108.127 171.371 108.198 171.794 108.198 172.289C108.198 172.788 108.127 173.213 107.987 173.566C107.847 173.917 107.646 174.186 107.384 174.371C107.123 174.557 106.809 174.649 106.443 174.649ZM106.443 173.953C106.728 173.953 106.952 173.813 107.117 173.533C107.283 173.251 107.366 172.836 107.366 172.289C107.366 171.927 107.328 171.623 107.253 171.377C107.177 171.131 107.07 170.946 106.932 170.821C106.794 170.695 106.631 170.632 106.443 170.632C106.16 170.632 105.936 170.773 105.771 171.055C105.607 171.335 105.524 171.747 105.522 172.289C105.521 172.653 105.557 172.958 105.631 173.206C105.707 173.453 105.813 173.64 105.951 173.766C106.089 173.891 106.253 173.953 106.443 173.953Z" fill="#F35423"/>
<circle cx="125.532" cy="172.219" r="9.43196" fill="#FFF1ED"/>
<path d="M123.285 169.946C123.503 169.947 123.715 169.986 123.921 170.062C124.129 170.136 124.316 170.257 124.482 170.426C124.648 170.594 124.78 170.819 124.878 171.1C124.976 171.382 125.025 171.73 125.025 172.146C125.026 172.537 124.984 172.887 124.9 173.196C124.817 173.502 124.698 173.762 124.542 173.974C124.386 174.186 124.199 174.348 123.979 174.459C123.76 174.57 123.513 174.626 123.238 174.626C122.951 174.626 122.696 174.569 122.473 174.457C122.252 174.344 122.074 174.19 121.937 173.994C121.801 173.798 121.717 173.574 121.686 173.322H122.498C122.539 173.503 122.624 173.647 122.751 173.754C122.88 173.859 123.043 173.912 123.238 173.912C123.554 173.912 123.797 173.775 123.968 173.5C124.139 173.226 124.224 172.845 124.224 172.357H124.193C124.12 172.487 124.026 172.6 123.91 172.695C123.794 172.788 123.663 172.86 123.516 172.911C123.371 172.961 123.217 172.986 123.054 172.986C122.787 172.986 122.547 172.923 122.333 172.795C122.121 172.668 121.953 172.493 121.828 172.27C121.705 172.048 121.643 171.793 121.641 171.507C121.641 171.211 121.71 170.945 121.846 170.709C121.984 170.472 122.176 170.285 122.422 170.148C122.668 170.01 122.956 169.943 123.285 169.946ZM123.287 170.613C123.127 170.613 122.983 170.652 122.854 170.731C122.726 170.808 122.625 170.913 122.551 171.047C122.478 171.179 122.442 171.326 122.442 171.49C122.444 171.651 122.48 171.798 122.551 171.93C122.624 172.062 122.722 172.166 122.847 172.244C122.973 172.321 123.117 172.359 123.278 172.359C123.399 172.359 123.511 172.336 123.614 172.29C123.718 172.244 123.809 172.181 123.886 172.099C123.964 172.016 124.025 171.922 124.068 171.816C124.113 171.711 124.134 171.6 124.133 171.483C124.133 171.327 124.095 171.183 124.021 171.051C123.949 170.919 123.849 170.813 123.721 170.733C123.595 170.653 123.45 170.613 123.287 170.613ZM127.347 169.946C127.565 169.947 127.777 169.986 127.983 170.062C128.19 170.136 128.377 170.257 128.543 170.426C128.709 170.594 128.841 170.819 128.939 171.1C129.037 171.382 129.086 171.73 129.086 172.146C129.088 172.537 129.046 172.887 128.962 173.196C128.878 173.502 128.759 173.762 128.603 173.974C128.448 174.186 128.26 174.348 128.041 174.459C127.821 174.57 127.574 174.626 127.3 174.626C127.012 174.626 126.757 174.569 126.535 174.457C126.314 174.344 126.135 174.19 125.999 173.994C125.862 173.798 125.779 173.574 125.747 173.322H126.559C126.601 173.503 126.685 173.647 126.813 173.754C126.942 173.859 127.104 173.912 127.3 173.912C127.616 173.912 127.859 173.775 128.03 173.5C128.2 173.226 128.285 172.845 128.285 172.357H128.254C128.182 172.487 128.087 172.6 127.972 172.695C127.856 172.788 127.725 172.86 127.578 172.911C127.433 172.961 127.278 172.986 127.115 172.986C126.848 172.986 126.608 172.923 126.395 172.795C126.183 172.668 126.014 172.493 125.89 172.27C125.767 172.048 125.704 171.793 125.703 171.507C125.703 171.211 125.771 170.945 125.908 170.709C126.045 170.472 126.237 170.285 126.484 170.148C126.73 170.01 127.017 169.943 127.347 169.946ZM127.349 170.613C127.189 170.613 127.044 170.652 126.915 170.731C126.788 170.808 126.687 170.913 126.613 171.047C126.54 171.179 126.504 171.326 126.504 171.49C126.505 171.651 126.541 171.798 126.613 171.93C126.685 172.062 126.784 172.166 126.908 172.244C127.035 172.321 127.178 172.359 127.34 172.359C127.46 172.359 127.572 172.336 127.676 172.29C127.78 172.244 127.87 172.181 127.947 172.099C128.026 172.016 128.087 171.922 128.13 171.816C128.174 171.711 128.196 171.6 128.194 171.483C128.194 171.327 128.157 171.183 128.083 171.051C128.01 170.919 127.91 170.813 127.783 170.733C127.657 170.653 127.512 170.613 127.349 170.613Z" fill="#F35423"/>
<mask id="path-37-inside-5_3017_6247" fill="white">
<path d="M125.534 162.787C127.988 162.787 130.345 163.744 132.105 165.454C133.866 167.164 134.89 169.492 134.962 171.945C135.033 174.398 134.145 176.783 132.487 178.592C130.829 180.401 128.531 181.493 126.081 181.635C123.631 181.778 121.222 180.959 119.365 179.355C117.509 177.75 116.351 175.484 116.137 173.039C115.924 170.595 116.672 168.163 118.222 166.261C119.772 164.358 122.003 163.135 124.441 162.851L124.534 163.652C122.305 163.912 120.265 165.031 118.848 166.77C117.43 168.51 116.746 170.734 116.941 172.969C117.137 175.205 118.195 177.276 119.893 178.744C121.591 180.211 123.794 180.96 126.034 180.829C128.274 180.699 130.376 179.701 131.892 178.046C133.408 176.392 134.22 174.212 134.155 171.969C134.09 169.726 133.153 167.596 131.543 166.033C129.933 164.469 127.778 163.594 125.534 163.594V162.787Z"/>
</mask>
<path d="M125.534 162.787C127.988 162.787 130.345 163.744 132.105 165.454C133.866 167.164 134.89 169.492 134.962 171.945C135.033 174.398 134.145 176.783 132.487 178.592C130.829 180.401 128.531 181.493 126.081 181.635C123.631 181.778 121.222 180.959 119.365 179.355C117.509 177.75 116.351 175.484 116.137 173.039C115.924 170.595 116.672 168.163 118.222 166.261C119.772 164.358 122.003 163.135 124.441 162.851L124.534 163.652C122.305 163.912 120.265 165.031 118.848 166.77C117.43 168.51 116.746 170.734 116.941 172.969C117.137 175.205 118.195 177.276 119.893 178.744C121.591 180.211 123.794 180.96 126.034 180.829C128.274 180.699 130.376 179.701 131.892 178.046C133.408 176.392 134.22 174.212 134.155 171.969C134.09 169.726 133.153 167.596 131.543 166.033C129.933 164.469 127.778 163.594 125.534 163.594V162.787Z" fill="#FFF1ED" stroke="#F35423" stroke-width="1.53991" mask="url(#path-37-inside-5_3017_6247)"/>
<circle cx="148.631" cy="172.219" r="9.43196" fill="#FFF1ED"/>
<mask id="path-39-inside-6_3017_6247" fill="white">
<path d="M148.631 162.787C150.941 162.787 153.171 163.635 154.898 165.17C156.625 166.705 157.728 168.82 157.998 171.115C158.269 173.409 157.688 175.723 156.366 177.617C155.043 179.512 153.072 180.855 150.825 181.392C148.578 181.93 146.212 181.624 144.176 180.532C142.139 179.441 140.574 177.64 139.778 175.472C138.981 173.303 139.008 170.918 139.853 168.767C140.699 166.617 142.304 164.853 144.364 163.807L144.73 164.527C142.845 165.483 141.378 167.097 140.605 169.063C139.832 171.029 139.807 173.21 140.535 175.193C141.264 177.176 142.695 178.823 144.557 179.821C146.419 180.819 148.582 181.099 150.637 180.607C152.692 180.116 154.495 178.888 155.704 177.155C156.913 175.423 157.444 173.307 157.197 171.209C156.949 169.111 155.941 167.177 154.362 165.773C152.783 164.37 150.744 163.594 148.631 163.594V162.787Z"/>
</mask>
<path d="M148.631 162.787C150.941 162.787 153.171 163.635 154.898 165.17C156.625 166.705 157.728 168.82 157.998 171.115C158.269 173.409 157.688 175.723 156.366 177.617C155.043 179.512 153.072 180.855 150.825 181.392C148.578 181.93 146.212 181.624 144.176 180.532C142.139 179.441 140.574 177.64 139.778 175.472C138.981 173.303 139.008 170.918 139.853 168.767C140.699 166.617 142.304 164.853 144.364 163.807L144.73 164.527C142.845 165.483 141.378 167.097 140.605 169.063C139.832 171.029 139.807 173.21 140.535 175.193C141.264 177.176 142.695 178.823 144.557 179.821C146.419 180.819 148.582 181.099 150.637 180.607C152.692 180.116 154.495 178.888 155.704 177.155C156.913 175.423 157.444 173.307 157.197 171.209C156.949 169.111 155.941 167.177 154.362 165.773C152.783 164.37 150.744 163.594 148.631 163.594V162.787Z" fill="#FFF1ED" stroke="#F35423" stroke-width="1.53991" mask="url(#path-39-inside-6_3017_6247)"/>
<path d="M146.385 169.946C146.603 169.947 146.815 169.986 147.021 170.062C147.228 170.136 147.415 170.257 147.581 170.426C147.747 170.594 147.879 170.819 147.977 171.1C148.075 171.382 148.124 171.73 148.124 172.146C148.126 172.537 148.084 172.887 148 173.196C147.917 173.502 147.797 173.762 147.641 173.974C147.486 174.186 147.298 174.348 147.079 174.459C146.859 174.57 146.612 174.626 146.338 174.626C146.05 174.626 145.795 174.569 145.573 174.457C145.352 174.344 145.173 174.19 145.037 173.994C144.9 173.798 144.817 173.574 144.785 173.322H145.597C145.639 173.503 145.723 173.647 145.851 173.754C145.98 173.859 146.142 173.912 146.338 173.912C146.654 173.912 146.897 173.775 147.068 173.5C147.238 173.226 147.323 172.845 147.323 172.357H147.292C147.22 172.487 147.125 172.6 147.01 172.695C146.894 172.788 146.763 172.86 146.616 172.911C146.471 172.961 146.317 172.986 146.153 172.986C145.886 172.986 145.646 172.923 145.433 172.795C145.221 172.668 145.052 172.493 144.928 172.27C144.805 172.048 144.742 171.793 144.741 171.507C144.741 171.211 144.809 170.945 144.946 170.709C145.084 170.472 145.276 170.285 145.522 170.148C145.768 170.01 146.056 169.943 146.385 169.946ZM146.387 170.613C146.227 170.613 146.082 170.652 145.953 170.731C145.826 170.808 145.725 170.913 145.651 171.047C145.578 171.179 145.542 171.326 145.542 171.49C145.543 171.651 145.58 171.798 145.651 171.93C145.723 172.062 145.822 172.166 145.947 172.244C146.073 172.321 146.216 172.359 146.378 172.359C146.498 172.359 146.61 172.336 146.714 172.29C146.818 172.244 146.908 172.181 146.985 172.099C147.064 172.016 147.125 171.922 147.168 171.816C147.212 171.711 147.234 171.6 147.232 171.483C147.232 171.327 147.195 171.183 147.121 171.051C147.048 170.919 146.948 170.813 146.821 170.733C146.695 170.653 146.55 170.613 146.387 170.613ZM150.484 174.626C150.153 174.626 149.86 174.57 149.603 174.459C149.348 174.348 149.148 174.196 149.003 174.003C148.859 173.809 148.788 173.588 148.789 173.342C148.788 173.151 148.829 172.975 148.914 172.815C148.998 172.655 149.112 172.522 149.256 172.415C149.402 172.307 149.563 172.238 149.741 172.208V172.177C149.507 172.125 149.317 172.006 149.172 171.819C149.028 171.63 148.957 171.413 148.958 171.167C148.957 170.933 149.022 170.724 149.154 170.54C149.286 170.356 149.467 170.211 149.697 170.106C149.927 169.999 150.189 169.946 150.484 169.946C150.776 169.946 151.036 169.999 151.265 170.106C151.495 170.211 151.676 170.356 151.808 170.54C151.941 170.724 152.008 170.933 152.008 171.167C152.008 171.413 151.934 171.63 151.788 171.819C151.642 172.006 151.455 172.125 151.225 172.177V172.208C151.403 172.238 151.563 172.307 151.705 172.415C151.849 172.522 151.963 172.655 152.048 172.815C152.134 172.975 152.177 173.151 152.177 173.342C152.177 173.588 152.104 173.809 151.959 174.003C151.813 174.196 151.613 174.348 151.358 174.459C151.105 174.57 150.813 174.626 150.484 174.626ZM150.484 173.99C150.655 173.99 150.803 173.961 150.929 173.903C151.055 173.844 151.153 173.761 151.223 173.654C151.292 173.547 151.328 173.424 151.329 173.285C151.328 173.139 151.29 173.011 151.216 172.9C151.143 172.787 151.043 172.699 150.916 172.635C150.79 172.571 150.646 172.539 150.484 172.539C150.321 172.539 150.176 172.571 150.048 172.635C149.921 172.699 149.82 172.787 149.746 172.9C149.673 173.011 149.637 173.139 149.639 173.285C149.637 173.424 149.671 173.547 149.741 173.654C149.811 173.759 149.909 173.841 150.035 173.901C150.162 173.96 150.312 173.99 150.484 173.99ZM150.484 171.914C150.623 171.914 150.747 171.886 150.853 171.83C150.962 171.773 151.047 171.695 151.109 171.594C151.171 171.493 151.203 171.377 151.205 171.245C151.203 171.114 151.172 171 151.111 170.902C151.051 170.803 150.966 170.727 150.858 170.673C150.75 170.618 150.625 170.591 150.484 170.591C150.34 170.591 150.213 170.618 150.104 170.673C149.995 170.727 149.911 170.803 149.85 170.902C149.791 171 149.762 171.114 149.763 171.245C149.762 171.377 149.792 171.493 149.852 171.594C149.915 171.693 150 171.772 150.108 171.83C150.218 171.886 150.343 171.914 150.484 171.914Z" fill="#F35423"/>
<circle cx="171.731" cy="172.219" r="9.43196" fill="#FFF1ED"/>
<path d="M168.213 169.891V174.446H167.388V170.694H167.361L166.295 171.375V170.618L167.428 169.891H168.213ZM171.053 174.533C170.687 174.533 170.373 174.44 170.11 174.255C169.849 174.068 169.648 173.799 169.507 173.448C169.368 173.095 169.298 172.67 169.298 172.173C169.3 171.676 169.37 171.254 169.509 170.905C169.65 170.555 169.851 170.288 170.112 170.104C170.375 169.921 170.688 169.829 171.053 169.829C171.418 169.829 171.732 169.921 171.994 170.104C172.256 170.288 172.457 170.555 172.597 170.905C172.738 171.255 172.808 171.678 172.808 172.173C172.808 172.671 172.738 173.097 172.597 173.45C172.457 173.801 172.256 174.07 171.994 174.255C171.733 174.44 171.419 174.533 171.053 174.533ZM171.053 173.837C171.338 173.837 171.563 173.697 171.727 173.416C171.893 173.135 171.976 172.72 171.976 172.173C171.976 171.811 171.938 171.507 171.863 171.261C171.787 171.015 171.68 170.83 171.542 170.705C171.405 170.579 171.241 170.516 171.053 170.516C170.77 170.516 170.546 170.657 170.381 170.939C170.217 171.219 170.134 171.63 170.132 172.173C170.131 172.536 170.167 172.842 170.241 173.089C170.317 173.337 170.424 173.524 170.562 173.65C170.699 173.775 170.863 173.837 171.053 173.837ZM175.231 174.533C174.865 174.533 174.55 174.44 174.288 174.255C174.027 174.068 173.826 173.799 173.685 173.448C173.546 173.095 173.476 172.67 173.476 172.173C173.477 171.676 173.548 171.254 173.687 170.905C173.828 170.555 174.029 170.288 174.29 170.104C174.553 169.921 174.866 169.829 175.231 169.829C175.596 169.829 175.909 169.921 176.172 170.104C176.434 170.288 176.635 170.555 176.775 170.905C176.915 171.255 176.986 171.678 176.986 172.173C176.986 172.671 176.915 173.097 176.775 173.45C176.635 173.801 176.434 174.07 176.172 174.255C175.911 174.44 175.597 174.533 175.231 174.533ZM175.231 173.837C175.516 173.837 175.74 173.697 175.905 173.416C176.071 173.135 176.154 172.72 176.154 172.173C176.154 171.811 176.116 171.507 176.041 171.261C175.965 171.015 175.858 170.83 175.72 170.705C175.582 170.579 175.419 170.516 175.231 170.516C174.948 170.516 174.724 170.657 174.559 170.939C174.395 171.219 174.312 171.63 174.31 172.173C174.309 172.536 174.345 172.842 174.419 173.089C174.495 173.337 174.601 173.524 174.739 173.65C174.877 173.775 175.041 173.837 175.231 173.837Z" fill="#F35423"/>
<mask id="path-43-inside-7_3017_6247" fill="white">
<path d="M181.163 172.219C181.163 177.428 176.94 181.651 171.731 181.651C166.522 181.651 162.299 177.428 162.299 172.219C162.299 167.01 166.522 162.787 171.731 162.787C176.94 162.787 181.163 167.01 181.163 172.219ZM163.106 172.219C163.106 176.982 166.967 180.844 171.731 180.844C176.494 180.844 180.356 176.982 180.356 172.219C180.356 167.456 176.494 163.594 171.731 163.594C166.967 163.594 163.106 167.456 163.106 172.219Z"/>
</mask>
<path d="M181.163 172.219C181.163 177.428 176.94 181.651 171.731 181.651C166.522 181.651 162.299 177.428 162.299 172.219C162.299 167.01 166.522 162.787 171.731 162.787C176.94 162.787 181.163 167.01 181.163 172.219ZM163.106 172.219C163.106 176.982 166.967 180.844 171.731 180.844C176.494 180.844 180.356 176.982 180.356 172.219C180.356 167.456 176.494 163.594 171.731 163.594C166.967 163.594 163.106 167.456 163.106 172.219Z" fill="#FFF1ED" stroke="#F35423" stroke-width="1.53991" mask="url(#path-43-inside-7_3017_6247)"/>
<rect x="139.704" y="19.5248" width="57.7245" height="28.3375" rx="4.72291" fill="white"/>
<rect x="139.704" y="19.5248" width="57.7245" height="28.3375" rx="4.72291" stroke="#F35423" stroke-width="1.04954"/>
<circle cx="150.724" cy="28.4459" r="5.24768" fill="#F35423"/>
<rect x="159.119" y="27.3965" width="31.4861" height="2.09907" rx="1.04954" fill="#F35423"/>
<rect x="145.477" y="36.8418" width="45.13" height="2.09907" rx="1.04954" fill="#FFF1ED"/>
<rect x="145.477" y="42.0879" width="19.9412" height="2.09907" rx="1.04954" fill="#FFF1ED"/>
</svg>
