<svg width="526" height="200" viewBox="0 0 526 200" fill="none" xmlns="http://www.w3.org/2000/svg">
<rect width="526" height="200" fill="white"/>
<circle cx="83" cy="72" r="49" fill="#FFF1ED"/>
<mask id="path-2-inside-1_1807_2354" fill="white">
<path d="M83 23C95.5703 23 107.66 27.8309 116.768 36.4937C125.877 45.1566 131.308 56.9886 131.938 69.5431C132.569 82.0975 128.35 94.4141 120.155 103.946C111.96 113.477 100.415 119.495 87.9076 120.754C75.4006 122.013 62.888 118.417 52.9576 110.71C43.0271 103.003 36.4383 91.7742 34.5538 79.346C32.6693 66.9178 35.6331 54.2407 42.8325 43.9363C50.0318 33.6319 60.916 26.4884 73.2341 23.9831L74.0698 28.092C62.8058 30.3829 52.853 36.9152 46.2697 46.3378C39.6865 55.7604 36.9762 67.3527 38.6995 78.7174C40.4227 90.0821 46.4477 100.35 55.5284 107.397C64.6091 114.445 76.0509 117.733 87.4877 116.582C98.9245 115.43 109.481 109.928 116.975 101.212C124.469 92.496 128.327 81.2335 127.751 69.7533C127.174 58.2732 122.208 47.4536 113.879 39.5321C105.55 31.6106 94.4946 27.1931 83 27.1931V23Z"/>
</mask>
<path d="M83 23C95.5703 23 107.66 27.8309 116.768 36.4937C125.877 45.1566 131.308 56.9886 131.938 69.5431C132.569 82.0975 128.35 94.4141 120.155 103.946C111.96 113.477 100.415 119.495 87.9076 120.754C75.4006 122.013 62.888 118.417 52.9576 110.71C43.0271 103.003 36.4383 91.7742 34.5538 79.346C32.6693 66.9178 35.6331 54.2407 42.8325 43.9363C50.0318 33.6319 60.916 26.4884 73.2341 23.9831L74.0698 28.092C62.8058 30.3829 52.853 36.9152 46.2697 46.3378C39.6865 55.7604 36.9762 67.3527 38.6995 78.7174C40.4227 90.0821 46.4477 100.35 55.5284 107.397C64.6091 114.445 76.0509 117.733 87.4877 116.582C98.9245 115.43 109.481 109.928 116.975 101.212C124.469 92.496 128.327 81.2335 127.751 69.7533C127.174 58.2732 122.208 47.4536 113.879 39.5321C105.55 31.6106 94.4946 27.1931 83 27.1931V23Z" fill="#FFF1ED" stroke="#F35423" stroke-width="8" mask="url(#path-2-inside-1_1807_2354)"/>
<path d="M66.2076 60.3345V84H61.9205V64.506H61.7818L56.2468 68.042V64.1131L62.1285 60.3345H66.2076ZM80.9638 84.4507C79.061 84.4507 77.4279 83.9692 76.0643 83.0062C74.7085 82.0356 73.6647 80.6374 72.9328 78.8116C72.2087 76.9782 71.8466 74.7711 71.8466 72.1904C71.8543 69.6097 72.2202 67.4141 72.9444 65.6038C73.6762 63.7857 74.72 62.3991 76.0759 61.4438C77.4394 60.4886 79.0687 60.011 80.9638 60.011C82.8589 60.011 84.4882 60.4886 85.8518 61.4438C87.2153 62.3991 88.2591 63.7857 88.9833 65.6038C89.7151 67.4218 90.081 69.6174 90.081 72.1904C90.081 74.7788 89.7151 76.9897 88.9833 78.8232C88.2591 80.6489 87.2153 82.0433 85.8518 83.0062C84.4959 83.9692 82.8666 84.4507 80.9638 84.4507ZM80.9638 80.8338C82.4429 80.8338 83.61 80.1058 84.4651 78.6498C85.3279 77.1862 85.7593 75.033 85.7593 72.1904C85.7593 70.3107 85.5629 68.7315 85.17 67.4527C84.7771 66.1739 84.2224 65.2109 83.506 64.5638C82.7896 63.909 81.9422 63.5816 80.9638 63.5816C79.4924 63.5816 78.3292 64.3134 77.4741 65.7771C76.619 67.2331 76.1876 69.3709 76.1799 72.1904C76.1722 74.0778 76.3609 75.6647 76.7461 76.9512C77.139 78.2377 77.6936 79.2084 78.4101 79.8632C79.1265 80.5103 79.9778 80.8338 80.9638 80.8338ZM102.668 84.4507C100.765 84.4507 99.1318 83.9692 97.7683 83.0062C96.4124 82.0356 95.3686 80.6374 94.6368 78.8116C93.9126 76.9782 93.5505 74.7711 93.5505 72.1904C93.5582 69.6097 93.9242 67.4141 94.6483 65.6038C95.3802 63.7857 96.424 62.3991 97.7798 61.4438C99.1434 60.4886 100.773 60.011 102.668 60.011C104.563 60.011 106.192 60.4886 107.556 61.4438C108.919 62.3991 109.963 63.7857 110.687 65.6038C111.419 67.4218 111.785 69.6174 111.785 72.1904C111.785 74.7788 111.419 76.9897 110.687 78.8232C109.963 80.6489 108.919 82.0433 107.556 83.0062C106.2 83.9692 104.571 84.4507 102.668 84.4507ZM102.668 80.8338C104.147 80.8338 105.314 80.1058 106.169 78.6498C107.032 77.1862 107.463 75.033 107.463 72.1904C107.463 70.3107 107.267 68.7315 106.874 67.4527C106.481 66.1739 105.926 65.2109 105.21 64.5638C104.494 63.909 103.646 63.5816 102.668 63.5816C101.196 63.5816 100.033 64.3134 99.178 65.7771C98.3229 67.2331 97.8915 69.3709 97.8838 72.1904C97.8761 74.0778 98.0649 75.6647 98.45 76.9512C98.8429 78.2377 99.3976 79.2084 100.114 79.8632C100.83 80.5103 101.682 80.8338 102.668 80.8338Z" fill="#F35423"/>
<path d="M41.6587 139V128.818H45.0991C45.8978 128.818 46.5508 128.962 47.0579 129.251C47.5683 129.536 47.9461 129.922 48.1914 130.409C48.4367 130.896 48.5593 131.44 48.5593 132.04C48.5593 132.64 48.4367 133.185 48.1914 133.675C47.9495 134.166 47.5749 134.557 47.0678 134.849C46.5607 135.137 45.9111 135.281 45.119 135.281H42.6531V134.188H45.0792C45.6261 134.188 46.0652 134.093 46.3967 133.904C46.7281 133.715 46.9684 133.46 47.1175 133.138C47.27 132.814 47.3462 132.447 47.3462 132.04C47.3462 131.632 47.27 131.268 47.1175 130.946C46.9684 130.625 46.7264 130.373 46.3917 130.19C46.0569 130.005 45.6128 129.912 45.0593 129.912H42.8917V139H41.6587ZM53.506 139.159C52.7702 139.159 52.1355 138.997 51.6019 138.672C51.0716 138.344 50.6623 137.886 50.3739 137.3C50.0889 136.71 49.9464 136.024 49.9464 135.241C49.9464 134.459 50.0889 133.77 50.3739 133.173C50.6623 132.573 51.0633 132.106 51.5771 131.771C52.0941 131.433 52.6973 131.264 53.3867 131.264C53.7844 131.264 54.1772 131.33 54.565 131.463C54.9528 131.596 55.3058 131.811 55.6239 132.109C55.9421 132.404 56.1957 132.795 56.3846 133.283C56.5735 133.77 56.668 134.37 56.668 135.082V135.58H50.7816V134.565H55.4748C55.4748 134.134 55.3886 133.75 55.2163 133.412C55.0472 133.074 54.8053 132.807 54.4904 132.612C54.1789 132.416 53.811 132.318 53.3867 132.318C52.9194 132.318 52.515 132.434 52.1737 132.666C51.8356 132.895 51.5754 133.193 51.3931 133.561C51.2108 133.929 51.1197 134.323 51.1197 134.744V135.42C51.1197 135.997 51.2191 136.486 51.418 136.887C51.6201 137.285 51.9002 137.588 52.2582 137.797C52.6161 138.002 53.0321 138.105 53.506 138.105C53.8143 138.105 54.0927 138.062 54.3413 137.976C54.5932 137.886 54.8103 137.754 54.9925 137.578C55.1748 137.399 55.3157 137.177 55.4151 136.912L56.5487 137.23C56.4293 137.615 56.2288 137.953 55.9471 138.244C55.6654 138.533 55.3174 138.758 54.9031 138.92C54.4888 139.08 54.0231 139.159 53.506 139.159ZM58.4528 139V131.364H59.5863V132.517H59.6658C59.805 132.139 60.0569 131.833 60.4215 131.597C60.7861 131.362 61.1971 131.244 61.6545 131.244C61.7406 131.244 61.8484 131.246 61.9776 131.249C62.1069 131.253 62.2047 131.258 62.271 131.264V132.457C62.2312 132.447 62.14 132.433 61.9975 132.413C61.8583 132.389 61.7108 132.378 61.555 132.378C61.1838 132.378 60.8524 132.456 60.5607 132.612C60.2724 132.764 60.0437 132.976 59.8746 133.248C59.7089 133.516 59.6261 133.823 59.6261 134.168V139H58.4528ZM67.5408 131.364V132.358H63.4244V131.364H67.5408ZM64.6573 139V130.31C64.6573 129.872 64.7601 129.508 64.9656 129.216C65.171 128.924 65.4379 128.705 65.766 128.56C66.0941 128.414 66.4405 128.341 66.805 128.341C67.0934 128.341 67.3287 128.364 67.511 128.411C67.6933 128.457 67.8292 128.5 67.9187 128.54L67.5806 129.554C67.521 129.534 67.4381 129.509 67.332 129.479C67.2293 129.45 67.0934 129.435 66.9244 129.435C66.5366 129.435 66.2565 129.532 66.0842 129.728C65.9151 129.924 65.8306 130.21 65.8306 130.588V139H64.6573ZM71.973 139.159C71.2836 139.159 70.6787 138.995 70.1584 138.667C69.6413 138.339 69.237 137.88 68.9453 137.29C68.657 136.7 68.5128 136.01 68.5128 135.222C68.5128 134.426 68.657 133.732 68.9453 133.138C69.237 132.545 69.6413 132.085 70.1584 131.756C70.6787 131.428 71.2836 131.264 71.973 131.264C72.6624 131.264 73.2656 131.428 73.7827 131.756C74.303 132.085 74.7074 132.545 74.9957 133.138C75.2874 133.732 75.4332 134.426 75.4332 135.222C75.4332 136.01 75.2874 136.7 74.9957 137.29C74.7074 137.88 74.303 138.339 73.7827 138.667C73.2656 138.995 72.6624 139.159 71.973 139.159ZM71.973 138.105C72.4967 138.105 72.9276 137.971 73.2656 137.702C73.6037 137.434 73.8539 137.081 74.0163 136.643C74.1787 136.206 74.2599 135.732 74.2599 135.222C74.2599 134.711 74.1787 134.236 74.0163 133.795C73.8539 133.354 73.6037 132.998 73.2656 132.726C72.9276 132.454 72.4967 132.318 71.973 132.318C71.4493 132.318 71.0185 132.454 70.6804 132.726C70.3423 132.998 70.0921 133.354 69.9297 133.795C69.7673 134.236 69.6861 134.711 69.6861 135.222C69.6861 135.732 69.7673 136.206 69.9297 136.643C70.0921 137.081 70.3423 137.434 70.6804 137.702C71.0185 137.971 71.4493 138.105 71.973 138.105ZM77.2243 139V131.364H78.3578V132.517H78.4373C78.5765 132.139 78.8284 131.833 79.193 131.597C79.5576 131.362 79.9686 131.244 80.426 131.244C80.5121 131.244 80.6199 131.246 80.7491 131.249C80.8784 131.253 80.9761 131.258 81.0424 131.264V132.457C81.0027 132.447 80.9115 132.433 80.769 132.413C80.6298 132.389 80.4823 132.378 80.3265 132.378C79.9553 132.378 79.6239 132.456 79.3322 132.612C79.0439 132.764 78.8152 132.976 78.6461 133.248C78.4804 133.516 78.3975 133.823 78.3975 134.168V139H77.2243ZM82.4332 139V131.364H83.5668V132.557H83.6662C83.8253 132.149 84.0821 131.833 84.4368 131.607C84.7914 131.379 85.2173 131.264 85.7145 131.264C86.2183 131.264 86.6375 131.379 86.9723 131.607C87.3104 131.833 87.5739 132.149 87.7628 132.557H87.8423C88.0379 132.162 88.3312 131.849 88.7223 131.617C89.1134 131.382 89.5824 131.264 90.1293 131.264C90.812 131.264 91.3705 131.478 91.8047 131.906C92.2389 132.33 92.456 132.991 92.456 133.889V139H91.2827V133.889C91.2827 133.326 91.1286 132.923 90.8203 132.681C90.5121 132.439 90.1491 132.318 89.7315 132.318C89.1946 132.318 88.7786 132.481 88.4837 132.805C88.1887 133.127 88.0412 133.535 88.0412 134.028V139H86.848V133.77C86.848 133.336 86.7071 132.986 86.4254 132.721C86.1437 132.452 85.7808 132.318 85.3366 132.318C85.0317 132.318 84.7467 132.399 84.4815 132.562C84.2197 132.724 84.0076 132.95 83.8452 133.238C83.6861 133.523 83.6065 133.853 83.6065 134.227V139H82.4332ZM96.8484 139.179C96.3645 139.179 95.9253 139.088 95.5309 138.906C95.1365 138.72 94.8233 138.453 94.5913 138.105C94.3593 137.754 94.2433 137.33 94.2433 136.832C94.2433 136.395 94.3294 136.04 94.5018 135.768C94.6741 135.493 94.9045 135.278 95.1928 135.122C95.4812 134.966 95.7994 134.85 96.1474 134.774C96.4987 134.695 96.8517 134.632 97.2063 134.585C97.6703 134.526 98.0465 134.481 98.3349 134.451C98.6265 134.418 98.8387 134.363 98.9712 134.287C99.1071 134.211 99.1751 134.078 99.1751 133.889V133.849C99.1751 133.359 99.0408 132.978 98.7724 132.706C98.5072 132.434 98.1045 132.298 97.5643 132.298C97.0041 132.298 96.565 132.421 96.2468 132.666C95.9286 132.911 95.7049 133.173 95.5756 133.452L94.462 133.054C94.6609 132.59 94.926 132.229 95.2575 131.97C95.5922 131.708 95.9568 131.526 96.3512 131.423C96.7489 131.317 97.14 131.264 97.5245 131.264C97.7698 131.264 98.0515 131.294 98.3697 131.354C98.6912 131.41 99.0011 131.528 99.2994 131.707C99.601 131.886 99.8512 132.156 100.05 132.517C100.249 132.878 100.348 133.362 100.348 133.969V139H99.1751V137.966H99.1154C99.0359 138.132 98.9033 138.309 98.7177 138.498C98.5321 138.687 98.2852 138.848 97.9769 138.98C97.6687 139.113 97.2925 139.179 96.8484 139.179ZM97.0273 138.125C97.4914 138.125 97.8825 138.034 98.2006 137.852C98.5221 137.669 98.7641 137.434 98.9265 137.146C99.0922 136.857 99.1751 136.554 99.1751 136.236V135.162C99.1254 135.222 99.016 135.276 98.8469 135.326C98.6812 135.372 98.489 135.414 98.2702 135.45C98.0548 135.483 97.8443 135.513 97.6388 135.54C97.4367 135.563 97.2726 135.583 97.1467 135.599C96.8417 135.639 96.5567 135.704 96.2915 135.793C96.0297 135.879 95.8176 136.01 95.6552 136.186C95.4961 136.358 95.4165 136.594 95.4165 136.892C95.4165 137.3 95.5674 137.608 95.869 137.817C96.1739 138.022 96.56 138.125 97.0273 138.125ZM103.663 134.406V139H102.49V131.364H103.623V132.557H103.723C103.902 132.169 104.174 131.857 104.538 131.622C104.903 131.384 105.373 131.264 105.95 131.264C106.467 131.264 106.92 131.37 107.307 131.582C107.695 131.791 107.997 132.109 108.212 132.537C108.428 132.961 108.535 133.498 108.535 134.148V139H107.362V134.227C107.362 133.627 107.206 133.16 106.895 132.825C106.583 132.487 106.156 132.318 105.612 132.318C105.238 132.318 104.903 132.399 104.608 132.562C104.316 132.724 104.086 132.961 103.917 133.273C103.748 133.584 103.663 133.962 103.663 134.406ZM113.782 139.159C113.066 139.159 112.449 138.99 111.932 138.652C111.415 138.314 111.017 137.848 110.739 137.255C110.461 136.662 110.321 135.984 110.321 135.222C110.321 134.446 110.464 133.762 110.749 133.168C111.037 132.572 111.438 132.106 111.952 131.771C112.469 131.433 113.072 131.264 113.762 131.264C114.299 131.264 114.783 131.364 115.213 131.562C115.644 131.761 115.997 132.04 116.272 132.398C116.547 132.756 116.718 133.173 116.784 133.651H115.611C115.522 133.303 115.323 132.994 115.015 132.726C114.71 132.454 114.299 132.318 113.782 132.318C113.324 132.318 112.923 132.437 112.578 132.676C112.237 132.911 111.97 133.245 111.778 133.675C111.589 134.103 111.495 134.605 111.495 135.182C111.495 135.772 111.587 136.286 111.773 136.723C111.962 137.161 112.227 137.5 112.569 137.742C112.913 137.984 113.318 138.105 113.782 138.105C114.087 138.105 114.363 138.052 114.612 137.946C114.86 137.84 115.071 137.688 115.243 137.489C115.416 137.29 115.538 137.051 115.611 136.773H116.784C116.718 137.223 116.554 137.629 116.292 137.991C116.034 138.349 115.691 138.634 115.263 138.846C114.839 139.055 114.345 139.159 113.782 139.159ZM121.701 139.159C120.966 139.159 120.331 138.997 119.797 138.672C119.267 138.344 118.858 137.886 118.569 137.3C118.284 136.71 118.142 136.024 118.142 135.241C118.142 134.459 118.284 133.77 118.569 133.173C118.858 132.573 119.259 132.106 119.772 131.771C120.289 131.433 120.893 131.264 121.582 131.264C121.98 131.264 122.373 131.33 122.76 131.463C123.148 131.596 123.501 131.811 123.819 132.109C124.137 132.404 124.391 132.795 124.58 133.283C124.769 133.77 124.863 134.37 124.863 135.082V135.58H118.977V134.565H123.67C123.67 134.134 123.584 133.75 123.412 133.412C123.243 133.074 123.001 132.807 122.686 132.612C122.374 132.416 122.006 132.318 121.582 132.318C121.115 132.318 120.71 132.434 120.369 132.666C120.031 132.895 119.771 133.193 119.588 133.561C119.406 133.929 119.315 134.323 119.315 134.744V135.42C119.315 135.997 119.414 136.486 119.613 136.887C119.815 137.285 120.096 137.588 120.453 137.797C120.811 138.002 121.227 138.105 121.701 138.105C122.01 138.105 122.288 138.062 122.537 137.976C122.788 137.886 123.006 137.754 123.188 137.578C123.37 137.399 123.511 137.177 123.61 136.912L124.744 137.23C124.625 137.615 124.424 137.953 124.142 138.244C123.861 138.533 123.513 138.758 123.098 138.92C122.684 139.08 122.218 139.159 121.701 139.159Z" fill="black"/>
<circle cx="203" cy="72" r="49" fill="#FFF1ED"/>
<path d="M191.319 60.011C192.451 60.0187 193.553 60.219 194.624 60.6119C195.702 60.997 196.673 61.6287 197.536 62.5069C198.399 63.3774 199.084 64.5445 199.593 66.0082C200.101 67.4719 200.355 69.2823 200.355 71.4393C200.363 73.473 200.147 75.2911 199.708 76.8934C199.277 78.4881 198.657 79.8362 197.848 80.9378C197.039 82.0394 196.064 82.8791 194.924 83.4569C193.784 84.0347 192.501 84.3236 191.076 84.3236C189.582 84.3236 188.257 84.0308 187.101 83.4453C185.953 82.8599 185.025 82.0587 184.316 81.0418C183.608 80.0249 183.172 78.8617 183.011 77.5521H187.228C187.444 78.4919 187.883 79.2392 188.546 79.7938C189.216 80.3408 190.059 80.6143 191.076 80.6143C192.717 80.6143 193.981 79.9017 194.866 78.4765C195.752 77.0513 196.195 75.0715 196.195 72.537H196.034C195.656 73.215 195.167 73.8004 194.566 74.2935C193.965 74.7788 193.283 75.1524 192.521 75.4143C191.766 75.6763 190.965 75.8072 190.117 75.8072C188.731 75.8072 187.483 75.476 186.373 74.8135C185.272 74.1509 184.397 73.2419 183.75 72.0864C183.111 70.9308 182.787 69.6097 182.78 68.1229C182.78 66.5821 183.134 65.1994 183.843 63.9745C184.559 62.7419 185.557 61.7712 186.835 61.0625C188.114 60.3461 189.609 59.9956 191.319 60.011ZM191.331 63.4776C190.499 63.4776 189.747 63.6817 189.077 64.09C188.415 64.4906 187.891 65.0376 187.506 65.7309C187.128 66.4165 186.939 67.183 186.939 68.0304C186.947 68.8701 187.136 69.6328 187.506 70.3184C187.883 71.004 188.395 71.5471 189.043 71.9477C189.697 72.3483 190.445 72.5486 191.284 72.5486C191.908 72.5486 192.49 72.4292 193.029 72.1904C193.568 71.9516 194.038 71.6203 194.439 71.1966C194.847 70.7652 195.163 70.276 195.386 69.7291C195.618 69.1821 195.729 68.6043 195.722 67.9958C195.722 67.1869 195.529 66.4396 195.144 65.754C194.766 65.0684 194.246 64.5176 193.584 64.1016C192.929 63.6856 192.178 63.4776 191.331 63.4776ZM212.419 60.011C213.552 60.0187 214.653 60.219 215.724 60.6119C216.803 60.997 217.773 61.6287 218.636 62.5069C219.499 63.3774 220.184 64.5445 220.693 66.0082C221.201 67.4719 221.455 69.2823 221.455 71.4393C221.463 73.473 221.247 75.2911 220.808 76.8934C220.377 78.4881 219.757 79.8362 218.948 80.9378C218.139 82.0394 217.165 82.8791 216.024 83.4569C214.884 84.0347 213.602 84.3236 212.176 84.3236C210.682 84.3236 209.357 84.0308 208.201 83.4453C207.054 82.8599 206.125 82.0587 205.417 81.0418C204.708 80.0249 204.273 78.8617 204.111 77.5521H208.329C208.544 78.4919 208.983 79.2392 209.646 79.7938C210.316 80.3408 211.16 80.6143 212.176 80.6143C213.817 80.6143 215.081 79.9017 215.967 78.4765C216.853 77.0513 217.296 75.0715 217.296 72.537H217.134C216.756 73.215 216.267 73.8004 215.666 74.2935C215.065 74.7788 214.384 75.1524 213.621 75.4143C212.866 75.6763 212.065 75.8072 211.217 75.8072C209.831 75.8072 208.583 75.476 207.473 74.8135C206.372 74.1509 205.497 73.2419 204.85 72.0864C204.211 70.9308 203.887 69.6097 203.88 68.1229C203.88 66.5821 204.234 65.1994 204.943 63.9745C205.659 62.7419 206.657 61.7712 207.936 61.0625C209.214 60.3461 210.709 59.9956 212.419 60.011ZM212.431 63.4776C211.599 63.4776 210.848 63.6817 210.177 64.09C209.515 64.4906 208.991 65.0376 208.606 65.7309C208.228 66.4165 208.04 67.183 208.04 68.0304C208.047 68.8701 208.236 69.6328 208.606 70.3184C208.983 71.004 209.496 71.5471 210.143 71.9477C210.798 72.3483 211.545 72.5486 212.384 72.5486C213.008 72.5486 213.59 72.4292 214.129 72.1904C214.669 71.9516 215.139 71.6203 215.539 71.1966C215.947 70.7652 216.263 70.276 216.487 69.7291C216.718 69.1821 216.829 68.6043 216.822 67.9958C216.822 67.1869 216.629 66.4396 216.244 65.754C215.867 65.0684 215.347 64.5176 214.684 64.1016C214.029 63.6856 213.278 63.4776 212.431 63.4776Z" fill="#F35423"/>
<mask id="path-7-inside-2_1807_2354" fill="white">
<path d="M203 23C215.749 23 227.997 27.9692 237.142 36.8525C246.287 45.7359 251.609 57.8338 251.979 70.5777C252.349 83.3217 247.738 95.7081 239.124 105.107C230.51 114.506 218.571 120.178 205.843 120.917C193.115 121.657 180.6 117.407 170.955 109.069C161.31 100.732 155.295 88.963 154.186 76.262C153.077 63.561 156.962 50.9279 165.016 41.0448C173.07 31.1618 184.659 24.8071 197.323 23.33L197.809 27.4948C186.229 28.8455 175.631 34.6564 168.266 43.6938C160.901 52.7311 157.349 64.2831 158.363 75.8973C159.377 87.5114 164.878 98.273 173.698 105.897C182.517 113.521 193.961 117.408 205.6 116.731C217.239 116.055 228.155 110.869 236.032 102.274C243.909 93.6793 248.126 82.3529 247.788 70.6994C247.45 59.046 242.583 47.9834 234.22 39.8602C225.858 31.737 214.658 27.1931 203 27.1931V23Z"/>
</mask>
<path d="M203 23C215.749 23 227.997 27.9692 237.142 36.8525C246.287 45.7359 251.609 57.8338 251.979 70.5777C252.349 83.3217 247.738 95.7081 239.124 105.107C230.51 114.506 218.571 120.178 205.843 120.917C193.115 121.657 180.6 117.407 170.955 109.069C161.31 100.732 155.295 88.963 154.186 76.262C153.077 63.561 156.962 50.9279 165.016 41.0448C173.07 31.1618 184.659 24.8071 197.323 23.33L197.809 27.4948C186.229 28.8455 175.631 34.6564 168.266 43.6938C160.901 52.7311 157.349 64.2831 158.363 75.8973C159.377 87.5114 164.878 98.273 173.698 105.897C182.517 113.521 193.961 117.408 205.6 116.731C217.239 116.055 228.155 110.869 236.032 102.274C243.909 93.6793 248.126 82.3529 247.788 70.6994C247.45 59.046 242.583 47.9834 234.22 39.8602C225.858 31.737 214.658 27.1931 203 27.1931V23Z" fill="#FFF1ED" stroke="#F35423" stroke-width="8" mask="url(#path-7-inside-2_1807_2354)"/>
<path d="M162.779 139H161.487L165.225 128.818H166.498L170.237 139H168.944L165.902 130.429H165.822L162.779 139ZM163.257 135.023H168.467V136.116H163.257V135.023ZM174.766 139.159C174.05 139.159 173.434 138.99 172.917 138.652C172.4 138.314 172.002 137.848 171.723 137.255C171.445 136.662 171.306 135.984 171.306 135.222C171.306 134.446 171.448 133.762 171.733 133.168C172.022 132.572 172.423 132.106 172.936 131.771C173.453 131.433 174.057 131.264 174.746 131.264C175.283 131.264 175.767 131.364 176.198 131.562C176.629 131.761 176.982 132.04 177.257 132.398C177.532 132.756 177.703 133.173 177.769 133.651H176.596C176.506 133.303 176.307 132.994 175.999 132.726C175.694 132.454 175.283 132.318 174.766 132.318C174.309 132.318 173.908 132.437 173.563 132.676C173.221 132.911 172.955 133.245 172.762 133.675C172.574 134.103 172.479 134.605 172.479 135.182C172.479 135.772 172.572 136.286 172.757 136.723C172.946 137.161 173.212 137.5 173.553 137.742C173.898 137.984 174.302 138.105 174.766 138.105C175.071 138.105 175.348 138.052 175.596 137.946C175.845 137.84 176.055 137.688 176.228 137.489C176.4 137.29 176.523 137.051 176.596 136.773H177.769C177.703 137.223 177.538 137.629 177.277 137.991C177.018 138.349 176.675 138.634 176.248 138.846C175.823 139.055 175.329 139.159 174.766 139.159ZM182.586 139.159C181.87 139.159 181.254 138.99 180.737 138.652C180.22 138.314 179.822 137.848 179.544 137.255C179.265 136.662 179.126 135.984 179.126 135.222C179.126 134.446 179.269 133.762 179.554 133.168C179.842 132.572 180.243 132.106 180.757 131.771C181.274 131.433 181.877 131.264 182.566 131.264C183.103 131.264 183.587 131.364 184.018 131.562C184.449 131.761 184.802 132.04 185.077 132.398C185.352 132.756 185.523 133.173 185.589 133.651H184.416C184.326 133.303 184.127 132.994 183.819 132.726C183.514 132.454 183.103 132.318 182.586 132.318C182.129 132.318 181.728 132.437 181.383 132.676C181.042 132.911 180.775 133.245 180.583 133.675C180.394 134.103 180.299 134.605 180.299 135.182C180.299 135.772 180.392 136.286 180.578 136.723C180.767 137.161 181.032 137.5 181.373 137.742C181.718 137.984 182.122 138.105 182.586 138.105C182.891 138.105 183.168 138.052 183.417 137.946C183.665 137.84 183.876 137.688 184.048 137.489C184.22 137.29 184.343 137.051 184.416 136.773H185.589C185.523 137.223 185.359 137.629 185.097 137.991C184.838 138.349 184.495 138.634 184.068 138.846C183.644 139.055 183.15 139.159 182.586 139.159ZM190.506 139.159C189.77 139.159 189.136 138.997 188.602 138.672C188.072 138.344 187.662 137.886 187.374 137.3C187.089 136.71 186.946 136.024 186.946 135.241C186.946 134.459 187.089 133.77 187.374 133.173C187.662 132.573 188.063 132.106 188.577 131.771C189.094 131.433 189.697 131.264 190.387 131.264C190.784 131.264 191.177 131.33 191.565 131.463C191.953 131.596 192.306 131.811 192.624 132.109C192.942 132.404 193.196 132.795 193.385 133.283C193.574 133.77 193.668 134.37 193.668 135.082V135.58H187.782V134.565H192.475C192.475 134.134 192.389 133.75 192.216 133.412C192.047 133.074 191.805 132.807 191.49 132.612C191.179 132.416 190.811 132.318 190.387 132.318C189.919 132.318 189.515 132.434 189.174 132.666C188.836 132.895 188.575 133.193 188.393 133.561C188.211 133.929 188.12 134.323 188.12 134.744V135.42C188.12 135.997 188.219 136.486 188.418 136.887C188.62 137.285 188.9 137.588 189.258 137.797C189.616 138.002 190.032 138.105 190.506 138.105C190.814 138.105 191.093 138.062 191.341 137.976C191.593 137.886 191.81 137.754 191.993 137.578C192.175 137.399 192.316 137.177 192.415 136.912L193.549 137.23C193.429 137.615 193.229 137.953 192.947 138.244C192.665 138.533 192.317 138.758 191.903 138.92C191.489 139.08 191.023 139.159 190.506 139.159ZM200.862 133.074L199.808 133.372C199.742 133.196 199.644 133.026 199.515 132.86C199.389 132.691 199.216 132.552 198.998 132.442C198.779 132.333 198.499 132.278 198.157 132.278C197.69 132.278 197.301 132.386 196.989 132.602C196.681 132.814 196.527 133.084 196.527 133.412C196.527 133.704 196.633 133.934 196.845 134.103C197.057 134.272 197.388 134.413 197.839 134.526L198.973 134.804C199.655 134.97 200.164 135.223 200.499 135.565C200.834 135.903 201.001 136.339 201.001 136.872C201.001 137.31 200.875 137.701 200.623 138.045C200.375 138.39 200.027 138.662 199.579 138.861C199.132 139.06 198.611 139.159 198.018 139.159C197.239 139.159 196.595 138.99 196.084 138.652C195.574 138.314 195.251 137.82 195.115 137.17L196.228 136.892C196.334 137.303 196.535 137.611 196.83 137.817C197.128 138.022 197.518 138.125 197.998 138.125C198.545 138.125 198.979 138.009 199.301 137.777C199.626 137.542 199.788 137.26 199.788 136.932C199.788 136.667 199.695 136.445 199.51 136.266C199.324 136.083 199.039 135.947 198.654 135.858L197.382 135.56C196.682 135.394 196.169 135.137 195.841 134.789C195.516 134.438 195.353 133.999 195.353 133.472C195.353 133.041 195.474 132.66 195.716 132.328C195.962 131.997 196.295 131.737 196.716 131.548C197.14 131.359 197.62 131.264 198.157 131.264C198.913 131.264 199.506 131.43 199.937 131.761C200.371 132.093 200.68 132.53 200.862 133.074ZM208.176 133.074L207.122 133.372C207.056 133.196 206.958 133.026 206.829 132.86C206.703 132.691 206.531 132.552 206.312 132.442C206.093 132.333 205.813 132.278 205.472 132.278C205.004 132.278 204.615 132.386 204.303 132.602C203.995 132.814 203.841 133.084 203.841 133.412C203.841 133.704 203.947 133.934 204.159 134.103C204.371 134.272 204.703 134.413 205.154 134.526L206.287 134.804C206.97 134.97 207.479 135.223 207.813 135.565C208.148 135.903 208.316 136.339 208.316 136.872C208.316 137.31 208.19 137.701 207.938 138.045C207.689 138.39 207.341 138.662 206.894 138.861C206.446 139.06 205.926 139.159 205.333 139.159C204.554 139.159 203.909 138.99 203.399 138.652C202.888 138.314 202.565 137.82 202.429 137.17L203.543 136.892C203.649 137.303 203.849 137.611 204.144 137.817C204.443 138.022 204.832 138.125 205.313 138.125C205.86 138.125 206.294 138.009 206.615 137.777C206.94 137.542 207.102 137.26 207.102 136.932C207.102 136.667 207.01 136.445 206.824 136.266C206.638 136.083 206.353 135.947 205.969 135.858L204.696 135.56C203.997 135.394 203.483 135.137 203.155 134.789C202.83 134.438 202.668 133.999 202.668 133.472C202.668 133.041 202.789 132.66 203.031 132.328C203.276 131.997 203.609 131.737 204.03 131.548C204.454 131.359 204.935 131.264 205.472 131.264C206.227 131.264 206.821 131.43 207.252 131.761C207.686 132.093 207.994 132.53 208.176 133.074ZM210.082 139V131.364H211.255V139H210.082ZM210.678 130.091C210.45 130.091 210.252 130.013 210.087 129.857C209.924 129.701 209.843 129.514 209.843 129.295C209.843 129.077 209.924 128.889 210.087 128.734C210.252 128.578 210.45 128.5 210.678 128.5C210.907 128.5 211.103 128.578 211.265 128.734C211.431 128.889 211.513 129.077 211.513 129.295C211.513 129.514 211.431 129.701 211.265 129.857C211.103 130.013 210.907 130.091 210.678 130.091ZM213.563 139V128.818H214.736V132.577H214.836C214.922 132.444 215.041 132.275 215.194 132.07C215.349 131.861 215.572 131.675 215.86 131.513C216.152 131.347 216.546 131.264 217.043 131.264C217.686 131.264 218.253 131.425 218.743 131.746C219.234 132.068 219.617 132.524 219.892 133.114C220.167 133.704 220.305 134.4 220.305 135.202C220.305 136.01 220.167 136.711 219.892 137.305C219.617 137.895 219.236 138.352 218.748 138.677C218.261 138.998 217.699 139.159 217.063 139.159C216.573 139.159 216.18 139.078 215.885 138.915C215.59 138.75 215.363 138.562 215.204 138.354C215.045 138.142 214.922 137.966 214.836 137.827H214.697V139H213.563ZM214.716 135.182C214.716 135.759 214.801 136.267 214.97 136.708C215.139 137.146 215.386 137.489 215.711 137.737C216.036 137.982 216.433 138.105 216.904 138.105C217.394 138.105 217.804 137.976 218.132 137.717C218.463 137.455 218.712 137.104 218.878 136.663C219.047 136.219 219.131 135.725 219.131 135.182C219.131 134.645 219.048 134.161 218.883 133.73C218.72 133.296 218.473 132.953 218.142 132.701C217.814 132.446 217.401 132.318 216.904 132.318C216.427 132.318 216.026 132.439 215.701 132.681C215.376 132.92 215.131 133.254 214.965 133.685C214.799 134.113 214.716 134.612 214.716 135.182ZM222.099 139V131.364H223.273V139H222.099ZM222.696 130.091C222.467 130.091 222.27 130.013 222.104 129.857C221.942 129.701 221.861 129.514 221.861 129.295C221.861 129.077 221.942 128.889 222.104 128.734C222.27 128.578 222.467 128.5 222.696 128.5C222.925 128.5 223.12 128.578 223.282 128.734C223.448 128.889 223.531 129.077 223.531 129.295C223.531 129.514 223.448 129.701 223.282 129.857C223.12 130.013 222.925 130.091 222.696 130.091ZM226.595 128.818V139H225.422V128.818H226.595ZM228.744 139V131.364H229.917V139H228.744ZM229.34 130.091C229.112 130.091 228.914 130.013 228.749 129.857C228.586 129.701 228.505 129.514 228.505 129.295C228.505 129.077 228.586 128.889 228.749 128.734C228.914 128.578 229.112 128.5 229.34 128.5C229.569 128.5 229.765 128.578 229.927 128.734C230.093 128.889 230.176 129.077 230.176 129.295C230.176 129.514 230.093 129.701 229.927 129.857C229.765 130.013 229.569 130.091 229.34 130.091ZM235.387 131.364V132.358H231.43V131.364H235.387ZM232.583 129.534H233.756V136.812C233.756 137.144 233.804 137.393 233.901 137.558C234 137.721 234.126 137.83 234.278 137.886C234.434 137.939 234.598 137.966 234.771 137.966C234.9 137.966 235.006 137.959 235.089 137.946C235.172 137.929 235.238 137.916 235.288 137.906L235.526 138.96C235.447 138.99 235.336 139.02 235.193 139.05C235.051 139.083 234.87 139.099 234.651 139.099C234.32 139.099 233.995 139.028 233.677 138.886C233.362 138.743 233.1 138.526 232.891 138.234C232.686 137.943 232.583 137.575 232.583 137.131V129.534ZM237.908 141.864C237.709 141.864 237.531 141.847 237.376 141.814C237.22 141.784 237.112 141.754 237.053 141.724L237.351 140.69C237.636 140.763 237.888 140.79 238.107 140.77C238.325 140.75 238.519 140.652 238.688 140.477C238.861 140.304 239.018 140.024 239.161 139.636L239.379 139.04L236.555 131.364H237.828L239.936 137.449H240.016L242.124 131.364H243.396L240.155 140.114C240.009 140.508 239.828 140.835 239.613 141.093C239.397 141.355 239.147 141.549 238.862 141.675C238.58 141.801 238.262 141.864 237.908 141.864Z" fill="black"/>
<circle cx="323" cy="72" r="49" fill="#FFF1ED"/>
<mask id="path-10-inside-3_1807_2354" fill="white">
<path d="M323 23C335.002 23 346.587 27.405 355.557 35.3795C364.527 43.3539 370.258 54.3432 371.663 66.2627C373.068 78.1822 370.05 90.203 363.181 100.045C356.311 109.887 346.069 116.865 334.396 119.656C322.723 122.448 310.431 120.858 299.853 115.188C289.274 109.518 281.144 100.163 277.006 88.8973C272.867 77.6314 273.007 65.2383 277.399 54.0687C281.791 42.8991 290.13 33.7299 300.834 28.3005L302.73 32.04C292.943 37.0048 285.317 45.3893 281.301 55.6031C277.285 65.8169 277.157 77.1495 280.942 87.4513C284.726 97.7532 292.16 106.308 301.833 111.492C311.507 116.677 322.746 118.131 333.421 115.578C344.095 113.026 353.461 106.645 359.742 97.645C366.024 88.6453 368.784 77.6532 367.499 66.7537C366.214 55.8541 360.973 45.8052 352.771 38.5132C344.568 31.2211 333.975 27.1931 323 27.1931V23Z"/>
</mask>
<path d="M323 23C335.002 23 346.587 27.405 355.557 35.3795C364.527 43.3539 370.258 54.3432 371.663 66.2627C373.068 78.1822 370.05 90.203 363.181 100.045C356.311 109.887 346.069 116.865 334.396 119.656C322.723 122.448 310.431 120.858 299.853 115.188C289.274 109.518 281.144 100.163 277.006 88.8973C272.867 77.6314 273.007 65.2383 277.399 54.0687C281.791 42.8991 290.13 33.7299 300.834 28.3005L302.73 32.04C292.943 37.0048 285.317 45.3893 281.301 55.6031C277.285 65.8169 277.157 77.1495 280.942 87.4513C284.726 97.7532 292.16 106.308 301.833 111.492C311.507 116.677 322.746 118.131 333.421 115.578C344.095 113.026 353.461 106.645 359.742 97.645C366.024 88.6453 368.784 77.6532 367.499 66.7537C366.214 55.8541 360.973 45.8052 352.771 38.5132C344.568 31.2211 333.975 27.1931 323 27.1931V23Z" fill="#FFF1ED" stroke="#F35423" stroke-width="8" mask="url(#path-10-inside-3_1807_2354)"/>
<path d="M311.319 60.011C312.451 60.0187 313.553 60.219 314.624 60.6119C315.702 60.997 316.673 61.6287 317.536 62.5069C318.399 63.3774 319.084 64.5445 319.593 66.0082C320.101 67.4719 320.355 69.2823 320.355 71.4393C320.363 73.473 320.147 75.2911 319.708 76.8934C319.277 78.4881 318.657 79.8362 317.848 80.9378C317.039 82.0394 316.064 82.8791 314.924 83.4569C313.784 84.0347 312.501 84.3236 311.076 84.3236C309.582 84.3236 308.257 84.0308 307.101 83.4453C305.953 82.8599 305.025 82.0587 304.316 81.0418C303.608 80.0249 303.172 78.8617 303.011 77.5521H307.228C307.444 78.4919 307.883 79.2392 308.546 79.7938C309.216 80.3408 310.059 80.6143 311.076 80.6143C312.717 80.6143 313.981 79.9017 314.866 78.4765C315.752 77.0513 316.195 75.0715 316.195 72.537H316.034C315.656 73.215 315.167 73.8004 314.566 74.2935C313.965 74.7788 313.283 75.1524 312.521 75.4143C311.766 75.6763 310.965 75.8072 310.117 75.8072C308.731 75.8072 307.483 75.476 306.373 74.8135C305.272 74.1509 304.397 73.2419 303.75 72.0864C303.111 70.9308 302.787 69.6097 302.78 68.1229C302.78 66.5821 303.134 65.1994 303.843 63.9745C304.559 62.7419 305.557 61.7712 306.835 61.0625C308.114 60.3461 309.609 59.9956 311.319 60.011ZM311.331 63.4776C310.499 63.4776 309.747 63.6817 309.077 64.09C308.415 64.4906 307.891 65.0376 307.506 65.7309C307.128 66.4165 306.939 67.183 306.939 68.0304C306.947 68.8701 307.136 69.6328 307.506 70.3184C307.883 71.004 308.395 71.5471 309.043 71.9477C309.697 72.3483 310.445 72.5486 311.284 72.5486C311.908 72.5486 312.49 72.4292 313.029 72.1904C313.568 71.9516 314.038 71.6203 314.439 71.1966C314.847 70.7652 315.163 70.276 315.386 69.7291C315.618 69.1821 315.729 68.6043 315.722 67.9958C315.722 67.1869 315.529 66.4396 315.144 65.754C314.766 65.0684 314.246 64.5176 313.584 64.1016C312.929 63.6856 312.178 63.4776 311.331 63.4776ZM332.616 84.3236C330.898 84.3236 329.372 84.0347 328.04 83.4569C326.715 82.8791 325.675 82.0895 324.92 81.088C324.172 80.0789 323.803 78.9349 323.81 77.6561C323.803 76.6623 324.018 75.7494 324.457 74.9174C324.897 74.0855 325.49 73.3921 326.237 72.8375C326.992 72.2751 327.832 71.9169 328.756 71.7628V71.601C327.539 71.3314 326.553 70.7113 325.798 69.7406C325.051 68.7623 324.681 67.6337 324.689 66.3549C324.681 65.1377 325.02 64.0515 325.705 63.0963C326.391 62.141 327.331 61.3899 328.525 60.843C329.719 60.2883 331.083 60.011 332.616 60.011C334.133 60.011 335.485 60.2883 336.672 60.843C337.866 61.3899 338.805 62.141 339.491 63.0963C340.184 64.0515 340.531 65.1377 340.531 66.3549C340.531 67.6337 340.15 68.7623 339.387 69.7406C338.632 70.7113 337.658 71.3314 336.464 71.601V71.7628C337.388 71.9169 338.22 72.2751 338.96 72.8375C339.707 73.3921 340.3 74.0855 340.739 74.9174C341.186 75.7494 341.409 76.6623 341.409 77.6561C341.409 78.9349 341.032 80.0789 340.277 81.088C339.522 82.0895 338.482 82.8791 337.157 83.4569C335.84 84.0347 334.326 84.3236 332.616 84.3236ZM332.616 81.0187C333.502 81.0187 334.272 80.8685 334.927 80.568C335.581 80.2599 336.09 79.8285 336.452 79.2738C336.814 78.7192 336.999 78.0798 337.007 77.3556C336.999 76.6007 336.803 75.9343 336.417 75.3566C336.04 74.7711 335.52 74.3127 334.857 73.9815C334.203 73.6502 333.455 73.4846 332.616 73.4846C331.768 73.4846 331.013 73.6502 330.351 73.9815C329.688 74.3127 329.164 74.7711 328.779 75.3566C328.402 75.9343 328.217 76.6007 328.225 77.3556C328.217 78.0798 328.394 78.7192 328.756 79.2738C329.118 79.8208 329.627 80.2483 330.281 80.5565C330.944 80.8646 331.722 81.0187 332.616 81.0187ZM332.616 70.2375C333.34 70.2375 333.979 70.0911 334.534 69.7984C335.096 69.5057 335.539 69.0974 335.863 68.5735C336.186 68.0497 336.352 67.445 336.36 66.7593C336.352 66.0814 336.19 65.4882 335.874 64.9798C335.558 64.4637 335.119 64.0669 334.557 63.7896C333.995 63.5046 333.347 63.362 332.616 63.362C331.868 63.362 331.21 63.5046 330.64 63.7896C330.077 64.0669 329.638 64.4637 329.322 64.9798C329.014 65.4882 328.864 66.0814 328.872 66.7593C328.864 67.445 329.018 68.0497 329.334 68.5735C329.657 69.0897 330.1 69.498 330.663 69.7984C331.233 70.0911 331.884 70.2375 332.616 70.2375Z" fill="#F35423"/>
<path d="M276.689 139V128.818H280.249C280.958 128.818 281.543 128.941 282.004 129.186C282.464 129.428 282.807 129.754 283.033 130.165C283.258 130.573 283.371 131.026 283.371 131.523C283.371 131.96 283.293 132.321 283.137 132.607C282.985 132.892 282.783 133.117 282.531 133.283C282.282 133.448 282.012 133.571 281.72 133.651V133.75C282.032 133.77 282.345 133.879 282.66 134.078C282.975 134.277 283.238 134.562 283.45 134.933C283.662 135.304 283.769 135.759 283.769 136.295C283.769 136.806 283.653 137.265 283.421 137.673C283.189 138.08 282.822 138.403 282.322 138.642C281.821 138.881 281.17 139 280.368 139H276.689ZM277.922 137.906H280.368C281.173 137.906 281.745 137.75 282.083 137.439C282.425 137.124 282.595 136.743 282.595 136.295C282.595 135.951 282.507 135.633 282.332 135.341C282.156 135.046 281.906 134.811 281.581 134.635C281.256 134.456 280.872 134.366 280.428 134.366H277.922V137.906ZM277.922 133.293H280.209C280.58 133.293 280.915 133.22 281.213 133.074C281.515 132.928 281.753 132.723 281.929 132.457C282.108 132.192 282.198 131.881 282.198 131.523C282.198 131.075 282.042 130.696 281.73 130.384C281.419 130.069 280.925 129.912 280.249 129.912H277.922V133.293ZM288.837 139.159C288.101 139.159 287.467 138.997 286.933 138.672C286.403 138.344 285.993 137.886 285.705 137.3C285.42 136.71 285.277 136.024 285.277 135.241C285.277 134.459 285.42 133.77 285.705 133.173C285.993 132.573 286.394 132.106 286.908 131.771C287.425 131.433 288.028 131.264 288.718 131.264C289.116 131.264 289.508 131.33 289.896 131.463C290.284 131.596 290.637 131.811 290.955 132.109C291.273 132.404 291.527 132.795 291.716 133.283C291.905 133.77 291.999 134.37 291.999 135.082V135.58H286.113V134.565H290.806C290.806 134.134 290.72 133.75 290.547 133.412C290.378 133.074 290.136 132.807 289.821 132.612C289.51 132.416 289.142 132.318 288.718 132.318C288.25 132.318 287.846 132.434 287.505 132.666C287.167 132.895 286.906 133.193 286.724 133.561C286.542 133.929 286.451 134.323 286.451 134.744V135.42C286.451 135.997 286.55 136.486 286.749 136.887C286.951 137.285 287.231 137.588 287.589 137.797C287.947 138.002 288.363 138.105 288.837 138.105C289.145 138.105 289.424 138.062 289.672 137.976C289.924 137.886 290.141 137.754 290.324 137.578C290.506 137.399 290.647 137.177 290.746 136.912L291.88 137.23C291.76 137.615 291.56 137.953 291.278 138.244C290.996 138.533 290.648 138.758 290.234 138.92C289.82 139.08 289.354 139.159 288.837 139.159ZM299.193 133.074L298.139 133.372C298.073 133.196 297.975 133.026 297.846 132.86C297.72 132.691 297.547 132.552 297.329 132.442C297.11 132.333 296.83 132.278 296.488 132.278C296.021 132.278 295.632 132.386 295.32 132.602C295.012 132.814 294.858 133.084 294.858 133.412C294.858 133.704 294.964 133.934 295.176 134.103C295.388 134.272 295.719 134.413 296.17 134.526L297.304 134.804C297.986 134.97 298.495 135.223 298.83 135.565C299.165 135.903 299.332 136.339 299.332 136.872C299.332 137.31 299.206 137.701 298.954 138.045C298.706 138.39 298.358 138.662 297.91 138.861C297.463 139.06 296.942 139.159 296.349 139.159C295.57 139.159 294.926 138.99 294.415 138.652C293.905 138.314 293.582 137.82 293.446 137.17L294.559 136.892C294.665 137.303 294.866 137.611 295.161 137.817C295.459 138.022 295.849 138.125 296.329 138.125C296.876 138.125 297.31 138.009 297.632 137.777C297.957 137.542 298.119 137.26 298.119 136.932C298.119 136.667 298.026 136.445 297.841 136.266C297.655 136.083 297.37 135.947 296.986 135.858L295.713 135.56C295.013 135.394 294.5 135.137 294.172 134.789C293.847 134.438 293.684 133.999 293.684 133.472C293.684 133.041 293.805 132.66 294.047 132.328C294.293 131.997 294.626 131.737 295.047 131.548C295.471 131.359 295.951 131.264 296.488 131.264C297.244 131.264 297.837 131.43 298.268 131.761C298.702 132.093 299.011 132.53 299.193 133.074ZM304.419 131.364V132.358H300.462V131.364H304.419ZM301.615 129.534H302.789V136.812C302.789 137.144 302.837 137.393 302.933 137.558C303.032 137.721 303.158 137.83 303.311 137.886C303.466 137.939 303.63 137.966 303.803 137.966C303.932 137.966 304.038 137.959 304.121 137.946C304.204 137.929 304.27 137.916 304.32 137.906L304.559 138.96C304.479 138.99 304.368 139.02 304.225 139.05C304.083 139.083 303.902 139.099 303.684 139.099C303.352 139.099 303.027 139.028 302.709 138.886C302.394 138.743 302.132 138.526 301.924 138.234C301.718 137.943 301.615 137.575 301.615 137.131V129.534ZM310.281 139V128.818H313.721C314.52 128.818 315.173 128.962 315.68 129.251C316.19 129.536 316.568 129.922 316.813 130.409C317.059 130.896 317.181 131.44 317.181 132.04C317.181 132.64 317.059 133.185 316.813 133.675C316.572 134.166 316.197 134.557 315.69 134.849C315.183 135.137 314.533 135.281 313.741 135.281H311.275V134.188H313.701C314.248 134.188 314.687 134.093 315.019 133.904C315.35 133.715 315.59 133.46 315.74 133.138C315.892 132.814 315.968 132.447 315.968 132.04C315.968 131.632 315.892 131.268 315.74 130.946C315.59 130.625 315.349 130.373 315.014 130.19C314.679 130.005 314.235 129.912 313.681 129.912H311.514V139H310.281ZM319.008 139V131.364H320.142V132.517H320.222C320.361 132.139 320.613 131.833 320.977 131.597C321.342 131.362 321.753 131.244 322.21 131.244C322.296 131.244 322.404 131.246 322.533 131.249C322.663 131.253 322.76 131.258 322.827 131.264V132.457C322.787 132.447 322.696 132.433 322.553 132.413C322.414 132.389 322.266 132.378 322.111 132.378C321.739 132.378 321.408 132.456 321.116 132.612C320.828 132.764 320.599 132.976 320.43 133.248C320.265 133.516 320.182 133.823 320.182 134.168V139H319.008ZM326.465 139.179C325.981 139.179 325.542 139.088 325.147 138.906C324.753 138.72 324.439 138.453 324.207 138.105C323.975 137.754 323.859 137.33 323.859 136.832C323.859 136.395 323.946 136.04 324.118 135.768C324.29 135.493 324.521 135.278 324.809 135.122C325.097 134.966 325.416 134.85 325.764 134.774C326.115 134.695 326.468 134.632 326.823 134.585C327.287 134.526 327.663 134.481 327.951 134.451C328.243 134.418 328.455 134.363 328.587 134.287C328.723 134.211 328.791 134.078 328.791 133.889V133.849C328.791 133.359 328.657 132.978 328.389 132.706C328.123 132.434 327.721 132.298 327.18 132.298C326.62 132.298 326.181 132.421 325.863 132.666C325.545 132.911 325.321 133.173 325.192 133.452L324.078 133.054C324.277 132.59 324.542 132.229 324.874 131.97C325.208 131.708 325.573 131.526 325.967 131.423C326.365 131.317 326.756 131.264 327.141 131.264C327.386 131.264 327.668 131.294 327.986 131.354C328.307 131.41 328.617 131.528 328.916 131.707C329.217 131.886 329.467 132.156 329.666 132.517C329.865 132.878 329.965 133.362 329.965 133.969V139H328.791V137.966H328.732C328.652 138.132 328.52 138.309 328.334 138.498C328.148 138.687 327.901 138.848 327.593 138.98C327.285 139.113 326.909 139.179 326.465 139.179ZM326.644 138.125C327.108 138.125 327.499 138.034 327.817 137.852C328.138 137.669 328.38 137.434 328.543 137.146C328.708 136.857 328.791 136.554 328.791 136.236V135.162C328.742 135.222 328.632 135.276 328.463 135.326C328.297 135.372 328.105 135.414 327.886 135.45C327.671 135.483 327.461 135.513 327.255 135.54C327.053 135.563 326.889 135.583 326.763 135.599C326.458 135.639 326.173 135.704 325.908 135.793C325.646 135.879 325.434 136.01 325.271 136.186C325.112 136.358 325.033 136.594 325.033 136.892C325.033 137.3 325.184 137.608 325.485 137.817C325.79 138.022 326.176 138.125 326.644 138.125ZM335.208 139.159C334.492 139.159 333.876 138.99 333.359 138.652C332.842 138.314 332.444 137.848 332.166 137.255C331.887 136.662 331.748 135.984 331.748 135.222C331.748 134.446 331.891 133.762 332.176 133.168C332.464 132.572 332.865 132.106 333.379 131.771C333.896 131.433 334.499 131.264 335.188 131.264C335.725 131.264 336.209 131.364 336.64 131.562C337.071 131.761 337.424 132.04 337.699 132.398C337.974 132.756 338.145 133.173 338.211 133.651H337.038C336.948 133.303 336.75 132.994 336.441 132.726C336.136 132.454 335.725 132.318 335.208 132.318C334.751 132.318 334.35 132.437 334.005 132.676C333.664 132.911 333.397 133.245 333.205 133.675C333.016 134.103 332.921 134.605 332.921 135.182C332.921 135.772 333.014 136.286 333.2 136.723C333.389 137.161 333.654 137.5 333.995 137.742C334.34 137.984 334.744 138.105 335.208 138.105C335.513 138.105 335.79 138.052 336.039 137.946C336.287 137.84 336.498 137.688 336.67 137.489C336.842 137.29 336.965 137.051 337.038 136.773H338.211C338.145 137.223 337.981 137.629 337.719 137.991C337.46 138.349 337.117 138.634 336.69 138.846C336.266 139.055 335.772 139.159 335.208 139.159ZM343.247 131.364V132.358H339.29V131.364H343.247ZM340.443 129.534H341.617V136.812C341.617 137.144 341.665 137.393 341.761 137.558C341.86 137.721 341.986 137.83 342.139 137.886C342.295 137.939 342.459 137.966 342.631 137.966C342.76 137.966 342.866 137.959 342.949 137.946C343.032 137.929 343.098 137.916 343.148 137.906L343.387 138.96C343.307 138.99 343.196 139.02 343.054 139.05C342.911 139.083 342.73 139.099 342.512 139.099C342.18 139.099 341.855 139.028 341.537 138.886C341.222 138.743 340.96 138.526 340.752 138.234C340.546 137.943 340.443 137.575 340.443 137.131V129.534ZM345.012 139V131.364H346.186V139H345.012ZM345.609 130.091C345.38 130.091 345.183 130.013 345.017 129.857C344.855 129.701 344.774 129.514 344.774 129.295C344.774 129.077 344.855 128.889 345.017 128.734C345.183 128.578 345.38 128.5 345.609 128.5C345.838 128.5 346.033 128.578 346.196 128.734C346.361 128.889 346.444 129.077 346.444 129.295C346.444 129.514 346.361 129.701 346.196 129.857C346.033 130.013 345.838 130.091 345.609 130.091ZM351.437 139.159C350.721 139.159 350.104 138.99 349.587 138.652C349.07 138.314 348.673 137.848 348.394 137.255C348.116 136.662 347.977 135.984 347.977 135.222C347.977 134.446 348.119 133.762 348.404 133.168C348.693 132.572 349.094 132.106 349.607 131.771C350.124 131.433 350.728 131.264 351.417 131.264C351.954 131.264 352.438 131.364 352.869 131.562C353.3 131.761 353.653 132.04 353.928 132.398C354.203 132.756 354.373 133.173 354.44 133.651H353.266C353.177 133.303 352.978 132.994 352.67 132.726C352.365 132.454 351.954 132.318 351.437 132.318C350.979 132.318 350.578 132.437 350.234 132.676C349.892 132.911 349.626 133.245 349.433 133.675C349.244 134.103 349.15 134.605 349.15 135.182C349.15 135.772 349.243 136.286 349.428 136.723C349.617 137.161 349.882 137.5 350.224 137.742C350.569 137.984 350.973 138.105 351.437 138.105C351.742 138.105 352.019 138.052 352.267 137.946C352.516 137.84 352.726 137.688 352.899 137.489C353.071 137.29 353.194 137.051 353.266 136.773H354.44C354.373 137.223 354.209 137.629 353.948 137.991C353.689 138.349 353.346 138.634 352.918 138.846C352.494 139.055 352 139.159 351.437 139.159ZM359.357 139.159C358.621 139.159 357.986 138.997 357.453 138.672C356.922 138.344 356.513 137.886 356.225 137.3C355.939 136.71 355.797 136.024 355.797 135.241C355.797 134.459 355.939 133.77 356.225 133.173C356.513 132.573 356.914 132.106 357.428 131.771C357.945 131.433 358.548 131.264 359.237 131.264C359.635 131.264 360.028 131.33 360.416 131.463C360.803 131.596 361.156 131.811 361.475 132.109C361.793 132.404 362.046 132.795 362.235 133.283C362.424 133.77 362.519 134.37 362.519 135.082V135.58H356.632V134.565H361.325C361.325 134.134 361.239 133.75 361.067 133.412C360.898 133.074 360.656 132.807 360.341 132.612C360.029 132.416 359.662 132.318 359.237 132.318C358.77 132.318 358.366 132.434 358.024 132.666C357.686 132.895 357.426 133.193 357.244 133.561C357.061 133.929 356.97 134.323 356.97 134.744V135.42C356.97 135.997 357.07 136.486 357.269 136.887C357.471 137.285 357.751 137.588 358.109 137.797C358.467 138.002 358.883 138.105 359.357 138.105C359.665 138.105 359.943 138.062 360.192 137.976C360.444 137.886 360.661 137.754 360.843 137.578C361.025 137.399 361.166 137.177 361.266 136.912L362.399 137.23C362.28 137.615 362.079 137.953 361.798 138.244C361.516 138.533 361.168 138.758 360.754 138.92C360.339 139.08 359.874 139.159 359.357 139.159ZM369.712 133.074L368.658 133.372C368.592 133.196 368.494 133.026 368.365 132.86C368.239 132.691 368.067 132.552 367.848 132.442C367.629 132.333 367.349 132.278 367.008 132.278C366.541 132.278 366.151 132.386 365.84 132.602C365.531 132.814 365.377 133.084 365.377 133.412C365.377 133.704 365.483 133.934 365.695 134.103C365.908 134.272 366.239 134.413 366.69 134.526L367.823 134.804C368.506 134.97 369.015 135.223 369.35 135.565C369.684 135.903 369.852 136.339 369.852 136.872C369.852 137.31 369.726 137.701 369.474 138.045C369.225 138.39 368.877 138.662 368.43 138.861C367.982 139.06 367.462 139.159 366.869 139.159C366.09 139.159 365.445 138.99 364.935 138.652C364.424 138.314 364.101 137.82 363.965 137.17L365.079 136.892C365.185 137.303 365.386 137.611 365.68 137.817C365.979 138.022 366.368 138.125 366.849 138.125C367.396 138.125 367.83 138.009 368.151 137.777C368.476 137.542 368.639 137.26 368.639 136.932C368.639 136.667 368.546 136.445 368.36 136.266C368.175 136.083 367.89 135.947 367.505 135.858L366.232 135.56C365.533 135.394 365.019 135.137 364.691 134.789C364.366 134.438 364.204 133.999 364.204 133.472C364.204 133.041 364.325 132.66 364.567 132.328C364.812 131.997 365.145 131.737 365.566 131.548C365.99 131.359 366.471 131.264 367.008 131.264C367.764 131.264 368.357 131.43 368.788 131.761C369.222 132.093 369.53 132.53 369.712 133.074Z" fill="black"/>
<circle cx="443" cy="72" r="49" fill="#FFF1ED"/>
<path d="M424.729 59.7349V83.4004H420.442V63.9064H420.303L414.768 67.4424V63.5135L420.65 59.7349H424.729ZM439.485 83.8511C437.582 83.8511 435.949 83.3696 434.586 82.4066C433.23 81.436 432.186 80.0378 431.454 78.212C430.73 76.3786 430.368 74.1715 430.368 71.5908C430.375 69.0101 430.741 66.8145 431.466 65.0042C432.197 63.1861 433.241 61.7995 434.597 60.8442C435.961 59.889 437.59 59.4114 439.485 59.4114C441.38 59.4114 443.009 59.889 444.373 60.8442C445.736 61.7995 446.78 63.1861 447.504 65.0042C448.236 66.8222 448.602 69.0178 448.602 71.5908C448.602 74.1792 448.236 76.3901 447.504 78.2236C446.78 80.0493 445.736 81.4437 444.373 82.4066C443.017 83.3696 441.388 83.8511 439.485 83.8511ZM439.485 80.2342C440.964 80.2342 442.131 79.5062 442.986 78.0502C443.849 76.5866 444.28 74.4334 444.28 71.5908C444.28 69.7111 444.084 68.1318 443.691 66.853C443.298 65.5742 442.744 64.6113 442.027 63.9642C441.311 63.3094 440.463 62.982 439.485 62.982C438.014 62.982 436.85 63.7138 435.995 65.1775C435.14 66.6335 434.709 68.7712 434.701 71.5908C434.693 73.4781 434.882 75.0651 435.267 76.3516C435.66 77.6381 436.215 78.6087 436.931 79.2636C437.648 79.9107 438.499 80.2342 439.485 80.2342ZM461.189 83.8511C459.286 83.8511 457.653 83.3696 456.289 82.4066C454.934 81.436 453.89 80.0378 453.158 78.212C452.434 76.3786 452.072 74.1715 452.072 71.5908C452.079 69.0101 452.445 66.8145 453.169 65.0042C453.901 63.1861 454.945 61.7995 456.301 60.8442C457.665 59.889 459.294 59.4114 461.189 59.4114C463.084 59.4114 464.713 59.889 466.077 60.8442C467.44 61.7995 468.484 63.1861 469.208 65.0042C469.94 66.8222 470.306 69.0178 470.306 71.5908C470.306 74.1792 469.94 76.3901 469.208 78.2236C468.484 80.0493 467.44 81.4437 466.077 82.4066C464.721 83.3696 463.092 83.8511 461.189 83.8511ZM461.189 80.2342C462.668 80.2342 463.835 79.5062 464.69 78.0502C465.553 76.5866 465.984 74.4334 465.984 71.5908C465.984 69.7111 465.788 68.1318 465.395 66.853C465.002 65.5742 464.448 64.6113 463.731 63.9642C463.015 63.3094 462.167 62.982 461.189 62.982C459.718 62.982 458.554 63.7138 457.699 65.1775C456.844 66.6335 456.413 68.7712 456.405 71.5908C456.397 73.4781 456.586 75.0651 456.971 76.3516C457.364 77.6381 457.919 78.6087 458.635 79.2636C459.352 79.9107 460.203 80.2342 461.189 80.2342Z" fill="#F35423"/>
<mask id="path-15-inside-4_1807_2354" fill="white">
<path d="M492 72C492 99.062 470.062 121 443 121C415.938 121 394 99.062 394 72C394 44.938 415.938 23 443 23C470.062 23 492 44.938 492 72ZM398.193 72C398.193 96.7462 418.254 116.807 443 116.807C467.746 116.807 487.807 96.7462 487.807 72C487.807 47.2538 467.746 27.1931 443 27.1931C418.254 27.1931 398.193 47.2538 398.193 72Z"/>
</mask>
<path d="M492 72C492 99.062 470.062 121 443 121C415.938 121 394 99.062 394 72C394 44.938 415.938 23 443 23C470.062 23 492 44.938 492 72ZM398.193 72C398.193 96.7462 418.254 116.807 443 116.807C467.746 116.807 487.807 96.7462 487.807 72C487.807 47.2538 467.746 27.1931 443 27.1931C418.254 27.1931 398.193 47.2538 398.193 72Z" fill="#FFF1ED" stroke="#F35423" stroke-width="8" mask="url(#path-15-inside-4_1807_2354)"/>
<path d="M435.822 131.364C435.762 130.86 435.52 130.469 435.096 130.19C434.672 129.912 434.151 129.773 433.535 129.773C433.084 129.773 432.69 129.846 432.351 129.991C432.017 130.137 431.755 130.338 431.566 130.593C431.38 130.848 431.288 131.138 431.288 131.463C431.288 131.735 431.352 131.969 431.481 132.164C431.614 132.356 431.783 132.517 431.989 132.646C432.194 132.772 432.409 132.877 432.635 132.96C432.86 133.039 433.067 133.104 433.256 133.153L434.29 133.432C434.556 133.501 434.851 133.598 435.175 133.72C435.503 133.843 435.817 134.01 436.115 134.222C436.417 134.431 436.665 134.7 436.861 135.028C437.056 135.356 437.154 135.759 437.154 136.236C437.154 136.786 437.01 137.283 436.722 137.727C436.436 138.171 436.019 138.524 435.469 138.786C434.922 139.048 434.257 139.179 433.475 139.179C432.746 139.179 432.114 139.061 431.581 138.826C431.051 138.591 430.633 138.263 430.328 137.842C430.026 137.421 429.856 136.932 429.816 136.375H431.089C431.122 136.759 431.251 137.078 431.476 137.33C431.705 137.578 431.994 137.764 432.342 137.886C432.693 138.006 433.071 138.065 433.475 138.065C433.946 138.065 434.368 137.989 434.743 137.837C435.117 137.681 435.414 137.465 435.633 137.19C435.851 136.912 435.961 136.587 435.961 136.216C435.961 135.878 435.866 135.603 435.677 135.391C435.489 135.179 435.24 135.006 434.932 134.874C434.623 134.741 434.29 134.625 433.932 134.526L432.68 134.168C431.884 133.939 431.254 133.612 430.79 133.188C430.326 132.764 430.094 132.209 430.094 131.523C430.094 130.953 430.248 130.455 430.557 130.031C430.868 129.604 431.286 129.272 431.81 129.037C432.337 128.798 432.925 128.679 433.574 128.679C434.231 128.679 434.814 128.797 435.324 129.032C435.835 129.264 436.239 129.582 436.538 129.987C436.839 130.391 436.998 130.85 437.015 131.364H435.822ZM439.181 139V128.818H445.326V129.912H440.414V133.352H445.008V134.446H440.414V137.906H445.406V139H439.181ZM456.139 133.909C456.139 134.983 455.945 135.911 455.558 136.693C455.17 137.475 454.638 138.079 453.962 138.503C453.286 138.927 452.513 139.139 451.645 139.139C450.777 139.139 450.004 138.927 449.328 138.503C448.652 138.079 448.12 137.475 447.732 136.693C447.345 135.911 447.151 134.983 447.151 133.909C447.151 132.835 447.345 131.907 447.732 131.125C448.12 130.343 448.652 129.74 449.328 129.315C450.004 128.891 450.777 128.679 451.645 128.679C452.513 128.679 453.286 128.891 453.962 129.315C454.638 129.74 455.17 130.343 455.558 131.125C455.945 131.907 456.139 132.835 456.139 133.909ZM454.946 133.909C454.946 133.027 454.799 132.283 454.504 131.677C454.212 131.07 453.816 130.611 453.315 130.3C452.818 129.988 452.261 129.832 451.645 129.832C451.028 129.832 450.47 129.988 449.97 130.3C449.472 130.611 449.076 131.07 448.781 131.677C448.49 132.283 448.344 133.027 448.344 133.909C448.344 134.791 448.49 135.535 448.781 136.141C449.076 136.748 449.472 137.207 449.97 137.518C450.47 137.83 451.028 137.986 451.645 137.986C452.261 137.986 452.818 137.83 453.315 137.518C453.816 137.207 454.212 136.748 454.504 136.141C454.799 135.535 454.946 134.791 454.946 133.909Z" fill="black"/>
<path d="M121.997 182V173.273H125.491C126.133 173.273 126.669 173.368 127.098 173.558C127.527 173.749 127.849 174.013 128.065 174.351C128.281 174.686 128.389 175.072 128.389 175.51C128.389 175.851 128.321 176.151 128.184 176.409C128.048 176.665 127.86 176.875 127.622 177.04C127.386 177.202 127.116 177.317 126.812 177.385V177.47C127.145 177.484 127.456 177.578 127.745 177.751C128.038 177.925 128.275 178.168 128.457 178.48C128.639 178.79 128.73 179.159 128.73 179.588C128.73 180.051 128.615 180.464 128.385 180.828C128.157 181.189 127.821 181.474 127.375 181.685C126.929 181.895 126.379 182 125.725 182H121.997ZM123.842 180.491H125.346C125.86 180.491 126.235 180.393 126.471 180.197C126.707 179.999 126.825 179.734 126.825 179.405C126.825 179.163 126.767 178.95 126.65 178.766C126.534 178.581 126.368 178.436 126.152 178.331C125.939 178.226 125.684 178.173 125.389 178.173H123.842V180.491ZM123.842 176.925H125.21C125.463 176.925 125.687 176.881 125.883 176.793C126.082 176.702 126.238 176.574 126.352 176.409C126.468 176.244 126.527 176.047 126.527 175.817C126.527 175.501 126.414 175.247 126.19 175.054C125.968 174.861 125.653 174.764 125.244 174.764H123.842V176.925ZM131.763 182.124C131.345 182.124 130.973 182.051 130.646 181.906C130.32 181.759 130.061 181.541 129.871 181.254C129.683 180.964 129.589 180.604 129.589 180.172C129.589 179.808 129.656 179.503 129.79 179.256C129.923 179.009 130.105 178.81 130.335 178.659C130.565 178.509 130.827 178.395 131.119 178.318C131.415 178.241 131.724 178.188 132.048 178.156C132.429 178.116 132.736 178.08 132.969 178.045C133.202 178.009 133.371 177.955 133.476 177.884C133.581 177.812 133.634 177.707 133.634 177.568V177.543C133.634 177.273 133.548 177.064 133.378 176.916C133.21 176.768 132.972 176.695 132.662 176.695C132.335 176.695 132.075 176.767 131.882 176.912C131.689 177.054 131.561 177.233 131.499 177.449L129.82 177.312C129.905 176.915 130.072 176.571 130.322 176.281C130.572 175.989 130.895 175.764 131.29 175.608C131.688 175.449 132.148 175.369 132.67 175.369C133.034 175.369 133.382 175.412 133.714 175.497C134.05 175.582 134.347 175.714 134.605 175.893C134.866 176.072 135.072 176.303 135.223 176.584C135.374 176.862 135.449 177.196 135.449 177.585V182H133.727V181.092H133.676C133.571 181.297 133.43 181.477 133.254 181.634C133.078 181.787 132.866 181.908 132.619 181.996C132.372 182.081 132.087 182.124 131.763 182.124ZM132.283 180.871C132.55 180.871 132.786 180.818 132.99 180.713C133.195 180.605 133.355 180.46 133.472 180.278C133.588 180.097 133.646 179.891 133.646 179.661V178.966C133.589 179.003 133.511 179.037 133.412 179.068C133.315 179.097 133.206 179.124 133.084 179.149C132.962 179.172 132.839 179.193 132.717 179.213C132.595 179.23 132.484 179.246 132.385 179.26C132.172 179.291 131.986 179.341 131.827 179.409C131.668 179.477 131.544 179.57 131.456 179.686C131.368 179.8 131.324 179.942 131.324 180.112C131.324 180.359 131.413 180.548 131.592 180.679C131.774 180.807 132.004 180.871 132.283 180.871ZM139.269 182.107C138.772 182.107 138.322 181.979 137.918 181.723C137.518 181.464 137.2 181.085 136.964 180.585C136.731 180.082 136.614 179.466 136.614 178.736C136.614 177.986 136.735 177.362 136.977 176.865C137.218 176.365 137.539 175.991 137.94 175.744C138.343 175.494 138.785 175.369 139.265 175.369C139.631 175.369 139.937 175.432 140.181 175.557C140.428 175.679 140.627 175.832 140.778 176.017C140.931 176.199 141.048 176.378 141.127 176.554H141.183V173.273H142.994V182H141.204V180.952H141.127C141.042 181.134 140.921 181.314 140.765 181.493C140.612 181.669 140.411 181.815 140.164 181.932C139.92 182.048 139.621 182.107 139.269 182.107ZM139.844 180.662C140.137 180.662 140.384 180.582 140.586 180.423C140.79 180.261 140.947 180.036 141.055 179.746C141.165 179.456 141.221 179.116 141.221 178.727C141.221 178.338 141.167 178 141.059 177.713C140.951 177.426 140.795 177.205 140.59 177.048C140.386 176.892 140.137 176.814 139.844 176.814C139.546 176.814 139.295 176.895 139.09 177.057C138.886 177.219 138.731 177.443 138.626 177.73C138.521 178.017 138.468 178.349 138.468 178.727C138.468 179.108 138.521 179.445 138.626 179.737C138.734 180.027 138.888 180.254 139.09 180.419C139.295 180.581 139.546 180.662 139.844 180.662Z" fill="black"/>
<path d="M150.146 182.119C149.504 182.119 148.958 181.945 148.506 181.595C148.054 181.243 147.709 180.733 147.47 180.065C147.232 179.395 147.112 178.585 147.112 177.636C147.112 176.693 147.232 175.888 147.47 175.22C147.712 174.55 148.058 174.038 148.51 173.686C148.965 173.331 149.51 173.153 150.146 173.153C150.783 173.153 151.327 173.331 151.779 173.686C152.233 174.038 152.58 174.55 152.818 175.22C153.06 175.888 153.181 176.693 153.181 177.636C153.181 178.585 153.061 179.395 152.823 180.065C152.584 180.733 152.239 181.243 151.787 181.595C151.335 181.945 150.789 182.119 150.146 182.119ZM150.146 181.182C150.783 181.182 151.277 180.875 151.629 180.261C151.982 179.648 152.158 178.773 152.158 177.636C152.158 176.881 152.077 176.237 151.915 175.706C151.756 175.175 151.526 174.77 151.225 174.491C150.926 174.213 150.567 174.074 150.146 174.074C149.516 174.074 149.023 174.385 148.668 175.007C148.313 175.626 148.135 176.503 148.135 177.636C148.135 178.392 148.215 179.034 148.374 179.562C148.533 180.091 148.762 180.493 149.06 180.768C149.361 181.044 149.723 181.182 150.146 181.182ZM158.567 177.168V178.105H154.749V177.168H158.567ZM160.115 180.21V179.341L163.95 173.273H164.581V174.619H164.155L161.257 179.205V179.273H166.422V180.21H160.115ZM164.223 182V179.946V179.541V173.273H165.229V182H164.223ZM170.797 173.153C171.155 173.156 171.513 173.224 171.871 173.358C172.229 173.491 172.556 173.713 172.851 174.023C173.146 174.33 173.384 174.749 173.563 175.28C173.742 175.811 173.831 176.477 173.831 177.278C173.831 178.054 173.757 178.743 173.61 179.345C173.465 179.945 173.254 180.45 172.979 180.862C172.706 181.274 172.374 181.587 171.982 181.8C171.593 182.013 171.152 182.119 170.661 182.119C170.172 182.119 169.736 182.023 169.352 181.83C168.972 181.634 168.659 181.362 168.415 181.016C168.173 180.666 168.019 180.261 167.95 179.801H168.99C169.084 180.202 169.27 180.533 169.548 180.794C169.83 181.053 170.2 181.182 170.661 181.182C171.334 181.182 171.865 180.888 172.254 180.3C172.646 179.712 172.843 178.881 172.843 177.807H172.774C172.615 178.045 172.426 178.251 172.208 178.425C171.989 178.598 171.746 178.732 171.479 178.825C171.212 178.919 170.928 178.966 170.627 178.966C170.127 178.966 169.668 178.842 169.25 178.595C168.835 178.345 168.503 178.003 168.253 177.568C168.006 177.131 167.882 176.631 167.882 176.068C167.882 175.534 168.002 175.045 168.24 174.602C168.482 174.156 168.82 173.801 169.254 173.537C169.692 173.273 170.206 173.145 170.797 173.153ZM170.797 174.091C170.439 174.091 170.117 174.18 169.83 174.359C169.546 174.536 169.32 174.774 169.152 175.075C168.987 175.374 168.905 175.705 168.905 176.068C168.905 176.432 168.985 176.763 169.144 177.061C169.306 177.357 169.526 177.592 169.804 177.768C170.085 177.942 170.405 178.028 170.763 178.028C171.033 178.028 171.284 177.976 171.517 177.871C171.75 177.763 171.953 177.616 172.127 177.432C172.303 177.244 172.441 177.033 172.54 176.797C172.639 176.558 172.689 176.31 172.689 176.051C172.689 175.71 172.607 175.391 172.442 175.092C172.28 174.794 172.056 174.553 171.769 174.368C171.485 174.183 171.161 174.091 170.797 174.091Z" fill="black"/>
<circle cx="189" cy="177.5" r="2" fill="#F35423"/>
<path d="M209.817 176.094C209.757 175.886 209.673 175.703 209.566 175.544C209.458 175.382 209.325 175.246 209.169 175.135C209.016 175.021 208.84 174.935 208.641 174.875C208.445 174.815 208.227 174.786 207.989 174.786C207.543 174.786 207.151 174.896 206.813 175.118C206.477 175.339 206.216 175.662 206.029 176.085C205.841 176.506 205.747 177.02 205.747 177.628C205.747 178.236 205.84 178.753 206.024 179.179C206.209 179.605 206.47 179.93 206.808 180.155C207.146 180.376 207.546 180.487 208.006 180.487C208.423 180.487 208.78 180.413 209.075 180.266C209.374 180.115 209.601 179.903 209.757 179.631C209.916 179.358 209.996 179.036 209.996 178.663L210.371 178.719H208.121V177.33H211.773V178.429C211.773 179.196 211.611 179.855 211.287 180.406C210.963 180.955 210.517 181.378 209.949 181.676C209.381 181.972 208.73 182.119 207.997 182.119C207.179 182.119 206.46 181.939 205.841 181.578C205.222 181.214 204.739 180.699 204.392 180.031C204.048 179.361 203.877 178.565 203.877 177.645C203.877 176.937 203.979 176.307 204.183 175.753C204.391 175.196 204.681 174.724 205.053 174.338C205.425 173.952 205.858 173.658 206.352 173.456C206.847 173.254 207.382 173.153 207.959 173.153C208.453 173.153 208.914 173.226 209.34 173.371C209.766 173.513 210.144 173.714 210.473 173.976C210.806 174.237 211.077 174.548 211.287 174.909C211.497 175.267 211.632 175.662 211.692 176.094H209.817ZM216.082 182.128C215.42 182.128 214.848 181.987 214.365 181.706C213.885 181.422 213.514 181.027 213.253 180.521C212.991 180.013 212.861 179.423 212.861 178.753C212.861 178.077 212.991 177.486 213.253 176.98C213.514 176.472 213.885 176.077 214.365 175.795C214.848 175.511 215.42 175.369 216.082 175.369C216.744 175.369 217.315 175.511 217.795 175.795C218.278 176.077 218.65 176.472 218.912 176.98C219.173 177.486 219.304 178.077 219.304 178.753C219.304 179.423 219.173 180.013 218.912 180.521C218.65 181.027 218.278 181.422 217.795 181.706C217.315 181.987 216.744 182.128 216.082 182.128ZM216.091 180.722C216.392 180.722 216.643 180.636 216.845 180.466C217.047 180.293 217.199 180.057 217.301 179.759C217.406 179.46 217.459 179.121 217.459 178.74C217.459 178.359 217.406 178.02 217.301 177.722C217.199 177.423 217.047 177.187 216.845 177.014C216.643 176.841 216.392 176.754 216.091 176.754C215.787 176.754 215.531 176.841 215.324 177.014C215.119 177.187 214.964 177.423 214.859 177.722C214.757 178.02 214.706 178.359 214.706 178.74C214.706 179.121 214.757 179.46 214.859 179.759C214.964 180.057 215.119 180.293 215.324 180.466C215.531 180.636 215.787 180.722 216.091 180.722ZM223.442 182.128C222.78 182.128 222.207 181.987 221.724 181.706C221.244 181.422 220.873 181.027 220.612 180.521C220.351 180.013 220.22 179.423 220.22 178.753C220.22 178.077 220.351 177.486 220.612 176.98C220.873 176.472 221.244 176.077 221.724 175.795C222.207 175.511 222.78 175.369 223.442 175.369C224.104 175.369 224.675 175.511 225.155 175.795C225.638 176.077 226.01 176.472 226.271 176.98C226.532 177.486 226.663 178.077 226.663 178.753C226.663 179.423 226.532 180.013 226.271 180.521C226.01 181.027 225.638 181.422 225.155 181.706C224.675 181.987 224.104 182.128 223.442 182.128ZM223.45 180.722C223.751 180.722 224.003 180.636 224.204 180.466C224.406 180.293 224.558 180.057 224.66 179.759C224.765 179.46 224.818 179.121 224.818 178.74C224.818 178.359 224.765 178.02 224.66 177.722C224.558 177.423 224.406 177.187 224.204 177.014C224.003 176.841 223.751 176.754 223.45 176.754C223.146 176.754 222.89 176.841 222.683 177.014C222.479 177.187 222.324 177.423 222.219 177.722C222.116 178.02 222.065 178.359 222.065 178.74C222.065 179.121 222.116 179.46 222.219 179.759C222.324 180.057 222.479 180.293 222.683 180.466C222.89 180.636 223.146 180.722 223.45 180.722ZM230.256 182.107C229.758 182.107 229.308 181.979 228.905 181.723C228.504 181.464 228.186 181.085 227.95 180.585C227.717 180.082 227.601 179.466 227.601 178.736C227.601 177.986 227.721 177.362 227.963 176.865C228.204 176.365 228.525 175.991 228.926 175.744C229.329 175.494 229.771 175.369 230.251 175.369C230.618 175.369 230.923 175.432 231.167 175.557C231.415 175.679 231.613 175.832 231.764 176.017C231.917 176.199 232.034 176.378 232.113 176.554H232.169V173.273H233.98V182H232.19V180.952H232.113C232.028 181.134 231.907 181.314 231.751 181.493C231.598 181.669 231.398 181.815 231.15 181.932C230.906 182.048 230.608 182.107 230.256 182.107ZM230.831 180.662C231.123 180.662 231.371 180.582 231.572 180.423C231.777 180.261 231.933 180.036 232.041 179.746C232.152 179.456 232.207 179.116 232.207 178.727C232.207 178.338 232.153 178 232.045 177.713C231.937 177.426 231.781 177.205 231.577 177.048C231.372 176.892 231.123 176.814 230.831 176.814C230.532 176.814 230.281 176.895 230.077 177.057C229.872 177.219 229.717 177.443 229.612 177.73C229.507 178.017 229.454 178.349 229.454 178.727C229.454 179.108 229.507 179.445 229.612 179.737C229.72 180.027 229.875 180.254 230.077 180.419C230.281 180.581 230.532 180.662 230.831 180.662ZM241.156 182.119C240.656 182.119 240.206 182.02 239.805 181.821C239.405 181.622 239.084 181.349 238.842 181.003C238.601 180.656 238.469 180.261 238.446 179.818H239.469C239.508 180.213 239.687 180.54 240.006 180.798C240.327 181.054 240.71 181.182 241.156 181.182C241.514 181.182 241.832 181.098 242.111 180.93C242.392 180.763 242.612 180.533 242.771 180.24C242.933 179.945 243.014 179.611 243.014 179.239C243.014 178.858 242.93 178.518 242.763 178.22C242.598 177.919 242.371 177.682 242.081 177.509C241.791 177.335 241.46 177.247 241.088 177.244C240.821 177.241 240.547 177.283 240.265 177.368C239.984 177.45 239.753 177.557 239.571 177.688L238.582 177.568L239.111 173.273H243.645V174.21H239.997L239.69 176.784H239.741C239.92 176.642 240.145 176.524 240.415 176.43C240.684 176.337 240.966 176.29 241.258 176.29C241.792 176.29 242.268 176.418 242.686 176.673C243.106 176.926 243.436 177.273 243.675 177.713C243.916 178.153 244.037 178.656 244.037 179.222C244.037 179.778 243.912 180.276 243.662 180.713C243.415 181.148 243.074 181.491 242.639 181.744C242.204 181.994 241.71 182.119 241.156 182.119ZM248.576 182.119C247.934 182.119 247.387 181.945 246.936 181.595C246.484 181.243 246.139 180.733 245.9 180.065C245.661 179.395 245.542 178.585 245.542 177.636C245.542 176.693 245.661 175.888 245.9 175.22C246.142 174.55 246.488 174.038 246.94 173.686C247.394 173.331 247.94 173.153 248.576 173.153C249.213 173.153 249.757 173.331 250.208 173.686C250.663 174.038 251.009 174.55 251.248 175.22C251.49 175.888 251.61 176.693 251.61 177.636C251.61 178.585 251.491 179.395 251.252 180.065C251.014 180.733 250.669 181.243 250.217 181.595C249.765 181.945 249.218 182.119 248.576 182.119ZM248.576 181.182C249.213 181.182 249.707 180.875 250.059 180.261C250.411 179.648 250.588 178.773 250.588 177.636C250.588 176.881 250.507 176.237 250.345 175.706C250.186 175.175 249.955 174.77 249.654 174.491C249.356 174.213 248.997 174.074 248.576 174.074C247.945 174.074 247.453 174.385 247.097 175.007C246.742 175.626 246.565 176.503 246.565 177.636C246.565 178.392 246.644 179.034 246.803 179.562C246.963 180.091 247.191 180.493 247.49 180.768C247.791 181.044 248.153 181.182 248.576 181.182ZM256.997 177.168V178.105H253.178V177.168H256.997ZM261.545 182.119C260.959 182.119 260.442 182.016 259.993 181.808C259.547 181.598 259.199 181.31 258.949 180.943C258.699 180.574 258.576 180.153 258.579 179.682C258.576 179.312 258.648 178.972 258.796 178.659C258.944 178.344 259.145 178.081 259.401 177.871C259.66 177.658 259.948 177.523 260.266 177.466V177.415C259.849 177.307 259.516 177.072 259.269 176.712C259.022 176.348 258.9 175.935 258.903 175.472C258.9 175.028 259.012 174.632 259.239 174.283C259.466 173.933 259.779 173.658 260.177 173.456C260.577 173.254 261.033 173.153 261.545 173.153C262.05 173.153 262.502 173.254 262.9 173.456C263.297 173.658 263.61 173.933 263.837 174.283C264.067 174.632 264.184 175.028 264.187 175.472C264.184 175.935 264.057 176.348 263.807 176.712C263.56 177.072 263.232 177.307 262.823 177.415V177.466C263.138 177.523 263.422 177.658 263.675 177.871C263.928 178.081 264.13 178.344 264.28 178.659C264.431 178.972 264.508 179.312 264.51 179.682C264.508 180.153 264.38 180.574 264.127 180.943C263.877 181.31 263.529 181.598 263.083 181.808C262.64 182.016 262.127 182.119 261.545 182.119ZM261.545 181.182C261.939 181.182 262.28 181.118 262.567 180.99C262.854 180.862 263.076 180.682 263.232 180.449C263.388 180.216 263.468 179.943 263.471 179.631C263.468 179.301 263.383 179.01 263.215 178.757C263.047 178.504 262.819 178.305 262.529 178.161C262.242 178.016 261.914 177.943 261.545 177.943C261.172 177.943 260.84 178.016 260.547 178.161C260.258 178.305 260.029 178.504 259.861 178.757C259.697 179.01 259.616 179.301 259.618 179.631C259.616 179.943 259.691 180.216 259.844 180.449C260.001 180.682 260.224 180.862 260.513 180.99C260.803 181.118 261.147 181.182 261.545 181.182ZM261.545 177.04C261.857 177.04 262.134 176.977 262.376 176.852C262.62 176.727 262.812 176.553 262.951 176.328C263.09 176.104 263.161 175.841 263.164 175.54C263.161 175.244 263.091 174.987 262.955 174.768C262.819 174.547 262.63 174.376 262.388 174.257C262.147 174.135 261.866 174.074 261.545 174.074C261.218 174.074 260.932 174.135 260.688 174.257C260.444 174.376 260.255 174.547 260.121 174.768C259.988 174.987 259.922 175.244 259.925 175.54C259.922 175.841 259.989 176.104 260.126 176.328C260.265 176.553 260.456 176.727 260.701 176.852C260.945 176.977 261.226 177.04 261.545 177.04ZM268.922 173.153C269.28 173.156 269.638 173.224 269.996 173.358C270.354 173.491 270.681 173.713 270.976 174.023C271.271 174.33 271.509 174.749 271.688 175.28C271.867 175.811 271.956 176.477 271.956 177.278C271.956 178.054 271.882 178.743 271.735 179.345C271.59 179.945 271.379 180.45 271.104 180.862C270.831 181.274 270.499 181.587 270.107 181.8C269.718 182.013 269.277 182.119 268.786 182.119C268.297 182.119 267.861 182.023 267.477 181.83C267.097 181.634 266.784 181.362 266.54 181.016C266.298 180.666 266.144 180.261 266.075 179.801H267.115C267.209 180.202 267.395 180.533 267.673 180.794C267.955 181.053 268.325 181.182 268.786 181.182C269.459 181.182 269.99 180.888 270.379 180.3C270.771 179.712 270.968 178.881 270.968 177.807H270.899C270.74 178.045 270.551 178.251 270.333 178.425C270.114 178.598 269.871 178.732 269.604 178.825C269.337 178.919 269.053 178.966 268.752 178.966C268.252 178.966 267.793 178.842 267.375 178.595C266.96 178.345 266.628 178.003 266.378 177.568C266.131 177.131 266.007 176.631 266.007 176.068C266.007 175.534 266.127 175.045 266.365 174.602C266.607 174.156 266.945 173.801 267.379 173.537C267.817 173.273 268.331 173.145 268.922 173.153ZM268.922 174.091C268.564 174.091 268.242 174.18 267.955 174.359C267.671 174.536 267.445 174.774 267.277 175.075C267.112 175.374 267.03 175.705 267.03 176.068C267.03 176.432 267.11 176.763 267.269 177.061C267.431 177.357 267.651 177.592 267.929 177.768C268.21 177.942 268.53 178.028 268.888 178.028C269.158 178.028 269.409 177.976 269.642 177.871C269.875 177.763 270.078 177.616 270.252 177.432C270.428 177.244 270.566 177.033 270.665 176.797C270.764 176.558 270.814 176.31 270.814 176.051C270.814 175.71 270.732 175.391 270.567 175.092C270.405 174.794 270.181 174.553 269.894 174.368C269.61 174.183 269.286 174.091 268.922 174.091Z" fill="black"/>
<circle cx="287" cy="177.5" r="2" fill="#F35423"/>
<path d="M306.718 175.783C306.683 175.439 306.537 175.172 306.279 174.982C306.02 174.791 305.669 174.696 305.226 174.696C304.925 174.696 304.671 174.739 304.463 174.824C304.256 174.906 304.097 175.021 303.986 175.169C303.878 175.317 303.824 175.484 303.824 175.672C303.818 175.828 303.851 175.964 303.922 176.081C303.996 176.197 304.097 176.298 304.225 176.384C304.352 176.466 304.5 176.538 304.668 176.601C304.835 176.661 305.014 176.712 305.205 176.754L305.989 176.942C306.369 177.027 306.719 177.141 307.037 177.283C307.355 177.425 307.631 177.599 307.864 177.807C308.097 178.014 308.277 178.259 308.405 178.54C308.536 178.821 308.602 179.143 308.605 179.507C308.602 180.041 308.466 180.504 308.196 180.896C307.929 181.286 307.543 181.588 307.037 181.804C306.534 182.017 305.928 182.124 305.218 182.124C304.513 182.124 303.899 182.016 303.377 181.8C302.857 181.584 302.45 181.264 302.158 180.841C301.868 180.415 301.716 179.888 301.702 179.26H303.487C303.507 179.553 303.591 179.797 303.739 179.993C303.889 180.186 304.09 180.332 304.34 180.432C304.593 180.528 304.878 180.577 305.196 180.577C305.509 180.577 305.78 180.531 306.01 180.44C306.243 180.349 306.423 180.223 306.551 180.061C306.679 179.899 306.743 179.713 306.743 179.503C306.743 179.307 306.685 179.142 306.568 179.009C306.455 178.875 306.287 178.761 306.066 178.668C305.847 178.574 305.578 178.489 305.26 178.412L304.31 178.173C303.574 177.994 302.993 177.714 302.567 177.334C302.141 176.953 301.929 176.44 301.932 175.795C301.929 175.267 302.07 174.805 302.354 174.411C302.641 174.016 303.034 173.707 303.534 173.486C304.034 173.264 304.602 173.153 305.239 173.153C305.887 173.153 306.452 173.264 306.935 173.486C307.421 173.707 307.798 174.016 308.068 174.411C308.338 174.805 308.477 175.263 308.486 175.783H306.718ZM314.01 179.213V175.455H315.825V182H314.082V180.811H314.014C313.866 181.195 313.621 181.503 313.277 181.736C312.936 181.969 312.52 182.085 312.028 182.085C311.591 182.085 311.206 181.986 310.873 181.787C310.541 181.588 310.281 181.305 310.094 180.939C309.909 180.572 309.815 180.134 309.812 179.622V175.455H311.628V179.298C311.631 179.685 311.734 179.99 311.939 180.214C312.143 180.439 312.417 180.551 312.761 180.551C312.98 180.551 313.184 180.501 313.375 180.402C313.565 180.3 313.719 180.149 313.835 179.95C313.954 179.751 314.013 179.506 314.01 179.213ZM317.277 184.455V175.455H319.067V176.554H319.148C319.227 176.378 319.343 176.199 319.493 176.017C319.646 175.832 319.845 175.679 320.09 175.557C320.337 175.432 320.644 175.369 321.01 175.369C321.487 175.369 321.928 175.494 322.331 175.744C322.735 175.991 323.057 176.365 323.298 176.865C323.54 177.362 323.661 177.986 323.661 178.736C323.661 179.466 323.543 180.082 323.307 180.585C323.074 181.085 322.756 181.464 322.352 181.723C321.952 181.979 321.503 182.107 321.006 182.107C320.654 182.107 320.354 182.048 320.107 181.932C319.862 181.815 319.662 181.669 319.506 181.493C319.35 181.314 319.23 181.134 319.148 180.952H319.093V184.455H317.277ZM319.054 178.727C319.054 179.116 319.108 179.456 319.216 179.746C319.324 180.036 319.48 180.261 319.685 180.423C319.889 180.582 320.138 180.662 320.431 180.662C320.726 180.662 320.976 180.581 321.181 180.419C321.385 180.254 321.54 180.027 321.645 179.737C321.753 179.445 321.807 179.108 321.807 178.727C321.807 178.349 321.754 178.017 321.649 177.73C321.544 177.443 321.389 177.219 321.185 177.057C320.98 176.895 320.729 176.814 320.431 176.814C320.135 176.814 319.885 176.892 319.681 177.048C319.479 177.205 319.324 177.426 319.216 177.713C319.108 178 319.054 178.338 319.054 178.727ZM327.854 182.128C327.181 182.128 326.601 181.991 326.115 181.719C325.632 181.443 325.26 181.054 324.999 180.551C324.737 180.045 324.607 179.447 324.607 178.757C324.607 178.084 324.737 177.493 324.999 176.984C325.26 176.476 325.628 176.08 326.102 175.795C326.58 175.511 327.139 175.369 327.781 175.369C328.213 175.369 328.615 175.439 328.987 175.578C329.362 175.714 329.689 175.92 329.968 176.196C330.249 176.472 330.468 176.818 330.624 177.236C330.78 177.651 330.858 178.136 330.858 178.693V179.192H325.331V178.067H329.149C329.149 177.805 329.093 177.574 328.979 177.372C328.865 177.17 328.708 177.013 328.506 176.899C328.307 176.783 328.075 176.724 327.811 176.724C327.536 176.724 327.291 176.788 327.078 176.916C326.868 177.041 326.703 177.21 326.584 177.423C326.465 177.634 326.404 177.868 326.401 178.126V179.196C326.401 179.52 326.46 179.8 326.58 180.036C326.702 180.271 326.874 180.453 327.095 180.581C327.317 180.709 327.58 180.773 327.884 180.773C328.085 180.773 328.27 180.744 328.438 180.688C328.605 180.631 328.749 180.545 328.868 180.432C328.987 180.318 329.078 180.179 329.141 180.014L330.82 180.125C330.735 180.528 330.56 180.881 330.296 181.182C330.034 181.48 329.696 181.713 329.281 181.881C328.869 182.045 328.394 182.128 327.854 182.128ZM332.043 182V175.455H333.803V176.597H333.871C333.99 176.19 334.191 175.884 334.472 175.676C334.753 175.466 335.077 175.361 335.443 175.361C335.534 175.361 335.632 175.366 335.737 175.378C335.843 175.389 335.935 175.405 336.014 175.425V177.036C335.929 177.01 335.811 176.987 335.661 176.967C335.51 176.947 335.372 176.938 335.247 176.938C334.98 176.938 334.742 176.996 334.531 177.112C334.324 177.226 334.159 177.385 334.037 177.589C333.918 177.794 333.858 178.03 333.858 178.297V182H332.043ZM340.801 175.455V176.818H336.761V175.455H340.801ZM337.686 182V174.982C337.686 174.507 337.778 174.114 337.963 173.801C338.15 173.489 338.406 173.254 338.73 173.098C339.054 172.942 339.422 172.864 339.834 172.864C340.112 172.864 340.366 172.885 340.596 172.928C340.829 172.97 341.003 173.009 341.116 173.043L340.792 174.406C340.721 174.384 340.633 174.362 340.528 174.342C340.426 174.322 340.321 174.312 340.213 174.312C339.946 174.312 339.76 174.375 339.655 174.5C339.55 174.622 339.497 174.794 339.497 175.016V182H337.686ZM343.542 182.124C343.124 182.124 342.752 182.051 342.426 181.906C342.099 181.759 341.84 181.541 341.65 181.254C341.463 180.964 341.369 180.604 341.369 180.172C341.369 179.808 341.436 179.503 341.569 179.256C341.703 179.009 341.884 178.81 342.115 178.659C342.345 178.509 342.606 178.395 342.899 178.318C343.194 178.241 343.504 178.188 343.828 178.156C344.208 178.116 344.515 178.08 344.748 178.045C344.981 178.009 345.15 177.955 345.255 177.884C345.36 177.812 345.413 177.707 345.413 177.568V177.543C345.413 177.273 345.328 177.064 345.157 176.916C344.99 176.768 344.751 176.695 344.441 176.695C344.115 176.695 343.855 176.767 343.661 176.912C343.468 177.054 343.34 177.233 343.278 177.449L341.599 177.312C341.684 176.915 341.852 176.571 342.102 176.281C342.352 175.989 342.674 175.764 343.069 175.608C343.467 175.449 343.927 175.369 344.45 175.369C344.813 175.369 345.161 175.412 345.494 175.497C345.829 175.582 346.126 175.714 346.384 175.893C346.646 176.072 346.852 176.303 347.002 176.584C347.153 176.862 347.228 177.196 347.228 177.585V182H345.507V181.092H345.455C345.35 181.297 345.21 181.477 345.034 181.634C344.857 181.787 344.646 181.908 344.399 181.996C344.151 182.081 343.866 182.124 343.542 182.124ZM344.062 180.871C344.329 180.871 344.565 180.818 344.769 180.713C344.974 180.605 345.134 180.46 345.251 180.278C345.367 180.097 345.426 179.891 345.426 179.661V178.966C345.369 179.003 345.291 179.037 345.191 179.068C345.095 179.097 344.985 179.124 344.863 179.149C344.741 179.172 344.619 179.193 344.497 179.213C344.374 179.23 344.264 179.246 344.164 179.26C343.951 179.291 343.765 179.341 343.606 179.409C343.447 179.477 343.323 179.57 343.235 179.686C343.147 179.8 343.103 179.942 343.103 180.112C343.103 180.359 343.193 180.548 343.372 180.679C343.553 180.807 343.784 180.871 344.062 180.871ZM354.083 177.321L352.421 177.423C352.392 177.281 352.331 177.153 352.237 177.04C352.144 176.923 352.02 176.831 351.867 176.763C351.716 176.692 351.536 176.656 351.325 176.656C351.044 176.656 350.807 176.716 350.614 176.835C350.421 176.952 350.324 177.108 350.324 177.304C350.324 177.46 350.387 177.592 350.512 177.7C350.637 177.808 350.851 177.895 351.155 177.96L352.34 178.199C352.976 178.33 353.45 178.54 353.763 178.83C354.075 179.119 354.232 179.5 354.232 179.972C354.232 180.401 354.105 180.777 353.852 181.101C353.602 181.425 353.259 181.678 352.821 181.859C352.387 182.038 351.885 182.128 351.317 182.128C350.45 182.128 349.76 181.947 349.246 181.587C348.735 181.223 348.435 180.729 348.347 180.104L350.132 180.01C350.186 180.274 350.317 180.476 350.524 180.615C350.732 180.751 350.997 180.82 351.321 180.82C351.639 180.82 351.895 180.759 352.088 180.636C352.284 180.511 352.384 180.351 352.387 180.155C352.384 179.99 352.314 179.855 352.178 179.75C352.041 179.642 351.831 179.56 351.547 179.503L350.414 179.277C349.774 179.149 349.298 178.928 348.986 178.612C348.676 178.297 348.521 177.895 348.521 177.406C348.521 176.986 348.635 176.624 348.862 176.32C349.093 176.016 349.415 175.781 349.83 175.616C350.247 175.452 350.736 175.369 351.296 175.369C352.122 175.369 352.773 175.544 353.247 175.893C353.725 176.243 354.003 176.719 354.083 177.321ZM358.856 175.455V176.818H354.915V175.455H358.856ZM355.809 173.886H357.625V179.989C357.625 180.156 357.65 180.287 357.702 180.381C357.753 180.472 357.824 180.536 357.915 180.572C358.008 180.609 358.116 180.628 358.238 180.628C358.324 180.628 358.409 180.621 358.494 180.607C358.579 180.589 358.645 180.577 358.69 180.568L358.976 181.919C358.885 181.947 358.757 181.98 358.592 182.017C358.427 182.057 358.227 182.081 357.991 182.089C357.554 182.107 357.17 182.048 356.841 181.915C356.514 181.781 356.26 181.574 356.078 181.293C355.896 181.011 355.807 180.656 355.809 180.227V173.886ZM366.371 173.153C366.729 173.156 367.087 173.224 367.445 173.358C367.803 173.491 368.13 173.713 368.425 174.023C368.721 174.33 368.958 174.749 369.137 175.28C369.316 175.811 369.405 176.477 369.405 177.278C369.405 178.054 369.331 178.743 369.184 179.345C369.039 179.945 368.829 180.45 368.553 180.862C368.28 181.274 367.948 181.587 367.556 181.8C367.167 182.013 366.726 182.119 366.235 182.119C365.746 182.119 365.31 182.023 364.927 181.83C364.546 181.634 364.233 181.362 363.989 181.016C363.748 180.666 363.593 180.261 363.525 179.801H364.564C364.658 180.202 364.844 180.533 365.123 180.794C365.404 181.053 365.775 181.182 366.235 181.182C366.908 181.182 367.439 180.888 367.829 180.3C368.221 179.712 368.417 178.881 368.417 177.807H368.349C368.189 178.045 368.001 178.251 367.782 178.425C367.563 178.598 367.32 178.732 367.053 178.825C366.786 178.919 366.502 178.966 366.201 178.966C365.701 178.966 365.242 178.842 364.824 178.595C364.41 178.345 364.077 178.003 363.827 177.568C363.58 177.131 363.456 176.631 363.456 176.068C363.456 175.534 363.576 175.045 363.814 174.602C364.056 174.156 364.394 173.801 364.829 173.537C365.266 173.273 365.78 173.145 366.371 173.153ZM366.371 174.091C366.013 174.091 365.691 174.18 365.404 174.359C365.12 174.536 364.894 174.774 364.726 175.075C364.562 175.374 364.479 175.705 364.479 176.068C364.479 176.432 364.559 176.763 364.718 177.061C364.88 177.357 365.1 177.592 365.378 177.768C365.66 177.942 365.979 178.028 366.337 178.028C366.607 178.028 366.858 177.976 367.091 177.871C367.324 177.763 367.528 177.616 367.701 177.432C367.877 177.244 368.015 177.033 368.114 176.797C368.214 176.558 368.263 176.31 368.263 176.051C368.263 175.71 368.181 175.391 368.016 175.092C367.854 174.794 367.63 174.553 367.343 174.368C367.059 174.183 366.735 174.091 366.371 174.091ZM373.928 182.119C373.286 182.119 372.739 181.945 372.287 181.595C371.835 181.243 371.49 180.733 371.252 180.065C371.013 179.395 370.894 178.585 370.894 177.636C370.894 176.693 371.013 175.888 371.252 175.22C371.493 174.55 371.84 174.038 372.291 173.686C372.746 173.331 373.291 173.153 373.928 173.153C374.564 173.153 375.108 173.331 375.56 173.686C376.014 174.038 376.361 174.55 376.6 175.22C376.841 175.888 376.962 176.693 376.962 177.636C376.962 178.585 376.843 179.395 376.604 180.065C376.365 180.733 376.02 181.243 375.568 181.595C375.117 181.945 374.57 182.119 373.928 182.119ZM373.928 181.182C374.564 181.182 375.058 180.875 375.411 180.261C375.763 179.648 375.939 178.773 375.939 177.636C375.939 176.881 375.858 176.237 375.696 175.706C375.537 175.175 375.307 174.77 375.006 174.491C374.708 174.213 374.348 174.074 373.928 174.074C373.297 174.074 372.804 174.385 372.449 175.007C372.094 175.626 371.916 176.503 371.916 177.636C371.916 178.392 371.996 179.034 372.155 179.562C372.314 180.091 372.543 180.493 372.841 180.768C373.142 181.044 373.504 181.182 373.928 181.182ZM382.348 177.168V178.105H378.53V177.168H382.348ZM387.169 173.273V182H386.112V174.381H386.061L383.93 175.795V174.722L386.112 173.273H387.169ZM392.525 182.119C391.883 182.119 391.336 181.945 390.885 181.595C390.433 181.243 390.088 180.733 389.849 180.065C389.611 179.395 389.491 178.585 389.491 177.636C389.491 176.693 389.611 175.888 389.849 175.22C390.091 174.55 390.437 174.038 390.889 173.686C391.344 173.331 391.889 173.153 392.525 173.153C393.162 173.153 393.706 173.331 394.157 173.686C394.612 174.038 394.959 174.55 395.197 175.22C395.439 175.888 395.559 176.693 395.559 177.636C395.559 178.585 395.44 179.395 395.202 180.065C394.963 180.733 394.618 181.243 394.166 181.595C393.714 181.945 393.167 182.119 392.525 182.119ZM392.525 181.182C393.162 181.182 393.656 180.875 394.008 180.261C394.361 179.648 394.537 178.773 394.537 177.636C394.537 176.881 394.456 176.237 394.294 175.706C394.135 175.175 393.905 174.77 393.604 174.491C393.305 174.213 392.946 174.074 392.525 174.074C391.895 174.074 391.402 174.385 391.047 175.007C390.692 175.626 390.514 176.503 390.514 177.636C390.514 178.392 390.594 179.034 390.753 179.562C390.912 180.091 391.14 180.493 391.439 180.768C391.74 181.044 392.102 181.182 392.525 181.182ZM400.025 182.119C399.383 182.119 398.836 181.945 398.385 181.595C397.933 181.243 397.588 180.733 397.349 180.065C397.111 179.395 396.991 178.585 396.991 177.636C396.991 176.693 397.111 175.888 397.349 175.22C397.591 174.55 397.937 174.038 398.389 173.686C398.844 173.331 399.389 173.153 400.025 173.153C400.662 173.153 401.206 173.331 401.657 173.686C402.112 174.038 402.459 174.55 402.697 175.22C402.939 175.888 403.059 176.693 403.059 177.636C403.059 178.585 402.94 179.395 402.702 180.065C402.463 180.733 402.118 181.243 401.666 181.595C401.214 181.945 400.667 182.119 400.025 182.119ZM400.025 181.182C400.662 181.182 401.156 180.875 401.508 180.261C401.861 179.648 402.037 178.773 402.037 177.636C402.037 176.881 401.956 176.237 401.794 175.706C401.635 175.175 401.405 174.77 401.104 174.491C400.805 174.213 400.446 174.074 400.025 174.074C399.395 174.074 398.902 174.385 398.547 175.007C398.192 175.626 398.014 176.503 398.014 177.636C398.014 178.392 398.094 179.034 398.253 179.562C398.412 180.091 398.64 180.493 398.939 180.768C399.24 181.044 399.602 181.182 400.025 181.182Z" fill="black"/>
</svg>
