<svg width="526" height="200" viewBox="0 0 526 200" fill="none" xmlns="http://www.w3.org/2000/svg">
<rect width="526" height="200" fill="white"/>
<g clip-path="url(#clip0_3034_5898)">
<rect width="351" height="138" transform="translate(87 31)" fill="white"/>
<rect x="140.885" y="80.5518" width="134.4" height="38.6401" rx="19.3201" fill="#F35423"/>
<path d="M175.294 101.795C175.294 103.304 174.083 104.361 172.101 104.361C170.108 104.361 168.864 103.293 168.742 101.619H170.438C170.482 102.489 171.044 103.051 172.068 103.051C172.916 103.051 173.521 102.676 173.521 102.038C173.521 101.542 173.136 101.245 172.464 101.113L171.165 100.859C169.965 100.628 169.04 99.9786 169.04 98.6682C169.04 97.2587 170.284 96.2457 171.991 96.2457C173.764 96.2457 175.063 97.2808 175.173 98.9325H173.477C173.422 98.1066 172.85 97.545 172.013 97.545C171.198 97.545 170.736 98.0075 170.736 98.5581C170.736 99.0976 171.231 99.3289 171.804 99.439L173.158 99.7143C174.545 99.9896 175.294 100.628 175.294 101.795ZM179.921 101.773V98.3709H181.441V104.251H180.042V103.48C179.723 103.998 179.073 104.361 178.325 104.361C177.146 104.361 176.288 103.645 176.288 102.115V98.3709H177.818V101.817C177.818 102.643 178.226 103.007 178.842 103.007C179.393 103.007 179.921 102.566 179.921 101.773ZM188.685 101.311C188.685 103.029 187.661 104.361 186.075 104.361C185.316 104.361 184.677 104.02 184.226 103.403V104.251H182.816V96.3448H184.347V99.1307C184.776 98.5581 185.371 98.2608 186.075 98.2608C187.661 98.2608 188.685 99.5711 188.685 101.311ZM187.111 101.311C187.111 100.188 186.483 99.6152 185.734 99.6152C184.996 99.6152 184.358 100.177 184.358 101.289C184.358 102.401 184.974 102.996 185.734 102.996C186.483 102.996 187.111 102.412 187.111 101.311ZM194.632 102.368C194.632 103.601 193.696 104.361 192.022 104.361C190.349 104.361 189.413 103.557 189.292 102.247H190.756C190.767 102.853 191.285 103.238 192.044 103.238C192.639 103.238 193.09 103.051 193.09 102.632C193.09 102.258 192.848 102.104 192.287 101.994L191.23 101.795C190.172 101.608 189.534 101.025 189.534 100.111C189.534 99.0206 190.47 98.2608 191.934 98.2608C193.41 98.2608 194.423 99.0426 194.533 100.309H193.068C193.013 99.7363 192.584 99.3839 191.934 99.3839C191.373 99.3839 190.998 99.5932 190.998 99.9675C190.998 100.32 191.241 100.463 191.769 100.562L192.903 100.771C194.048 100.992 194.632 101.52 194.632 102.368ZM198.155 104.361C196.459 104.361 195.292 103.106 195.292 101.311C195.292 99.5491 196.503 98.2608 198.155 98.2608C199.685 98.2608 200.819 99.2958 201.007 100.881H199.399C199.322 100.1 198.848 99.6152 198.155 99.6152C197.362 99.6152 196.855 100.265 196.855 101.311C196.855 102.368 197.351 103.007 198.155 103.007C198.859 103.007 199.311 102.544 199.399 101.74H201.007C200.83 103.359 199.729 104.361 198.155 104.361ZM203.52 101.399V104.251H201.989V98.3709H203.399V99.5051C203.828 98.7563 204.742 98.3048 205.689 98.3048V99.8905C204.39 99.7914 203.52 100.1 203.52 101.399ZM208.257 97.0055C208.257 97.523 207.839 97.9084 207.233 97.9084C206.638 97.9084 206.22 97.523 206.22 97.0055C206.22 96.4659 206.638 96.0805 207.233 96.0805C207.839 96.0805 208.257 96.4659 208.257 97.0055ZM208.015 104.251H206.484V98.3709H208.015V104.251ZM215.246 101.311C215.246 103.029 214.222 104.361 212.636 104.361C211.876 104.361 211.238 104.02 210.786 103.403V104.251H209.377V96.3448H210.907V99.1307C211.337 98.5581 211.931 98.2608 212.636 98.2608C214.222 98.2608 215.246 99.5711 215.246 101.311ZM213.671 101.311C213.671 100.188 213.044 99.6152 212.295 99.6152C211.557 99.6152 210.918 100.177 210.918 101.289C210.918 102.401 211.535 102.996 212.295 102.996C213.044 102.996 213.671 102.412 213.671 101.311ZM218.781 104.35C217.019 104.35 215.841 103.128 215.841 101.289C215.841 99.5381 217.064 98.2608 218.759 98.2608C220.62 98.2608 221.853 99.7693 221.578 101.685H217.405C217.504 102.643 217.966 103.172 218.748 103.172C219.42 103.172 219.871 102.842 220.048 102.258H221.567C221.237 103.59 220.213 104.35 218.781 104.35ZM218.726 99.3839C218.01 99.3839 217.559 99.8464 217.427 100.716H219.96C219.915 99.9015 219.453 99.3839 218.726 99.3839ZM230.19 104.251L226.567 98.7343V104.251H225.037V96.3448H226.843L230.289 101.586V96.3448H231.831V104.251H230.19ZM235.923 104.361C234.216 104.361 232.939 103.018 232.939 101.311C232.939 99.5932 234.216 98.2608 235.923 98.2608C237.63 98.2608 238.907 99.5932 238.907 101.311C238.907 103.018 237.63 104.361 235.923 104.361ZM235.923 103.007C236.683 103.007 237.333 102.401 237.333 101.311C237.333 100.221 236.683 99.6262 235.923 99.6262C235.163 99.6262 234.514 100.221 234.514 101.311C234.514 102.401 235.163 103.007 235.923 103.007ZM244.556 104.251L243.444 100.43L242.343 104.251H240.813L239.139 98.3709H240.625L241.627 102.093L242.706 98.3709H244.215L245.261 102.093L246.252 98.3709H247.761L246.076 104.251H244.556Z" fill="white"/>
<rect x="349.549" y="80.7256" width="88.8425" height="38.4542" rx="19.2271" fill="#F35423"/>
<path d="M377.354 104.425H372.245V96.5186H373.918V102.916H377.354V104.425ZM380.84 104.535C379.134 104.535 377.856 103.192 377.856 101.485C377.856 99.767 379.134 98.4346 380.84 98.4346C382.547 98.4346 383.825 99.767 383.825 101.485C383.825 103.192 382.547 104.535 380.84 104.535ZM380.84 103.181C381.6 103.181 382.25 102.575 382.25 101.485C382.25 100.395 381.6 99.8 380.84 99.8C380.081 99.8 379.431 100.395 379.431 101.485C379.431 102.575 380.081 103.181 380.84 103.181ZM387.193 106.66C385.608 106.66 384.551 105.801 384.485 104.447H385.96C386.026 105.119 386.456 105.471 387.182 105.471C388.03 105.471 388.471 105.019 388.471 104.172V103.313C388.151 103.874 387.546 104.205 386.83 104.205C385.388 104.205 384.308 102.982 384.308 101.32C384.308 99.6128 385.321 98.4346 386.775 98.4346C387.568 98.4346 388.162 98.7429 388.592 99.3485V98.5447H389.99V104.15C389.99 105.713 388.933 106.66 387.193 106.66ZM385.839 101.32C385.839 102.278 386.334 102.883 387.127 102.883C387.931 102.883 388.46 102.256 388.46 101.331C388.46 100.373 387.931 99.756 387.127 99.756C386.345 99.756 385.839 100.362 385.839 101.32ZM393.144 97.1793C393.144 97.6968 392.726 98.0822 392.12 98.0822C391.526 98.0822 391.107 97.6968 391.107 97.1793C391.107 96.6397 391.526 96.2543 392.12 96.2543C392.726 96.2543 393.144 96.6397 393.144 97.1793ZM392.902 104.425H391.372V98.5447H392.902V104.425ZM395.795 101.22V104.425H394.264V98.5447H395.674V99.3816C396.103 98.798 396.709 98.4346 397.48 98.4346C398.658 98.4346 399.473 99.2054 399.473 100.626V104.425H397.953V101.143C397.953 100.274 397.612 99.789 396.918 99.789C396.312 99.789 395.795 100.274 395.795 101.22Z" fill="white"/>
<g clip-path="url(#clip1_3034_5898)">
<path d="M408.557 96.6383C408.557 97.3417 408.836 98.0163 409.333 98.5136C409.831 99.0109 410.505 99.2904 411.209 99.2904C411.912 99.2904 412.587 99.0109 413.084 98.5136C413.581 98.0163 413.861 97.3417 413.861 96.6383C413.861 95.935 413.581 95.2604 413.084 94.7631C412.587 94.2657 411.912 93.9863 411.209 93.9863C410.505 93.9863 409.831 94.2657 409.333 94.7631C408.836 95.2604 408.557 95.935 408.557 96.6383Z" stroke="white" stroke-width="1.32601" stroke-linecap="round" stroke-linejoin="round"/>
<path d="M407.23 105.92V104.594C407.23 103.891 407.51 103.216 408.007 102.719C408.505 102.222 409.179 101.942 409.882 101.942H412.534C413.238 101.942 413.912 102.222 414.41 102.719C414.907 103.216 415.187 103.891 415.187 104.594V105.92" stroke="white" stroke-width="1.32601" stroke-linecap="round" stroke-linejoin="round"/>
</g>
<rect x="208.328" y="31.001" width="19.9582" height="0.688212" transform="rotate(90 208.328 31.001)" fill="#F35423"/>
<rect x="208.328" y="58.5293" width="20.6464" height="0.688212" transform="rotate(90 208.328 58.5293)" fill="#F35423"/>
<rect x="202.824" y="79.1748" width="10.3232" height="0.688213" fill="#F35423"/>
<path d="M204.684 55.9292V56.2705H202.438V56.0503L203.627 54.7069C204.078 54.1949 204.243 53.9196 204.243 53.5617C204.243 53.1433 203.935 52.8349 203.5 52.8349C203.049 52.8349 202.729 53.1488 202.729 53.6113H202.355C202.355 52.9616 202.834 52.4936 203.517 52.4936C204.166 52.4936 204.645 52.9285 204.645 53.5287C204.645 53.9306 204.486 54.2334 203.913 54.8721L203.005 55.9292H204.684ZM207.654 55.3841H207.153V56.2705H206.773V55.3841H204.961V55.1253L206.883 52.5487H207.153V55.0482H207.654V55.3841ZM205.407 55.0482H206.773V53.1763L205.407 55.0482ZM212.116 54.817C212.116 55.7144 211.615 56.3256 210.844 56.3256C210.409 56.3256 210.04 56.0888 209.842 55.6759V57.3331H209.457V53.369H209.815V53.9967C210.013 53.5672 210.398 53.3139 210.844 53.3139C211.615 53.3139 212.116 53.9306 212.116 54.817ZM211.725 54.817C211.725 54.0847 211.345 53.6498 210.778 53.6498C210.239 53.6498 209.837 54.0792 209.837 54.817C209.837 55.5382 210.228 55.9897 210.778 55.9897C211.345 55.9897 211.725 55.5603 211.725 54.817ZM214.18 55.9016V56.243C214.032 56.3035 213.905 56.3256 213.762 56.3256C213.283 56.3256 212.914 56.0778 212.914 55.4502V53.6938H212.231V53.369H212.914V52.5101H213.299V53.369H214.208V53.6938H213.299V55.3676C213.299 55.819 213.52 55.9732 213.839 55.9732C213.96 55.9732 214.059 55.9512 214.18 55.9016Z" fill="black"/>
<rect x="208.328" y="119.78" width="19.9582" height="0.688212" transform="rotate(90 208.328 119.78)" fill="#F35423"/>
<rect x="208.328" y="147.309" width="21.3346" height="0.688212" transform="rotate(90 208.328 147.309)" fill="#F35423"/>
<rect x="202.824" y="119.78" width="10.3232" height="0.688213" fill="#F35423"/>
<path d="M204.684 144.708V145.05H202.438V144.83L203.627 143.486C204.078 142.974 204.243 142.699 204.243 142.341C204.243 141.923 203.935 141.614 203.5 141.614C203.049 141.614 202.729 141.928 202.729 142.391H202.355C202.355 141.741 202.834 141.273 203.517 141.273C204.166 141.273 204.645 141.708 204.645 142.308C204.645 142.71 204.486 143.013 203.913 143.651L203.005 144.708H204.684ZM207.654 144.163H207.153V145.05H206.773V144.163H204.961V143.905L206.883 141.328H207.153V143.828H207.654V144.163ZM205.407 143.828H206.773V141.956L205.407 143.828ZM212.116 143.596C212.116 144.494 211.615 145.105 210.844 145.105C210.409 145.105 210.04 144.868 209.842 144.455V146.112H209.457V142.148H209.815V142.776C210.013 142.347 210.398 142.093 210.844 142.093C211.615 142.093 212.116 142.71 212.116 143.596ZM211.725 143.596C211.725 142.864 211.345 142.429 210.778 142.429C210.239 142.429 209.837 142.859 209.837 143.596C209.837 144.318 210.228 144.769 210.778 144.769C211.345 144.769 211.725 144.34 211.725 143.596ZM214.18 144.681V145.022C214.032 145.083 213.905 145.105 213.762 145.105C213.283 145.105 212.914 144.857 212.914 144.229V142.473H212.231V142.148H212.914V141.289H213.299V142.148H214.208V142.473H213.299V144.147C213.299 144.598 213.52 144.752 213.839 144.752C213.96 144.752 214.059 144.73 214.18 144.681Z" fill="black"/>
<rect x="275.773" y="104.639" width="9.63498" height="0.688213" transform="rotate(-90 275.773 104.639)" fill="#F35423"/>
<rect x="348.703" y="104.639" width="9.63498" height="0.688213" transform="rotate(-90 348.703 104.639)" fill="#F35423"/>
<rect x="276.617" y="99.2891" width="28.5092" height="0.663004" fill="#F35423"/>
<rect x="319.049" y="99.2891" width="29.8352" height="0.663004" fill="#F35423"/>
<path d="M307.664 101.004H307.284V97.6124H306.552V97.2821H307.664V101.004ZM311.038 99.9854C311.038 100.63 310.499 101.053 309.734 101.053C308.963 101.053 308.429 100.63 308.429 99.9854C308.429 99.5008 308.759 99.1925 309.183 99.0659C308.847 98.9393 308.583 98.6254 308.583 98.2235C308.583 97.6289 309.084 97.227 309.734 97.227C310.383 97.227 310.879 97.6289 310.879 98.2235C310.879 98.6254 310.614 98.9393 310.284 99.0659C310.703 99.1925 311.038 99.5008 311.038 99.9854ZM308.979 98.2345C308.979 98.664 309.288 98.9228 309.734 98.9228C310.174 98.9228 310.488 98.664 310.488 98.2345C310.488 97.8051 310.174 97.5408 309.734 97.5408C309.288 97.5408 308.979 97.8051 308.979 98.2345ZM308.825 99.9743C308.825 100.453 309.205 100.74 309.734 100.74C310.257 100.74 310.642 100.453 310.642 99.9743C310.642 99.5008 310.257 99.2366 309.734 99.2366C309.205 99.2366 308.825 99.5008 308.825 99.9743ZM315.59 99.5504C315.59 100.448 315.089 101.059 314.318 101.059C313.884 101.059 313.515 100.822 313.316 100.409V102.067H312.931V98.1024H313.289V98.7301C313.487 98.3006 313.873 98.0473 314.318 98.0473C315.089 98.0473 315.59 98.664 315.59 99.5504ZM315.199 99.5504C315.199 98.8181 314.82 98.3832 314.252 98.3832C313.713 98.3832 313.311 98.8126 313.311 99.5504C313.311 100.272 313.702 100.723 314.252 100.723C314.82 100.723 315.199 100.294 315.199 99.5504ZM317.654 100.635V100.976C317.506 101.037 317.379 101.059 317.236 101.059C316.757 101.059 316.388 100.811 316.388 100.184V98.4272H315.705V98.1024H316.388V97.2435H316.774V98.1024H317.682V98.4272H316.774V100.101C316.774 100.552 316.994 100.707 317.313 100.707C317.434 100.707 317.533 100.685 317.654 100.635Z" fill="black"/>
<rect x="139.508" y="104.639" width="9.63498" height="0.688213" transform="rotate(-90 139.508 104.639)" fill="#F35423"/>
<rect x="98.2129" y="99.1338" width="41.981" height="0.688214" fill="#F35423"/>
<path d="M86.6137 100.117H86.1127V101.004H85.7328V100.117H83.9214V99.8587L85.8429 97.2821H86.1127V99.7816H86.6137V100.117ZM84.3673 99.7816H85.7328V97.9097L84.3673 99.7816ZM89.7611 99.9854C89.7611 100.63 89.2215 101.053 88.4562 101.053C87.6854 101.053 87.1514 100.63 87.1514 99.9854C87.1514 99.5008 87.4817 99.1925 87.9057 99.0659C87.5698 98.9393 87.3055 98.6254 87.3055 98.2235C87.3055 97.6289 87.8066 97.227 88.4562 97.227C89.1059 97.227 89.6014 97.6289 89.6014 98.2235C89.6014 98.6254 89.3371 98.9393 89.0068 99.0659C89.4252 99.1925 89.7611 99.5008 89.7611 99.9854ZM87.702 98.2345C87.702 98.664 88.0103 98.9228 88.4562 98.9228C88.8967 98.9228 89.2105 98.664 89.2105 98.2345C89.2105 97.8051 88.8967 97.5408 88.4562 97.5408C88.0103 97.5408 87.702 97.8051 87.702 98.2345ZM87.5478 99.9743C87.5478 100.453 87.9277 100.74 88.4562 100.74C88.9793 100.74 89.3647 100.453 89.3647 99.9743C89.3647 99.5008 88.9793 99.2366 88.4562 99.2366C87.9277 99.2366 87.5478 99.5008 87.5478 99.9743ZM94.313 99.5504C94.313 100.448 93.8119 101.059 93.0412 101.059C92.6062 101.059 92.2373 100.822 92.0391 100.409V102.067H91.6537V98.1024H92.0116V98.7301C92.2098 98.3006 92.5952 98.0473 93.0412 98.0473C93.8119 98.0473 94.313 98.664 94.313 99.5504ZM93.9221 99.5504C93.9221 98.8181 93.5422 98.3832 92.9751 98.3832C92.4355 98.3832 92.0336 98.8126 92.0336 99.5504C92.0336 100.272 92.4245 100.723 92.9751 100.723C93.5422 100.723 93.9221 100.294 93.9221 99.5504ZM96.3771 100.635V100.976C96.2285 101.037 96.1018 101.059 95.9587 101.059C95.4797 101.059 95.1108 100.811 95.1108 100.184V98.4272H94.4281V98.1024H95.1108V97.2435H95.4962V98.1024H96.4047V98.4272H95.4962V100.101C95.4962 100.552 95.7164 100.707 96.0358 100.707C96.1569 100.707 96.256 100.685 96.3771 100.635Z" fill="black"/>
</g>
<defs>
<clipPath id="clip0_3034_5898">
<rect width="351" height="138" fill="white" transform="translate(87 31)"/>
</clipPath>
<clipPath id="clip1_3034_5898">
<rect width="15.9121" height="15.9121" fill="white" transform="translate(403.254 91.9971)"/>
</clipPath>
</defs>
</svg>
