<svg width="526" height="200" viewBox="0 0 526 200" fill="none" xmlns="http://www.w3.org/2000/svg">
<g clip-path="url(#clip0_1799_266)">
<rect width="526" height="200" fill="white"/>
<rect x="-8" width="46" height="200" fill="#FFF1ED"/>
<rect x="54" width="46" height="200" fill="#FFF1ED"/>
<rect x="116" width="46" height="200" fill="#FFF1ED"/>
<rect x="178" width="46" height="200" fill="#FFF1ED"/>
<rect x="240" width="46" height="200" fill="#FFF1ED"/>
<rect x="302" width="46" height="200" fill="#FFF1ED"/>
<rect x="364" width="46" height="200" fill="#FFF1ED"/>
<rect x="426" width="46" height="200" fill="#FFF1ED"/>
<rect x="488" width="46" height="200" fill="#FFF1ED"/>
<rect x="165" y="72" width="195.289" height="56.1456" rx="28.0728" fill="#F35423"/>
<path d="M215 102.432C215 104.624 213.24 106.16 210.36 106.16C207.464 106.16 205.656 104.608 205.48 102.176H207.944C208.008 103.44 208.824 104.256 210.312 104.256C211.544 104.256 212.424 103.712 212.424 102.784C212.424 102.064 211.864 101.632 210.888 101.44L209 101.072C207.256 100.736 205.912 99.792 205.912 97.888C205.912 95.84 207.72 94.368 210.2 94.368C212.776 94.368 214.664 95.872 214.824 98.272H212.36C212.28 97.072 211.448 96.256 210.232 96.256C209.048 96.256 208.376 96.928 208.376 97.728C208.376 98.512 209.096 98.848 209.928 99.008L211.896 99.408C213.912 99.808 215 100.736 215 102.432ZM221.723 102.4V97.456H223.931V106H221.899V104.88C221.435 105.632 220.491 106.16 219.403 106.16C217.691 106.16 216.443 105.12 216.443 102.896V97.456H218.667V102.464C218.667 103.664 219.259 104.192 220.155 104.192C220.955 104.192 221.723 103.552 221.723 102.4ZM234.458 101.728C234.458 104.224 232.97 106.16 230.666 106.16C229.562 106.16 228.634 105.664 227.978 104.768V106H225.93V94.512H228.154V98.56C228.778 97.728 229.641 97.296 230.666 97.296C232.97 97.296 234.458 99.2 234.458 101.728ZM232.17 101.728C232.17 100.096 231.258 99.264 230.17 99.264C229.098 99.264 228.17 100.08 228.17 101.696C228.17 103.312 229.066 104.176 230.17 104.176C231.258 104.176 232.17 103.328 232.17 101.728ZM243.099 103.264C243.099 105.056 241.739 106.16 239.307 106.16C236.875 106.16 235.515 104.992 235.339 103.088H237.467C237.483 103.968 238.235 104.528 239.339 104.528C240.203 104.528 240.859 104.256 240.859 103.648C240.859 103.104 240.507 102.88 239.691 102.72L238.155 102.432C236.619 102.16 235.691 101.312 235.691 99.984C235.691 98.4 237.051 97.296 239.179 97.296C241.323 97.296 242.795 98.432 242.955 100.272H240.827C240.747 99.44 240.123 98.928 239.179 98.928C238.363 98.928 237.819 99.232 237.819 99.776C237.819 100.288 238.171 100.496 238.939 100.64L240.587 100.944C242.251 101.264 243.099 102.032 243.099 103.264ZM248.217 106.16C245.753 106.16 244.057 104.336 244.057 101.728C244.057 99.168 245.817 97.296 248.217 97.296C250.441 97.296 252.089 98.8 252.361 101.104H250.025C249.913 99.968 249.225 99.264 248.217 99.264C247.065 99.264 246.329 100.208 246.329 101.728C246.329 103.264 247.049 104.192 248.217 104.192C249.241 104.192 249.897 103.52 250.025 102.352H252.361C252.105 104.704 250.505 106.16 248.217 106.16ZM256.013 101.856V106H253.789V97.456H255.837V99.104C256.461 98.016 257.789 97.36 259.165 97.36V99.664C257.277 99.52 256.013 99.968 256.013 101.856ZM262.896 95.472C262.896 96.224 262.288 96.784 261.408 96.784C260.544 96.784 259.936 96.224 259.936 95.472C259.936 94.688 260.544 94.128 261.408 94.128C262.288 94.128 262.896 94.688 262.896 95.472ZM262.544 106H260.32V97.456H262.544V106ZM273.051 101.728C273.051 104.224 271.563 106.16 269.259 106.16C268.155 106.16 267.227 105.664 266.571 104.768V106H264.523V94.512H266.747V98.56C267.371 97.728 268.235 97.296 269.259 97.296C271.563 97.296 273.051 99.2 273.051 101.728ZM270.763 101.728C270.763 100.096 269.851 99.264 268.763 99.264C267.691 99.264 266.763 100.08 266.763 101.696C266.763 103.312 267.659 104.176 268.763 104.176C269.851 104.176 270.763 103.328 270.763 101.728ZM278.188 106.144C275.628 106.144 273.916 104.368 273.916 101.696C273.916 99.152 275.692 97.296 278.156 97.296C280.86 97.296 282.652 99.488 282.252 102.272H276.188C276.332 103.664 277.004 104.432 278.14 104.432C279.116 104.432 279.772 103.952 280.028 103.104H282.236C281.756 105.04 280.268 106.144 278.188 106.144ZM278.108 98.928C277.068 98.928 276.412 99.6 276.22 100.864H279.9C279.836 99.68 279.164 98.928 278.108 98.928ZM294.766 106L289.502 97.984V106H287.278V94.512H289.902L294.91 102.128V94.512H297.15V106H294.766ZM303.096 106.16C300.616 106.16 298.76 104.208 298.76 101.728C298.76 99.232 300.616 97.296 303.096 97.296C305.576 97.296 307.432 99.232 307.432 101.728C307.432 104.208 305.576 106.16 303.096 106.16ZM303.096 104.192C304.2 104.192 305.144 103.312 305.144 101.728C305.144 100.144 304.2 99.28 303.096 99.28C301.992 99.28 301.048 100.144 301.048 101.728C301.048 103.312 301.992 104.192 303.096 104.192ZM315.641 106L314.025 100.448L312.425 106H310.201L307.769 97.456H309.929L311.385 102.864L312.953 97.456H315.145L316.665 102.864L318.105 97.456H320.297L317.849 106H315.641Z" fill="white"/>
<rect x="263" width="29" height="0.999999" transform="rotate(90 263 0)" fill="#F35423"/>
<rect x="263" y="40" width="30" height="0.999999" transform="rotate(90 263 40)" fill="#F35423"/>
<rect x="255" y="70" width="15" height="1" fill="#F35423"/>
<path d="M257.704 36.504V37H254.44V36.68L256.168 34.728C256.824 33.984 257.064 33.584 257.064 33.064C257.064 32.456 256.616 32.008 255.984 32.008C255.328 32.008 254.864 32.464 254.864 33.136H254.32C254.32 32.192 255.016 31.512 256.008 31.512C256.952 31.512 257.648 32.144 257.648 33.016C257.648 33.6 257.416 34.04 256.584 34.968L255.264 36.504H257.704ZM262.019 35.712H261.291V37H260.739V35.712H258.107V35.336L260.899 31.592H261.291V35.224H262.019V35.712ZM258.755 35.224H260.739V32.504L258.755 35.224ZM268.503 34.888C268.503 36.192 267.775 37.08 266.655 37.08C266.023 37.08 265.487 36.736 265.199 36.136V38.544H264.639V32.784H265.159V33.696C265.447 33.072 266.007 32.704 266.655 32.704C267.775 32.704 268.503 33.6 268.503 34.888ZM267.935 34.888C267.935 33.824 267.383 33.192 266.559 33.192C265.775 33.192 265.191 33.816 265.191 34.888C265.191 35.936 265.759 36.592 266.559 36.592C267.383 36.592 267.935 35.968 267.935 34.888ZM271.503 36.464V36.96C271.287 37.048 271.103 37.08 270.895 37.08C270.199 37.08 269.663 36.72 269.663 35.808V33.256H268.671V32.784H269.663V31.536H270.223V32.784H271.543V33.256H270.223V35.688C270.223 36.344 270.543 36.568 271.007 36.568C271.183 36.568 271.327 36.536 271.503 36.464Z" fill="black"/>
<rect x="263" y="129" width="29" height="0.999999" transform="rotate(90 263 129)" fill="#F35423"/>
<rect x="263" y="169" width="31" height="0.999999" transform="rotate(90 263 169)" fill="#F35423"/>
<rect x="255" y="129" width="15" height="1" fill="#F35423"/>
<path d="M257.704 165.504V166H254.44V165.68L256.168 163.728C256.824 162.984 257.064 162.584 257.064 162.064C257.064 161.456 256.616 161.008 255.984 161.008C255.328 161.008 254.864 161.464 254.864 162.136H254.32C254.32 161.192 255.016 160.512 256.008 160.512C256.952 160.512 257.648 161.144 257.648 162.016C257.648 162.6 257.416 163.04 256.584 163.968L255.264 165.504H257.704ZM262.019 164.712H261.291V166H260.739V164.712H258.107V164.336L260.899 160.592H261.291V164.224H262.019V164.712ZM258.755 164.224H260.739V161.504L258.755 164.224ZM268.503 163.888C268.503 165.192 267.775 166.08 266.655 166.08C266.023 166.08 265.487 165.736 265.199 165.136V167.544H264.639V161.784H265.159V162.696C265.447 162.072 266.007 161.704 266.655 161.704C267.775 161.704 268.503 162.6 268.503 163.888ZM267.935 163.888C267.935 162.824 267.383 162.192 266.559 162.192C265.775 162.192 265.191 162.816 265.191 163.888C265.191 164.936 265.759 165.592 266.559 165.592C267.383 165.592 267.935 164.968 267.935 163.888ZM271.503 165.464V165.96C271.287 166.048 271.103 166.08 270.895 166.08C270.199 166.08 269.663 165.72 269.663 164.808V162.256H268.671V161.784H269.663V160.536H270.223V161.784H271.543V162.256H270.223V164.688C270.223 165.344 270.543 165.568 271.007 165.568C271.183 165.568 271.327 165.536 271.503 165.464Z" fill="black"/>
<rect x="361" y="107" width="14" height="1" transform="rotate(-90 361 107)" fill="#F35423"/>
<rect x="362" y="99" width="80" height="1" fill="#F35423"/>
<rect x="465" y="99" width="61" height="1" fill="#F35423"/>
<path d="M448.144 100.712H447.416V102H446.864V100.712H444.232V100.336L447.024 96.592H447.416V100.224H448.144V100.712ZM444.88 100.224H446.864V97.504L444.88 100.224ZM452.717 100.52C452.717 101.456 451.933 102.072 450.821 102.072C449.701 102.072 448.925 101.456 448.925 100.52C448.925 99.816 449.405 99.368 450.021 99.184C449.533 99 449.149 98.544 449.149 97.96C449.149 97.096 449.877 96.512 450.821 96.512C451.765 96.512 452.485 97.096 452.485 97.96C452.485 98.544 452.101 99 451.621 99.184C452.229 99.368 452.717 99.816 452.717 100.52ZM449.725 97.976C449.725 98.6 450.173 98.976 450.821 98.976C451.461 98.976 451.917 98.6 451.917 97.976C451.917 97.352 451.461 96.968 450.821 96.968C450.173 96.968 449.725 97.352 449.725 97.976ZM449.501 100.504C449.501 101.2 450.053 101.616 450.821 101.616C451.581 101.616 452.141 101.2 452.141 100.504C452.141 99.816 451.581 99.432 450.821 99.432C450.053 99.432 449.501 99.816 449.501 100.504ZM459.331 99.888C459.331 101.192 458.603 102.08 457.483 102.08C456.851 102.08 456.315 101.736 456.027 101.136V103.544H455.467V97.784H455.987V98.696C456.275 98.072 456.835 97.704 457.483 97.704C458.603 97.704 459.331 98.6 459.331 99.888ZM458.763 99.888C458.763 98.824 458.211 98.192 457.387 98.192C456.603 98.192 456.019 98.816 456.019 99.888C456.019 100.936 456.587 101.592 457.387 101.592C458.211 101.592 458.763 100.968 458.763 99.888ZM462.331 101.464V101.96C462.115 102.048 461.931 102.08 461.723 102.08C461.027 102.08 460.491 101.72 460.491 100.808V98.256H459.499V97.784H460.491V96.536H461.051V97.784H462.371V98.256H461.051V100.688C461.051 101.344 461.371 101.568 461.835 101.568C462.011 101.568 462.155 101.536 462.331 101.464Z" fill="black"/>
<rect x="163" y="107" width="14" height="1" transform="rotate(-90 163 107)" fill="#F35423"/>
<rect y="99" width="80" height="1" fill="#F35423"/>
<rect x="103" y="99" width="61" height="1" fill="#F35423"/>
<path d="M86.144 100.712H85.416V102H84.864V100.712H82.232V100.336L85.024 96.592H85.416V100.224H86.144V100.712ZM82.88 100.224H84.864V97.504L82.88 100.224ZM90.7173 100.52C90.7173 101.456 89.9333 102.072 88.8213 102.072C87.7013 102.072 86.9253 101.456 86.9253 100.52C86.9253 99.816 87.4053 99.368 88.0213 99.184C87.5333 99 87.1493 98.544 87.1493 97.96C87.1493 97.096 87.8773 96.512 88.8213 96.512C89.7653 96.512 90.4853 97.096 90.4853 97.96C90.4853 98.544 90.1013 99 89.6213 99.184C90.2293 99.368 90.7173 99.816 90.7173 100.52ZM87.7253 97.976C87.7253 98.6 88.1733 98.976 88.8213 98.976C89.4613 98.976 89.9173 98.6 89.9173 97.976C89.9173 97.352 89.4613 96.968 88.8213 96.968C88.1733 96.968 87.7253 97.352 87.7253 97.976ZM87.5013 100.504C87.5013 101.2 88.0533 101.616 88.8213 101.616C89.5813 101.616 90.1413 101.2 90.1413 100.504C90.1413 99.816 89.5813 99.432 88.8213 99.432C88.0533 99.432 87.5013 99.816 87.5013 100.504ZM97.3314 99.888C97.3314 101.192 96.6034 102.08 95.4834 102.08C94.8514 102.08 94.3154 101.736 94.0274 101.136V103.544H93.4674V97.784H93.9874V98.696C94.2754 98.072 94.8354 97.704 95.4834 97.704C96.6034 97.704 97.3314 98.6 97.3314 99.888ZM96.7634 99.888C96.7634 98.824 96.2114 98.192 95.3874 98.192C94.6034 98.192 94.0194 98.816 94.0194 99.888C94.0194 100.936 94.5874 101.592 95.3874 101.592C96.2114 101.592 96.7634 100.968 96.7634 99.888ZM100.331 101.464V101.96C100.115 102.048 99.9307 102.08 99.7227 102.08C99.0267 102.08 98.4907 101.72 98.4907 100.808V98.256H97.4987V97.784H98.4907V96.536H99.0507V97.784H100.371V98.256H99.0507V100.688C99.0507 101.344 99.3707 101.568 99.8347 101.568C100.011 101.568 100.155 101.536 100.331 101.464Z" fill="black"/>
</g>
<defs>
<clipPath id="clip0_1799_266">
<rect width="526" height="200" fill="white"/>
</clipPath>
</defs>
</svg>
