<svg width="526" height="200" viewBox="0 0 526 200" fill="none" xmlns="http://www.w3.org/2000/svg">
<rect width="526" height="200" fill="white"/>
<rect x="35.5703" y="6.10449" width="435.84" height="58.1316" rx="13.2096" fill="#FFF1ED"/>
<path d="M55.5916 41.257C54.7082 41.257 53.9557 41.0165 53.3341 40.5357C52.7126 40.051 52.2376 39.3493 51.9093 38.4307C51.5809 37.5081 51.4167 36.3941 51.4167 35.0884C51.4167 33.7906 51.5809 32.6824 51.9093 31.7637C52.2415 30.8412 52.7185 30.1376 53.34 29.6528C53.9655 29.1642 54.716 28.9199 55.5916 28.9199C56.4673 28.9199 57.2159 29.1642 57.8374 29.6528C58.4629 30.1376 58.9398 30.8412 59.2681 31.7637C59.6004 32.6824 59.7665 33.7906 59.7665 35.0884C59.7665 36.3941 59.6024 37.5081 59.274 38.4307C58.9456 39.3493 58.4707 40.051 57.8491 40.5357C57.2276 41.0165 56.4751 41.257 55.5916 41.257ZM55.5916 39.967C56.4673 39.967 57.1474 39.5448 57.6322 38.7004C58.1169 37.8561 58.3593 36.6521 58.3593 35.0884C58.3593 34.0486 58.2479 33.1632 58.025 32.4322C57.8061 31.7012 57.4895 31.1442 57.0751 30.7611C56.6647 30.378 56.1702 30.1864 55.5916 30.1864C54.7238 30.1864 54.0456 30.6145 53.557 31.4706C53.0683 32.3227 52.824 33.5287 52.824 35.0884C52.824 36.1282 52.9335 37.0117 53.1524 37.7388C53.3713 38.4659 53.686 39.019 54.0964 39.3982C54.5108 39.7774 55.0092 39.967 55.5916 39.967ZM65.9116 41.257C65.0282 41.257 64.2757 41.0165 63.6541 40.5357C63.0326 40.051 62.5576 39.3493 62.2293 38.4307C61.9009 37.5081 61.7367 36.3941 61.7367 35.0884C61.7367 33.7906 61.9009 32.6824 62.2293 31.7637C62.5615 30.8412 63.0384 30.1376 63.66 29.6528C64.2854 29.1642 65.036 28.9199 65.9116 28.9199C66.7872 28.9199 67.5358 29.1642 68.1574 29.6528C68.7828 30.1376 69.2597 30.8412 69.5881 31.7637C69.9204 32.6824 70.0865 33.7906 70.0865 35.0884C70.0865 36.3941 69.9223 37.5081 69.594 38.4307C69.2656 39.3493 68.7907 40.051 68.1691 40.5357C67.5476 41.0165 66.7951 41.257 65.9116 41.257ZM65.9116 39.967C66.7872 39.967 67.4674 39.5448 67.9522 38.7004C68.4369 37.8561 68.6792 36.6521 68.6792 35.0884C68.6792 34.0486 68.5678 33.1632 68.345 32.4322C68.1261 31.7012 67.8095 31.1442 67.3951 30.7611C66.9847 30.378 66.4902 30.1864 65.9116 30.1864C65.0438 30.1864 64.3656 30.6145 63.8769 31.4706C63.3883 32.3227 63.144 33.5287 63.144 35.0884C63.144 36.1282 63.2534 37.0117 63.4723 37.7388C63.6913 38.4659 64.0059 39.019 64.4164 39.3982C64.8308 39.7774 65.3292 39.967 65.9116 39.967ZM73.3467 39.5565C73.0574 39.5565 72.8092 39.4529 72.602 39.2457C72.3948 39.0385 72.2912 38.7903 72.2912 38.5011C72.2912 38.2118 72.3948 37.9636 72.602 37.7564C72.8092 37.5492 73.0574 37.4456 73.3467 37.4456C73.636 37.4456 73.8842 37.5492 74.0914 37.7564C74.2986 37.9636 74.4021 38.2118 74.4021 38.5011C74.4021 38.6926 74.3533 38.8685 74.2556 39.0288C74.1617 39.189 74.0347 39.318 73.8744 39.4158C73.7181 39.5096 73.5421 39.5565 73.3467 39.5565ZM73.3467 33.4818C73.0574 33.4818 72.8092 33.3782 72.602 33.171C72.3948 32.9638 72.2912 32.7156 72.2912 32.4263C72.2912 32.1371 72.3948 31.8888 72.602 31.6817C72.8092 31.4745 73.0574 31.3709 73.3467 31.3709C73.636 31.3709 73.8842 31.4745 74.0914 31.6817C74.2986 31.8888 74.4021 32.1371 74.4021 32.4263C74.4021 32.6179 74.3533 32.7938 74.2556 32.9541C74.1617 33.1143 74.0347 33.2433 73.8744 33.3411C73.7181 33.4349 73.5421 33.4818 73.3467 33.4818ZM80.9547 41.257C80.1495 41.257 79.4302 41.1182 78.7969 40.8406C78.1676 40.5631 77.6692 40.178 77.3017 39.6855C76.9382 39.189 76.7427 38.6144 76.7153 37.9616H78.5565C78.58 38.3173 78.6992 38.6261 78.9142 38.888C79.1331 39.146 79.4185 39.3454 79.7703 39.4861C80.1221 39.6269 80.513 39.6972 80.943 39.6972C81.416 39.6972 81.8343 39.6151 82.1978 39.451C82.5653 39.2868 82.8526 39.0581 83.0598 38.7649C83.267 38.4678 83.3706 38.1258 83.3706 37.7388C83.3706 37.3361 83.267 36.9824 83.0598 36.6775C82.8565 36.3686 82.5575 36.1263 82.1627 35.9504C81.7717 35.7745 81.2987 35.6865 80.7437 35.6865H79.7292V34.2089H80.7437C81.1893 34.2089 81.5802 34.1287 81.9164 33.9685C82.2565 33.8082 82.5223 33.5854 82.7138 33.3C82.9054 33.0107 83.0012 32.6726 83.0012 32.2856C83.0012 31.9142 82.9171 31.5917 82.749 31.3181C82.5848 31.0406 82.3503 30.8236 82.0454 30.6672C81.7444 30.5109 81.3887 30.4327 80.9782 30.4327C80.5873 30.4327 80.2218 30.505 79.8817 30.6497C79.5455 30.7904 79.2719 30.9937 79.0608 31.2595C78.8497 31.5214 78.7363 31.8361 78.7207 32.2035H76.9675C76.987 31.5546 77.1786 30.9839 77.5421 30.4913C77.9096 29.9988 78.3943 29.6137 78.9963 29.3362C79.5983 29.0587 80.2667 28.9199 81.0017 28.9199C81.7717 28.9199 82.4363 29.0704 82.9953 29.3714C83.5582 29.6685 83.9921 30.0652 84.297 30.5617C84.6058 31.0582 84.7583 31.6015 84.7544 32.1918C84.7583 32.8642 84.5706 33.4349 84.1915 33.904C83.8162 34.3731 83.3158 34.6877 82.6904 34.848V34.9418C83.4878 35.063 84.1055 35.3796 84.5433 35.8917C84.985 36.4038 85.2039 37.0391 85.2 37.7974C85.2039 38.4581 85.0202 39.0503 84.6488 39.5741C84.2814 40.0979 83.7791 40.5103 83.1419 40.8113C82.5047 41.1084 81.7757 41.257 80.9547 41.257ZM87.1643 38.7473V37.2814L92.3536 29.0841H93.5088V31.2419H92.7758L89.0641 37.1172V37.2111H96.1767V38.7473H87.1643ZM92.8579 41.0928V38.3017L92.8696 37.6332V29.0841H94.5877V41.0928H92.8579ZM99.3988 39.6034C99.0782 39.6034 98.8026 39.49 98.572 39.2633C98.3414 39.0327 98.2261 38.7551 98.2261 38.4307C98.2261 38.1101 98.3414 37.8365 98.572 37.6098C98.8026 37.3791 99.0782 37.2638 99.3988 37.2638C99.7193 37.2638 99.9949 37.3791 100.226 37.6098C100.456 37.8365 100.572 38.1101 100.572 38.4307C100.572 38.6457 100.517 38.8431 100.407 39.0229C100.302 39.1988 100.161 39.3395 99.9851 39.4451C99.8092 39.5506 99.6138 39.6034 99.3988 39.6034ZM99.3988 33.5873C99.0782 33.5873 98.8026 33.474 98.572 33.2472C98.3414 33.0166 98.2261 32.7391 98.2261 32.4146C98.2261 32.0941 98.3414 31.8204 98.572 31.5937C98.8026 31.3631 99.0782 31.2477 99.3988 31.2477C99.7193 31.2477 99.9949 31.3631 100.226 31.5937C100.456 31.8204 100.572 32.0941 100.572 32.4146C100.572 32.6296 100.517 32.827 100.407 33.0068C100.302 33.1827 100.161 33.3235 99.9851 33.429C99.8092 33.5346 99.6138 33.5873 99.3988 33.5873ZM106.86 41.257C106.125 41.257 105.465 41.1162 104.878 40.8348C104.296 40.5494 103.831 40.1585 103.483 39.662C103.135 39.1656 102.949 38.5988 102.926 37.9616H104.685C104.728 38.4776 104.957 38.9017 105.371 39.234C105.785 39.5663 106.282 39.7324 106.86 39.7324C107.322 39.7324 107.73 39.6269 108.086 39.4158C108.445 39.2008 108.727 38.9056 108.93 38.5304C109.137 38.1551 109.241 37.7271 109.241 37.2462C109.241 36.7576 109.135 36.3217 108.924 35.9386C108.713 35.5556 108.422 35.2546 108.051 35.0356C107.683 34.8167 107.261 34.7053 106.784 34.7014C106.42 34.7014 106.055 34.764 105.688 34.8891C105.32 35.0141 105.023 35.1783 104.796 35.3816L103.137 35.1353L103.811 29.0841H110.414V30.6379H105.318L104.937 33.9978H105.007C105.242 33.7711 105.553 33.5815 105.94 33.429C106.331 33.2766 106.749 33.2003 107.194 33.2003C107.925 33.2003 108.576 33.3743 109.147 33.7222C109.722 34.0701 110.173 34.5451 110.502 35.1471C110.834 35.7451 110.998 36.4331 110.994 37.2111C110.998 37.989 110.822 38.6828 110.466 39.2926C110.115 39.9025 109.626 40.3833 109 40.7351C108.379 41.083 107.666 41.257 106.86 41.257ZM117.193 41.257C116.353 41.257 115.61 41.1123 114.965 40.823C114.324 40.5338 113.822 40.135 113.458 39.6269C113.095 39.1187 112.915 38.5401 112.919 37.8912C112.915 37.3831 113.019 36.9159 113.23 36.4898C113.445 36.0598 113.736 35.7021 114.103 35.4168C114.471 35.1275 114.881 34.9438 115.335 34.8656V34.7952C114.737 34.6506 114.258 34.3301 113.898 33.8336C113.538 33.3372 113.361 32.7664 113.364 32.1214C113.361 31.5077 113.523 30.9604 113.851 30.4796C114.183 29.9949 114.639 29.6137 115.217 29.3362C115.796 29.0587 116.455 28.9199 117.193 28.9199C117.924 28.9199 118.577 29.0606 119.152 29.3421C119.73 29.6196 120.186 30.0007 120.518 30.4855C120.85 30.9663 121.018 31.5116 121.022 32.1214C121.018 32.7664 120.835 33.3372 120.471 33.8336C120.108 34.3301 119.635 34.6506 119.052 34.7952V34.8656C119.502 34.9438 119.906 35.1275 120.266 35.4168C120.63 35.7021 120.919 36.0598 121.134 36.4898C121.353 36.9159 121.464 37.3831 121.468 37.8912C121.464 38.5401 121.28 39.1187 120.917 39.6269C120.553 40.135 120.049 40.5338 119.404 40.823C118.763 41.1123 118.026 41.257 117.193 41.257ZM117.193 39.7735C117.69 39.7735 118.12 39.6914 118.483 39.5272C118.847 39.3591 119.128 39.1265 119.328 38.8294C119.527 38.5284 119.629 38.1766 119.633 37.774C119.629 37.3557 119.519 36.9863 119.304 36.6657C119.093 36.3452 118.806 36.0931 118.442 35.9093C118.079 35.7256 117.663 35.6337 117.193 35.6337C116.72 35.6337 116.3 35.7256 115.933 35.9093C115.565 36.0931 115.276 36.3452 115.065 36.6657C114.854 36.9863 114.75 37.3557 114.754 37.774C114.75 38.1766 114.846 38.5284 115.041 38.8294C115.241 39.1265 115.524 39.3591 115.892 39.5272C116.259 39.6914 116.693 39.7735 117.193 39.7735ZM117.193 34.1854C117.592 34.1854 117.946 34.1053 118.255 33.945C118.564 33.7847 118.806 33.5619 118.982 33.2766C119.162 32.9912 119.254 32.657 119.257 32.2739C119.254 31.8986 119.164 31.5702 118.988 31.2888C118.816 31.0073 118.575 30.7904 118.266 30.6379C117.958 30.4816 117.6 30.4034 117.193 30.4034C116.779 30.4034 116.416 30.4816 116.103 30.6379C115.794 30.7904 115.554 31.0073 115.382 31.2888C115.21 31.5702 115.126 31.8986 115.129 32.2739C115.126 32.657 115.212 32.9912 115.387 33.2766C115.563 33.5619 115.806 33.7847 116.115 33.945C116.427 34.1053 116.787 34.1854 117.193 34.1854ZM123.973 41.0928L129.215 30.7259V30.6379H123.152V29.0841H131.092V30.6907L125.867 41.0928H123.973Z" fill="black"/>
<path d="M185.271 28.4541L185.271 39.8945L175.363 34.1748L185.271 28.4541Z" stroke="black" stroke-width="2.4768"/>
<rect x="170.408" y="25.9209" width="2.4768" height="15.6864" rx="1.2384" fill="#111111"/>
<path d="M245.955 33.4594C246.505 33.7771 246.505 34.5716 245.955 34.8893L234.809 41.3243C234.259 41.642 233.571 41.2448 233.571 40.6093L233.571 27.7395C233.571 27.1039 234.259 26.7067 234.809 27.0245L245.955 33.4594Z" fill="#111111"/>
<path d="M290.95 39.8955L290.95 28.4551L300.857 34.1748L290.95 39.8955Z" stroke="black" stroke-width="2.4768"/>
<rect x="305.812" y="42.4287" width="2.4768" height="15.6864" rx="1.2384" transform="rotate(180 305.812 42.4287)" fill="#111111"/>
<circle cx="352.874" cy="34.1743" r="4.95359" fill="#F35423"/>
<circle cx="352.871" cy="34.1744" r="8.25599" stroke="#F35423" stroke-width="1.6512"/>
<path d="M375.824 31.8702C375.775 31.4543 375.575 31.1314 375.225 30.9016C374.874 30.6717 374.445 30.5568 373.936 30.5568C373.564 30.5568 373.238 30.617 372.959 30.7374C372.683 30.8578 372.466 31.0233 372.311 31.234C372.157 31.4447 372.081 31.6842 372.081 31.9523C372.081 32.1767 372.134 32.3696 372.241 32.5311C372.35 32.6898 372.49 32.8225 372.659 32.9292C372.829 33.0332 373.007 33.1194 373.193 33.1878C373.379 33.2535 373.55 33.3068 373.706 33.3479L374.56 33.5777C374.779 33.6352 375.022 33.7145 375.29 33.8158C375.561 33.917 375.82 34.0552 376.066 34.2303C376.315 34.4027 376.52 34.6244 376.682 34.8953C376.843 35.1662 376.924 35.4986 376.924 35.8927C376.924 36.3469 376.805 36.7574 376.567 37.124C376.332 37.4907 375.987 37.7821 375.533 37.9983C375.081 38.2145 374.532 38.3226 373.887 38.3226C373.285 38.3226 372.763 38.2254 372.323 38.0311C371.885 37.8369 371.54 37.566 371.288 37.2184C371.039 36.8709 370.899 36.4673 370.866 36.0076H371.916C371.944 36.325 372.051 36.5877 372.237 36.7957C372.425 37.0009 372.663 37.1541 372.951 37.2554C373.241 37.3539 373.553 37.4032 373.887 37.4032C374.275 37.4032 374.624 37.3402 374.933 37.2143C375.243 37.0857 375.487 36.9079 375.668 36.6808C375.849 36.4509 375.939 36.1827 375.939 35.8763C375.939 35.5972 375.861 35.37 375.705 35.1949C375.549 35.0198 375.344 34.8775 375.089 34.768C374.835 34.6586 374.56 34.5628 374.264 34.4807L373.23 34.1852C372.573 33.9964 372.053 33.7269 371.67 33.3766C371.287 33.0263 371.096 32.568 371.096 32.0016C371.096 31.5309 371.223 31.1205 371.477 30.7702C371.735 30.4172 372.079 30.1436 372.512 29.9493C372.947 29.7523 373.432 29.6538 373.969 29.6538C374.511 29.6538 374.992 29.7509 375.414 29.9452C375.835 30.1368 376.169 30.3994 376.415 30.7333C376.664 31.0671 376.795 31.4461 376.809 31.8702H375.824ZM381.208 31.8702V32.6911H377.941V31.8702H381.208ZM378.893 30.3598H379.862V36.3688C379.862 36.6424 379.902 36.8477 379.981 36.9845C380.063 37.1186 380.167 37.2089 380.293 37.2554C380.421 37.2992 380.557 37.3211 380.699 37.3211C380.806 37.3211 380.893 37.3156 380.962 37.3046C381.03 37.291 381.085 37.28 381.126 37.2718L381.323 38.142C381.257 38.1666 381.166 38.1912 381.048 38.2159C380.93 38.2432 380.781 38.2569 380.601 38.2569C380.327 38.2569 380.059 38.1981 379.796 38.0804C379.536 37.9627 379.32 37.7835 379.148 37.5427C378.978 37.3019 378.893 36.9982 378.893 36.6315V30.3598ZM384.52 38.3226C384.121 38.3226 383.758 38.2473 383.433 38.0968C383.107 37.9436 382.849 37.7233 382.657 37.436C382.465 37.1459 382.37 36.7957 382.37 36.3852C382.37 36.024 382.441 35.7312 382.583 35.5069C382.725 35.2797 382.916 35.1019 383.154 34.9733C383.392 34.8447 383.654 34.7489 383.942 34.6859C384.232 34.6203 384.523 34.5683 384.816 34.53C385.199 34.4807 385.51 34.4438 385.748 34.4192C385.989 34.3918 386.164 34.3466 386.273 34.2837C386.385 34.2208 386.441 34.1113 386.441 33.9553V33.9225C386.441 33.5175 386.331 33.2028 386.109 32.9785C385.89 32.7541 385.558 32.6419 385.112 32.6419C384.649 32.6419 384.287 32.7431 384.024 32.9456C383.761 33.1481 383.576 33.3643 383.47 33.5941L382.55 33.2658C382.714 32.8827 382.933 32.5844 383.207 32.371C383.483 32.1548 383.784 32.0043 384.11 31.9195C384.438 31.8319 384.761 31.7881 385.079 31.7881C385.281 31.7881 385.514 31.8128 385.776 31.862C386.042 31.9085 386.298 32.0057 386.544 32.1534C386.793 32.3012 387 32.5242 387.164 32.8225C387.328 33.1208 387.41 33.5203 387.41 34.021V38.1748H386.441V37.3211H386.392C386.326 37.4579 386.217 37.6043 386.064 37.7602C385.911 37.9162 385.707 38.0489 385.452 38.1584C385.198 38.2678 384.887 38.3226 384.52 38.3226ZM384.668 37.4524C385.051 37.4524 385.374 37.3772 385.637 37.2267C385.902 37.0762 386.102 36.8819 386.236 36.6438C386.373 36.4057 386.441 36.1554 386.441 35.8927V35.0061C386.4 35.0554 386.31 35.1005 386.171 35.1416C386.034 35.1799 385.875 35.2141 385.694 35.2442C385.517 35.2715 385.343 35.2962 385.173 35.318C385.006 35.3372 384.871 35.3536 384.767 35.3673C384.515 35.4001 384.28 35.4535 384.061 35.5274C383.845 35.5985 383.669 35.7066 383.535 35.8516C383.404 35.9939 383.338 36.1882 383.338 36.4345C383.338 36.7711 383.463 37.0255 383.712 37.1979C383.964 37.3676 384.282 37.4524 384.668 37.4524ZM389.178 38.1748V31.8702H390.114V32.8225H390.18C390.295 32.5105 390.503 32.2574 390.804 32.0631C391.105 31.8689 391.444 31.7717 391.821 31.7717C391.893 31.7717 391.982 31.7731 392.088 31.7758C392.195 31.7786 392.276 31.7827 392.33 31.7881V32.7732C392.298 32.765 392.222 32.7527 392.105 32.7363C391.99 32.7171 391.868 32.7076 391.739 32.7076C391.433 32.7076 391.159 32.7719 390.918 32.9005C390.68 33.0263 390.492 33.2015 390.352 33.4259C390.215 33.6475 390.147 33.9006 390.147 34.1852V38.1748H389.178ZM396.616 31.8702V32.6911H393.348V31.8702H396.616ZM394.301 30.3598H395.269V36.3688C395.269 36.6424 395.309 36.8477 395.388 36.9845C395.47 37.1186 395.574 37.2089 395.7 37.2554C395.829 37.2992 395.964 37.3211 396.107 37.3211C396.213 37.3211 396.301 37.3156 396.369 37.3046C396.438 37.291 396.492 37.28 396.533 37.2718L396.73 38.142C396.665 38.1666 396.573 38.1912 396.455 38.2159C396.338 38.2432 396.189 38.2569 396.008 38.2569C395.734 38.2569 395.466 38.1981 395.204 38.0804C394.944 37.9627 394.727 37.7835 394.555 37.5427C394.385 37.3019 394.301 36.9982 394.301 36.6315V30.3598ZM401.455 38.1748V29.7687H404.295C404.952 29.7687 405.491 29.8809 405.912 30.1053C406.334 30.3269 406.646 30.632 406.848 31.0206C407.051 31.4092 407.152 31.8511 407.152 32.3464C407.152 32.8416 407.051 33.2808 406.848 33.6639C406.646 34.047 406.335 34.348 405.916 34.5669C405.498 34.7831 404.963 34.8912 404.312 34.8912H402.013V33.9718H404.279C404.727 33.9718 405.089 33.9061 405.362 33.7747C405.639 33.6434 405.838 33.4573 405.962 33.2165C406.087 32.973 406.15 32.6829 406.15 32.3464C406.15 32.0098 406.087 31.7156 405.962 31.4639C405.836 31.2121 405.635 31.0179 405.358 30.881C405.082 30.7415 404.717 30.6717 404.262 30.6717H402.473V38.1748H401.455ZM405.412 34.3986L407.48 38.1748H406.298L404.262 34.3986H405.412ZM411.292 38.3061C410.685 38.3061 410.161 38.1721 409.72 37.9039C409.282 37.633 408.945 37.2554 408.706 36.7711C408.471 36.284 408.353 35.7176 408.353 35.0718C408.353 34.426 408.471 33.8568 408.706 33.3643C408.945 32.869 409.276 32.4832 409.7 32.2068C410.127 31.9277 410.625 31.7881 411.194 31.7881C411.522 31.7881 411.846 31.8429 412.167 31.9523C412.487 32.0618 412.778 32.2396 413.041 32.4859C413.304 32.7295 413.513 33.0523 413.669 33.4546C413.825 33.8568 413.903 34.3521 413.903 34.9404V35.3509H409.043V34.5136H412.918C412.918 34.1578 412.847 33.8404 412.704 33.5613C412.565 33.2822 412.365 33.0619 412.105 32.9005C411.848 32.739 411.544 32.6583 411.194 32.6583C410.808 32.6583 410.474 32.7541 410.192 32.9456C409.913 33.1344 409.698 33.3807 409.548 33.6844C409.397 33.9882 409.322 34.3138 409.322 34.6613V35.2195C409.322 35.6957 409.404 36.0993 409.568 36.4304C409.735 36.7587 409.967 37.0091 410.262 37.1815C410.558 37.3512 410.901 37.436 411.292 37.436C411.547 37.436 411.777 37.4004 411.982 37.3293C412.19 37.2554 412.369 37.1459 412.52 37.0009C412.67 36.8531 412.786 36.6698 412.868 36.4509L413.804 36.7136C413.706 37.031 413.54 37.3101 413.308 37.5509C413.075 37.789 412.788 37.9751 412.446 38.1091C412.104 38.2405 411.719 38.3061 411.292 38.3061ZM417.938 38.3061C417.347 38.3061 416.838 38.1666 416.411 37.8875C415.984 37.6084 415.655 37.2239 415.426 36.7341C415.196 36.2443 415.081 35.6847 415.081 35.0554C415.081 34.415 415.198 33.85 415.434 33.3602C415.672 32.8676 416.003 32.4832 416.427 32.2068C416.854 31.9277 417.352 31.7881 417.921 31.7881C418.364 31.7881 418.764 31.8702 419.12 32.0344C419.475 32.1986 419.767 32.4285 419.994 32.724C420.221 33.0195 420.362 33.3643 420.417 33.7583H419.448C419.374 33.471 419.21 33.2165 418.956 32.9949C418.704 32.7705 418.364 32.6583 417.938 32.6583C417.56 32.6583 417.229 32.7568 416.944 32.9538C416.662 33.1481 416.442 33.4231 416.283 33.7788C416.127 34.1318 416.049 34.5464 416.049 35.0225C416.049 35.5096 416.126 35.9337 416.279 36.2949C416.435 36.6561 416.654 36.9366 416.936 37.1364C417.221 37.3361 417.554 37.436 417.938 37.436C418.189 37.436 418.418 37.3922 418.623 37.3046C418.828 37.2171 419.002 37.0912 419.144 36.927C419.287 36.7628 419.388 36.5658 419.448 36.336H420.417C420.362 36.7081 420.227 37.0433 420.01 37.3416C419.797 37.6371 419.514 37.8724 419.161 38.0476C418.81 38.22 418.403 38.3061 417.938 38.3061ZM424.394 38.3061C423.825 38.3061 423.325 38.1707 422.896 37.8998C422.469 37.6289 422.135 37.2499 421.894 36.7628C421.656 36.2758 421.537 35.7066 421.537 35.0554C421.537 34.3986 421.656 33.8254 421.894 33.3356C422.135 32.8457 422.469 32.4654 422.896 32.1945C423.325 31.9236 423.825 31.7881 424.394 31.7881C424.963 31.7881 425.461 31.9236 425.888 32.1945C426.318 32.4654 426.652 32.8457 426.89 33.3356C427.13 33.8254 427.251 34.3986 427.251 35.0554C427.251 35.7066 427.13 36.2758 426.89 36.7628C426.652 37.2499 426.318 37.6289 425.888 37.8998C425.461 38.1707 424.963 38.3061 424.394 38.3061ZM424.394 37.436C424.826 37.436 425.182 37.3252 425.461 37.1035C425.74 36.8819 425.947 36.5905 426.081 36.2293C426.215 35.8681 426.282 35.4768 426.282 35.0554C426.282 34.634 426.215 34.2413 426.081 33.8774C425.947 33.5134 425.74 33.2193 425.461 32.9949C425.182 32.7705 424.826 32.6583 424.394 32.6583C423.962 32.6583 423.606 32.7705 423.327 32.9949C423.048 33.2193 422.841 33.5134 422.707 33.8774C422.573 34.2413 422.506 34.634 422.506 35.0554C422.506 35.4768 422.573 35.8681 422.707 36.2293C422.841 36.5905 423.048 36.8819 423.327 37.1035C423.606 37.3252 423.962 37.436 424.394 37.436ZM428.729 38.1748V31.8702H429.665V32.8225H429.731C429.846 32.5105 430.054 32.2574 430.355 32.0631C430.656 31.8689 430.995 31.7717 431.373 31.7717C431.444 31.7717 431.533 31.7731 431.64 31.7758C431.746 31.7786 431.827 31.7827 431.882 31.7881V32.7732C431.849 32.765 431.774 32.7527 431.656 32.7363C431.541 32.7171 431.419 32.7076 431.291 32.7076C430.984 32.7076 430.711 32.7719 430.47 32.9005C430.232 33.0263 430.043 33.2015 429.903 33.4259C429.767 33.6475 429.698 33.9006 429.698 34.1852V38.1748H428.729ZM435.219 38.3061C434.693 38.3061 434.23 38.1734 433.827 37.908C433.425 37.6398 433.11 37.2622 432.883 36.7752C432.656 36.2853 432.543 35.7066 432.543 35.0389C432.543 34.3767 432.656 33.8021 432.883 33.315C433.11 32.828 433.426 32.4517 433.831 32.1863C434.236 31.9209 434.704 31.7881 435.235 31.7881C435.646 31.7881 435.97 31.8566 436.208 31.9934C436.449 32.1275 436.632 32.2807 436.758 32.4531C436.887 32.6227 436.986 32.7623 437.058 32.8717H437.14V29.7687H438.108V38.1748H437.172V37.2061H437.058C436.986 37.3211 436.885 37.4661 436.754 37.6412C436.622 37.8136 436.435 37.9682 436.191 38.105C435.948 38.2391 435.624 38.3061 435.219 38.3061ZM435.35 37.436C435.739 37.436 436.067 37.3347 436.335 37.1323C436.603 36.927 436.807 36.6438 436.947 36.2826C437.086 35.9187 437.156 35.4986 437.156 35.0225C437.156 34.5519 437.088 34.14 436.951 33.7871C436.814 33.4313 436.612 33.155 436.343 32.9579C436.075 32.7582 435.744 32.6583 435.35 32.6583C434.94 32.6583 434.598 32.7637 434.324 32.9744C434.053 33.1823 433.849 33.4655 433.712 33.824C433.578 34.1797 433.511 34.5792 433.511 35.0225C433.511 35.4713 433.58 35.879 433.716 36.2457C433.856 36.6096 434.061 36.8997 434.332 37.1158C434.606 37.3293 434.945 37.436 435.35 37.436ZM440.017 38.1748V31.8702H440.986V38.1748H440.017ZM440.509 30.8195C440.321 30.8195 440.158 30.7552 440.021 30.6266C439.887 30.498 439.82 30.3433 439.82 30.1627C439.82 29.9821 439.887 29.8275 440.021 29.6989C440.158 29.5703 440.321 29.506 440.509 29.506C440.698 29.506 440.86 29.5703 440.994 29.6989C441.131 29.8275 441.199 29.9821 441.199 30.1627C441.199 30.3433 441.131 30.498 440.994 30.6266C440.86 30.7552 440.698 30.8195 440.509 30.8195ZM443.728 34.3822V38.1748H442.76V31.8702H443.696V32.8553H443.778C443.925 32.5352 444.15 32.278 444.451 32.0837C444.752 31.8867 445.14 31.7881 445.617 31.7881C446.043 31.7881 446.417 31.8757 446.737 32.0508C447.057 32.2232 447.306 32.4859 447.484 32.8389C447.662 33.1892 447.751 33.6324 447.751 34.1688V38.1748H446.782V34.2344C446.782 33.7392 446.654 33.3533 446.396 33.077C446.139 32.7979 445.786 32.6583 445.337 32.6583C445.028 32.6583 444.752 32.7253 444.508 32.8594C444.268 32.9935 444.077 33.1892 443.938 33.4464C443.798 33.7036 443.728 34.0155 443.728 34.3822ZM452.066 40.6704C451.598 40.6704 451.196 40.6102 450.859 40.4898C450.522 40.3721 450.242 40.2161 450.018 40.0218C449.796 39.8303 449.619 39.6251 449.488 39.4062L450.26 38.8644C450.347 38.9793 450.458 39.1106 450.592 39.2584C450.726 39.4089 450.91 39.5389 451.142 39.6483C451.378 39.7605 451.685 39.8166 452.066 39.8166C452.575 39.8166 452.995 39.6935 453.326 39.4472C453.657 39.2009 453.823 38.8151 453.823 38.2897V37.0091H453.74C453.669 37.124 453.568 37.2663 453.437 37.436C453.308 37.6029 453.122 37.752 452.878 37.8834C452.638 38.012 452.312 38.0763 451.902 38.0763C451.393 38.0763 450.936 37.9559 450.531 37.7151C450.128 37.4743 449.81 37.124 449.574 36.6643C449.342 36.2046 449.225 35.6464 449.225 34.9897C449.225 34.3439 449.339 33.7816 449.566 33.3027C449.793 32.8211 450.109 32.449 450.514 32.1863C450.919 31.9209 451.387 31.7881 451.918 31.7881C452.328 31.7881 452.654 31.8566 452.895 31.9934C453.138 32.1275 453.325 32.2807 453.453 32.4531C453.584 32.6227 453.686 32.7623 453.757 32.8717H453.855V31.8702H454.791V38.3554C454.791 38.8972 454.668 39.3378 454.422 39.6771C454.178 40.0191 453.85 40.2695 453.437 40.4282C453.026 40.5896 452.569 40.6704 452.066 40.6704ZM452.033 37.2061C452.422 37.2061 452.75 37.1172 453.018 36.9393C453.286 36.7615 453.49 36.5056 453.63 36.1718C453.769 35.838 453.839 35.4384 453.839 34.9733C453.839 34.519 453.771 34.1182 453.634 33.7706C453.497 33.4231 453.294 33.1508 453.026 32.9538C452.758 32.7568 452.427 32.6583 452.033 32.6583C451.622 32.6583 451.28 32.7623 451.007 32.9703C450.736 33.1782 450.532 33.4573 450.395 33.8076C450.261 34.1578 450.194 34.5464 450.194 34.9733C450.194 35.4111 450.263 35.7983 450.399 36.1348C450.539 36.4687 450.744 36.7314 451.015 36.9229C451.289 37.1117 451.628 37.2061 452.033 37.2061Z" fill="black"/>
<rect width="435.351" height="82.3637" transform="translate(35.5703 102.217)" fill="#FFF1ED"/>
<path d="M122.206 144.72C122.174 129.626 122.206 117.084 122.302 116.892C122.366 116.669 122.749 116.478 123.1 116.478C123.451 116.478 123.803 116.701 123.898 116.956C123.994 117.212 124.058 129.594 124.058 144.497C124.058 159.368 123.93 171.719 123.803 171.942C123.675 172.197 123.292 172.325 122.941 172.261C122.303 172.166 122.302 171.879 122.207 144.849L122.206 144.72Z" fill="black"/>
<path d="M146.727 144.401C146.727 130.104 146.823 118.169 146.918 117.914C147.014 117.658 147.301 117.435 147.557 117.435C147.812 117.435 148.068 117.658 148.164 117.914C148.259 118.169 148.323 130.104 148.323 144.401C148.323 158.698 148.259 170.634 148.164 170.889C148.068 171.144 147.78 171.368 147.525 171.368C147.27 171.368 146.982 171.144 146.886 170.889C146.791 170.634 146.727 158.698 146.727 144.401Z" fill="black"/>
<path d="M69.0782 144.465C69.0463 132.274 69.1421 122.222 69.3017 122.126C69.4613 121.998 69.7487 121.903 70.0041 121.903C70.2276 121.903 70.5788 122.19 70.7385 122.541C70.93 122.956 71.0577 130.934 71.0577 144.465C71.0577 161.156 70.9939 165.911 70.6746 166.389C70.3873 166.772 70.068 166.932 69.6848 166.804C69.174 166.581 69.1421 165.209 69.0782 144.465Z" fill="black"/>
<path d="M101.645 144.401C101.581 126.402 101.645 122.924 102.028 122.605C102.283 122.381 102.539 122.222 102.634 122.222C102.762 122.222 103.018 122.381 103.241 122.605C103.56 122.924 103.624 127.583 103.656 144.401C103.656 163.294 103.592 165.815 103.145 166.198C102.762 166.517 102.571 166.517 102.187 166.198C101.74 165.815 101.677 163.262 101.645 144.401Z" fill="black"/>
<path d="M166.841 144.497C166.841 133.647 166.937 124.552 167.065 124.264C167.161 124.009 167.544 123.818 168.597 123.977V144.401C168.597 164.57 168.597 164.826 167.959 164.921C167.608 164.985 167.224 164.858 167.097 164.602C166.969 164.379 166.841 155.316 166.841 144.497Z" fill="black"/>
<path d="M105.795 144.465C105.763 135.083 105.859 127.328 106.019 127.232C106.178 127.105 106.434 127.009 106.625 127.009C106.817 127.009 107.168 127.168 107.392 127.392C107.711 127.711 107.775 131.445 107.807 144.401C107.807 157.581 107.711 161.092 107.392 161.411C107.168 161.602 106.721 161.73 106.402 161.634C105.891 161.475 105.859 160.358 105.795 144.465Z" fill="black"/>
<path d="M117.928 144.369C117.864 130.487 117.928 127.711 118.311 127.392C118.566 127.168 118.822 127.009 118.918 127.009C119.045 127.009 119.301 127.168 119.524 127.392C119.844 127.711 119.907 131.445 119.939 144.401C119.939 158.986 119.875 161.06 119.428 161.379C119.045 161.698 118.854 161.698 118.471 161.411C118.024 161.06 117.96 158.954 117.928 144.369Z" fill="black"/>
<path d="M126.229 144.465C126.197 135.083 126.325 127.328 126.453 127.2C126.612 127.073 126.963 127.041 127.219 127.073C127.666 127.168 127.73 129.115 127.794 144.242C127.857 153.624 127.762 161.411 127.634 161.57C127.506 161.698 127.155 161.73 126.836 161.634C126.325 161.475 126.293 160.358 126.229 144.465Z" fill="black"/>
<path d="M138.362 144.433C138.298 129.785 138.362 127.36 138.777 127.232C139 127.136 139.288 127.041 139.383 127.041C139.479 127.009 139.735 127.168 139.958 127.392C140.277 127.711 140.341 131.445 140.373 144.401C140.373 157.581 140.277 161.092 139.958 161.411C139.735 161.602 139.288 161.73 138.968 161.634C138.457 161.475 138.426 160.358 138.362 144.433Z" fill="black"/>
<path d="M97.494 144.369C97.4302 132.147 97.494 129.626 97.8771 129.307C98.1326 129.083 98.388 128.924 98.4838 128.924C98.6115 128.924 98.8669 129.083 99.0904 129.307C99.4097 129.626 99.4735 133.008 99.4735 144.625C99.4735 157.613 99.4097 159.592 98.9946 159.72C98.7392 159.815 98.2922 159.688 98.0368 159.464C97.5898 159.145 97.5259 157.198 97.494 144.369Z" fill="black"/>
<path d="M142.512 144.465C142.48 136.136 142.576 129.243 142.736 129.147C142.895 129.019 143.183 128.924 143.438 128.924C143.662 128.924 143.981 129.211 144.173 129.562C144.364 129.945 144.492 135.593 144.492 144.465C144.492 155.316 144.396 158.922 144.077 159.368C143.821 159.751 143.502 159.911 143.119 159.783C142.608 159.56 142.576 158.507 142.512 144.465Z" fill="black"/>
<path d="M171.12 144.72C171.088 137.7 171.12 131.764 171.215 131.54C171.279 131.317 171.662 131.157 172.748 131.317V157.486H171.152L171.12 144.72Z" fill="black"/>
<path d="M85.3614 144.465C85.3295 137.54 85.4253 131.796 85.5849 131.7C85.7446 131.572 86 131.477 86.1915 131.477C86.3831 131.477 86.7343 131.636 86.9578 131.86C87.2452 132.179 87.341 135.051 87.3729 144.401C87.3729 154.965 87.309 156.592 86.862 156.943C86.6066 157.135 86.1596 157.262 85.9042 157.167C85.4891 157.039 85.4253 155.284 85.3614 144.465Z" fill="black"/>
<path d="M154.836 144.72C154.805 137.891 154.836 132.083 154.932 131.86C154.996 131.636 155.379 131.477 156.465 131.636L156.561 143.763C156.592 150.433 156.561 156.209 156.465 156.592C156.337 157.135 156.114 157.294 154.868 157.167L154.836 144.72Z" fill="black"/>
<path d="M93.3753 144.465C93.3434 136.136 93.4392 132.849 93.7265 132.402C93.95 132.051 94.3332 131.796 94.6524 131.86C95.0994 131.955 95.1633 133.136 95.2271 144.338C95.3229 155.858 95.291 156.688 94.7482 156.911C94.397 157.039 94.0777 156.879 93.7904 156.496C93.503 156.05 93.3753 153.114 93.3753 144.465Z" fill="black"/>
<path d="M183.188 144.242C183.252 135.881 183.38 133.615 183.699 133.423C183.955 133.264 184.338 133.2 184.561 133.296C184.944 133.423 185.008 135.434 185.04 144.433C185.04 153.911 184.976 155.443 184.561 155.571C184.306 155.667 183.859 155.507 183.603 155.252C183.188 154.837 183.125 153.241 183.188 144.242Z" fill="black"/>
<path d="M64.9276 144.369C64.8637 136.519 64.9595 134.732 65.3107 134.413C65.5662 134.189 65.8216 134.03 65.9174 134.03C66.0451 134.03 66.3005 134.189 66.524 134.413C66.8113 134.732 66.9071 137.125 66.9391 144.401C66.9391 152.667 66.8752 154.039 66.4282 154.39C66.0451 154.709 65.8535 154.709 65.4704 154.39C65.0234 154.039 64.9595 152.603 64.9276 144.369Z" fill="black"/>
<path d="M130.124 144.082C130.124 139.168 130.188 134.891 130.316 134.572C130.444 134.221 130.795 134.03 131.21 134.093C131.88 134.189 131.88 134.285 131.88 144.401C131.88 154.358 131.88 154.613 131.242 154.709C130.763 154.773 130.539 154.582 130.38 153.911C130.284 153.433 130.156 148.997 130.124 144.082Z" fill="black"/>
<path d="M175.079 144.433C175.015 135.913 175.079 134.381 175.462 134.253C175.717 134.157 176.005 134.062 176.1 134.062C176.196 134.03 176.452 134.189 176.675 134.413C176.962 134.732 177.058 137.125 177.09 144.401C177.09 151.837 176.994 154.071 176.675 154.39C176.452 154.582 176.005 154.709 175.685 154.613C175.174 154.454 175.143 153.656 175.079 144.433Z" fill="black"/>
<path d="M73.3885 144.72C73.3885 139.806 73.4204 135.593 73.5162 135.37C73.58 135.147 73.8993 134.987 74.1867 135.051C74.6656 135.147 74.7294 135.976 74.7294 144.401C74.7294 153.433 74.7294 153.656 74.0909 153.656C73.4843 153.656 73.4523 153.433 73.3885 144.72Z" fill="black"/>
<path d="M89.512 144.465C89.4801 139.487 89.5759 135.306 89.7355 135.21C89.8952 135.083 90.1825 134.987 90.438 134.987C90.6614 134.987 90.9807 135.274 91.1723 135.625C91.3639 136.008 91.4916 139.646 91.4916 144.497C91.4916 150.592 91.3958 152.858 91.1084 153.305C90.8211 153.688 90.5018 153.848 90.1187 153.72C89.6078 153.528 89.5759 152.731 89.512 144.465Z" fill="black"/>
<path d="M163.106 144.72C163.106 139.806 163.138 135.593 163.233 135.37C163.297 135.147 163.617 134.987 163.904 135.051C164.383 135.147 164.447 135.976 164.447 144.401C164.447 153.433 164.447 153.656 163.808 153.656C163.202 153.656 163.17 153.433 163.106 144.72Z" fill="black"/>
<path d="M81.3704 144.72C81.3704 140.508 81.4024 136.87 81.4662 136.647C81.562 136.423 81.9451 136.264 82.3283 136.327C83.0307 136.423 83.0307 136.423 83.0307 152.38H81.4343L81.3704 144.72Z" fill="black"/>
<path d="M113.841 144.465C113.841 140.476 113.937 136.998 114.065 136.71C114.16 136.455 114.543 136.264 114.927 136.327C115.597 136.423 115.597 136.551 115.597 144.401C115.597 152.124 115.565 152.38 114.959 152.475C114.607 152.539 114.224 152.411 114.096 152.156C113.969 151.933 113.841 148.486 113.841 144.465Z" fill="black"/>
<path d="M158.955 144.72C158.955 140.508 158.987 136.902 159.051 136.678C159.115 136.455 159.466 136.264 159.817 136.264C160.168 136.264 160.52 136.487 160.615 136.742C160.711 136.998 160.775 140.476 160.775 144.465C160.775 148.486 160.647 151.933 160.52 152.156C160.392 152.411 160.009 152.539 159.658 152.475C159.051 152.38 159.019 152.092 158.955 144.72Z" fill="black"/>
<path d="M134.371 144.72C134.339 141.05 134.403 137.827 134.466 137.604C134.562 137.38 134.945 137.221 135.329 137.285C136.031 137.38 136.031 137.412 136.031 151.422H134.435L134.371 144.72Z" fill="black"/>
<path d="M60.777 144.21C60.745 140.763 60.8728 137.859 61.0005 137.732C61.1601 137.604 61.5752 137.54 61.9583 137.604C62.5649 137.7 62.5969 137.891 62.5969 144.401C62.5969 150.848 62.5649 151.103 61.9583 151.199C61.6071 151.263 61.224 151.135 61.0963 150.88C60.9685 150.656 60.8089 147.656 60.777 144.21Z" fill="black"/>
<path d="M179.389 144.72C179.357 141.21 179.389 138.178 179.485 137.955C179.549 137.732 179.9 137.54 180.251 137.54C180.602 137.54 180.953 137.763 181.049 138.019C181.145 138.274 181.209 141.178 181.209 144.465C181.209 147.784 181.081 150.656 180.953 150.88C180.826 151.135 180.443 151.263 180.091 151.199C179.485 151.103 179.453 150.816 179.389 144.72Z" fill="black"/>
<path d="M52.795 144.433C52.7312 139.263 52.795 138.21 53.1781 138.083H53.2101C53.4336 137.987 53.689 137.891 53.7528 137.891C53.7848 137.859 54.0402 138.083 54.2956 138.338C54.6788 138.721 54.7745 139.87 54.7745 144.401C54.7745 148.933 54.6788 150.082 54.2956 150.465C54.0402 150.72 53.5932 150.88 53.3378 150.784C52.9227 150.656 52.8589 149.603 52.795 144.433Z" fill="black"/>
<path d="M150.462 144.369C150.398 140.572 150.494 139.487 150.845 139.2C151.101 138.976 151.516 138.848 151.803 138.88C152.218 138.976 152.282 139.838 152.378 144.338C152.442 148.837 152.378 149.699 151.963 149.827C151.708 149.922 151.261 149.795 151.005 149.603C150.59 149.252 150.494 148.295 150.462 144.369Z" fill="black"/>
<path d="M77.0921 144.497C77.0921 142.423 77.1879 140.508 77.3156 140.221C77.4114 139.965 77.7945 139.774 78.1777 139.838C78.8162 139.934 78.8481 140.093 78.8481 144.401C78.8481 148.614 78.8162 148.869 78.2096 148.965C77.8584 149.029 77.4752 148.901 77.3475 148.646C77.2198 148.422 77.0921 146.54 77.0921 144.497Z" fill="black"/>
<path d="M110.712 148.965C109.978 149.029 109.978 149.029 110.01 144.369L110.01 144.36C110.042 139.806 110.042 139.742 110.712 139.838C111.383 139.934 111.415 140.061 111.415 144.401C111.415 148.805 111.415 148.869 110.712 148.965Z" fill="black"/>
<path d="M56.6264 144.433C56.6264 142.104 56.7221 141.306 57.1053 140.923C57.3926 140.668 57.8077 140.508 58.0631 140.604C58.4462 140.763 58.542 141.561 58.574 144.433C58.574 147.401 58.4782 148.103 58.095 148.231C57.8396 148.327 57.3926 148.167 57.1372 147.912C56.786 147.561 56.6583 146.635 56.6264 144.433Z" fill="black"/>
<path d="M256.54 144.72C256.508 129.626 256.54 117.084 256.636 116.892C256.7 116.669 257.083 116.478 257.434 116.478C257.785 116.478 258.137 116.701 258.232 116.956C258.328 117.212 258.392 129.594 258.392 144.497C258.392 159.368 258.264 171.719 258.137 171.942C258.009 172.197 257.626 172.325 257.274 172.261C256.637 172.166 256.636 171.879 256.541 144.849L256.54 144.72Z" fill="black"/>
<path d="M281.061 144.401C281.061 130.104 281.157 118.169 281.252 117.914C281.348 117.658 281.635 117.435 281.891 117.435C282.146 117.435 282.402 117.658 282.498 117.914C282.593 118.169 282.657 130.104 282.657 144.401C282.657 158.698 282.593 170.634 282.498 170.889C282.402 171.144 282.114 171.368 281.859 171.368C281.604 171.368 281.316 171.144 281.22 170.889C281.125 170.634 281.061 158.698 281.061 144.401Z" fill="black"/>
<path d="M203.412 144.465C203.38 132.274 203.476 122.222 203.636 122.126C203.795 121.998 204.083 121.903 204.338 121.903C204.562 121.903 204.913 122.19 205.072 122.541C205.264 122.956 205.392 130.934 205.392 144.465C205.392 161.156 205.328 165.911 205.009 166.389C204.721 166.772 204.402 166.932 204.019 166.804C203.508 166.581 203.476 165.209 203.412 144.465Z" fill="black"/>
<path d="M235.979 144.401C235.915 126.402 235.979 122.924 236.362 122.605C236.617 122.381 236.873 122.222 236.968 122.222C237.096 122.222 237.352 122.381 237.575 122.605C237.894 122.924 237.958 127.583 237.99 144.401C237.99 163.294 237.926 165.815 237.479 166.198C237.096 166.517 236.905 166.517 236.521 166.198C236.074 165.815 236.011 163.262 235.979 144.401Z" fill="black"/>
<path d="M301.175 144.497C301.175 133.647 301.271 124.552 301.399 124.264C301.495 124.009 301.878 123.818 302.931 123.977V144.401C302.931 164.57 302.931 164.826 302.293 164.921C301.942 164.985 301.558 164.858 301.431 164.602C301.303 164.379 301.175 155.316 301.175 144.497Z" fill="black"/>
<path d="M240.129 144.465C240.097 135.083 240.193 127.328 240.353 127.232C240.512 127.105 240.768 127.009 240.959 127.009C241.151 127.009 241.502 127.168 241.726 127.392C242.045 127.711 242.109 131.445 242.141 144.401C242.141 157.581 242.045 161.092 241.726 161.411C241.502 161.602 241.055 161.73 240.736 161.634C240.225 161.475 240.193 160.358 240.129 144.465Z" fill="black"/>
<path d="M252.262 144.369C252.198 130.487 252.262 127.711 252.645 127.392C252.9 127.168 253.156 127.009 253.252 127.009C253.379 127.009 253.635 127.168 253.858 127.392C254.177 127.711 254.241 131.445 254.273 144.401C254.273 158.986 254.209 161.06 253.762 161.379C253.379 161.698 253.188 161.698 252.805 161.411C252.358 161.06 252.294 158.954 252.262 144.369Z" fill="black"/>
<path d="M260.563 144.465C260.531 135.083 260.659 127.328 260.787 127.2C260.946 127.073 261.297 127.041 261.553 127.073C262 127.168 262.064 129.115 262.128 144.242C262.191 153.624 262.096 161.411 261.968 161.57C261.84 161.698 261.489 161.73 261.17 161.634C260.659 161.475 260.627 160.358 260.563 144.465Z" fill="black"/>
<path d="M272.696 144.433C272.632 129.785 272.696 127.36 273.111 127.232C273.334 127.136 273.622 127.041 273.717 127.041C273.813 127.009 274.069 127.168 274.292 127.392C274.611 127.711 274.675 131.445 274.707 144.401C274.707 157.581 274.611 161.092 274.292 161.411C274.069 161.602 273.622 161.73 273.302 161.634C272.791 161.475 272.759 160.358 272.696 144.433Z" fill="black"/>
<path d="M231.828 144.369C231.764 132.147 231.828 129.626 232.211 129.307C232.467 129.083 232.722 128.924 232.818 128.924C232.945 128.924 233.201 129.083 233.424 129.307C233.744 129.626 233.808 133.008 233.808 144.625C233.808 157.613 233.744 159.592 233.329 159.72C233.073 159.815 232.626 159.688 232.371 159.464C231.924 159.145 231.86 157.198 231.828 144.369Z" fill="black"/>
<path d="M276.846 144.465C276.814 136.136 276.91 129.243 277.07 129.147C277.229 129.019 277.517 128.924 277.772 128.924C277.996 128.924 278.315 129.211 278.507 129.562C278.698 129.945 278.826 135.593 278.826 144.465C278.826 155.316 278.73 158.922 278.411 159.368C278.155 159.751 277.836 159.911 277.453 159.783C276.942 159.56 276.91 158.507 276.846 144.465Z" fill="black"/>
<path d="M305.454 144.72C305.422 137.7 305.454 131.764 305.549 131.54C305.613 131.317 305.996 131.157 307.082 131.317V157.486H305.486L305.454 144.72Z" fill="black"/>
<path d="M219.695 144.465C219.663 137.54 219.759 131.796 219.919 131.7C220.079 131.572 220.334 131.477 220.526 131.477C220.717 131.477 221.068 131.636 221.292 131.86C221.579 132.179 221.675 135.051 221.707 144.401C221.707 154.965 221.643 156.592 221.196 156.943C220.941 157.135 220.494 157.262 220.238 157.167C219.823 157.039 219.759 155.284 219.695 144.465Z" fill="black"/>
<path d="M289.17 144.72C289.138 137.891 289.17 132.083 289.266 131.86C289.33 131.636 289.713 131.477 290.799 131.636L290.895 143.763C290.926 150.433 290.895 156.209 290.799 156.592C290.671 157.135 290.448 157.294 289.202 157.167L289.17 144.72Z" fill="black"/>
<path d="M227.709 144.465C227.677 136.136 227.773 132.849 228.061 132.402C228.284 132.051 228.667 131.796 228.986 131.86C229.433 131.955 229.497 133.136 229.561 144.338C229.657 155.858 229.625 156.688 229.082 156.911C228.731 157.039 228.412 156.879 228.124 156.496C227.837 156.05 227.709 153.114 227.709 144.465Z" fill="black"/>
<path d="M317.522 144.242C317.586 135.881 317.714 133.615 318.033 133.423C318.289 133.264 318.672 133.2 318.895 133.296C319.278 133.423 319.342 135.434 319.374 144.433C319.374 153.911 319.31 155.443 318.895 155.571C318.64 155.667 318.193 155.507 317.937 155.252C317.522 154.837 317.458 153.241 317.522 144.242Z" fill="black"/>
<path d="M199.262 144.369C199.198 136.519 199.294 134.732 199.645 134.413C199.9 134.189 200.156 134.03 200.251 134.03C200.379 134.03 200.634 134.189 200.858 134.413C201.145 134.732 201.241 137.125 201.273 144.401C201.273 152.667 201.209 154.039 200.762 154.39C200.379 154.709 200.187 154.709 199.804 154.39C199.357 154.039 199.294 152.603 199.262 144.369Z" fill="black"/>
<path d="M264.458 144.082C264.458 139.168 264.522 134.891 264.65 134.572C264.778 134.221 265.129 134.03 265.544 134.093C266.214 134.189 266.214 134.285 266.214 144.401C266.214 154.358 266.214 154.613 265.576 154.709C265.097 154.773 264.873 154.582 264.714 153.911C264.618 153.433 264.49 148.997 264.458 144.082Z" fill="black"/>
<path d="M309.413 144.433C309.349 135.913 309.413 134.381 309.796 134.253C310.051 134.157 310.339 134.062 310.434 134.062C310.53 134.03 310.786 134.189 311.009 134.413C311.296 134.732 311.392 137.125 311.424 144.401C311.424 151.837 311.328 154.071 311.009 154.39C310.786 154.582 310.339 154.709 310.019 154.613C309.508 154.454 309.477 153.656 309.413 144.433Z" fill="black"/>
<path d="M207.722 144.72C207.722 139.806 207.754 135.593 207.85 135.37C207.914 135.147 208.233 134.987 208.521 135.051C209 135.147 209.063 135.976 209.063 144.401C209.063 153.433 209.063 153.656 208.425 153.656C207.818 153.656 207.786 153.433 207.722 144.72Z" fill="black"/>
<path d="M223.846 144.465C223.814 139.487 223.91 135.306 224.07 135.21C224.229 135.083 224.517 134.987 224.772 134.987C224.995 134.987 225.315 135.274 225.506 135.625C225.698 136.008 225.826 139.646 225.826 144.497C225.826 150.592 225.73 152.858 225.442 153.305C225.155 153.688 224.836 153.848 224.453 153.72C223.942 153.528 223.91 152.731 223.846 144.465Z" fill="black"/>
<path d="M297.44 144.72C297.44 139.806 297.472 135.593 297.567 135.37C297.631 135.147 297.951 134.987 298.238 135.051C298.717 135.147 298.781 135.976 298.781 144.401C298.781 153.433 298.781 153.656 298.142 153.656C297.536 153.656 297.504 153.433 297.44 144.72Z" fill="black"/>
<path d="M215.704 144.72C215.704 140.508 215.736 136.87 215.8 136.647C215.896 136.423 216.279 136.264 216.662 136.327C217.365 136.423 217.365 136.423 217.365 152.38H215.768L215.704 144.72Z" fill="black"/>
<path d="M248.175 144.465C248.175 140.476 248.271 136.998 248.399 136.71C248.494 136.455 248.877 136.264 249.261 136.327C249.931 136.423 249.931 136.551 249.931 144.401C249.931 152.124 249.899 152.38 249.293 152.475C248.941 152.539 248.558 152.411 248.43 152.156C248.303 151.933 248.175 148.486 248.175 144.465Z" fill="black"/>
<path d="M293.289 144.72C293.289 140.508 293.321 136.902 293.385 136.678C293.449 136.455 293.8 136.264 294.151 136.264C294.502 136.264 294.854 136.487 294.949 136.742C295.045 136.998 295.109 140.476 295.109 144.465C295.109 148.486 294.981 151.933 294.854 152.156C294.726 152.411 294.343 152.539 293.992 152.475C293.385 152.38 293.353 152.092 293.289 144.72Z" fill="black"/>
<path d="M268.705 144.72C268.673 141.05 268.737 137.827 268.8 137.604C268.896 137.38 269.279 137.221 269.662 137.285C270.365 137.38 270.365 137.412 270.365 151.422H268.769L268.705 144.72Z" fill="black"/>
<path d="M195.111 144.21C195.079 140.763 195.207 137.859 195.334 137.732C195.494 137.604 195.909 137.54 196.292 137.604C196.899 137.7 196.931 137.891 196.931 144.401C196.931 150.848 196.899 151.103 196.292 151.199C195.941 151.263 195.558 151.135 195.43 150.88C195.303 150.656 195.143 147.656 195.111 144.21Z" fill="black"/>
<path d="M313.723 144.72C313.691 141.21 313.723 138.178 313.819 137.955C313.883 137.732 314.234 137.54 314.585 137.54C314.936 137.54 315.287 137.763 315.383 138.019C315.479 138.274 315.543 141.178 315.543 144.465C315.543 147.784 315.415 150.656 315.287 150.88C315.16 151.135 314.777 151.263 314.425 151.199C313.819 151.103 313.787 150.816 313.723 144.72Z" fill="black"/>
<path d="M187.129 144.433C187.065 139.263 187.129 138.21 187.512 138.083H187.544C187.768 137.987 188.023 137.891 188.087 137.891C188.119 137.859 188.374 138.083 188.63 138.338C189.013 138.721 189.109 139.87 189.109 144.401C189.109 148.933 189.013 150.082 188.63 150.465C188.374 150.72 187.927 150.88 187.672 150.784C187.257 150.656 187.193 149.603 187.129 144.433Z" fill="black"/>
<path d="M284.796 144.369C284.732 140.572 284.828 139.487 285.179 139.2C285.435 138.976 285.85 138.848 286.137 138.88C286.552 138.976 286.616 139.838 286.712 144.338C286.776 148.837 286.712 149.699 286.297 149.827C286.041 149.922 285.594 149.795 285.339 149.603C284.924 149.252 284.828 148.295 284.796 144.369Z" fill="black"/>
<path d="M211.426 144.497C211.426 142.423 211.522 140.508 211.65 140.221C211.745 139.965 212.129 139.774 212.512 139.838C213.15 139.934 213.182 140.093 213.182 144.401C213.182 148.614 213.15 148.869 212.544 148.965C212.192 149.029 211.809 148.901 211.682 148.646C211.554 148.422 211.426 146.54 211.426 144.497Z" fill="black"/>
<path d="M245.046 148.965C244.312 149.029 244.312 149.029 244.344 144.369L244.344 144.36C244.376 139.806 244.376 139.742 245.046 139.838C245.717 139.934 245.749 140.061 245.749 144.401C245.749 148.805 245.749 148.869 245.046 148.965Z" fill="black"/>
<path d="M190.96 144.433C190.96 142.104 191.056 141.306 191.439 140.923C191.727 140.668 192.142 140.508 192.397 140.604C192.78 140.763 192.876 141.561 192.908 144.433C192.908 147.401 192.812 148.103 192.429 148.231C192.174 148.327 191.727 148.167 191.471 147.912C191.12 147.561 190.992 146.635 190.96 144.433Z" fill="black"/>
<path d="M384.274 144.72C384.306 129.626 384.274 117.084 384.179 116.892C384.115 116.669 383.732 116.478 383.38 116.478C383.029 116.478 382.678 116.701 382.582 116.956C382.486 117.212 382.422 129.594 382.422 144.497C382.422 159.368 382.55 171.719 382.678 171.942C382.806 172.197 383.189 172.325 383.54 172.261C384.178 172.166 384.179 171.879 384.274 144.849L384.274 144.72Z" fill="black"/>
<path d="M359.754 144.401C359.754 130.104 359.658 118.169 359.562 117.914C359.466 117.658 359.179 117.435 358.924 117.435C358.668 117.435 358.413 117.658 358.317 117.914C358.221 118.169 358.157 130.104 358.157 144.401C358.157 158.698 358.221 170.634 358.317 170.889C358.413 171.144 358.7 171.368 358.956 171.368C359.211 171.368 359.498 171.144 359.594 170.889C359.69 170.634 359.754 158.698 359.754 144.401Z" fill="black"/>
<path d="M437.402 144.465C437.434 132.274 437.338 122.222 437.179 122.126C437.019 121.998 436.732 121.903 436.476 121.903C436.253 121.903 435.902 122.19 435.742 122.541C435.55 122.956 435.423 130.934 435.423 144.465C435.423 161.156 435.487 165.911 435.806 166.389C436.093 166.772 436.412 166.932 436.796 166.804C437.306 166.581 437.338 165.209 437.402 144.465Z" fill="black"/>
<path d="M404.836 144.401C404.9 126.402 404.836 122.924 404.453 122.605C404.197 122.381 403.942 122.222 403.846 122.222C403.718 122.222 403.463 122.381 403.239 122.605C402.92 122.924 402.856 127.583 402.824 144.401C402.824 163.294 402.888 165.815 403.335 166.198C403.718 166.517 403.91 166.517 404.293 166.198C404.74 165.815 404.804 163.262 404.836 144.401Z" fill="black"/>
<path d="M339.639 144.497C339.639 133.647 339.543 124.552 339.416 124.264C339.32 124.009 338.937 123.818 337.883 123.977V144.401C337.883 164.57 337.883 164.826 338.522 164.921C338.873 164.985 339.256 164.858 339.384 164.602C339.511 164.379 339.639 155.316 339.639 144.497Z" fill="black"/>
<path d="M400.685 144.465C400.717 135.083 400.621 127.328 400.462 127.232C400.302 127.105 400.047 127.009 399.855 127.009C399.664 127.009 399.312 127.168 399.089 127.392C398.77 127.711 398.706 131.445 398.674 144.401C398.674 157.581 398.77 161.092 399.089 161.411C399.312 161.602 399.759 161.73 400.079 161.634C400.589 161.475 400.621 160.358 400.685 144.465Z" fill="black"/>
<path d="M388.553 144.369C388.616 130.487 388.553 127.711 388.17 127.392C387.914 127.168 387.659 127.009 387.563 127.009C387.435 127.009 387.18 127.168 386.956 127.392C386.637 127.711 386.573 131.445 386.541 144.401C386.541 158.986 386.605 161.06 387.052 161.379C387.435 161.698 387.627 161.698 388.01 161.411C388.457 161.06 388.521 158.954 388.553 144.369Z" fill="black"/>
<path d="M380.251 144.465C380.283 135.083 380.156 127.328 380.028 127.2C379.868 127.073 379.517 127.041 379.262 127.073C378.815 127.168 378.751 129.115 378.687 144.242C378.623 153.624 378.719 161.411 378.847 161.57C378.974 161.698 379.325 161.73 379.645 161.634C380.156 161.475 380.188 160.358 380.251 144.465Z" fill="black"/>
<path d="M368.119 144.433C368.183 129.785 368.119 127.36 367.704 127.232C367.48 127.136 367.193 127.041 367.097 127.041C367.001 127.009 366.746 127.168 366.522 127.392C366.203 127.711 366.139 131.445 366.107 144.401C366.107 157.581 366.203 161.092 366.522 161.411C366.746 161.602 367.193 161.73 367.512 161.634C368.023 161.475 368.055 160.358 368.119 144.433Z" fill="black"/>
<path d="M408.986 144.369C409.05 132.147 408.986 129.626 408.603 129.307C408.348 129.083 408.092 128.924 407.997 128.924C407.869 128.924 407.614 129.083 407.39 129.307C407.071 129.626 407.007 133.008 407.007 144.625C407.007 157.613 407.071 159.592 407.486 159.72C407.741 159.815 408.188 159.688 408.444 159.464C408.891 159.145 408.955 157.198 408.986 144.369Z" fill="black"/>
<path d="M363.968 144.465C364 136.136 363.904 129.243 363.745 129.147C363.585 129.019 363.298 128.924 363.042 128.924C362.819 128.924 362.499 129.211 362.308 129.562C362.116 129.945 361.989 135.593 361.989 144.465C361.989 155.316 362.084 158.922 362.404 159.368C362.659 159.751 362.978 159.911 363.362 159.783C363.872 159.56 363.904 158.507 363.968 144.465Z" fill="black"/>
<path d="M335.361 144.72C335.393 137.7 335.361 131.764 335.265 131.54C335.201 131.317 334.818 131.157 333.733 131.317V157.486H335.329L335.361 144.72Z" fill="black"/>
<path d="M421.119 144.465C421.151 137.54 421.055 131.796 420.896 131.7C420.736 131.572 420.48 131.477 420.289 131.477C420.097 131.477 419.746 131.636 419.523 131.86C419.235 132.179 419.14 135.051 419.108 144.401C419.108 154.965 419.171 156.592 419.618 156.943C419.874 157.135 420.321 157.262 420.576 157.167C420.991 157.039 421.055 155.284 421.119 144.465Z" fill="black"/>
<path d="M351.644 144.72C351.676 137.891 351.644 132.083 351.548 131.86C351.484 131.636 351.101 131.477 350.016 131.636L349.92 143.763C349.888 150.433 349.92 156.209 350.016 156.592C350.143 157.135 350.367 157.294 351.612 157.167L351.644 144.72Z" fill="black"/>
<path d="M413.105 144.465C413.137 136.136 413.041 132.849 412.754 132.402C412.53 132.051 412.147 131.796 411.828 131.86C411.381 131.955 411.317 133.136 411.253 144.338C411.158 155.858 411.189 156.688 411.732 156.911C412.083 157.039 412.403 156.879 412.69 156.496C412.977 156.05 413.105 153.114 413.105 144.465Z" fill="black"/>
<path d="M323.292 144.242C323.228 135.881 323.101 133.615 322.781 133.423C322.526 133.264 322.143 133.2 321.919 133.296C321.536 133.423 321.472 135.434 321.44 144.433C321.44 153.911 321.504 155.443 321.919 155.571C322.175 155.667 322.622 155.507 322.877 155.252C323.292 154.837 323.356 153.241 323.292 144.242Z" fill="black"/>
<path d="M441.553 144.369C441.617 136.519 441.521 134.732 441.17 134.413C440.914 134.189 440.659 134.03 440.563 134.03C440.435 134.03 440.18 134.189 439.956 134.413C439.669 134.732 439.573 137.125 439.541 144.401C439.541 152.667 439.605 154.039 440.052 154.39C440.435 154.709 440.627 154.709 441.01 154.39C441.457 154.039 441.521 152.603 441.553 144.369Z" fill="black"/>
<path d="M376.356 144.082C376.356 139.168 376.292 134.891 376.165 134.572C376.037 134.221 375.686 134.03 375.271 134.093C374.6 134.189 374.6 134.285 374.6 144.401C374.6 154.358 374.6 154.613 375.239 154.709C375.718 154.773 375.941 154.582 376.101 153.911C376.197 153.433 376.324 148.997 376.356 144.082Z" fill="black"/>
<path d="M331.402 144.433C331.466 135.913 331.402 134.381 331.019 134.253C330.763 134.157 330.476 134.062 330.38 134.062C330.284 134.03 330.029 134.189 329.805 134.413C329.518 134.732 329.422 137.125 329.39 144.401C329.39 151.837 329.486 154.071 329.805 154.39C330.029 154.582 330.476 154.709 330.795 154.613C331.306 154.454 331.338 153.656 331.402 144.433Z" fill="black"/>
<path d="M433.092 144.72C433.092 139.806 433.06 135.593 432.964 135.37C432.9 135.147 432.581 134.987 432.294 135.051C431.815 135.147 431.751 135.976 431.751 144.401C431.751 153.433 431.751 153.656 432.39 153.656C432.996 153.656 433.028 153.433 433.092 144.72Z" fill="black"/>
<path d="M416.968 144.465C417 139.487 416.905 135.306 416.745 135.21C416.585 135.083 416.298 134.987 416.043 134.987C415.819 134.987 415.5 135.274 415.308 135.625C415.117 136.008 414.989 139.646 414.989 144.497C414.989 150.592 415.085 152.858 415.372 153.305C415.659 153.688 415.979 153.848 416.362 153.72C416.873 153.528 416.905 152.731 416.968 144.465Z" fill="black"/>
<path d="M343.375 144.72C343.375 139.806 343.343 135.593 343.247 135.37C343.183 135.147 342.864 134.987 342.577 135.051C342.098 135.147 342.034 135.976 342.034 144.401C342.034 153.433 342.034 153.656 342.672 153.656C343.279 153.656 343.311 153.433 343.375 144.72Z" fill="black"/>
<path d="M425.11 144.72C425.11 140.508 425.078 136.87 425.014 136.647C424.918 136.423 424.535 136.264 424.152 136.327C423.45 136.423 423.45 136.423 423.45 152.38H425.046L425.11 144.72Z" fill="black"/>
<path d="M392.639 144.465C392.639 140.476 392.544 136.998 392.416 136.71C392.32 136.455 391.937 136.264 391.554 136.327C390.883 136.423 390.883 136.551 390.883 144.401C390.883 152.124 390.915 152.38 391.522 152.475C391.873 152.539 392.256 152.411 392.384 152.156C392.512 151.933 392.639 148.486 392.639 144.465Z" fill="black"/>
<path d="M347.525 144.72C347.525 140.508 347.493 136.902 347.43 136.678C347.366 136.455 347.014 136.264 346.663 136.264C346.312 136.264 345.961 136.487 345.865 136.742C345.769 136.998 345.705 140.476 345.705 144.465C345.705 148.486 345.833 151.933 345.961 152.156C346.089 152.411 346.472 152.539 346.823 152.475C347.43 152.38 347.461 152.092 347.525 144.72Z" fill="black"/>
<path d="M372.11 144.72C372.142 141.05 372.078 137.827 372.014 137.604C371.918 137.38 371.535 137.221 371.152 137.285C370.45 137.38 370.45 137.412 370.45 151.422H372.046L372.11 144.72Z" fill="black"/>
<path d="M445.703 144.21C445.735 140.763 445.608 137.859 445.48 137.732C445.32 137.604 444.905 137.54 444.522 137.604C443.916 137.7 443.884 137.891 443.884 144.401C443.884 150.848 443.916 151.103 444.522 151.199C444.873 151.263 445.257 151.135 445.384 150.88C445.512 150.656 445.672 147.656 445.703 144.21Z" fill="black"/>
<path d="M327.092 144.72C327.123 141.21 327.092 138.178 326.996 137.955C326.932 137.732 326.581 137.54 326.229 137.54C325.878 137.54 325.527 137.763 325.431 138.019C325.335 138.274 325.272 141.178 325.272 144.465C325.272 147.784 325.399 150.656 325.527 150.88C325.655 151.135 326.038 151.263 326.389 151.199C326.996 151.103 327.028 150.816 327.092 144.72Z" fill="black"/>
<path d="M453.685 144.433C453.749 139.263 453.685 138.21 453.302 138.083H453.27C453.047 137.987 452.791 137.891 452.728 137.891C452.696 137.859 452.44 138.083 452.185 138.338C451.802 138.721 451.706 139.87 451.706 144.401C451.706 148.933 451.802 150.082 452.185 150.465C452.44 150.72 452.887 150.88 453.143 150.784C453.558 150.656 453.622 149.603 453.685 144.433Z" fill="black"/>
<path d="M356.018 144.369C356.082 140.572 355.986 139.487 355.635 139.2C355.38 138.976 354.965 138.848 354.677 138.88C354.262 138.976 354.198 139.838 354.102 144.338C354.039 148.837 354.102 149.699 354.518 149.827C354.773 149.922 355.22 149.795 355.475 149.603C355.89 149.252 355.986 148.295 356.018 144.369Z" fill="black"/>
<path d="M429.388 144.497C429.388 142.423 429.293 140.508 429.165 140.221C429.069 139.965 428.686 139.774 428.303 139.838C427.664 139.934 427.632 140.093 427.632 144.401C427.632 148.614 427.664 148.869 428.271 148.965C428.622 149.029 429.005 148.901 429.133 148.646C429.261 148.422 429.388 146.54 429.388 144.497Z" fill="black"/>
<path d="M395.768 148.965C396.503 149.029 396.503 149.029 396.471 144.369L396.471 144.36C396.439 139.806 396.438 139.742 395.768 139.838C395.098 139.934 395.066 140.061 395.066 144.401C395.066 148.805 395.066 148.869 395.768 148.965Z" fill="black"/>
<path d="M449.854 144.433C449.854 142.104 449.758 141.306 449.375 140.923C449.088 140.668 448.673 140.508 448.417 140.604C448.034 140.763 447.938 141.561 447.907 144.433C447.907 147.401 448.002 148.103 448.385 148.231C448.641 148.327 449.088 148.167 449.343 147.912C449.694 147.561 449.822 146.635 449.854 144.433Z" fill="black"/>
<rect x="337.474" y="63.9905" width="165.12" height="46.5672" rx="9.05721" transform="rotate(11.7706 337.474 63.9905)" fill="#F35423"/>
<rect x="337.474" y="63.9905" width="165.12" height="46.5672" rx="9.05721" transform="rotate(11.7706 337.474 63.9905)" stroke="#F35423" stroke-width="0.854099"/>
<g clip-path="url(#clip0_1806_2172)">
<path d="M351.019 101.495L372.056 87.7138L369.3 83.5065L348.263 97.288L351.019 101.495Z" stroke="white" stroke-width="1.18553" stroke-linecap="round" stroke-linejoin="round"/>
<path d="M365.094 86.2627L367.85 90.47" stroke="white" stroke-width="1.18553" stroke-linecap="round" stroke-linejoin="round"/>
<path d="M358.852 81.3294C358.724 81.945 358.846 82.5864 359.19 83.1124C359.535 83.6384 360.074 84.006 360.69 84.1343C360.074 84.006 359.433 84.1275 358.907 84.4721C358.381 84.8167 358.013 85.3562 357.885 85.9718C358.013 85.3562 357.892 84.7148 357.547 84.1888C357.203 83.6628 356.663 83.2952 356.048 83.1669C356.663 83.2952 357.305 83.1737 357.831 82.8291C358.357 82.4845 358.724 81.945 358.852 81.3294Z" stroke="white" stroke-width="1.18553" stroke-linecap="round" stroke-linejoin="round"/>
<path d="M368.042 95.3538C367.914 95.9694 368.035 96.6108 368.38 97.1368C368.724 97.6628 369.264 98.0304 369.879 98.1587C369.264 98.0304 368.622 98.1519 368.096 98.4965C367.57 98.8411 367.203 99.3806 367.075 99.9962C367.203 99.3806 367.081 98.7392 366.737 98.2132C366.392 97.6872 365.853 97.3196 365.237 97.1913C365.853 97.3196 366.494 97.1981 367.02 96.8535C367.546 96.5089 367.914 95.9694 368.042 95.3538Z" stroke="white" stroke-width="1.18553" stroke-linecap="round" stroke-linejoin="round"/>
</g>
<path d="M380.724 90.5855L382.159 101.264L382.297 101.293L387.878 92.0764L389.379 92.389L382.577 103.302L381.1 102.994L379.223 90.2729L380.724 90.5855ZM388.572 104.551L390.419 95.6883L391.781 95.9721L389.934 104.835L388.572 104.551ZM391.419 94.3555C391.154 94.3002 390.944 94.1621 390.789 93.9412C390.638 93.7212 390.589 93.4842 390.642 93.2303C390.695 92.9764 390.835 92.7787 391.061 92.6372C391.291 92.4965 391.539 92.4538 391.804 92.5091C392.069 92.5644 392.277 92.7021 392.428 92.9222C392.583 93.143 392.634 93.3804 392.581 93.6343C392.528 93.8882 392.387 94.0855 392.157 94.2262C391.93 94.3677 391.685 94.4108 391.419 94.3555ZM395.736 106.237C394.998 106.083 394.384 105.76 393.897 105.269C393.41 104.775 393.078 104.151 392.902 103.4C392.726 102.645 392.736 101.798 392.931 100.86C393.125 99.9288 393.453 99.1543 393.915 98.5361C394.377 97.9179 394.932 97.4816 395.579 97.2271C396.226 96.9726 396.922 96.9231 397.669 97.0786C398.246 97.1988 398.681 97.39 398.976 97.652C399.275 97.911 399.488 98.1802 399.614 98.4594C399.746 98.7355 399.845 98.961 399.913 99.1357L400.028 99.1597L400.937 94.7976L402.299 95.0813L399.837 106.898L398.521 106.624L398.805 105.263L398.643 105.229C398.51 105.37 398.325 105.544 398.089 105.752C397.854 105.955 397.545 106.118 397.163 106.239C396.781 106.356 396.306 106.355 395.736 106.237ZM396.176 105.052C396.722 105.166 397.213 105.119 397.65 104.913C398.087 104.703 398.456 104.365 398.758 103.898C399.061 103.427 399.282 102.857 399.422 102.188C399.559 101.526 399.584 100.927 399.495 100.391C399.407 99.851 399.203 99.4032 398.884 99.0477C398.565 98.6883 398.129 98.4509 397.575 98.3355C396.998 98.2152 396.487 98.2632 396.04 98.4792C395.598 98.6922 395.229 99.0306 394.932 99.4944C394.639 99.9552 394.428 100.497 394.298 101.12C394.166 101.751 394.143 102.344 394.228 102.9C394.318 103.452 394.521 103.92 394.839 104.304C395.161 104.684 395.606 104.933 396.176 105.052ZM406.197 108.416C405.343 108.238 404.646 107.896 404.105 107.39C403.569 106.881 403.205 106.252 403.012 105.501C402.824 104.747 402.824 103.917 403.013 103.009C403.203 102.101 403.535 101.335 404.01 100.712C404.49 100.085 405.068 99.6399 405.745 99.3756C406.427 99.1083 407.168 99.058 407.968 99.2247C408.43 99.3209 408.87 99.4928 409.288 99.7405C409.706 99.9881 410.063 100.324 410.36 100.747C410.658 101.166 410.858 101.681 410.959 102.292C411.061 102.904 411.025 103.623 410.853 104.45L410.733 105.027L403.901 103.603L404.146 102.426L409.593 103.561C409.697 103.061 409.69 102.594 409.572 102.16C409.458 101.727 409.241 101.358 408.923 101.055C408.609 100.753 408.206 100.551 407.713 100.448C407.171 100.335 406.673 100.372 406.221 100.559C405.773 100.742 405.399 101.025 405.099 101.408C404.798 101.791 404.597 102.227 404.495 102.715L404.332 103.5C404.192 104.17 404.19 104.761 404.323 105.275C404.462 105.785 404.714 106.205 405.078 106.534C405.444 106.859 405.902 107.079 406.452 107.193C406.81 107.268 407.143 107.285 407.453 107.245C407.767 107.202 408.051 107.101 408.305 106.941C408.56 106.777 408.777 106.554 408.956 106.27L410.195 106.913C409.964 107.331 409.649 107.675 409.252 107.945C408.855 108.212 408.397 108.389 407.876 108.477C407.357 108.562 406.797 108.541 406.197 108.416ZM415.539 110.363C414.739 110.196 414.077 109.86 413.552 109.353C413.031 108.847 412.673 108.216 412.477 107.461C412.285 106.707 412.285 105.872 412.475 104.956C412.668 104.033 413.003 103.262 413.481 102.643C413.963 102.025 414.544 101.588 415.223 101.333C415.906 101.078 416.648 101.033 417.448 101.2C418.248 101.367 418.909 101.703 419.43 102.209C419.954 102.716 420.312 103.348 420.503 104.106C420.698 104.866 420.7 105.707 420.507 106.63C420.316 107.545 419.98 108.31 419.499 108.924C419.022 109.539 418.442 109.974 417.758 110.229C417.079 110.485 416.339 110.53 415.539 110.363ZM415.794 109.14C416.402 109.266 416.934 109.215 417.391 108.985C417.849 108.755 418.225 108.406 418.519 107.938C418.813 107.469 419.022 106.939 419.145 106.346C419.269 105.754 419.29 105.182 419.208 104.631C419.126 104.08 418.922 103.606 418.595 103.209C418.268 102.812 417.801 102.55 417.193 102.423C416.586 102.297 416.053 102.35 415.595 102.584C415.137 102.818 414.76 103.171 414.465 103.643C414.17 104.115 413.96 104.648 413.837 105.24C413.714 105.832 413.693 106.402 413.776 106.949C413.859 107.496 414.064 107.966 414.391 108.36C414.719 108.753 415.186 109.013 415.794 109.14ZM426.427 112.439L428.889 100.622L436.021 102.108L435.756 103.377L430.055 102.19L429.223 106.182L434.555 107.293L434.29 108.563L428.959 107.452L428.122 111.468L433.915 112.675L433.651 113.944L426.427 112.439ZM441.746 106.384L441.506 107.538L436.728 106.542L436.969 105.388L441.746 106.384ZM436.553 114.549L438.655 104.463C438.761 103.955 438.968 103.557 439.277 103.268C439.586 102.979 439.949 102.79 440.365 102.7C440.781 102.61 441.2 102.609 441.623 102.698C441.958 102.767 442.226 102.851 442.426 102.949C442.626 103.047 442.774 103.13 442.868 103.198L442.23 104.293C442.166 104.255 442.076 104.207 441.96 104.146C441.848 104.087 441.694 104.037 441.497 103.996C441.047 103.902 440.699 103.948 440.451 104.133C440.208 104.319 440.04 104.631 439.949 105.07L437.915 114.833L436.553 114.549ZM447.602 107.604L447.361 108.758L442.584 107.762L442.824 106.608L447.602 107.604ZM442.408 115.769L444.51 105.683C444.616 105.175 444.823 104.777 445.132 104.488C445.441 104.199 445.804 104.01 446.22 103.92C446.636 103.83 447.056 103.829 447.479 103.918C447.813 103.987 448.081 104.071 448.281 104.169C448.482 104.267 448.629 104.35 448.723 104.418L448.085 105.513C448.021 105.476 447.931 105.427 447.815 105.366C447.703 105.307 447.549 105.257 447.353 105.216C446.903 105.122 446.554 105.168 446.307 105.353C446.063 105.539 445.896 105.851 445.804 106.29L443.77 116.053L442.408 115.769ZM450.976 117.747C450.122 117.569 449.424 117.227 448.884 116.721C448.348 116.212 447.983 115.582 447.79 114.832C447.602 114.078 447.603 113.247 447.792 112.339C447.981 111.432 448.313 110.666 448.788 110.043C449.268 109.416 449.846 108.971 450.524 108.706C451.205 108.439 451.946 108.389 452.747 108.555C453.208 108.652 453.648 108.824 454.066 109.071C454.484 109.319 454.842 109.654 455.139 110.077C455.437 110.497 455.636 111.012 455.738 111.623C455.839 112.234 455.804 112.953 455.631 113.78L455.511 114.357L448.679 112.934L448.925 111.757L454.372 112.892C454.476 112.392 454.469 111.925 454.351 111.491C454.236 111.057 454.02 110.689 453.702 110.386C453.387 110.084 452.984 109.881 452.492 109.779C451.949 109.666 451.452 109.702 451 109.889C450.552 110.073 450.178 110.356 449.877 110.739C449.577 111.122 449.376 111.558 449.274 112.046L449.11 112.831C448.971 113.5 448.968 114.092 449.102 114.605C449.24 115.116 449.492 115.535 449.857 115.864C450.223 116.189 450.681 116.409 451.231 116.524C451.588 116.598 451.922 116.616 452.231 116.576C452.545 116.533 452.829 116.432 453.083 116.272C453.338 116.108 453.555 115.884 453.735 115.601L454.974 116.244C454.742 116.662 454.428 117.005 454.03 117.276C453.633 117.542 453.175 117.72 452.655 117.808C452.136 117.892 451.576 117.872 450.976 117.747ZM460.317 119.694C459.487 119.521 458.812 119.175 458.294 118.658C457.775 118.14 457.426 117.504 457.247 116.748C457.067 115.992 457.069 115.172 457.254 114.287C457.441 113.387 457.772 112.627 458.247 112.007C458.725 111.385 459.304 110.941 459.981 110.677C460.663 110.41 461.404 110.359 462.204 110.526C462.827 110.656 463.364 110.888 463.816 111.223C464.268 111.558 464.611 111.967 464.843 112.449C465.076 112.931 465.173 113.457 465.135 114.027L463.773 113.743C463.753 113.317 463.597 112.912 463.304 112.525C463.016 112.136 462.572 111.879 461.972 111.754C461.441 111.643 460.947 111.685 460.489 111.879C460.036 112.069 459.646 112.391 459.318 112.845C458.996 113.295 458.765 113.855 458.625 114.525C458.482 115.209 458.466 115.828 458.575 116.381C458.689 116.934 458.915 117.392 459.252 117.756C459.594 118.12 460.034 118.358 460.572 118.47C460.926 118.544 461.26 118.55 461.574 118.487C461.889 118.424 462.17 118.298 462.418 118.108C462.666 117.919 462.866 117.672 463.018 117.367L464.38 117.65C464.194 118.157 463.905 118.589 463.514 118.945C463.127 119.298 462.66 119.546 462.113 119.688C461.57 119.828 460.971 119.83 460.317 119.694ZM471.533 112.59L471.292 113.744L466.699 112.787L466.94 111.633L471.533 112.59ZM468.721 109.789L470.083 110.073L468.323 118.52C468.242 118.905 468.238 119.205 468.31 119.42C468.386 119.633 468.505 119.79 468.669 119.893C468.837 119.992 469.021 120.062 469.221 120.104C469.371 120.135 469.495 120.153 469.595 120.158C469.695 120.159 469.775 120.159 469.835 120.16L469.857 121.441C469.758 121.456 469.622 121.464 469.449 121.464C469.276 121.468 469.062 121.444 468.808 121.391C468.423 121.311 468.064 121.149 467.729 120.907C467.398 120.665 467.146 120.35 466.975 119.961C466.807 119.573 466.776 119.121 466.884 118.606L468.721 109.789ZM479.287 116.277L477.991 116.369C477.957 116.149 477.885 115.927 477.775 115.703C477.669 115.477 477.503 115.273 477.276 115.094C477.048 114.914 476.736 114.782 476.34 114.7C475.798 114.587 475.32 114.618 474.906 114.792C474.497 114.964 474.253 115.24 474.174 115.621C474.103 115.96 474.17 116.253 474.376 116.5C474.581 116.748 474.932 116.991 475.427 117.231L476.676 117.828C477.428 118.186 477.957 118.603 478.263 119.08C478.57 119.554 478.659 120.1 478.53 120.719C478.424 121.227 478.183 121.65 477.807 121.99C477.436 122.329 476.966 122.561 476.399 122.683C475.831 122.806 475.203 122.795 474.515 122.652C473.611 122.464 472.903 122.112 472.393 121.596C471.882 121.08 471.626 120.429 471.626 119.642L472.986 119.588C473.009 120.091 473.168 120.497 473.46 120.807C473.757 121.117 474.184 121.331 474.742 121.447C475.376 121.579 475.908 121.55 476.338 121.358C476.771 121.164 477.028 120.876 477.107 120.495C477.172 120.187 477.118 119.907 476.945 119.655C476.774 119.398 476.476 119.171 476.052 118.975L474.647 118.321C473.875 117.959 473.341 117.537 473.044 117.054C472.752 116.567 472.67 116.018 472.797 115.407C472.902 114.907 473.134 114.493 473.495 114.167C473.86 113.842 474.309 113.621 474.844 113.503C475.382 113.386 475.962 113.393 476.585 113.523C477.463 113.706 478.111 114.041 478.531 114.53C478.955 115.02 479.207 115.602 479.287 116.277Z" fill="white"/>
<path d="M478.802 134.142C478.633 133.069 479.874 132.352 480.718 133.035L501.478 149.824C502.338 150.519 501.863 151.908 500.757 151.931L491.125 152.131C490.719 152.139 490.346 152.355 490.136 152.702L485.146 160.944C484.574 161.889 483.133 161.606 482.961 160.514L478.802 134.142Z" fill="#F35423" stroke="white" stroke-width="1.43451"/>
<path d="M142.418 80.6992H153.894V90.1058L148.156 95.0443L142.418 90.1058V80.6992Z" fill="#F35423"/>
<path d="M148.154 90.7402L148.154 196.894" stroke="#F35423" stroke-width="2.86902"/>
<defs>
<clipPath id="clip0_1806_2172">
<rect width="28.4528" height="28.4528" fill="white" transform="translate(349.135 75.6719) rotate(11.7706)"/>
</clipPath>
</defs>
</svg>
