<svg width="526" height="200" viewBox="0 0 526 200" fill="none" xmlns="http://www.w3.org/2000/svg">
<rect width="526" height="200" fill="white"/>
<rect x="399.215" y="118.82" width="65.3942" height="38.9251" rx="3.89767" fill="black"/>
<rect x="399.215" y="118.82" width="65.3942" height="38.9251" rx="3.89767" stroke="#484848" stroke-width="0.778502"/>
<rect x="402.396" y="121.287" width="24.6498" height="2.14346" rx="1.07173" fill="white"/>
<rect x="402.396" y="131.291" width="5.7159" height="2.14346" rx="1.07173" fill="#484848"/>
<rect x="409.898" y="131.291" width="12.8608" height="2.14346" rx="1.07173" fill="white"/>
<rect x="424.545" y="131.291" width="4.64417" height="2.14346" rx="1.07173" fill="#F35423"/>
<rect x="402.396" y="135.577" width="5.7159" height="2.14346" rx="1.07173" fill="#484848"/>
<rect x="409.898" y="135.577" width="20.3629" height="2.14346" rx="1.07173" fill="white"/>
<rect x="432.047" y="135.577" width="4.64417" height="2.14346" rx="1.07173" fill="white"/>
<rect x="402.396" y="139.864" width="5.7159" height="2.14346" rx="1.07173" fill="#484848"/>
<rect x="409.898" y="139.864" width="15.7187" height="2.14346" rx="1.07173" fill="white"/>
<rect x="402.396" y="144.151" width="5.7159" height="2.14346" rx="1.07173" fill="white"/>
<rect x="409.898" y="144.151" width="12.8608" height="2.14346" rx="1.07173" fill="white"/>
<rect x="424.545" y="144.151" width="4.64417" height="2.14346" rx="1.07173" fill="#F35423"/>
<rect x="402.396" y="148.438" width="5.7159" height="2.14346" rx="1.07173" fill="#484848"/>
<rect x="409.898" y="148.438" width="12.8608" height="2.14346" rx="1.07173" fill="#F35423"/>
<rect x="424.545" y="148.438" width="4.64417" height="2.14346" rx="1.07173" fill="white"/>
<rect x="459.199" y="121.287" width="2.14346" height="2.14346" rx="1.07173" fill="#484848"/>
<rect x="456.34" y="121.287" width="2.14346" height="2.14346" rx="1.07173" fill="#484848"/>
<g clip-path="url(#clip0_3024_7513)">
<rect x="312.939" y="59.7705" width="76.0929" height="95.0268" fill="white"/>
<rect x="312.939" y="67.2734" width="76.0929" height="33.2237" fill="#FFC3B1"/>
<rect x="343.305" y="119.072" width="42.1548" height="30.0085" fill="#FFC3B1"/>
<rect x="316.512" y="62.6289" width="10.7173" height="2.14346" rx="1.07173" fill="#F35423"/>
<rect x="340.807" y="62.6289" width="5.35866" height="2.14346" rx="1.07173" fill="#FFC3B1"/>
<rect x="316.51" y="105.141" width="8.93109" height="2.14346" rx="1.07173" fill="#FFC3B1"/>
<rect x="316.51" y="108.714" width="15.0042" height="2.14346" rx="1.07173" fill="#FFC3B1"/>
<rect x="316.51" y="112.285" width="15.0042" height="2.14346" rx="1.07173" fill="#FFC3B1"/>
<rect x="316.51" y="132.648" width="8.93109" height="2.14346" rx="1.07173" fill="#FFC3B1"/>
<rect x="316.51" y="136.222" width="15.0042" height="2.14346" rx="1.07173" fill="#FFC3B1"/>
<rect x="316.51" y="139.793" width="15.0042" height="2.14346" rx="1.07173" fill="#FFC3B1"/>
<rect x="316.51" y="144.795" width="10.7173" height="4.28692" rx="2.14346" fill="#F35423"/>
<rect x="343.307" y="105.141" width="8.93109" height="2.14346" rx="1.07173" fill="#FFC3B1"/>
<rect x="343.307" y="108.714" width="15.0042" height="2.14346" rx="1.07173" fill="#FFC3B1"/>
<rect x="343.307" y="112.285" width="15.0042" height="2.14346" rx="1.07173" fill="#FFC3B1"/>
<rect x="370.459" y="105.141" width="8.93109" height="2.14346" rx="1.07173" fill="#FFC3B1"/>
<rect x="370.459" y="108.714" width="15.0042" height="2.14346" rx="1.07173" fill="#FFC3B1"/>
<rect x="370.459" y="112.285" width="15.0042" height="2.14346" rx="1.07173" fill="#FFC3B1"/>
<rect x="348.307" y="62.6289" width="5.35866" height="2.14346" rx="1.07173" fill="#FFC3B1"/>
<rect x="355.809" y="62.6289" width="5.35866" height="2.14346" rx="1.07173" fill="#FFC3B1"/>
<rect x="316.512" y="77.6318" width="22.1491" height="4.28692" rx="2.14346" fill="white"/>
<rect x="316.512" y="90.4932" width="10.7173" height="4.28692" rx="2.14346" fill="#F35423"/>
<rect x="316.512" y="83.3486" width="28.9367" height="4.28692" rx="2.14346" fill="white"/>
<path d="M358.309 80.8478L371.884 73.3457L385.459 80.8478V94.4231H358.309V80.8478Z" fill="#F35423"/>
</g>
<rect x="313.329" y="60.1598" width="75.3144" height="94.2483" stroke="#FFC3B1" stroke-width="0.778502"/>
<rect x="370.812" y="84.7773" width="25.0071" height="2.50071" rx="1.25035" fill="black"/>
<rect x="398.678" y="59.7705" width="15.7187" height="15.7187" rx="2.85795" fill="#FFF1ED"/>
<path d="M401.891 64.0576L411.179 66.5583V71.5597H401.891V64.0576Z" fill="white"/>
<rect x="237.288" y="44.0836" width="65.6688" height="94.2483" rx="3.89767" fill="black"/>
<rect x="237.288" y="44.0836" width="65.6688" height="94.2483" rx="3.89767" stroke="#484848" stroke-width="0.778502"/>
<rect x="240.469" y="46.5527" width="24.6498" height="2.14346" rx="1.07173" fill="white"/>
<rect x="240.471" y="56.5557" width="5.7159" height="2.14346" rx="1.07173" fill="#484848"/>
<rect x="247.973" y="56.5557" width="12.8608" height="2.14346" rx="1.07173" fill="white"/>
<rect x="262.619" y="56.5557" width="4.64417" height="2.14346" rx="1.07173" fill="#F35423"/>
<rect x="240.471" y="60.8418" width="5.7159" height="2.14346" rx="1.07173" fill="#484848"/>
<rect x="247.973" y="60.8418" width="20.3629" height="2.14346" rx="1.07173" fill="white"/>
<rect x="270.121" y="60.8418" width="4.64417" height="2.14346" rx="1.07173" fill="white"/>
<rect x="240.471" y="65.1289" width="5.7159" height="2.14346" rx="1.07173" fill="#484848"/>
<rect x="247.973" y="65.1289" width="15.7187" height="2.14346" rx="1.07173" fill="white"/>
<rect x="240.471" y="69.416" width="5.7159" height="2.14346" rx="1.07173" fill="#484848"/>
<rect x="247.973" y="69.416" width="12.8608" height="2.14346" rx="1.07173" fill="#F35423"/>
<rect x="262.619" y="69.416" width="4.64417" height="2.14346" rx="1.07173" fill="white"/>
<rect x="240.471" y="73.7031" width="5.7159" height="2.14346" rx="1.07173" fill="white"/>
<rect x="247.973" y="73.7031" width="2.85795" height="2.14346" rx="1.07173" fill="white"/>
<rect x="252.617" y="73.7031" width="4.64417" height="2.14346" rx="1.07173" fill="#F35423"/>
<rect x="240.471" y="77.9902" width="5.7159" height="2.14346" rx="1.07173" fill="#484848"/>
<rect x="240.471" y="82.2764" width="5.7159" height="2.14346" rx="1.07173" fill="#484848"/>
<rect x="247.973" y="82.2764" width="5.35866" height="2.14346" rx="1.07173" fill="white"/>
<rect x="240.471" y="86.5635" width="5.7159" height="2.14346" rx="1.07173" fill="#484848"/>
<rect x="247.973" y="86.5635" width="15.7187" height="2.14346" rx="1.07173" fill="white"/>
<rect x="240.471" y="90.8506" width="5.7159" height="2.14346" rx="1.07173" fill="#484848"/>
<rect x="247.973" y="90.8506" width="2.85795" height="2.14346" rx="1.07173" fill="white"/>
<rect x="252.617" y="90.8506" width="4.64417" height="2.14346" rx="1.07173" fill="#F35423"/>
<rect x="240.471" y="95.1377" width="5.7159" height="2.14346" rx="1.07173" fill="white"/>
<rect x="247.973" y="95.1377" width="12.8608" height="2.14346" rx="1.07173" fill="white"/>
<rect x="262.619" y="95.1377" width="4.64417" height="2.14346" rx="1.07173" fill="#F35423"/>
<rect x="240.471" y="99.4248" width="5.7159" height="2.14346" rx="1.07173" fill="#484848"/>
<rect x="247.973" y="99.4248" width="5.35866" height="2.14346" rx="1.07173" fill="white"/>
<rect x="240.471" y="103.711" width="5.7159" height="2.14346" rx="1.07173" fill="#484848"/>
<rect x="247.973" y="103.711" width="20.3629" height="2.14346" rx="1.07173" fill="white"/>
<rect x="270.121" y="103.711" width="4.64417" height="2.14346" rx="1.07173" fill="white"/>
<rect x="240.471" y="107.998" width="5.7159" height="2.14346" rx="1.07173" fill="#484848"/>
<rect x="240.471" y="112.285" width="5.7159" height="2.14346" rx="1.07173" fill="#484848"/>
<rect x="247.973" y="112.285" width="15.7187" height="2.14346" rx="1.07173" fill="white"/>
<rect x="240.471" y="116.572" width="5.7159" height="2.14346" rx="1.07173" fill="#484848"/>
<rect x="247.973" y="116.572" width="15.7187" height="2.14346" rx="1.07173" fill="white"/>
<rect x="240.471" y="120.859" width="5.7159" height="2.14346" rx="1.07173" fill="#484848"/>
<rect x="247.973" y="120.859" width="2.85795" height="2.14346" rx="1.07173" fill="white"/>
<rect x="252.617" y="120.859" width="4.64417" height="2.14346" rx="1.07173" fill="#F35423"/>
<rect x="240.471" y="125.146" width="5.7159" height="2.14346" rx="1.07173" fill="#484848"/>
<rect x="247.973" y="125.146" width="12.8608" height="2.14346" rx="1.07173" fill="white"/>
<rect x="262.619" y="125.146" width="4.64417" height="2.14346" rx="1.07173" fill="#F35423"/>
<rect x="240.471" y="129.433" width="5.7159" height="2.14346" rx="1.07173" fill="#484848"/>
<rect x="247.973" y="129.433" width="12.8608" height="2.14346" rx="1.07173" fill="#F35423"/>
<rect x="262.619" y="129.433" width="4.64417" height="2.14346" rx="1.07173" fill="white"/>
<rect x="297.273" y="46.5527" width="2.14346" height="2.14346" rx="1.07173" fill="#484848"/>
<rect x="294.414" y="46.5527" width="2.14346" height="2.14346" rx="1.07173" fill="#484848"/>
<rect x="398.678" y="96.9238" width="15.7187" height="15.7187" rx="2.85795" fill="#FFF1ED"/>
<path d="M401.891 103.354H406.535L408.857 101.211L411.179 103.354V108.356H401.891V103.354Z" fill="white"/>
<rect x="398.678" y="78.3477" width="15.7187" height="15.7187" rx="2.85795" fill="#F35423"/>
<path d="M401.533 85.306L406.535 82.6357L411.536 85.306V90.1379H401.533V85.306Z" fill="white"/>
<rect x="289.836" y="145.679" width="32.6971" height="2.33551" rx="1.16775" fill="black"/>
<rect x="275.631" y="140.865" width="12.8608" height="12.8608" rx="6.43039" fill="#F35423"/>
<g clip-path="url(#clip1_3024_7513)">
<path d="M282.057 144.794V149.795" stroke="white" stroke-width="1.42897" stroke-linecap="round" stroke-linejoin="round"/>
<path d="M279.557 147.296H284.558" stroke="white" stroke-width="1.42897" stroke-linecap="round" stroke-linejoin="round"/>
</g>
<g clip-path="url(#clip2_3024_7513)">
<path d="M313.836 50.8537C315.077 49.4097 317.378 49.6946 318.238 51.3816C317.632 51.3819 316.684 51.3812 316.171 51.3816C315.798 51.3816 315.558 51.3732 315.297 51.5104C314.991 51.6715 314.76 51.9702 314.68 52.3212L313.836 50.8537Z" fill="#F44336"/>
<path d="M314.975 52.5926C314.975 53.0821 315.373 53.4801 315.862 53.4801C316.351 53.4801 316.749 53.0821 316.749 52.5926C316.749 52.1031 316.351 51.7051 315.862 51.7051C315.372 51.7047 314.975 52.1031 314.975 52.5926Z" fill="#2196F3"/>
<path d="M316.204 53.754C315.706 53.9018 315.123 53.738 314.804 53.1868C314.561 52.7663 313.917 51.6449 313.624 51.1348C312.599 52.7056 313.483 54.846 315.343 55.2114L316.204 53.754Z" fill="#4CAF50"/>
<path d="M316.684 51.7044C317.098 52.0901 317.189 52.7147 316.908 53.1989C316.696 53.5639 316.021 54.704 315.693 55.2559C317.61 55.374 319.008 53.4955 318.376 51.7041L316.684 51.7044Z" fill="#FFC107"/>
</g>
<g clip-path="url(#clip3_3024_7513)">
<path d="M326.511 51.7143C326.399 51.4439 326.171 51.1519 325.993 51.0597C326.138 51.3449 326.222 51.6311 326.254 51.8447C326.254 51.8451 326.255 51.8461 326.255 51.849C325.963 51.12 325.467 50.826 325.062 50.186C325.041 50.1536 325.021 50.1211 325.001 50.0869C324.99 50.0695 324.981 50.0516 324.972 50.0334C324.955 50.0009 324.942 49.9666 324.934 49.9311C324.934 49.9276 324.931 49.9246 324.928 49.9242C324.926 49.9237 324.924 49.9237 324.923 49.9242C324.922 49.9243 324.922 49.9247 324.921 49.9249C324.921 49.9251 324.917 49.9274 324.917 49.9272C324.267 50.3077 324.05 51.009 324.03 51.3612C323.771 51.379 323.523 51.4746 323.318 51.6355C323.297 51.6174 323.275 51.6005 323.251 51.5849C323.192 51.3786 323.19 51.1603 323.244 50.9528C322.978 51.0738 322.772 51.265 322.621 51.4339H322.62C322.518 51.304 322.525 50.8756 322.531 50.7861C322.53 50.7806 322.454 50.8252 322.444 50.8319C322.354 50.8965 322.269 50.969 322.192 51.0485C322.103 51.1381 322.022 51.235 321.95 51.3381C321.95 51.3383 321.95 51.3384 321.95 51.3385C321.95 51.3384 321.95 51.3383 321.95 51.3381C321.784 51.5738 321.666 51.8402 321.603 52.1217C321.602 52.1273 321.601 52.1331 321.6 52.1388C321.595 52.1616 321.577 52.2755 321.574 52.3002C321.574 52.3022 321.574 52.304 321.573 52.3059C321.551 52.4237 321.537 52.5429 321.532 52.6628C321.532 52.6672 321.531 52.6715 321.531 52.676C321.531 54.1044 322.689 55.2623 324.118 55.2623C325.397 55.2623 326.46 54.3336 326.667 53.1137C326.672 53.0806 326.675 53.0473 326.679 53.0139C326.731 52.5703 326.674 52.1041 326.511 51.7143ZM323.53 53.7387C323.542 53.7445 323.554 53.7508 323.566 53.7564C323.567 53.7567 323.567 53.7571 323.568 53.7575C323.555 53.7514 323.543 53.7452 323.53 53.7387ZM326.255 51.8496L326.255 51.8471C326.255 51.848 326.255 51.849 326.255 51.8499L326.255 51.8496Z" fill="url(#paint0_linear_3024_7513)"/>
<path d="M326.511 51.7122C326.399 51.4418 326.171 51.1499 325.993 51.0576C326.138 51.3429 326.222 51.6291 326.254 51.8426C326.254 51.842 326.255 51.8431 326.255 51.8451C326.255 51.846 326.255 51.8469 326.255 51.8478C326.499 52.5094 326.366 53.1822 326.175 53.5933C325.878 54.2294 325.161 54.8813 324.038 54.8495C322.824 54.8152 321.755 53.9147 321.555 52.7353C321.519 52.5494 321.555 52.4549 321.573 52.3039C321.551 52.4203 321.543 52.454 321.532 52.6608C321.532 52.6652 321.531 52.6696 321.531 52.674C321.531 54.1023 322.689 55.2602 324.118 55.2602C325.397 55.2602 326.459 54.3315 326.667 53.1116C326.672 53.0785 326.675 53.0452 326.679 53.0118C326.731 52.5683 326.674 52.1021 326.511 51.7122Z" fill="url(#paint1_radial_3024_7513)"/>
<path d="M326.511 51.7122C326.399 51.4418 326.171 51.1499 325.993 51.0576C326.138 51.3429 326.222 51.6291 326.254 51.8426C326.254 51.842 326.255 51.8431 326.255 51.8451C326.255 51.846 326.255 51.8469 326.255 51.8478C326.499 52.5094 326.366 53.1822 326.175 53.5933C325.878 54.2294 325.161 54.8813 324.038 54.8495C322.824 54.8152 321.755 53.9147 321.555 52.7353C321.519 52.5494 321.555 52.4549 321.573 52.3039C321.551 52.4203 321.543 52.454 321.532 52.6608C321.532 52.6652 321.531 52.6696 321.531 52.674C321.531 54.1023 322.689 55.2602 324.118 55.2602C325.397 55.2602 326.459 54.3315 326.667 53.1116C326.672 53.0785 326.675 53.0452 326.679 53.0118C326.731 52.5683 326.674 52.1021 326.511 51.7122Z" fill="url(#paint2_radial_3024_7513)"/>
<path d="M325.255 52.0172C325.261 52.0212 325.266 52.0251 325.272 52.029C325.207 51.9138 325.126 51.8083 325.031 51.7157C324.227 50.9118 324.919 49.926 324.919 49.9258C324.269 50.3063 324.052 51.0078 324.031 51.36C324.061 51.3579 324.091 51.3554 324.122 51.3554C324.607 51.3554 325.029 51.622 325.255 52.0172Z" fill="url(#paint3_radial_3024_7513)"/>
<path d="M324.123 52.1768C324.119 52.2412 323.891 52.463 323.812 52.463C323.076 52.463 322.957 52.9079 322.957 52.9079C322.99 53.2826 323.25 53.5911 323.566 53.7544C323.581 53.7618 323.595 53.7685 323.61 53.7752C323.635 53.7863 323.66 53.7966 323.686 53.8062C323.794 53.8446 323.908 53.8665 324.022 53.8712C325.312 53.9316 325.561 52.33 324.631 51.8648C324.869 51.8234 325.117 51.9192 325.255 52.0163C325.029 51.6211 324.606 51.3545 324.121 51.3545C324.091 51.3545 324.061 51.357 324.031 51.3591C323.771 51.377 323.523 51.4725 323.319 51.6334C323.358 51.6668 323.403 51.7114 323.496 51.8038C323.672 51.9767 324.122 52.1558 324.123 52.1768Z" fill="url(#paint4_radial_3024_7513)"/>
<path d="M324.123 52.1768C324.119 52.2412 323.891 52.463 323.812 52.463C323.076 52.463 322.957 52.9079 322.957 52.9079C322.99 53.2826 323.25 53.5911 323.566 53.7544C323.581 53.7618 323.595 53.7685 323.61 53.7752C323.635 53.7863 323.66 53.7966 323.686 53.8062C323.794 53.8446 323.908 53.8665 324.022 53.8712C325.312 53.9316 325.561 52.33 324.631 51.8648C324.869 51.8234 325.117 51.9192 325.255 52.0163C325.029 51.6211 324.606 51.3545 324.121 51.3545C324.091 51.3545 324.061 51.357 324.031 51.3591C323.771 51.377 323.523 51.4725 323.319 51.6334C323.358 51.6668 323.403 51.7114 323.496 51.8038C323.672 51.9767 324.122 52.1558 324.123 52.1768Z" fill="url(#paint5_radial_3024_7513)"/>
<path d="M323.197 51.5478C323.215 51.5594 323.233 51.5713 323.251 51.5833C323.192 51.377 323.19 51.1587 323.244 50.9512C322.978 51.0722 322.771 51.2634 322.621 51.4323C322.634 51.4319 323.009 51.4252 323.197 51.5478Z" fill="url(#paint6_radial_3024_7513)"/>
<path d="M321.556 52.7359C321.755 53.9153 322.824 54.8158 324.038 54.8502C325.161 54.882 325.879 54.23 326.175 53.594C326.367 53.1828 326.5 52.5101 326.256 51.8485L326.256 51.8482L326.255 51.8457C326.255 51.8438 326.255 51.8426 326.255 51.8433C326.255 51.8437 326.255 51.8447 326.255 51.8476C326.347 52.4466 326.042 53.027 325.566 53.4194L325.564 53.4228C324.636 54.1786 323.748 53.8788 323.568 53.7561C323.555 53.75 323.543 53.7438 323.53 53.7373C322.989 53.4787 322.766 52.9857 322.814 52.5628C322.357 52.5628 322.201 52.1774 322.201 52.1774C322.201 52.1774 322.611 51.8849 323.152 52.1393C323.653 52.3749 324.123 52.1774 324.123 52.1774C324.122 52.1564 323.672 51.9773 323.496 51.8044C323.403 51.712 323.358 51.6675 323.319 51.6341C323.297 51.616 323.275 51.5991 323.252 51.5835C323.234 51.5714 323.216 51.5596 323.198 51.548C323.009 51.4253 322.634 51.4321 322.622 51.4324H322.621C322.518 51.3025 322.525 50.8741 322.531 50.7847C322.53 50.7791 322.455 50.8237 322.445 50.8304C322.354 50.895 322.27 50.9675 322.192 51.047C322.104 51.1367 322.023 51.2336 321.95 51.3367C321.95 51.3369 321.95 51.337 321.95 51.3371C321.95 51.337 321.95 51.3369 321.95 51.3367C321.784 51.5724 321.666 51.8388 321.603 52.1203C321.602 52.1259 321.51 52.5276 321.556 52.7359Z" fill="url(#paint7_radial_3024_7513)"/>
<path d="M325.03 51.7159C325.125 51.8086 325.205 51.9141 325.27 52.0293C325.284 52.04 325.298 52.0506 325.309 52.061C325.895 52.6013 325.588 53.3655 325.565 53.42C326.042 53.0276 326.346 52.4472 326.255 51.8481C325.962 51.1191 325.466 50.8251 325.061 50.1851C325.041 50.1527 325.02 50.1203 325 50.0861C324.99 50.0686 324.981 50.0507 324.972 50.0325C324.955 50.0001 324.942 49.9657 324.933 49.9302C324.933 49.9267 324.931 49.9237 324.927 49.9233C324.926 49.9228 324.925 49.9227 324.923 49.9231C324.923 49.9232 324.922 49.9238 324.921 49.924C324.921 49.9242 324.92 49.9248 324.919 49.9251C324.821 49.9758 324.226 50.912 325.03 51.7159Z" fill="url(#paint8_radial_3024_7513)"/>
<path d="M325.31 52.0604C325.298 52.05 325.285 52.0393 325.271 52.0286C325.266 52.0247 325.26 52.0207 325.255 52.0168C325.117 51.9198 324.869 51.8239 324.631 51.8654C325.562 52.3305 325.312 53.9322 324.023 53.8717C323.908 53.867 323.794 53.8451 323.686 53.8068C323.66 53.7971 323.635 53.7868 323.61 53.7757C323.595 53.7691 323.581 53.7623 323.566 53.7549C323.567 53.7553 323.568 53.7556 323.568 53.756C323.748 53.8787 324.636 54.1785 325.565 53.4227L325.566 53.4193C325.589 53.3649 325.896 52.6007 325.31 52.0604Z" fill="url(#paint9_radial_3024_7513)"/>
<path d="M322.957 52.9084C322.957 52.9084 323.077 52.4635 323.812 52.4635C323.892 52.4635 324.119 52.2416 324.123 52.1772C324.128 52.1129 323.653 52.3748 323.152 52.1391C322.611 51.8847 322.201 52.1772 322.201 52.1772C322.201 52.1772 322.357 52.5627 322.814 52.5627C322.766 52.9855 322.99 53.4786 323.531 53.7372C323.543 53.7429 323.554 53.7492 323.567 53.7548C323.251 53.5915 322.99 53.283 322.957 52.9084Z" fill="url(#paint10_radial_3024_7513)"/>
<path d="M326.511 51.7134C326.399 51.443 326.171 51.1511 325.993 51.0588C326.138 51.3441 326.222 51.6302 326.254 51.8438C326.254 51.8442 326.255 51.8453 326.255 51.8481C325.962 51.1191 325.467 50.8251 325.062 50.1851C325.041 50.1527 325.021 50.1203 325.001 50.0861C324.99 50.0686 324.981 50.0507 324.972 50.0325C324.955 50.0001 324.942 49.9657 324.933 49.9302C324.934 49.9267 324.931 49.9237 324.928 49.9233C324.926 49.9228 324.925 49.9227 324.923 49.9231C324.923 49.9232 324.922 49.9238 324.921 49.924C324.921 49.9242 324.919 49.9254 324.919 49.9255C324.25 50.3255 324.05 51.0081 324.03 51.3603C324.06 51.3582 324.09 51.3557 324.121 51.3557C324.606 51.3557 325.028 51.6223 325.254 52.0174C325.116 51.9204 324.869 51.8246 324.631 51.866C325.561 52.3311 325.311 53.9328 324.022 53.8723C323.907 53.8677 323.794 53.8458 323.686 53.8074C323.66 53.7978 323.635 53.7875 323.61 53.7764C323.595 53.7697 323.58 53.763 323.566 53.7556C323.566 53.7559 323.567 53.7563 323.568 53.7566C323.555 53.7506 323.542 53.7443 323.53 53.7379C323.542 53.7436 323.553 53.75 323.566 53.7555C323.25 53.5923 322.989 53.2837 322.957 52.9091C322.957 52.9091 323.076 52.4642 323.812 52.4642C323.891 52.4642 324.118 52.2423 324.123 52.178C324.122 52.157 323.671 51.9779 323.496 51.805C323.402 51.7126 323.358 51.668 323.318 51.6346C323.297 51.6165 323.274 51.5996 323.251 51.584C323.192 51.3778 323.19 51.1594 323.244 50.9519C322.978 51.0729 322.772 51.2641 322.621 51.433H322.62C322.518 51.3031 322.525 50.8747 322.531 50.7852C322.529 50.7797 322.454 50.8243 322.444 50.831C322.354 50.8956 322.269 50.9681 322.191 51.0476C322.103 51.1372 322.022 51.2341 321.95 51.3373C321.95 51.3374 321.95 51.3375 321.95 51.3377C321.95 51.3375 321.95 51.3374 321.95 51.3373C321.784 51.573 321.666 51.8393 321.603 52.1209C321.602 52.1265 321.601 52.1323 321.599 52.1379C321.595 52.1607 321.573 52.2763 321.57 52.3011C321.569 52.303 321.57 52.2992 321.57 52.3011C321.55 52.4205 321.537 52.541 321.532 52.6619C321.532 52.6663 321.531 52.6707 321.531 52.6751C321.531 54.1035 322.689 55.2614 324.118 55.2614C325.397 55.2614 326.459 54.3327 326.667 53.1128C326.672 53.0797 326.675 53.0464 326.679 53.013C326.731 52.5695 326.673 52.1033 326.511 51.7134ZM326.255 51.8462C326.255 51.8471 326.255 51.8481 326.255 51.849L326.255 51.8487L326.255 51.8462Z" fill="url(#paint11_linear_3024_7513)"/>
</g>
<g clip-path="url(#clip4_3024_7513)">
<g opacity="0.08">
<path d="M332.36 55.2615C333.762 55.2615 334.898 54.1252 334.898 52.7235C334.898 51.3218 333.762 50.1855 332.36 50.1855C330.959 50.1855 329.822 51.3218 329.822 52.7235C329.822 54.1252 330.959 55.2615 332.36 55.2615Z" fill="black"/>
</g>
<path d="M332.362 55.1738C333.812 55.1738 334.987 53.9983 334.987 52.5483C334.987 51.0983 333.812 49.9229 332.362 49.9229C330.912 49.9229 329.736 51.0983 329.736 52.5483C329.736 53.9983 330.912 55.1738 332.362 55.1738Z" fill="url(#paint12_linear_3024_7513)"/>
<g opacity="0.08">
<path d="M332.36 49.9229C330.91 49.9229 329.734 51.0983 329.734 52.5484C329.734 53.9984 330.91 55.1739 332.36 55.1739C333.81 55.1739 334.985 53.9984 334.985 52.5484C334.985 51.0983 333.81 49.9229 332.36 49.9229ZM332.36 54.9988C331.009 54.9988 329.909 53.8995 329.909 52.5484C329.909 51.1972 331.009 50.0979 332.36 50.0979C333.711 50.0979 334.81 51.1972 334.81 52.5484C334.81 53.8995 333.711 54.9988 332.36 54.9988Z" fill="url(#paint13_linear_3024_7513)"/>
</g>
<g opacity="0.16">
<path d="M332.36 49.9229C330.91 49.9229 329.734 51.0983 329.734 52.5484C329.734 53.9984 330.91 55.1739 332.36 55.1739C333.81 55.1739 334.985 53.9984 334.985 52.5484C334.985 51.0983 333.81 49.9229 332.36 49.9229ZM332.36 55.0864C330.958 55.0864 329.822 53.95 329.822 52.5484C329.822 51.1467 330.958 50.0104 332.36 50.0104C333.762 50.0104 334.898 51.1467 334.898 52.5484C334.898 53.95 333.762 55.0864 332.36 55.0864Z" fill="black"/>
</g>
<path d="M332.363 54.9114C333.668 54.9114 334.726 53.8535 334.726 52.5485C334.726 51.2435 333.668 50.1855 332.363 50.1855C331.058 50.1855 330 51.2435 330 52.5485C330 53.8535 331.058 54.9114 332.363 54.9114Z" fill="url(#paint14_linear_3024_7513)"/>
<g opacity="0.16">
<path d="M332.359 50.1855C331.054 50.1855 329.996 51.2435 329.996 52.5485C329.996 53.8536 331.054 54.9115 332.359 54.9115C333.664 54.9115 334.722 53.8536 334.722 52.5485C334.722 51.2435 333.664 50.1855 332.359 50.1855ZM332.359 54.824C331.102 54.824 330.084 53.8052 330.084 52.5485C330.084 51.2919 331.102 50.2731 332.359 50.2731C333.616 50.2731 334.634 51.2919 334.634 52.5485C334.634 53.8052 333.616 54.824 332.359 54.824Z" fill="url(#paint15_linear_3024_7513)"/>
</g>
<g opacity="0.36">
<path d="M332.363 50.7912C332.343 50.7912 332.326 50.7749 332.326 50.7547V50.4047C332.326 50.3845 332.343 50.3682 332.363 50.3682C332.383 50.3682 332.399 50.3845 332.399 50.4047V50.7547C332.399 50.7749 332.383 50.7912 332.363 50.7912Z" fill="white"/>
<path d="M332.1 50.6341C332.082 50.6341 332.067 50.6208 332.064 50.6024L332.041 50.4289C332.039 50.409 332.053 50.3906 332.073 50.388C332.093 50.3854 332.111 50.3994 332.114 50.4194L332.137 50.5929C332.139 50.6129 332.125 50.6312 332.105 50.6338C332.104 50.634 332.102 50.6341 332.1 50.6341Z" fill="white"/>
<path d="M331.609 50.767C331.595 50.767 331.582 50.7585 331.576 50.7444L331.509 50.5827C331.501 50.5641 331.51 50.5427 331.528 50.535C331.547 50.5273 331.568 50.5361 331.576 50.5547L331.643 50.7165C331.651 50.7351 331.642 50.7564 331.623 50.7642C331.619 50.7661 331.614 50.767 331.609 50.767Z" fill="white"/>
<path d="M331.163 51.0244C331.152 51.0244 331.141 51.0195 331.134 51.0101L331.027 50.8712C331.015 50.8552 331.018 50.8323 331.034 50.82C331.05 50.8078 331.073 50.8108 331.085 50.8268L331.192 50.9657C331.204 50.9816 331.201 51.0046 331.185 51.0168C331.178 51.0219 331.17 51.0244 331.163 51.0244Z" fill="white"/>
<path d="M330.798 51.3886C330.791 51.3886 330.783 51.3861 330.776 51.381L330.637 51.2744C330.621 51.2622 330.618 51.2392 330.631 51.2233C330.643 51.2073 330.666 51.2043 330.682 51.2165L330.821 51.3231C330.837 51.3354 330.84 51.3583 330.827 51.3743C330.82 51.3837 330.809 51.3886 330.798 51.3886Z" fill="white"/>
<path d="M330.54 51.8334C330.535 51.8334 330.531 51.8325 330.526 51.8306L330.364 51.7636C330.346 51.7559 330.337 51.7345 330.345 51.7159C330.352 51.6973 330.374 51.6884 330.392 51.6962L330.554 51.7632C330.573 51.7709 330.581 51.7923 330.574 51.8109C330.568 51.8249 330.554 51.8334 330.54 51.8334Z" fill="white"/>
<path d="M330.407 52.3302C330.406 52.3302 330.404 52.3301 330.402 52.3299L330.229 52.307C330.209 52.3044 330.195 52.2861 330.198 52.2661C330.2 52.2461 330.219 52.2321 330.239 52.2347L330.412 52.2575C330.432 52.2601 330.446 52.2785 330.443 52.2985C330.441 52.3168 330.425 52.3302 330.407 52.3302Z" fill="white"/>
<path d="M331.897 50.8536C331.88 50.8536 331.866 50.8428 331.861 50.8265L331.771 50.4883C331.766 50.4689 331.777 50.4488 331.797 50.4436C331.816 50.4384 331.836 50.45 331.841 50.4694L331.932 50.8076C331.937 50.8271 331.926 50.8471 331.906 50.8523C331.903 50.8531 331.9 50.8536 331.897 50.8536Z" fill="white"/>
<path d="M331.464 51.0334C331.451 51.0334 331.439 51.0268 331.432 51.0151L331.257 50.712C331.247 50.6945 331.253 50.6722 331.27 50.6621C331.288 50.6521 331.31 50.658 331.32 50.6755L331.495 50.9786C331.505 50.9961 331.499 51.0184 331.482 51.0285C331.476 51.0318 331.47 51.0334 331.464 51.0334Z" fill="white"/>
<path d="M331.093 51.3176C331.083 51.3176 331.074 51.314 331.067 51.3069L330.819 51.0594C330.805 51.0451 330.805 51.022 330.819 51.0078C330.834 50.9935 330.857 50.9935 330.871 51.0078L331.118 51.2553C331.133 51.2695 331.133 51.2926 331.118 51.3069C331.111 51.314 331.102 51.3176 331.093 51.3176Z" fill="white"/>
<path d="M330.808 51.6885C330.802 51.6885 330.796 51.6869 330.79 51.6836L330.487 51.5085C330.47 51.4984 330.464 51.4761 330.474 51.4587C330.484 51.4412 330.506 51.4353 330.523 51.4453L330.827 51.6204C330.844 51.6304 330.85 51.6527 330.84 51.6702C330.833 51.6819 330.821 51.6885 330.808 51.6885Z" fill="white"/>
<path d="M330.625 52.1216C330.622 52.1216 330.618 52.1212 330.615 52.1203L330.277 52.0298C330.258 52.0245 330.246 52.0045 330.251 51.9851C330.256 51.9656 330.276 51.9541 330.296 51.9593L330.634 52.0498C330.654 52.055 330.665 52.0751 330.66 52.0945C330.656 52.1108 330.641 52.1216 330.625 52.1216Z" fill="white"/>
<path d="M330.566 52.5867H330.216C330.196 52.5867 330.18 52.5703 330.18 52.5502C330.18 52.53 330.196 52.5137 330.216 52.5137H330.566C330.586 52.5137 330.603 52.53 330.603 52.5502C330.603 52.5703 330.586 52.5867 330.566 52.5867Z" fill="white"/>
<path d="M330.234 52.8654C330.216 52.8654 330.2 52.852 330.198 52.8336C330.195 52.8136 330.209 52.7953 330.229 52.7927L330.402 52.7698C330.422 52.7672 330.441 52.7813 330.443 52.8013C330.446 52.8212 330.432 52.8396 330.412 52.8422L330.239 52.865C330.237 52.8652 330.235 52.8654 330.234 52.8654Z" fill="white"/>
<path d="M330.378 53.4057C330.364 53.4057 330.35 53.3972 330.345 53.3831C330.337 53.3645 330.346 53.3432 330.364 53.3355L330.526 53.2684C330.545 53.2607 330.566 53.2695 330.574 53.2882C330.581 53.3068 330.573 53.3281 330.554 53.3358L330.392 53.4029C330.388 53.4048 330.383 53.4057 330.378 53.4057Z" fill="white"/>
<path d="M330.66 53.8895C330.649 53.8895 330.638 53.8846 330.631 53.8753C330.618 53.8593 330.621 53.8364 330.637 53.8241L330.776 53.7175C330.792 53.7052 330.815 53.7082 330.827 53.7243C330.84 53.7402 330.837 53.7631 330.821 53.7754L330.682 53.882C330.675 53.8871 330.667 53.8895 330.66 53.8895Z" fill="white"/>
<path d="M331.054 54.2871C331.046 54.2871 331.038 54.2846 331.032 54.2795C331.016 54.2673 331.013 54.2443 331.025 54.2284L331.132 54.0895C331.144 54.0735 331.167 54.0705 331.183 54.0827C331.199 54.095 331.202 54.1179 331.19 54.1339L331.083 54.2728C331.076 54.2822 331.065 54.2871 331.054 54.2871Z" fill="white"/>
<path d="M331.538 54.5668C331.534 54.5668 331.529 54.5659 331.524 54.564C331.506 54.5563 331.497 54.5349 331.505 54.5163L331.572 54.3546C331.579 54.336 331.601 54.3271 331.619 54.3348C331.638 54.3425 331.647 54.3639 331.639 54.3825L331.572 54.5442C331.566 54.5583 331.553 54.5668 331.538 54.5668Z" fill="white"/>
<path d="M332.08 54.7103C332.078 54.7103 332.076 54.7102 332.075 54.71C332.055 54.7074 332.041 54.689 332.043 54.6691L332.066 54.4956C332.069 54.4756 332.087 54.4616 332.107 54.4642C332.127 54.4668 332.141 54.4851 332.138 54.5051L332.116 54.6786C332.113 54.6969 332.098 54.7103 332.08 54.7103Z" fill="white"/>
<path d="M330.288 53.1401C330.272 53.1401 330.258 53.1294 330.253 53.1131C330.248 53.0936 330.26 53.0736 330.279 53.0684L330.617 52.9778C330.637 52.9726 330.657 52.9841 330.662 53.0036C330.667 53.0231 330.656 53.0431 330.636 53.0483L330.298 53.1389C330.295 53.1397 330.292 53.1401 330.288 53.1401Z" fill="white"/>
<path d="M330.501 53.6582C330.489 53.6582 330.477 53.6517 330.47 53.6399C330.46 53.6225 330.466 53.6002 330.483 53.5901L330.786 53.4151C330.804 53.405 330.826 53.411 330.836 53.4284C330.846 53.4459 330.84 53.4682 330.823 53.4783L330.52 53.6533C330.514 53.6566 330.508 53.6582 330.501 53.6582Z" fill="white"/>
<path d="M331.286 54.4416C331.28 54.4416 331.274 54.44 331.268 54.4367C331.251 54.4266 331.245 54.4043 331.255 54.3868L331.43 54.0837C331.44 54.0662 331.462 54.0603 331.48 54.0703C331.497 54.0804 331.503 54.1027 331.493 54.1202L331.318 54.4233C331.311 54.4351 331.299 54.4416 331.286 54.4416Z" fill="white"/>
<path d="M331.802 54.6573C331.799 54.6573 331.796 54.6569 331.793 54.656C331.773 54.6508 331.762 54.6308 331.767 54.6113L331.857 54.2732C331.863 54.2537 331.883 54.2421 331.902 54.2473C331.922 54.2526 331.933 54.2726 331.928 54.292L331.837 54.6302C331.833 54.6465 331.818 54.6573 331.802 54.6573Z" fill="white"/>
<path d="M332.361 54.7287C332.341 54.7287 332.324 54.7124 332.324 54.6922V54.3422C332.324 54.322 332.341 54.3057 332.361 54.3057C332.381 54.3057 332.397 54.322 332.397 54.3422V54.6922C332.397 54.7124 332.381 54.7287 332.361 54.7287Z" fill="white"/>
<path d="M332.645 54.7103C332.627 54.7103 332.612 54.697 332.609 54.6786L332.586 54.5051C332.584 54.4851 332.598 54.4668 332.618 54.4642C332.638 54.4616 332.656 54.4756 332.659 54.4956L332.681 54.6691C332.684 54.689 332.67 54.7074 332.65 54.71C332.648 54.7102 332.647 54.7103 332.645 54.7103Z" fill="white"/>
<path d="M333.186 54.5668C333.171 54.5668 333.158 54.5583 333.152 54.5442L333.085 54.3825C333.077 54.3639 333.086 54.3425 333.105 54.3348C333.123 54.3271 333.145 54.3359 333.152 54.3546L333.219 54.5163C333.227 54.5349 333.218 54.5563 333.2 54.564C333.195 54.5659 333.19 54.5668 333.186 54.5668Z" fill="white"/>
<path d="M333.67 54.2871C333.66 54.2871 333.649 54.2822 333.641 54.2728L333.535 54.1339C333.523 54.1179 333.526 54.095 333.542 54.0827C333.558 54.0705 333.581 54.0735 333.593 54.0895L333.699 54.2284C333.712 54.2444 333.709 54.2673 333.693 54.2795C333.686 54.2846 333.678 54.2871 333.67 54.2871Z" fill="white"/>
<path d="M334.066 53.8896C334.058 53.8896 334.05 53.8871 334.044 53.882L333.905 53.7754C333.889 53.7631 333.886 53.7402 333.898 53.7243C333.91 53.7083 333.933 53.7052 333.949 53.7175L334.088 53.8241C334.104 53.8364 334.107 53.8593 334.095 53.8753C334.088 53.8847 334.077 53.8896 334.066 53.8896Z" fill="white"/>
<path d="M334.347 53.4076C334.342 53.4076 334.337 53.4067 334.333 53.4048L334.171 53.3378C334.152 53.3301 334.144 53.3087 334.151 53.2901C334.159 53.2715 334.18 53.2627 334.199 53.2704L334.361 53.3374C334.379 53.3451 334.388 53.3665 334.38 53.3851C334.375 53.3991 334.361 53.4076 334.347 53.4076Z" fill="white"/>
<path d="M334.491 52.8654C334.49 52.8654 334.488 52.8653 334.486 52.865L334.313 52.8422C334.293 52.8396 334.279 52.8213 334.282 52.8013C334.284 52.7813 334.303 52.7672 334.323 52.7699L334.496 52.7927C334.516 52.7953 334.53 52.8136 334.527 52.8336C334.525 52.852 334.509 52.8654 334.491 52.8654Z" fill="white"/>
<path d="M332.92 54.6573C332.904 54.6573 332.889 54.6465 332.885 54.6302L332.794 54.292C332.789 54.2726 332.801 54.2526 332.82 54.2473C332.839 54.2421 332.86 54.2537 332.865 54.2732L332.955 54.6113C332.961 54.6308 332.949 54.6508 332.929 54.656C332.926 54.6569 332.923 54.6573 332.92 54.6573Z" fill="white"/>
<path d="M333.438 54.4416C333.426 54.4416 333.413 54.435 333.406 54.4233L333.231 54.1202C333.221 54.1027 333.227 54.0804 333.245 54.0703C333.262 54.0603 333.285 54.0662 333.295 54.0837L333.47 54.3868C333.48 54.4043 333.474 54.4266 333.456 54.4367C333.451 54.44 333.444 54.4416 333.438 54.4416Z" fill="white"/>
<path d="M333.88 54.1017C333.87 54.1017 333.861 54.0982 333.854 54.091L333.606 53.8435C333.592 53.8293 333.592 53.8062 333.606 53.7919C333.621 53.7777 333.644 53.7777 333.658 53.7919L333.905 54.0394C333.92 54.0537 333.92 54.0768 333.905 54.091C333.898 54.0982 333.889 54.1017 333.88 54.1017Z" fill="white"/>
<path d="M334.222 53.6582C334.216 53.6582 334.21 53.6566 334.204 53.6533L333.901 53.4783C333.884 53.4682 333.878 53.4459 333.888 53.4284C333.898 53.4109 333.92 53.405 333.938 53.4151L334.241 53.5901C334.258 53.6002 334.264 53.6225 334.254 53.6399C334.247 53.6516 334.235 53.6582 334.222 53.6582Z" fill="white"/>
<path d="M334.435 53.1402C334.432 53.1402 334.429 53.1397 334.426 53.1389L334.088 53.0483C334.068 53.0431 334.057 53.0231 334.062 53.0036C334.067 52.9841 334.087 52.9726 334.106 52.9778L334.445 53.0684C334.464 53.0736 334.476 53.0936 334.47 53.1131C334.466 53.1294 334.451 53.1402 334.435 53.1402Z" fill="white"/>
<path d="M334.506 52.5857H334.156C334.135 52.5857 334.119 52.5693 334.119 52.5492C334.119 52.529 334.135 52.5127 334.156 52.5127H334.506C334.526 52.5127 334.542 52.529 334.542 52.5492C334.542 52.5693 334.526 52.5857 334.506 52.5857Z" fill="white"/>
<path d="M334.508 52.5857H334.158C334.137 52.5857 334.121 52.5693 334.121 52.5492C334.121 52.529 334.137 52.5127 334.158 52.5127H334.508C334.528 52.5127 334.544 52.529 334.544 52.5492C334.544 52.5693 334.528 52.5857 334.508 52.5857Z" fill="white"/>
<path d="M334.318 52.3302C334.3 52.3302 334.284 52.3168 334.282 52.2985C334.279 52.2785 334.293 52.2602 334.313 52.2575L334.486 52.2347C334.506 52.2321 334.525 52.2461 334.527 52.2661C334.53 52.2861 334.516 52.3044 334.496 52.307L334.323 52.3299C334.321 52.3301 334.319 52.3302 334.318 52.3302Z" fill="white"/>
<path d="M334.185 51.8334C334.171 51.8334 334.157 51.8249 334.151 51.8109C334.144 51.7922 334.152 51.7709 334.171 51.7632L334.333 51.6961C334.351 51.6884 334.373 51.6973 334.38 51.7159C334.388 51.7345 334.379 51.7558 334.361 51.7636L334.199 51.8306C334.194 51.8325 334.19 51.8334 334.185 51.8334Z" fill="white"/>
<path d="M333.927 51.3886C333.916 51.3886 333.905 51.3837 333.898 51.3743C333.886 51.3583 333.889 51.3354 333.905 51.3231L334.044 51.2165C334.06 51.2043 334.083 51.2073 334.095 51.2233C334.107 51.2393 334.104 51.2622 334.088 51.2744L333.949 51.381C333.943 51.3861 333.935 51.3886 333.927 51.3886Z" fill="white"/>
<path d="M333.564 51.0244C333.556 51.0244 333.548 51.0219 333.542 51.0168C333.526 51.0046 333.523 50.9817 333.535 50.9657L333.641 50.8268C333.654 50.8108 333.677 50.8078 333.693 50.8201C333.709 50.8323 333.712 50.8552 333.699 50.8712L333.593 51.0101C333.586 51.0195 333.575 51.0244 333.564 51.0244Z" fill="white"/>
<path d="M333.119 50.767C333.114 50.767 333.109 50.7661 333.105 50.7642C333.086 50.7565 333.077 50.7351 333.085 50.7165L333.152 50.5548C333.16 50.5361 333.181 50.5273 333.2 50.535C333.218 50.5427 333.227 50.5641 333.219 50.5827L333.152 50.7444C333.146 50.7585 333.133 50.767 333.119 50.767Z" fill="white"/>
<path d="M332.622 50.6341C332.621 50.6341 332.619 50.634 332.618 50.6338C332.598 50.6312 332.584 50.6129 332.586 50.5929L332.609 50.4194C332.612 50.3994 332.63 50.3854 332.65 50.388C332.67 50.3906 332.684 50.409 332.681 50.4289L332.659 50.6024C332.656 50.6208 332.641 50.6341 332.622 50.6341Z" fill="white"/>
<path d="M334.097 52.1216C334.081 52.1216 334.066 52.1108 334.062 52.0945C334.057 52.0751 334.068 52.055 334.088 52.0498L334.426 51.9593C334.445 51.954 334.465 51.9656 334.47 51.9851C334.476 52.0045 334.464 52.0246 334.445 52.0298L334.106 52.1203C334.103 52.1212 334.1 52.1216 334.097 52.1216Z" fill="white"/>
<path d="M333.919 51.6894C333.907 51.6894 333.894 51.6829 333.888 51.6712C333.878 51.6537 333.884 51.6314 333.901 51.6213L334.204 51.4463C334.222 51.4362 334.244 51.4422 334.254 51.4597C334.264 51.4771 334.258 51.4994 334.241 51.5095L333.938 51.6845C333.932 51.6879 333.926 51.6894 333.919 51.6894Z" fill="white"/>
<path d="M333.263 51.0334C333.257 51.0334 333.251 51.0318 333.245 51.0285C333.227 51.0184 333.221 50.9961 333.231 50.9786L333.406 50.6755C333.417 50.658 333.439 50.6521 333.456 50.6621C333.474 50.6722 333.48 50.6945 333.47 50.712L333.295 51.0151C333.288 51.0268 333.276 51.0334 333.263 51.0334Z" fill="white"/>
<path d="M332.829 50.8536C332.826 50.8536 332.823 50.8531 332.82 50.8523C332.801 50.8471 332.789 50.8271 332.794 50.8076L332.885 50.4694C332.89 50.45 332.91 50.4384 332.929 50.4436C332.949 50.4488 332.961 50.4689 332.955 50.4883L332.865 50.8265C332.86 50.8428 332.846 50.8536 332.829 50.8536Z" fill="white"/>
<path d="M332.365 50.7912C332.344 50.7912 332.328 50.7749 332.328 50.7547V50.4047C332.328 50.3845 332.344 50.3682 332.365 50.3682C332.385 50.3682 332.401 50.3845 332.401 50.4047V50.7547C332.401 50.7749 332.385 50.7912 332.365 50.7912Z" fill="white"/>
</g>
<path d="M333.902 51.0088L332.053 52.2389L332.362 52.5484L333.902 51.0088Z" fill="#F4413D"/>
<path d="M333.901 51.0088L332.361 52.5484L332.671 52.8578L333.901 51.0088Z" fill="#CC2B2B"/>
<path d="M332.052 52.2393L330.822 54.0883L332.362 52.5487L332.052 52.2393Z" fill="white"/>
<path d="M330.822 54.0875L332.671 52.8573L332.362 52.5479L330.822 54.0875Z" fill="#D8D8D8"/>
</g>
<path d="M62.5977 168.394L63.7376 168.045C64.7379 167.743 71.7637 167.697 121.828 167.743C153.164 167.766 179.383 167.883 181.36 168.115L180.313 168.348C179.732 168.487 179.453 168.627 179.662 168.674C179.895 168.72 180.127 168.906 180.197 169.092C180.267 169.278 180.174 169.651 180.011 169.907C179.871 170.186 179.499 170.442 179.197 170.488C178.918 170.558 178.685 170.767 178.685 170.953C178.685 171.256 172.241 171.302 122.037 171.302C84.4193 171.302 65.3893 171.233 65.3893 171.07C65.3893 170.953 65.2032 170.767 64.9706 170.698C64.7612 170.605 64.1331 170.069 62.5977 168.394Z" fill="#F35423"/>
<path d="M277.585 167.743L277.627 167.743C319.106 167.72 353.188 167.72 353.351 167.743C353.491 167.79 353.7 167.813 353.816 167.813C353.909 167.813 353.909 168.371 353.84 169.046C353.723 169.837 353.537 170.349 353.258 170.558C353.002 170.721 352.095 170.86 351.188 170.86C350.303 170.86 319.828 170.907 283.489 170.907C247.151 170.93 214.488 170.907 210.906 170.837C204.81 170.721 204.322 170.674 203.298 170.186C202.507 169.837 202.182 169.534 202.182 169.209C202.182 168.953 202.298 168.743 202.414 168.743C202.569 168.743 202.569 168.588 202.414 168.278C202.182 167.813 202.275 167.813 277.585 167.743Z" fill="#F35423"/>
<path fill-rule="evenodd" clip-rule="evenodd" d="M217.536 30.7883V33.1147C75.1607 33.1147 62.4121 33.1612 62.0166 33.4171C61.7607 33.6033 61.4117 34.0453 61.2489 34.4175C61.0162 34.9526 60.9697 48.3294 61.0162 100.743L61.086 166.394L62.1561 167.464C180.849 167.557 182.78 167.557 183.455 167.139C183.85 166.906 184.315 166.348 184.525 165.929C184.734 165.487 185.758 162.881 186.805 160.136C187.828 157.391 189.317 153.459 190.085 151.412C190.876 149.365 192.411 145.34 193.481 142.456C194.575 139.571 196.203 135.29 197.111 132.917C197.995 130.544 199.135 127.567 199.623 126.287C200.112 125.007 201.414 121.611 202.485 118.726C203.578 115.841 205.369 111.072 206.486 108.141C207.626 105.21 208.766 102.162 209.045 101.395C209.347 100.627 209.859 99.2775 210.208 98.3702C210.534 97.4629 211.86 94.0199 213.116 90.6931C214.372 87.3664 216.722 81.1316 218.351 76.851C219.979 72.5704 221.561 68.4295 221.84 67.6618C222.119 66.894 223.259 63.9162 224.353 61.0315C225.446 58.1468 227.214 53.4474 228.308 50.5627C229.401 47.678 231.192 42.9786 232.286 40.0939C233.402 37.2092 234.449 34.6967 234.659 34.5106C234.961 34.2081 242.01 34.1616 295.192 34.1616H355.352C355.887 35.2085 355.957 48.4224 355.957 100.464C355.957 158.135 355.911 165.673 355.608 166.138L355.259 166.65H200.321C200.321 163.23 200.251 162.183 200.158 162.114C200.042 162.067 198.018 163.137 195.622 164.51C193.225 165.882 191.248 167.046 191.248 167.115C191.248 167.185 193.156 168.325 195.482 169.674C197.809 171.024 199.809 172.14 199.949 172.187C200.112 172.21 200.181 171.745 200.158 170.791C200.135 169.977 200.181 168.93 200.274 168.441L200.437 167.581H355.492L356.771 166.464V34.2314L355.492 33.1147C236.985 33.138 235.077 33.138 234.403 33.5567C233.961 33.8359 233.472 34.4873 233.1 35.3481C232.774 36.1158 231.797 38.5585 230.96 40.7918C230.099 43.0252 228.168 48.1665 226.633 52.1912C225.12 56.2159 222.492 63.1253 220.84 67.5454C219.165 71.9656 216.838 78.084 215.675 81.1549C214.512 84.2257 213.186 87.6688 212.767 88.832C212.348 89.9719 211.209 92.973 210.255 95.4622C209.301 97.9515 206.975 104.07 205.09 109.072C203.206 114.05 200.74 120.541 199.623 123.495C198.506 126.427 196.366 132.08 194.877 136.058C193.365 140.013 191.271 145.573 190.201 148.388C189.131 151.203 187.433 155.693 186.409 158.391C185.409 161.067 184.315 163.905 184.013 164.673C183.641 165.58 183.245 166.162 182.873 166.348C182.408 166.58 170.171 166.65 122.503 166.65C66.5298 166.673 62.6912 166.65 62.3655 166.278C62.0631 165.929 62.0166 158.252 62.0166 100.301C62.0166 34.9758 62.0166 34.6967 62.4818 34.371C62.8773 34.0918 73.4159 34.0453 140.253 34.0453H217.536C217.536 38.1397 217.606 38.6748 217.839 38.6283C218.002 38.605 220.049 37.4883 222.375 36.139C224.702 34.7897 226.609 33.6498 226.609 33.58C226.609 33.5102 226.167 33.2078 225.632 32.9053C225.074 32.5796 223.143 31.463 221.328 30.3928C219.491 29.3227 217.885 28.4619 217.769 28.4619C217.629 28.4619 217.536 29.3925 217.536 30.7883ZM64.8082 35.9064C64.5291 36.0227 64.2034 36.3251 64.0405 36.581C63.8777 36.8602 63.8312 37.3022 63.9009 37.5814C63.994 37.8838 64.2266 38.3026 64.436 38.5352C64.6454 38.7679 65.0641 38.954 65.3898 38.9307C65.7155 38.9307 66.2041 38.7679 66.5065 38.5818C66.8787 38.3258 67.0183 38.0002 67.0183 37.4186C67.0183 36.7904 66.8555 36.488 66.3902 36.139C66.018 35.8599 65.6457 35.6738 65.5062 35.6738C65.3898 35.697 65.0641 35.7901 64.8082 35.9064ZM68.7864 36.1623C68.3211 36.5113 68.135 36.837 68.1583 37.3255C68.1815 37.6977 68.3909 38.2095 68.6468 38.4654C68.9027 38.7213 69.3913 38.9307 69.7635 38.9307C70.1124 38.954 70.601 38.7213 70.8569 38.4422C71.1361 38.1397 71.3222 37.6512 71.2989 37.2092C71.2756 36.7439 71.0663 36.3484 70.7173 36.0692C70.4149 35.8366 69.9961 35.6505 69.7867 35.6738C69.5774 35.6738 69.1353 35.8831 68.7864 36.1623ZM72.9506 36.2554C72.6482 36.5578 72.3923 37.0929 72.369 37.4186C72.369 37.7442 72.5784 38.2095 72.8343 38.4654C73.0902 38.7213 73.602 38.9307 73.9975 38.9307C74.4163 38.9307 74.8816 38.7213 75.1607 38.3956C75.4166 38.1165 75.626 37.6512 75.626 37.3488C75.626 37.0696 75.3701 36.581 75.0444 36.2554C74.7187 35.9297 74.2534 35.6738 73.9975 35.6738C73.7184 35.6738 73.2531 35.9297 72.9506 36.2554ZM63.9242 40.9547C63.8312 41.071 63.8312 41.2106 63.8777 41.3036C63.9475 41.42 96.6101 41.4898 136.461 41.4898C200.717 41.4898 208.929 41.4432 208.929 41.1408C208.929 40.8384 200.717 40.7918 136.508 40.7918C96.6567 40.7918 63.994 40.8616 63.9242 40.9547ZM70.8569 49.446C70.6242 49.7252 70.4614 50.1905 70.4847 50.4464C70.4847 50.7023 70.6708 51.1443 70.8569 51.4235C71.1128 51.8422 71.4385 51.9586 72.1364 51.9586C72.8809 51.9586 73.1368 51.8422 73.4159 51.377C73.602 51.0513 73.7649 50.6092 73.7649 50.3766C73.7649 50.1672 73.602 49.7485 73.4159 49.446C73.16 49.0738 72.8343 48.9342 72.1364 48.9342C71.4617 48.9342 71.1361 49.0738 70.8569 49.446ZM87.3743 49.5856C91.2827 49.6322 93.0507 49.7252 93.3066 49.9346C93.6091 50.1905 93.6091 50.1672 93.3066 49.795C92.9809 49.4228 92.5157 49.3762 87.3743 49.446L81.791 49.5158L87.3743 49.5856ZM97.8664 49.6554C97.6105 49.795 97.4244 50.0974 97.4476 50.3999C97.4709 50.679 97.6105 51.0513 97.7733 51.2141C98.006 51.4235 100.216 51.4933 107.498 51.4933C115.71 51.5165 116.966 51.47 117.222 51.1443C117.362 50.9582 117.455 50.5394 117.385 50.2138L117.269 49.6322C103.031 49.6322 98.7504 49.5856 98.6108 49.5158C98.448 49.4693 98.099 49.5158 97.8664 49.6554ZM124.597 49.5624C126.132 49.6089 128.691 49.6089 130.296 49.5624C131.902 49.5391 130.645 49.4926 127.505 49.4926C124.364 49.4926 123.061 49.5391 124.597 49.5624ZM142.743 49.5624C145.441 49.6089 149.722 49.6089 152.281 49.5624C154.84 49.5391 152.653 49.4926 147.395 49.4926C142.161 49.4926 140.067 49.5391 142.743 49.5624ZM87.4906 51.2606L81.791 51.377C91.0268 51.47 93.1205 51.4002 93.1903 51.2606C93.2368 51.121 93.2601 51.0513 93.2368 51.0745C93.2136 51.0978 90.6313 51.1908 87.4906 51.2606ZM147.512 51.2606L137.857 51.377C153.677 51.47 157.097 51.4002 157.166 51.2606C157.213 51.121 157.236 51.0513 157.213 51.0745C157.19 51.0978 152.816 51.1908 147.512 51.2606ZM71.0895 58.3329C70.7871 58.6586 70.5312 59.1239 70.5079 59.3798C70.5079 59.6589 70.7638 60.1242 71.0895 60.4499C71.4152 60.7756 71.8805 61.0315 72.1364 61.0315C72.4156 61.0315 72.8809 60.7756 73.1833 60.4499C73.509 60.1242 73.7649 59.6589 73.7649 59.403C73.7649 59.1471 73.509 58.6818 73.1833 58.3561C72.8576 58.0305 72.3923 57.7745 72.1364 57.7745C71.8572 57.7745 71.392 58.0305 71.0895 58.3329ZM189.736 58.4027C191.155 58.4492 193.505 58.4492 194.97 58.4027C196.436 58.3794 195.296 58.3329 192.411 58.3329C189.527 58.3329 188.34 58.3794 189.736 58.4027ZM89.8636 58.6353C89.7007 58.7516 89.5844 59.1239 89.6309 59.5194L89.7007 60.2173C100.751 60.2173 101.309 60.1707 101.542 59.7985C101.728 59.4961 101.728 59.2867 101.542 58.9843C101.309 58.6353 100.728 58.5888 95.7261 58.519C92.6785 58.4957 90.0264 58.5423 89.8636 58.6353ZM117.943 58.8214C117.687 59.1239 117.664 59.2867 117.92 59.752L118.199 60.3336C140.463 60.2173 141.324 60.194 141.556 59.7985C141.742 59.4961 141.742 59.2867 141.556 58.9843C141.324 58.6121 140.463 58.5888 129.785 58.519C119.595 58.4725 118.222 58.4957 117.943 58.8214ZM145.93 58.6353C145.767 58.7516 145.651 59.1239 145.697 59.5194L145.767 60.2173C153.002 60.3569 153.235 60.3336 153.63 59.8683C153.933 59.5194 153.979 59.2867 153.793 58.9377C153.584 58.4957 153.328 58.4725 149.908 58.4725C147.884 58.4725 146.093 58.5423 145.93 58.6353ZM170.31 58.7516C170.124 58.8912 170.008 59.1937 170.031 59.3798C170.055 59.5891 170.194 59.8916 170.357 60.0312C170.59 60.2638 172.055 60.3336 176.313 60.3336H181.942C182.175 59.5194 182.175 59.1006 182.082 58.868C181.966 58.4957 181.454 58.4725 176.289 58.4725C172.218 58.4725 170.543 58.5423 170.31 58.7516ZM192.062 60.4964C193.086 60.543 194.668 60.543 195.552 60.4964C196.459 60.4499 195.622 60.4266 193.691 60.4266C191.783 60.4266 191.039 60.4499 192.062 60.4964ZM70.8569 67.3593C70.6242 67.6385 70.4614 68.0805 70.4847 68.3597C70.4847 68.6156 70.6708 69.0576 70.8569 69.3368C71.1128 69.7322 71.4385 69.8718 72.1364 69.8718C72.8343 69.8718 73.16 69.7322 73.4159 69.3368C73.602 69.0576 73.7649 68.6156 73.7649 68.3597C73.7649 68.1038 73.602 67.6618 73.4159 67.3593C73.16 66.9638 72.8343 66.8475 72.1364 66.8475C71.4617 66.8475 71.1361 66.9871 70.8569 67.3593ZM109.359 67.592C109.173 67.7315 109.056 68.1038 109.08 68.4062C109.103 68.7319 109.359 69.0343 109.708 69.1739C110.033 69.2902 111.755 69.4066 113.523 69.4066C116.082 69.4066 116.85 69.3368 117.129 69.0576C117.338 68.8715 117.501 68.5458 117.501 68.3597C117.501 68.1736 117.338 67.8479 117.152 67.6618C116.873 67.3826 116.105 67.3128 113.244 67.3128C110.801 67.3128 109.591 67.4058 109.359 67.592ZM133.926 67.5687C133.646 67.7083 133.484 68.0107 133.507 68.3597C133.53 68.6854 133.763 69.0343 134.019 69.1739C134.298 69.3135 136.694 69.4065 139.788 69.3833C142.696 69.3833 145.209 69.3135 145.371 69.2204C145.558 69.1274 145.697 68.7319 145.697 68.3597C145.697 67.9642 145.558 67.5687 145.371 67.4756C145.209 67.3826 142.673 67.3128 139.718 67.3128C136.531 67.3128 134.181 67.4291 133.926 67.5687ZM149.978 67.5687C149.722 67.685 149.536 68.0107 149.559 68.2433C149.582 68.4993 149.768 68.8715 149.954 69.0576C150.257 69.36 151.955 69.4066 162.471 69.4066C171.799 69.4066 174.754 69.3368 175.196 69.1041C175.522 68.9413 175.801 68.6156 175.847 68.4062C175.871 68.1968 175.754 67.8479 175.615 67.6385C175.335 67.3361 173.823 67.2895 162.866 67.3128C154.886 67.3128 150.257 67.4058 149.978 67.5687ZM87.4906 69.3368C90.6313 69.3833 95.8191 69.3833 99.0063 69.3368C102.217 69.3135 99.6344 69.267 93.3066 69.267C86.9788 69.267 84.35 69.3135 87.4906 69.3368ZM123.782 69.3368C124.876 69.3833 126.551 69.3833 127.505 69.3368C128.459 69.2902 127.575 69.267 125.527 69.267C123.48 69.267 122.689 69.2902 123.782 69.3368ZM70.9732 76.2927C70.694 76.6184 70.4847 77.1535 70.5079 77.4559C70.5079 77.7583 70.8104 78.2003 71.1593 78.4795C71.5083 78.7354 71.9968 78.9448 72.2295 78.9448C72.4621 78.9215 72.9041 78.6656 73.2065 78.3399C73.5322 78.0142 73.7881 77.5489 73.7881 77.293C73.7881 77.0371 73.509 76.5719 73.2065 76.2462C72.8808 75.9205 72.369 75.6646 72.0433 75.6646C71.7177 75.6646 71.2756 75.9205 70.9732 76.2927ZM110.778 76.316C113.267 76.3392 117.455 76.3392 120.083 76.316C122.689 76.2694 120.665 76.2462 115.547 76.2462C110.429 76.2462 108.265 76.2694 110.778 76.316ZM148.117 76.316C149.14 76.3625 150.699 76.3625 151.606 76.316C152.49 76.2694 151.653 76.2229 149.745 76.2229C147.814 76.2229 147.093 76.2694 148.117 76.316ZM89.6309 76.7812C89.5146 77.0139 89.5146 77.4094 89.6309 77.7118C89.8403 78.2236 89.8403 78.2236 95.3539 78.2236C99.4483 78.2236 101.007 78.1538 101.333 77.9444C101.658 77.7118 101.728 77.4792 101.612 77.0139L101.472 76.3625C90.3521 76.3625 89.817 76.409 89.6309 76.7812ZM129.622 76.8278C129.459 77.1535 129.459 77.4559 129.622 77.7583C129.831 78.2003 130.04 78.2236 135.577 78.1771C140.742 78.1073 141.347 78.0608 141.579 77.7118C141.766 77.4094 141.766 77.2 141.579 76.8976C141.347 76.5253 140.742 76.4788 135.601 76.4323C130.064 76.3625 129.854 76.3857 129.622 76.8278ZM71.5548 84.7841C71.2989 84.8771 70.9732 85.1795 70.8104 85.4354C70.6708 85.6913 70.5312 86.1334 70.5312 86.3893C70.5312 86.6452 70.7638 87.0639 71.0663 87.3198C71.3454 87.5757 71.8572 87.7851 72.1597 87.7851C72.4854 87.7618 72.9274 87.6455 73.1368 87.4827C73.3461 87.3198 73.5788 86.9243 73.6486 86.6219C73.7416 86.2962 73.6718 85.7844 73.509 85.4587C73.3461 85.1563 72.9506 84.8306 72.6017 84.7375C72.276 84.6677 71.7874 84.6677 71.5548 84.7841ZM97.5174 85.5052C97.3546 85.6448 97.215 86.017 97.2383 86.3195C97.2615 86.5986 97.4942 86.9476 97.7501 87.0872C98.006 87.2035 99.681 87.3198 101.472 87.3198C103.264 87.3198 104.939 87.2035 105.195 87.0872C105.474 86.9476 105.66 86.6219 105.66 86.2729C105.66 85.924 105.474 85.5983 105.195 85.4587C104.939 85.3191 103.194 85.2261 101.286 85.2261C98.9598 85.2261 97.7501 85.3191 97.5174 85.5052ZM116.012 85.3889C119.339 85.4354 124.69 85.4354 127.877 85.3889C131.087 85.3657 128.365 85.3191 121.828 85.3191C115.314 85.3191 112.686 85.3657 116.012 85.3889ZM138.369 85.482C138.136 85.5983 137.95 85.9007 137.974 86.1566C137.997 86.4125 138.16 86.7615 138.346 86.9709C138.625 87.2268 139.369 87.3198 141.789 87.3198C144.441 87.3198 144.929 87.2733 145.278 86.9243C145.488 86.6917 145.674 86.366 145.674 86.2032C145.674 86.0403 145.534 85.7611 145.325 85.575C145.046 85.2959 144.348 85.2261 141.905 85.2261C140.207 85.2261 138.625 85.3424 138.369 85.482ZM149.745 85.575C149.536 85.7844 149.373 86.0636 149.373 86.2264C149.373 86.366 149.582 86.6684 149.792 86.9011C150.187 87.2733 151.443 87.2966 167.147 87.2966C177.964 87.3198 184.246 87.2268 184.525 87.0872C184.804 86.9476 184.99 86.6219 184.99 86.2729C184.99 85.924 184.804 85.5983 184.525 85.4587C184.246 85.2959 177.941 85.2261 167.1 85.2261C152.002 85.2261 150.094 85.2493 149.745 85.575ZM116.012 87.25C119.339 87.2966 124.69 87.2966 127.877 87.25C131.087 87.2268 128.365 87.1802 121.828 87.1802C115.314 87.1802 112.686 87.2268 116.012 87.25ZM71.4617 93.764C71.2756 93.8337 70.9965 94.0664 70.8336 94.2758C70.6708 94.4851 70.5545 94.8806 70.5545 95.1598C70.5312 95.4622 70.8104 95.9508 71.1128 96.2765C71.5548 96.7185 71.8572 96.8115 72.3458 96.7185C72.6947 96.6487 73.1833 96.4161 73.4159 96.1834C73.7416 95.9042 73.8114 95.6018 73.6951 94.9969C73.6253 94.5317 73.3694 94.0431 73.16 93.9035C72.9274 93.7407 72.5319 93.6244 72.276 93.6244C72.0201 93.6244 71.6711 93.6942 71.4617 93.764ZM152.071 94.2292C154.886 94.2758 159.562 94.2758 162.424 94.2292C165.309 94.206 163.006 94.1594 157.306 94.1594C151.629 94.1594 149.257 94.206 152.071 94.2292ZM117.524 94.5782C117.362 94.7178 117.222 95.0202 117.245 95.2063C117.269 95.4157 117.431 95.6949 117.594 95.8577C117.804 96.0671 118.897 96.1601 121.479 96.1601C125.085 96.1601 125.085 96.1601 125.434 95.5785C125.76 95.0667 125.76 94.9737 125.434 94.648C125.155 94.3223 124.48 94.2758 121.479 94.2758C119.013 94.299 117.757 94.3921 117.524 94.5782ZM129.622 94.741C129.482 94.9969 129.366 95.2528 129.366 95.3226C129.389 95.3924 129.552 95.6018 129.738 95.8112C130.04 96.0904 131.018 96.1601 135.624 96.1601C139.765 96.1601 141.23 96.0904 141.44 95.8577C141.603 95.6949 141.742 95.3459 141.719 95.0435C141.719 94.7643 141.579 94.4619 141.37 94.4154C141.184 94.3456 138.509 94.299 135.461 94.299C130.18 94.299 129.854 94.3223 129.622 94.741ZM70.8801 103.186C70.6708 103.465 70.5079 103.861 70.5079 104.047C70.5079 104.256 70.7406 104.698 70.9965 105.047C71.3222 105.512 71.6711 105.698 72.1597 105.698C72.6482 105.698 72.9972 105.512 73.3461 105.047C73.602 104.698 73.8114 104.256 73.8114 104.07C73.8114 103.861 73.6486 103.488 73.4392 103.186C73.1833 102.79 72.8809 102.674 72.1829 102.674C71.5083 102.674 71.1593 102.79 70.8801 103.186ZM97.7733 103.419C97.6337 103.581 97.5407 103.977 97.5872 104.303L97.6337 104.884C104.939 105 105.357 104.954 105.613 104.582C105.776 104.372 105.916 104.093 105.892 104C105.892 103.907 105.753 103.674 105.544 103.488C105.264 103.209 104.497 103.139 101.612 103.139C99.0528 103.139 97.9594 103.209 97.7733 103.419ZM137.787 103.419C137.648 103.581 137.555 103.977 137.601 104.303L137.648 104.884H145.558C145.674 103.791 145.581 103.419 145.395 103.302C145.232 103.209 143.51 103.139 141.579 103.139C139.044 103.139 137.974 103.209 137.787 103.419ZM162.215 103.419C162.075 103.581 161.982 103.977 162.028 104.303L162.075 104.884C173.358 104.977 173.847 104.954 174.056 104.582C174.219 104.303 174.172 104.023 173.94 103.651C173.591 103.139 173.544 103.139 168.031 103.139C163.89 103.139 162.424 103.209 162.215 103.419ZM178.383 103.419C178.081 103.628 177.988 103.884 178.104 104.349L178.243 105C191.225 105.024 192.132 104.977 192.435 104.652C192.737 104.326 192.737 104.163 192.504 103.698L192.202 103.139C180.547 103.139 178.709 103.209 178.383 103.419ZM84.7222 105.163C86.3274 105.21 88.84 105.21 90.3056 105.163C91.7945 105.117 90.4684 105.094 87.3976 105.094C84.3267 105.094 83.1403 105.117 84.7222 105.163ZM115.78 105.163C118.851 105.21 123.992 105.21 127.179 105.163C130.389 105.14 127.877 105.094 121.596 105.094C115.338 105.094 112.709 105.14 115.78 105.163ZM152.071 105.163C153.095 105.21 154.724 105.21 155.677 105.163C156.654 105.117 155.817 105.094 153.816 105.094C151.839 105.094 151.048 105.117 152.071 105.163ZM70.9965 112.026C70.7406 112.305 70.5312 112.724 70.5312 112.957C70.5312 113.189 70.6475 113.585 70.7638 113.841C70.9034 114.097 71.2756 114.399 71.5781 114.539C71.9658 114.694 72.3535 114.694 72.7413 114.539C73.067 114.399 73.4625 114.027 73.6253 113.701C73.8579 113.213 73.8579 113.003 73.509 112.305C73.16 111.631 72.9739 111.514 72.2993 111.514C71.7642 111.514 71.3222 111.677 70.9965 112.026ZM81.7212 112.329C81.4187 112.538 81.1861 112.84 81.2094 113.027C81.2326 113.213 81.3955 113.515 81.5816 113.724C81.884 114.027 83.5125 114.073 93.2834 114.073C102.077 114.073 104.706 114.004 104.915 113.771C105.078 113.608 105.218 113.259 105.195 112.957C105.195 112.678 104.985 112.329 104.729 112.212C104.45 112.049 100.146 111.98 93.2834 111.98C83.6986 111.98 82.2097 112.026 81.7212 112.329ZM109.638 112.212C109.219 112.375 109.08 112.585 109.126 113.003C109.149 113.329 109.359 113.701 109.615 113.841C109.871 113.957 111.639 114.073 113.523 114.073C115.989 114.073 117.059 113.98 117.245 113.771C117.408 113.608 117.548 113.329 117.548 113.143C117.548 112.933 117.362 112.608 117.129 112.375C116.78 112.049 116.245 111.98 113.453 112.003C111.662 112.003 109.94 112.096 109.638 112.212ZM121.828 112.143C121.572 112.189 121.41 112.329 121.433 112.445C121.456 112.585 121.433 112.794 121.363 112.957C121.27 113.12 121.386 113.445 121.596 113.655C121.898 114.004 122.41 114.073 125.504 114.073C128.063 114.073 129.156 113.98 129.343 113.771C129.505 113.608 129.645 113.259 129.622 112.957C129.622 112.678 129.412 112.329 129.156 112.212C128.901 112.073 127.249 111.98 125.504 112.003C123.736 112.003 122.084 112.073 121.828 112.143ZM137.066 112.143C138.671 112.189 141.184 112.189 142.65 112.143C144.138 112.096 142.812 112.073 139.742 112.073C136.671 112.073 135.484 112.096 137.066 112.143ZM150.396 112.282C150.094 112.445 149.815 112.747 149.745 112.957C149.675 113.189 149.768 113.538 149.931 113.724C150.187 114.05 151.723 114.097 162.796 114.073C172.544 114.073 175.429 114.004 175.638 113.771C175.801 113.608 175.94 113.306 175.917 113.073C175.917 112.864 175.684 112.515 175.405 112.329C174.94 112.026 173.195 111.98 162.889 111.98C153.7 111.98 150.792 112.049 150.396 112.282ZM139.742 113.841L133.926 113.957C143.347 114.05 145.488 113.98 145.558 113.841C145.627 113.701 145.651 113.631 145.604 113.655C145.581 113.678 142.952 113.771 139.742 113.841ZM71.1128 120.913C70.8104 121.239 70.5545 121.727 70.5545 122.03C70.5312 122.309 70.7638 122.797 71.0663 123.077C71.3454 123.356 71.8572 123.588 72.1597 123.612C72.4854 123.612 72.9739 123.379 73.2763 123.077C73.5555 122.797 73.7881 122.332 73.7881 122.03C73.7881 121.751 73.5322 121.239 73.2065 120.936C72.9041 120.611 72.4156 120.355 72.1597 120.355C71.9038 120.355 71.4385 120.611 71.1128 120.913ZM117.524 121.332C117.362 121.471 117.222 121.844 117.245 122.146C117.269 122.425 117.455 122.728 117.641 122.797C117.85 122.844 122.224 122.914 127.365 122.914C134.577 122.914 136.81 122.844 137.02 122.611C137.183 122.448 137.322 122.146 137.299 121.913C137.299 121.704 137.089 121.402 136.834 121.285C136.554 121.146 132.832 121.053 127.109 121.053C120.246 121.053 117.78 121.122 117.524 121.332ZM157.539 121.332C157.376 121.471 157.236 121.844 157.259 122.146C157.283 122.425 157.469 122.728 157.655 122.797C157.864 122.844 163.587 122.914 170.404 122.914C177.22 122.89 182.896 122.821 183.036 122.728C183.175 122.635 183.362 122.379 183.455 122.146C183.548 121.89 183.455 121.611 183.199 121.402C182.85 121.099 180.965 121.053 170.334 121.053C160.958 121.053 157.794 121.122 157.539 121.332ZM97.6337 123.077C100.449 123.123 104.962 123.123 107.637 123.077C110.336 123.053 108.033 123.007 102.519 123.007C97.0289 123.007 94.8188 123.053 97.6337 123.077ZM144.627 123.077C146.162 123.123 148.582 123.123 149.978 123.077C151.397 123.03 150.141 123.007 147.186 123.007C144.255 123.007 143.092 123.03 144.627 123.077ZM70.9965 130.033C70.7173 130.381 70.5079 130.824 70.5079 131.033C70.5312 131.219 70.694 131.638 70.8801 131.917C71.1361 132.312 71.4617 132.452 72.1131 132.452C72.5784 132.452 73.1135 132.336 73.2531 132.173C73.3927 132.01 73.602 131.591 73.6718 131.289C73.7881 130.87 73.6718 130.498 73.3461 130.056C73.0204 129.614 72.6482 129.428 72.1829 129.428C71.7332 129.428 71.3377 129.629 70.9965 130.033ZM97.657 130.149C97.4011 130.265 97.2383 130.591 97.2383 130.893C97.2615 131.172 97.4244 131.521 97.5872 131.684C97.7966 131.894 98.89 131.987 101.472 131.987C104.45 132.01 105.148 131.94 105.381 131.638C105.543 131.452 105.613 131.056 105.567 130.754C105.52 130.475 105.218 130.149 104.939 130.056C104.636 129.963 102.984 129.893 101.24 129.893C99.5181 129.893 97.9129 130.009 97.657 130.149ZM116.012 130.056C119.339 130.102 124.69 130.102 127.877 130.056C131.087 130.033 128.365 129.986 121.828 129.986C115.314 129.986 112.686 130.033 116.012 130.056ZM138.648 130.056C138.439 130.102 138.206 130.405 138.136 130.707C138.067 131.033 138.136 131.452 138.299 131.638C138.532 131.94 139.16 132.01 141.766 131.987C144.278 131.987 145.022 131.894 145.325 131.638C145.511 131.428 145.674 131.126 145.674 130.94C145.674 130.73 145.441 130.428 145.162 130.242C144.767 129.963 143.976 129.893 141.835 129.916C140.3 129.916 138.881 129.986 138.648 130.056ZM150.676 130.056C150.303 130.102 149.861 130.288 149.675 130.428C149.512 130.568 149.396 130.824 149.396 130.986C149.396 131.149 149.559 131.428 149.745 131.638C150.048 131.94 152.327 131.987 167.263 131.987C180.709 131.987 184.502 131.917 184.711 131.684C184.874 131.521 185.013 131.172 184.99 130.87C184.99 130.544 184.804 130.265 184.408 130.126C184.036 129.963 177.964 129.893 167.612 129.916C158.678 129.939 151.071 130.009 150.676 130.056ZM71.1128 138.826C70.8104 139.152 70.5545 139.664 70.5545 139.99C70.5312 140.385 70.7638 140.757 71.1826 141.06C71.5315 141.316 71.9968 141.525 72.2295 141.525C72.4621 141.525 72.9041 141.246 73.2298 140.943C73.5322 140.618 73.7881 140.152 73.7881 139.896C73.7881 139.641 73.5322 139.152 73.2065 138.85C72.9041 138.524 72.4156 138.268 72.1597 138.268C71.9038 138.268 71.4385 138.524 71.1128 138.826ZM117.548 139.222C117.362 139.385 117.222 139.687 117.245 139.873C117.269 140.083 117.408 140.362 117.571 140.525C117.804 140.734 118.897 140.804 121.572 140.757C124.806 140.711 125.318 140.641 125.527 140.292C125.713 139.99 125.713 139.78 125.527 139.478C125.318 139.129 124.806 139.059 121.572 139.012C118.897 138.966 117.78 139.036 117.548 139.222ZM129.645 139.431C129.482 139.734 129.482 140.036 129.622 140.362C129.854 140.804 130.064 140.827 135.601 140.757C140.765 140.711 141.347 140.664 141.579 140.292C141.766 139.99 141.766 139.78 141.579 139.478C141.347 139.105 140.765 139.059 135.601 139.012C130.064 138.943 129.878 138.966 129.645 139.431ZM152.653 140.99C155.422 141.036 159.958 141.036 162.773 140.99C165.588 140.967 163.355 140.92 157.771 140.92C152.211 140.92 149.908 140.967 152.653 140.99ZM70.8801 147.853C70.6708 148.132 70.5079 148.574 70.5079 148.83C70.5312 149.109 70.694 149.551 70.8801 149.83C71.1361 150.226 71.4617 150.365 72.1131 150.365C72.5784 150.365 73.1135 150.249 73.2531 150.086C73.3927 149.923 73.602 149.458 73.6718 149.086C73.7881 148.62 73.7184 148.202 73.4625 147.853C73.1833 147.457 72.8576 147.341 72.1829 147.341C71.5083 147.341 71.1593 147.457 70.8801 147.853ZM84.3733 147.969C85.7924 148.016 87.9792 148.016 89.2587 147.969C90.5382 147.923 89.3983 147.899 86.6997 147.899C84.0243 147.899 82.9774 147.923 84.3733 147.969ZM96.2379 148.155C96.0285 148.365 95.8657 148.737 95.8889 148.969C95.8889 149.225 96.0983 149.528 96.3542 149.667C96.6334 149.784 99.0761 149.9 102.17 149.9C106.59 149.9 107.567 149.83 107.87 149.551C108.056 149.342 108.219 149.062 108.242 148.9C108.242 148.737 108.056 148.434 107.823 148.202C107.451 147.853 106.8 147.806 102.031 147.806C97.4244 147.806 96.5636 147.853 96.2379 148.155ZM112.29 148.155C112.081 148.365 111.918 148.69 111.941 148.853C111.941 149.039 112.104 149.342 112.29 149.551C112.569 149.83 113.337 149.9 116.012 149.9C117.873 149.9 119.595 149.784 119.851 149.667C120.107 149.528 120.316 149.202 120.316 148.9C120.339 148.62 120.2 148.248 120.037 148.085C119.828 147.876 118.757 147.783 116.222 147.806C113.314 147.806 112.616 147.876 112.29 148.155ZM124.48 148.202C124.201 148.574 124.201 148.574 124.573 148.318C124.853 148.155 126.225 148.016 128.528 147.969L132.064 147.899C125.202 147.806 124.76 147.853 124.48 148.202ZM136.717 148.225C136.485 148.458 136.322 148.783 136.345 148.923C136.368 149.062 136.601 149.342 136.903 149.551C137.345 149.853 138.997 149.9 148.419 149.9C155.282 149.9 159.586 149.807 159.865 149.667C160.144 149.528 160.33 149.202 160.33 148.853C160.33 148.504 160.144 148.178 159.865 148.039C159.586 147.876 155.235 147.806 148.279 147.806C137.811 147.806 137.113 147.829 136.717 148.225ZM166.611 147.969C167.705 148.016 169.38 148.016 170.334 147.969C171.311 147.923 170.404 147.899 168.356 147.899C166.309 147.899 165.541 147.923 166.611 147.969ZM176.731 148.225C176.499 148.458 176.336 148.783 176.359 148.923C176.382 149.062 176.545 149.342 176.731 149.551C177.034 149.83 178.034 149.9 182.78 149.9H188.48C189.038 148.62 189.131 148.155 189.061 148.039C188.991 147.876 186.758 147.806 183.059 147.806C177.662 147.806 177.127 147.829 176.731 148.225ZM172.358 149.295C172.241 149.598 171.567 149.667 168.426 149.714L164.634 149.784C171.497 149.9 172.148 149.853 172.427 149.551C172.637 149.342 172.73 149.132 172.66 149.062C172.59 148.993 172.451 149.109 172.358 149.295ZM132.297 149.411C132.158 149.551 130.389 149.691 128.342 149.714L124.62 149.784C131.483 149.9 132.111 149.853 132.39 149.551C132.553 149.365 132.646 149.202 132.6 149.202C132.553 149.202 132.413 149.295 132.297 149.411ZM84.7222 149.83C86.0715 149.877 88.1653 149.877 89.375 149.83C90.608 149.784 89.4913 149.76 86.9323 149.76C84.3733 149.76 83.3962 149.784 84.7222 149.83ZM81.3489 155.786C81.2792 155.949 81.2559 156.972 81.3024 158.042C81.3257 159.113 81.4653 159.997 81.5816 160.02C81.7212 160.043 81.7444 160.02 81.6514 159.973C81.5583 159.927 81.4653 158.95 81.4653 157.81C81.4653 156.042 81.5351 155.739 81.8142 155.832C82.0236 155.879 82.1167 155.832 82.0469 155.716C82.0003 155.576 81.8375 155.483 81.6979 155.483C81.5583 155.483 81.4187 155.623 81.3489 155.786ZM71.1361 156.647C70.7173 156.972 70.5079 157.344 70.5079 157.693C70.5312 158.019 70.8104 158.531 71.1128 158.857C71.4385 159.159 71.927 159.438 72.1829 159.438C72.4388 159.438 72.9041 159.159 73.2298 158.857C73.5322 158.531 73.7881 158.089 73.8114 157.856C73.8114 157.647 73.602 157.158 73.3461 156.809C73.067 156.437 72.6482 156.181 72.3225 156.181C72.0201 156.181 71.485 156.391 71.1361 156.647Z" fill="black"/>
<path d="M81.4873 50.6797C81.4408 50.4238 81.464 50.0748 81.5338 49.9352V49.912C81.6269 49.7026 83.0227 49.6328 87.3033 49.6328C91.5606 49.6328 93.0262 49.7026 93.2589 49.912C93.4217 50.0748 93.538 50.4005 93.538 50.6099C93.538 50.8425 93.3054 51.0752 93.003 51.145C92.7238 51.2148 90.0252 51.238 87.0241 51.2148C81.7665 51.145 81.5571 51.1217 81.4873 50.6797Z" fill="black"/>
<path d="M121.408 50.5168C121.385 50.2144 121.455 49.8887 121.571 49.8189C121.687 49.7259 124.363 49.6561 127.55 49.6561C132.854 49.6561 133.319 49.6793 133.436 50.0516C133.506 50.2842 133.506 50.6332 133.459 50.8193C133.389 51.0054 133.087 51.238 132.808 51.3311C132.505 51.4241 130.039 51.5172 127.341 51.5172C124.502 51.5172 122.176 51.4241 121.92 51.2846C121.664 51.145 121.432 50.796 121.408 50.5168Z" fill="black"/>
<path d="M137.623 50.8658C137.554 50.6564 137.554 50.2842 137.623 50.0516C137.763 49.6793 138.391 49.6561 157.165 49.7724V51.1682L147.464 51.2148C138.368 51.2846 137.74 51.2613 137.623 50.8658Z" fill="black"/>
<path d="M105.589 59.4037C105.566 59.2176 105.682 58.9384 105.868 58.7756C106.101 58.5895 107.357 58.4964 109.869 58.4964C113.312 58.4964 113.568 58.5197 113.778 58.9617C113.933 59.2719 113.933 59.582 113.778 59.8922C113.568 60.3343 113.312 60.3575 109.869 60.3575C107.241 60.3575 106.124 60.2877 105.914 60.0783C105.752 59.9155 105.612 59.6131 105.589 59.4037Z" fill="black"/>
<path d="M157.91 59.7759C157.677 59.3106 157.7 59.1478 157.956 58.8454C158.235 58.5429 158.84 58.4964 162.004 58.5429C165.238 58.6127 165.749 58.6592 165.982 59.0082C166.168 59.3106 166.168 59.5433 165.982 59.8224C165.749 60.1947 165.261 60.2412 158.212 60.3575L157.91 59.7759Z" fill="black"/>
<path d="M186.082 59.4037C186.059 59.2176 186.175 58.9384 186.361 58.7756C186.594 58.5662 188.548 58.4964 200.32 58.4964L200.529 59.0082C200.645 59.3106 200.645 59.7061 200.529 59.9388C200.343 60.3343 199.761 60.3575 193.503 60.3575C188.339 60.3575 186.641 60.2877 186.408 60.0783C186.245 59.9155 186.105 59.6131 186.082 59.4037Z" fill="black"/>
<path d="M81.4873 68.4999C81.4408 68.1277 81.5571 67.802 81.813 67.6159C82.1387 67.4065 84.8373 67.3367 93.3054 67.3367C101.843 67.3367 104.449 67.4065 104.775 67.6159C105.054 67.802 105.17 68.1277 105.054 69.0815H81.5571L81.4873 68.4999Z" fill="black"/>
<path d="M121.455 68.7326C121.269 68.3603 121.315 68.1742 121.687 67.802C122.106 67.3832 122.455 67.3367 125.456 67.3367C127.759 67.3367 128.923 67.4298 129.202 67.6159C129.481 67.802 129.597 68.1277 129.481 69.0815L125.573 69.128C121.897 69.1978 121.664 69.1746 121.455 68.7326Z" fill="black"/>
<path d="M105.589 77.317C105.566 77.1309 105.682 76.8517 105.868 76.6888C106.101 76.4795 108.636 76.4097 115.685 76.4097C124.944 76.4097 125.177 76.4097 125.41 76.875C125.526 77.1309 125.642 77.3868 125.642 77.4566C125.642 77.5263 125.48 77.7357 125.27 77.9218C124.968 78.2243 123.549 78.2708 115.569 78.2708C108.334 78.2708 106.147 78.201 105.914 77.9916C105.752 77.8288 105.612 77.5263 105.589 77.317Z" fill="black"/>
<path d="M145.603 77.1774C145.58 76.8982 145.719 76.619 145.882 76.5725C146.068 76.5027 147.836 76.4329 149.767 76.4329C152.629 76.4097 153.396 76.4795 153.675 76.7586C153.862 76.9447 154.024 77.2006 154.024 77.3402C154.024 77.4566 153.862 77.7357 153.652 77.9218C153.373 78.201 152.582 78.2708 149.767 78.2708C147.208 78.2708 146.138 78.201 145.929 77.9916C145.766 77.8288 145.626 77.4566 145.603 77.1774Z" fill="black"/>
<path d="M109.66 86.7156C109.451 86.4132 109.451 86.1806 109.613 85.8781C109.823 85.5059 110.591 85.4826 133.901 85.599V86.9948L121.92 87.0646C110.707 87.1111 109.916 87.0878 109.66 86.7156Z" fill="black"/>
<path d="M105.124 95.3C105.1 94.9278 105.193 94.5556 105.286 94.4625C105.403 94.3927 107.171 94.3462 109.195 94.3695C112.452 94.4393 112.94 94.4858 113.173 94.8348C113.359 95.1372 113.359 95.3698 113.173 95.649C112.94 96.0212 112.452 96.0677 109.567 96.1375C107.729 96.1608 105.984 96.1375 105.682 96.0678C105.31 95.998 105.17 95.7653 105.124 95.3Z" fill="black"/>
<path d="M145.603 95.1139C145.58 94.858 145.649 94.5556 145.766 94.4858C145.882 94.3927 151.209 94.3462 169.262 94.4393L169.332 95.0209C169.355 95.3466 169.262 95.7421 169.099 95.9049C168.867 96.1375 166.447 96.2073 157.514 96.2073C148.72 96.1841 146.161 96.1375 145.929 95.9049C145.766 95.7421 145.626 95.3931 145.603 95.1139Z" fill="black"/>
<path d="M81.4873 104.326C81.464 104.001 81.5571 103.605 81.6967 103.442C81.8828 103.233 83.3252 103.163 87.28 103.163C90.3741 103.163 92.7936 103.256 93.0728 103.396C93.3287 103.512 93.538 103.815 93.538 104.024C93.5613 104.257 93.4217 104.582 93.2589 104.722C93.0262 104.931 91.5141 105.001 81.5571 104.908L81.4873 104.326Z" fill="black"/>
<path d="M109.869 104.21C109.823 103.815 109.939 103.442 110.102 103.349C110.265 103.256 115.453 103.163 121.618 103.163C131.296 103.163 132.901 103.21 133.203 103.512C133.389 103.698 133.552 104.001 133.552 104.14C133.575 104.303 133.436 104.582 133.273 104.722C133.04 104.955 130.272 105.001 109.939 104.908L109.869 104.21Z" fill="black"/>
<path d="M149.581 104.001C149.581 103.931 149.744 103.722 149.953 103.535C150.256 103.233 150.954 103.163 153.699 103.163C155.537 103.163 157.258 103.28 157.514 103.396C157.77 103.512 157.979 103.815 157.979 104.024C157.979 104.257 157.863 104.582 157.7 104.722C157.491 104.931 156.374 105.024 153.745 105.024C150.302 105.024 150.046 105.001 149.837 104.559C149.721 104.303 149.604 104.047 149.581 104.001Z" fill="black"/>
<path d="M133.622 113.33C133.575 113.12 133.668 112.771 133.808 112.585C134.041 112.283 134.901 112.236 145.533 112.353V113.748H139.601C134.134 113.748 133.668 113.725 133.622 113.33Z" fill="black"/>
<path d="M89.6297 122.24C89.6064 121.914 89.6995 121.519 89.8391 121.356C90.0484 121.146 92.5842 121.077 101.518 121.123C112.079 121.193 112.94 121.216 113.173 121.588C113.359 121.891 113.359 122.123 113.173 122.403C112.94 122.798 112.103 122.821 89.6995 122.821L89.6297 122.24Z" fill="black"/>
<path d="M141.276 122.24C141.252 121.914 141.346 121.519 141.485 121.356C141.695 121.146 143.067 121.077 147.348 121.123C152.373 121.193 152.954 121.239 153.187 121.588C153.373 121.891 153.373 122.123 153.187 122.403C152.954 122.775 152.396 122.821 141.346 122.821L141.276 122.24Z" fill="black"/>
<path d="M109.707 131.476C109.474 131.103 109.451 130.847 109.613 130.545C109.823 130.173 110.591 130.15 133.901 130.266L133.971 130.847C133.994 131.173 133.901 131.569 133.738 131.731C133.506 131.964 131.016 132.034 110.055 132.011L109.707 131.476Z" fill="black"/>
<path d="M105.1 139.688C105.193 139.502 105.356 139.269 105.496 139.176C105.635 139.06 107.357 139.013 109.334 139.06C112.452 139.106 112.94 139.153 113.173 139.502C113.359 139.804 113.359 140.037 113.173 140.316C112.94 140.688 112.452 140.735 109.218 140.804C105.891 140.851 105.496 140.828 105.24 140.455C105.077 140.223 105.03 139.874 105.1 139.688Z" fill="black"/>
<path d="M145.603 140.083C145.58 139.781 145.696 139.432 145.882 139.269C146.138 139.06 148.953 138.99 157.607 139.036C168.146 139.106 169.006 139.129 169.239 139.502C169.425 139.804 169.425 140.037 169.239 140.316C169.006 140.711 168.146 140.735 157.84 140.804C151.721 140.828 146.464 140.804 146.184 140.735C145.836 140.665 145.626 140.432 145.603 140.083Z" fill="black"/>
<path d="M81.3942 148.924C81.371 148.621 81.464 148.295 81.5571 148.202C81.6734 148.133 84.0231 148.086 91.7932 148.179V149.575L86.9543 149.691C84.279 149.761 81.9526 149.738 81.7665 149.621C81.5804 149.528 81.4175 149.226 81.3942 148.924Z" fill="black"/>
<path d="M124.363 149.226C124.293 148.97 124.363 148.598 124.502 148.412C124.712 148.133 125.456 148.063 128.457 148.063C131.924 148.063 132.18 148.086 132.389 148.528C132.552 148.854 132.529 149.11 132.342 149.342C132.086 149.645 131.389 149.715 128.271 149.691C124.689 149.691 124.479 149.668 124.363 149.226Z" fill="black"/>
<path d="M164.307 149.11C164.261 148.854 164.284 148.505 164.354 148.342C164.447 148.133 165.47 148.063 168.332 148.063C171.752 148.063 172.194 148.109 172.403 148.458C172.543 148.737 172.519 149.017 172.333 149.296C172.077 149.668 171.682 149.691 168.215 149.645C164.586 149.575 164.377 149.552 164.307 149.11Z" fill="black"/>
<path d="M81.7897 159.927C81.5106 159.927 81.4408 159.555 81.464 157.81C81.4873 156.345 81.5804 155.74 81.7665 155.786C81.9293 155.856 82.0456 156.67 82.0922 157.903C82.1387 159.578 82.0689 159.927 81.7897 159.927Z" fill="black"/>
<defs>
<linearGradient id="paint0_linear_3024_7513" x1="326.037" y1="50.7496" x2="321.884" y2="54.7574" gradientUnits="userSpaceOnUse">
<stop offset="0.05" stop-color="#FFF339"/>
<stop offset="0.37" stop-color="#FF9800"/>
<stop offset="0.53" stop-color="#FF3346"/>
<stop offset="0.7" stop-color="#FF0D8A"/>
</linearGradient>
<radialGradient id="paint1_radial_3024_7513" cx="0" cy="0" r="1" gradientUnits="userSpaceOnUse" gradientTransform="translate(326.063 51.0579) scale(5.29028 5.37937)">
<stop offset="0.13" stop-color="#FFBD44"/>
<stop offset="0.28" stop-color="#FF9800"/>
<stop offset="0.47" stop-color="#FF3450"/>
<stop offset="0.78" stop-color="#FF027B"/>
<stop offset="0.86" stop-color="#FF0083"/>
</radialGradient>
<radialGradient id="paint2_radial_3024_7513" cx="0" cy="0" r="1" gradientUnits="userSpaceOnUse" gradientTransform="translate(324.063 52.7406) scale(5.42254 5.37937)">
<stop offset="0.3" stop-color="#AF0611"/>
<stop offset="0.35" stop-color="#CE1223" stop-opacity="0.74"/>
<stop offset="0.43" stop-color="#FD243B" stop-opacity="0.34"/>
<stop offset="0.5" stop-color="#FF304B" stop-opacity="0.09"/>
<stop offset="0.53" stop-color="#FF3450" stop-opacity="0"/>
</radialGradient>
<radialGradient id="paint3_radial_3024_7513" cx="0" cy="0" r="1" gradientUnits="userSpaceOnUse" gradientTransform="translate(324.627 49.6735) scale(1.73632 2.94784)">
<stop offset="0.13" stop-color="#FFF339"/>
<stop offset="0.53" stop-color="#FF9800"/>
</radialGradient>
<radialGradient id="paint4_radial_3024_7513" cx="0" cy="0" r="1" gradientUnits="userSpaceOnUse" gradientTransform="translate(323.48 54.1281) scale(2.29781 2.51842)">
<stop offset="0.35" stop-color="#008EE9"/>
<stop offset="0.67" stop-color="#A059FF"/>
<stop offset="1" stop-color="#DF36EA"/>
</radialGradient>
<radialGradient id="paint5_radial_3024_7513" cx="0" cy="0" r="1" gradientUnits="userSpaceOnUse" gradientTransform="translate(324.032 52.1851) scale(1.22002 1.48573)">
<stop offset="0.21" stop-color="#A059FF" stop-opacity="0"/>
<stop offset="0.97" stop-color="#80008E" stop-opacity="0.6"/>
</radialGradient>
<radialGradient id="paint6_radial_3024_7513" cx="0" cy="0" r="1" gradientUnits="userSpaceOnUse" gradientTransform="translate(323.944 50.319) scale(1.82672 1.83321)">
<stop offset="0.1" stop-color="#FFE200"/>
<stop offset="0.79" stop-color="#FF7232"/>
</radialGradient>
<radialGradient id="paint7_radial_3024_7513" cx="0" cy="0" r="1" gradientUnits="userSpaceOnUse" gradientTransform="translate(325.612 49.1169) scale(8.72118 7.32095)">
<stop offset="0.11" stop-color="#FFF339"/>
<stop offset="0.46" stop-color="#FF9800"/>
<stop offset="0.72" stop-color="#FF3346"/>
<stop offset="0.9" stop-color="#FF0D8A"/>
</radialGradient>
<radialGradient id="paint8_radial_3024_7513" cx="0" cy="0" r="1" gradientUnits="userSpaceOnUse" gradientTransform="translate(324.874 49.2607) rotate(83.9544) scale(5.73345 5.77636)">
<stop stop-color="#FFF339"/>
<stop offset="0.3" stop-color="#FF9800"/>
<stop offset="0.57" stop-color="#FF3346"/>
<stop offset="0.74" stop-color="#FF0D8A"/>
</radialGradient>
<radialGradient id="paint9_radial_3024_7513" cx="0" cy="0" r="1" gradientUnits="userSpaceOnUse" gradientTransform="translate(323.963 50.9785) scale(5.00713 4.91917)">
<stop offset="0.14" stop-color="#FFF339"/>
<stop offset="0.48" stop-color="#FF9800"/>
<stop offset="0.66" stop-color="#FF3346"/>
<stop offset="0.9" stop-color="#FF0D8A"/>
</radialGradient>
<radialGradient id="paint10_radial_3024_7513" cx="0" cy="0" r="1" gradientUnits="userSpaceOnUse" gradientTransform="translate(325.263 51.2658) scale(6.01841 5.38418)">
<stop offset="0.09" stop-color="#FFF339"/>
<stop offset="0.63" stop-color="#FF9800"/>
</radialGradient>
<linearGradient id="paint11_linear_3024_7513" x1="325.783" y1="50.7792" x2="322.461" y2="54.4086" gradientUnits="userSpaceOnUse">
<stop offset="0.17" stop-color="#FFF339" stop-opacity="0.8"/>
<stop offset="0.6" stop-color="#FFF339" stop-opacity="0"/>
</linearGradient>
<linearGradient id="paint12_linear_3024_7513" x1="332.362" y1="55.1738" x2="332.362" y2="49.9229" gradientUnits="userSpaceOnUse">
<stop stop-color="#F2F2F2"/>
<stop offset="1" stop-color="white"/>
</linearGradient>
<linearGradient id="paint13_linear_3024_7513" x1="332.36" y1="55.1739" x2="332.36" y2="49.9229" gradientUnits="userSpaceOnUse">
<stop/>
<stop offset="0.36" stop-opacity="0"/>
</linearGradient>
<linearGradient id="paint14_linear_3024_7513" x1="332.363" y1="54.9114" x2="332.363" y2="50.1855" gradientUnits="userSpaceOnUse">
<stop stop-color="#3871E9"/>
<stop offset="1" stop-color="#61C5F6"/>
</linearGradient>
<linearGradient id="paint15_linear_3024_7513" x1="332.359" y1="54.9115" x2="332.359" y2="50.1855" gradientUnits="userSpaceOnUse">
<stop/>
<stop offset="0.36" stop-opacity="0"/>
</linearGradient>
<clipPath id="clip0_3024_7513">
<rect x="312.939" y="59.7705" width="76.0929" height="95.0268" fill="white"/>
</clipPath>
<clipPath id="clip1_3024_7513">
<rect width="8.57385" height="8.57385" fill="white" transform="translate(277.773 143.009)"/>
</clipPath>
<clipPath id="clip2_3024_7513">
<rect width="5.33857" height="5.33854" fill="white" transform="translate(313.191 49.9229)"/>
</clipPath>
<clipPath id="clip3_3024_7513">
<rect width="5.33854" height="5.33854" fill="white" transform="translate(321.441 49.9229)"/>
</clipPath>
<clipPath id="clip4_3024_7513">
<rect width="5.33854" height="5.33854" fill="white" transform="translate(329.693 49.9229)"/>
</clipPath>
</defs>
</svg>
