<svg width="526" height="200" viewBox="0 0 526 200" fill="none" xmlns="http://www.w3.org/2000/svg">
<g clip-path="url(#clip0_1805_1851)">
<rect width="526" height="200" fill="white"/>
<rect x="0.592107" y="46.6448" width="524.816" height="50.8158" rx="25.4079" fill="white"/>
<rect x="0.592107" y="46.6448" width="524.816" height="50.8158" rx="25.4079" stroke="#F35423" stroke-width="1.18421"/>
<g clip-path="url(#clip1_1805_1851)">
<path d="M33.5784 74.646H32.7988L32.5224 74.3795C33.7067 72.9979 34.3185 71.113 33.983 69.1098C33.5192 66.3663 31.2297 64.1755 28.4665 63.84C24.2922 63.3268 20.779 66.84 21.2921 71.0144C21.6277 73.7775 23.8185 76.067 26.5619 76.5308C28.5652 76.8664 30.4501 76.2545 31.8317 75.0703L32.0981 75.3466V76.1262L36.2922 80.3203C36.6968 80.7249 37.358 80.7249 37.7626 80.3203C38.1672 79.9157 38.1672 79.2545 37.7626 78.8499L33.5784 74.646ZM27.6573 74.646C25.2001 74.646 23.2165 72.6624 23.2165 70.2051C23.2165 67.7479 25.2001 65.7643 27.6573 65.7643C30.1145 65.7643 32.0981 67.7479 32.0981 70.2051C32.0981 72.6624 30.1145 74.646 27.6573 74.646Z" fill="#F35423"/>
</g>
<path d="M49.3655 79.0186L46.3006 68.9592H47.9248L50.099 76.6609H50.2038L52.3519 68.9592H54.0023L56.1242 76.6347H56.229L58.4033 68.9592H60.0274L56.9625 79.0186H55.4431L53.2426 71.2907H53.0854L50.8849 79.0186H49.3655ZM64.1654 79.0186L61.1004 68.9592H62.7246L64.8989 76.6609H65.0037L67.1517 68.9592H68.8021L70.924 76.6347H71.0288L73.2031 68.9592H74.8273L71.7623 79.0186H70.2429L68.0424 71.2907H67.8852L65.6848 79.0186H64.1654ZM78.9652 79.0186L75.9002 68.9592H77.5244L79.6987 76.6609H79.8035L81.9516 68.9592H83.6019L85.7238 76.6347H85.8286L88.0029 68.9592H89.6271L86.5621 79.0186H85.0427L82.8423 71.2907H82.6851L80.4846 79.0186H78.9652ZM91.2436 79.1233C90.9206 79.1233 90.6433 79.0076 90.4119 78.7762C90.1805 78.5448 90.0648 78.2676 90.0648 77.9445C90.0648 77.6214 90.1805 77.3442 90.4119 77.1128C90.6433 76.8814 90.9206 76.7657 91.2436 76.7657C91.5667 76.7657 91.844 76.8814 92.0754 77.1128C92.3068 77.3442 92.4225 77.6214 92.4225 77.9445C92.4225 78.1584 92.3679 78.3549 92.2588 78.5339C92.154 78.7129 92.0121 78.857 91.8331 78.9662C91.6584 79.0709 91.462 79.1233 91.2436 79.1233ZM99.0982 79.2281C98.1551 79.2281 97.3431 79.0055 96.662 78.5601C95.9809 78.1148 95.4569 77.5014 95.0902 76.7198C94.7234 75.9383 94.5401 75.0455 94.5401 74.0413C94.5401 73.0196 94.7278 72.118 95.1033 71.3365C95.4831 70.5506 96.0114 69.9372 96.6881 69.4962C97.3693 69.0509 98.1639 68.8282 99.072 68.8282C99.7793 68.8282 100.417 68.9592 100.984 69.2212C101.552 69.4831 102.017 69.8499 102.379 70.3214C102.742 70.7929 102.967 71.3431 103.054 71.9718H101.508C101.39 71.5133 101.128 71.1073 100.722 70.7536C100.321 70.3956 99.7793 70.2166 99.0982 70.2166C98.4957 70.2166 97.9674 70.3738 97.5133 70.6881C97.0636 70.9981 96.7122 71.4369 96.4589 72.0045C96.2101 72.5677 96.0856 73.2292 96.0856 73.9889C96.0856 74.766 96.2079 75.4428 96.4524 76.0191C96.7012 76.5954 97.0505 77.0429 97.5002 77.3616C97.9543 77.6804 98.487 77.8397 99.0982 77.8397C99.4999 77.8397 99.8644 77.7699 100.192 77.6302C100.519 77.4904 100.797 77.2896 101.024 77.0276C101.251 76.7657 101.412 76.4513 101.508 76.0846H103.054C102.967 76.6784 102.75 77.2132 102.405 77.6891C102.065 78.1606 101.613 78.5361 101.05 78.8155C100.491 79.0906 99.8404 79.2281 99.0982 79.2281ZM109.215 79.2281C108.307 79.2281 107.511 79.012 106.825 78.5798C106.144 78.1475 105.611 77.5428 105.227 76.7657C104.847 75.9885 104.657 75.0804 104.657 74.0413C104.657 72.9934 104.847 72.0787 105.227 71.2972C105.611 70.5157 106.144 69.9088 106.825 69.4766C107.511 69.0443 108.307 68.8282 109.215 68.8282C110.124 68.8282 110.918 69.0443 111.599 69.4766C112.285 69.9088 112.817 70.5157 113.197 71.2972C113.581 72.0787 113.774 72.9934 113.774 74.0413C113.774 75.0804 113.581 75.9885 113.197 76.7657C112.817 77.5428 112.285 78.1475 111.599 78.5798C110.918 79.012 110.124 79.2281 109.215 79.2281ZM109.215 77.8397C109.905 77.8397 110.473 77.6629 110.918 77.3092C111.364 76.9556 111.693 76.4906 111.907 75.9143C112.121 75.338 112.228 74.7136 112.228 74.0413C112.228 73.3689 112.121 72.7424 111.907 72.1617C111.693 71.581 111.364 71.1117 110.918 70.7536C110.473 70.3956 109.905 70.2166 109.215 70.2166C108.526 70.2166 107.958 70.3956 107.513 70.7536C107.067 71.1117 106.738 71.581 106.524 72.1617C106.31 72.7424 106.203 73.3689 106.203 74.0413C106.203 74.7136 106.31 75.338 106.524 75.9143C106.738 76.4906 107.067 76.9556 107.513 77.3092C107.958 77.6629 108.526 77.8397 109.215 77.8397ZM115.948 79.0186V68.9592H117.442V70.531H117.573C117.782 69.9939 118.121 69.577 118.588 69.2801C119.055 68.9788 119.616 68.8282 120.271 68.8282C120.934 68.8282 121.487 68.9788 121.928 69.2801C122.373 69.577 122.72 69.9939 122.969 70.531H123.074C123.331 70.0114 123.718 69.5988 124.233 69.2932C124.748 68.9832 125.366 68.8282 126.086 68.8282C126.986 68.8282 127.722 69.1098 128.293 69.673C128.865 70.2319 129.151 71.1029 129.151 72.2861V79.0186H127.606V72.2861C127.606 71.5439 127.403 71.0134 126.997 70.6947C126.591 70.376 126.113 70.2166 125.563 70.2166C124.855 70.2166 124.307 70.4306 123.919 70.8584C123.53 71.2819 123.336 71.819 123.336 72.4695V79.0186H121.764V72.1289C121.764 71.557 121.578 71.0964 121.207 70.7471C120.836 70.3934 120.358 70.2166 119.773 70.2166C119.371 70.2166 118.996 70.3236 118.647 70.5375C118.302 70.7515 118.022 71.0483 117.808 71.4282C117.599 71.8037 117.494 72.2381 117.494 72.7315V79.0186H115.948ZM138.918 71.2121L137.53 71.605C137.443 71.3736 137.314 71.1488 137.143 70.9305C136.978 70.7078 136.751 70.5244 136.462 70.3803C136.174 70.2363 135.805 70.1642 135.356 70.1642C134.74 70.1642 134.227 70.3061 133.817 70.5899C133.411 70.8693 133.207 71.2252 133.207 71.6574C133.207 72.0416 133.347 72.3451 133.627 72.5677C133.906 72.7904 134.343 72.976 134.936 73.1244L136.43 73.4911C137.329 73.7094 137.999 74.0435 138.44 74.4932C138.881 74.9385 139.102 75.5126 139.102 76.2156C139.102 76.7919 138.936 77.3071 138.604 77.7611C138.276 78.2152 137.818 78.5732 137.229 78.8352C136.639 79.0971 135.954 79.2281 135.172 79.2281C134.146 79.2281 133.297 79.0055 132.625 78.5601C131.952 78.1148 131.527 77.4642 131.348 76.6085L132.815 76.2418C132.954 76.7831 133.218 77.1892 133.607 77.4599C134 77.7306 134.513 77.8659 135.146 77.8659C135.866 77.8659 136.438 77.7131 136.862 77.4075C137.29 77.0975 137.504 76.7264 137.504 76.2941C137.504 75.9449 137.381 75.6523 137.137 75.4166C136.892 75.1764 136.517 74.9974 136.01 74.8795L134.334 74.4866C133.413 74.2683 132.736 73.9299 132.304 73.4715C131.876 73.0087 131.662 72.4302 131.662 71.736C131.662 71.1684 131.821 70.6663 132.14 70.2297C132.463 69.7931 132.902 69.4504 133.456 69.2015C134.015 68.9526 134.648 68.8282 135.356 68.8282C136.351 68.8282 137.133 69.0465 137.7 69.4831C138.272 69.9197 138.678 70.496 138.918 71.2121ZM145.33 79.2281C144.387 79.2281 143.575 79.0055 142.894 78.5601C142.213 78.1148 141.689 77.5014 141.322 76.7198C140.956 75.9383 140.772 75.0455 140.772 74.0413C140.772 73.0196 140.96 72.118 141.335 71.3365C141.715 70.5506 142.244 69.9372 142.92 69.4962C143.601 69.0509 144.396 68.8282 145.304 68.8282C146.011 68.8282 146.649 68.9592 147.217 69.2212C147.784 69.4831 148.249 69.8499 148.611 70.3214C148.974 70.7929 149.199 71.3431 149.286 71.9718H147.74C147.623 71.5133 147.361 71.1073 146.955 70.7536C146.553 70.3956 146.011 70.2166 145.33 70.2166C144.728 70.2166 144.2 70.3738 143.746 70.6881C143.296 70.9981 142.944 71.4369 142.691 72.0045C142.442 72.5677 142.318 73.2292 142.318 73.9889C142.318 74.766 142.44 75.4428 142.685 76.0191C142.933 76.5954 143.283 77.0429 143.732 77.3616C144.186 77.6804 144.719 77.8397 145.33 77.8397C145.732 77.8397 146.097 77.7699 146.424 77.6302C146.752 77.4904 147.029 77.2896 147.256 77.0276C147.483 76.7657 147.644 76.4513 147.74 76.0846H149.286C149.199 76.6784 148.983 77.2132 148.638 77.6891C148.297 78.1606 147.845 78.5361 147.282 78.8155C146.723 79.0906 146.073 79.2281 145.33 79.2281ZM151.361 79.0186V68.9592H152.907V79.0186H151.361ZM152.147 67.2826C151.846 67.2826 151.586 67.18 151.368 66.9748C151.154 66.7696 151.047 66.5229 151.047 66.2348C151.047 65.9466 151.154 65.6999 151.368 65.4947C151.586 65.2895 151.846 65.1869 152.147 65.1869C152.448 65.1869 152.706 65.2895 152.92 65.4947C153.138 65.6999 153.247 65.9466 153.247 66.2348C153.247 66.5229 153.138 66.7696 152.92 66.9748C152.706 67.18 152.448 67.2826 152.147 67.2826ZM156.679 79.1233C156.356 79.1233 156.079 79.0076 155.848 78.7762C155.616 78.5448 155.501 78.2676 155.501 77.9445C155.501 77.6214 155.616 77.3442 155.848 77.1128C156.079 76.8814 156.356 76.7657 156.679 76.7657C157.003 76.7657 157.28 76.8814 157.511 77.1128C157.743 77.3442 157.858 77.6214 157.858 77.9445C157.858 78.1584 157.804 78.3549 157.695 78.5339C157.59 78.7129 157.448 78.857 157.269 78.9662C157.094 79.0709 156.898 79.1233 156.679 79.1233ZM164.822 68.9592V70.269H159.609V68.9592H164.822ZM161.128 66.5491H162.674V76.137C162.674 76.5736 162.737 76.901 162.864 77.1193C162.995 77.3333 163.161 77.4773 163.362 77.5516C163.567 77.6214 163.783 77.6563 164.01 77.6563C164.18 77.6563 164.32 77.6476 164.429 77.6302C164.538 77.6083 164.626 77.5909 164.691 77.5778L165.006 78.9662C164.901 79.0055 164.754 79.0448 164.567 79.084C164.379 79.1277 164.141 79.1495 163.853 79.1495C163.416 79.1495 162.988 79.0557 162.569 78.8679C162.155 78.6802 161.81 78.3942 161.535 78.01C161.264 77.6258 161.128 77.1412 161.128 76.5561V66.5491ZM171.072 79.2281C170.103 79.2281 169.267 79.0142 168.564 78.5863C167.865 78.1541 167.326 77.5516 166.946 76.7788C166.571 76.0016 166.383 75.0978 166.383 74.0675C166.383 73.0371 166.571 72.1289 166.946 71.3431C167.326 70.5528 167.854 69.9372 168.531 69.4962C169.212 69.0509 170.007 68.8282 170.915 68.8282C171.439 68.8282 171.956 68.9155 172.467 69.0902C172.978 69.2648 173.443 69.5486 173.862 69.9416C174.281 70.3301 174.615 70.8453 174.864 71.4871C175.113 72.1289 175.237 72.9192 175.237 73.8579V74.5128H167.483V73.1768H173.666C173.666 72.6092 173.552 72.1027 173.325 71.6574C173.102 71.2121 172.784 70.8606 172.369 70.603C171.959 70.3454 171.474 70.2166 170.915 70.2166C170.299 70.2166 169.767 70.3694 169.317 70.675C168.872 70.9763 168.529 71.3693 168.289 71.8539C168.049 72.3385 167.929 72.8581 167.929 73.4126V74.3032C167.929 75.0629 168.06 75.7069 168.322 76.2352C168.588 76.7591 168.957 77.1586 169.428 77.4337C169.9 77.7044 170.448 77.8397 171.072 77.8397C171.478 77.8397 171.845 77.783 172.172 77.6694C172.504 77.5516 172.79 77.3769 173.03 77.1455C173.27 76.9098 173.456 76.6172 173.587 76.2679L175.08 76.6871C174.923 77.1935 174.659 77.6389 174.288 78.0231C173.917 78.4029 173.458 78.6998 172.912 78.9138C172.367 79.1233 171.753 79.2281 171.072 79.2281ZM181.491 79.2281C180.548 79.2281 179.736 79.0055 179.054 78.5601C178.373 78.1148 177.849 77.5014 177.483 76.7198C177.116 75.9383 176.933 75.0455 176.933 74.0413C176.933 73.0196 177.12 72.118 177.496 71.3365C177.876 70.5506 178.404 69.9372 179.081 69.4962C179.762 69.0509 180.556 68.8282 181.465 68.8282C182.172 68.8282 182.809 68.9592 183.377 69.2212C183.944 69.4831 184.409 69.8499 184.772 70.3214C185.134 70.7929 185.359 71.3431 185.446 71.9718H183.901C183.783 71.5133 183.521 71.1073 183.115 70.7536C182.713 70.3956 182.172 70.2166 181.491 70.2166C180.888 70.2166 180.36 70.3738 179.906 70.6881C179.456 70.9981 179.105 71.4369 178.851 72.0045C178.603 72.5677 178.478 73.2292 178.478 73.9889C178.478 74.766 178.6 75.4428 178.845 76.0191C179.094 76.5954 179.443 77.0429 179.893 77.3616C180.347 77.6804 180.879 77.8397 181.491 77.8397C181.892 77.8397 182.257 77.7699 182.584 77.6302C182.912 77.4904 183.189 77.2896 183.416 77.0276C183.643 76.7657 183.805 76.4513 183.901 76.0846H185.446C185.359 76.6784 185.143 77.2132 184.798 77.6891C184.457 78.1606 184.006 78.5361 183.442 78.8155C182.883 79.0906 182.233 79.2281 181.491 79.2281ZM189.067 72.9672V79.0186H187.521V65.6061H189.067V70.531H189.198C189.434 70.0114 189.787 69.5988 190.259 69.2932C190.735 68.9832 191.368 68.8282 192.158 68.8282C192.844 68.8282 193.444 68.9657 193.959 69.2408C194.474 69.5115 194.874 69.9285 195.158 70.4917C195.446 71.0505 195.59 71.7622 195.59 72.6267V79.0186H194.044V72.7315C194.044 71.9325 193.837 71.3147 193.422 70.8781C193.012 70.4371 192.442 70.2166 191.713 70.2166C191.206 70.2166 190.752 70.3236 190.351 70.5375C189.953 70.7515 189.639 71.0636 189.407 71.474C189.18 71.8844 189.067 72.3822 189.067 72.9672ZM205.488 61.2837V83.3409H204.178V61.2837H205.488Z" fill="black"/>
<g clip-path="url(#clip2_1805_1851)">
<path d="M329.139 118.019C339.267 106.232 358.047 108.558 365.066 122.327C360.123 122.33 352.386 122.324 348.194 122.327C345.155 122.327 343.191 122.259 341.067 123.378C338.57 124.694 336.682 127.131 336.026 129.996L329.139 118.019Z" fill="#F44336"/>
<path d="M338.424 132.212C338.424 136.207 341.673 139.456 345.665 139.456C349.658 139.456 352.907 136.207 352.907 132.212C352.907 128.217 349.658 124.968 345.665 124.968C341.67 124.965 338.424 128.217 338.424 132.212Z" fill="#2196F3"/>
<path d="M348.464 141.696C344.401 142.902 339.643 141.565 337.039 137.066C335.051 133.635 329.795 124.481 327.409 120.317C319.043 133.139 326.252 150.609 341.438 153.592L348.464 141.696Z" fill="#4CAF50"/>
<path d="M352.374 124.968C355.759 128.116 356.497 133.214 354.204 137.166C352.478 140.145 346.963 149.451 344.291 153.955C359.937 154.919 371.342 139.587 366.19 124.965L352.374 124.968Z" fill="#FFC107"/>
</g>
<g clip-path="url(#clip3_1805_1851)">
<path d="M432.573 125.043C431.656 122.836 429.797 120.453 428.338 119.7C429.526 122.028 430.213 124.364 430.476 126.107C430.476 126.11 430.477 126.119 430.48 126.142C428.093 120.192 424.045 117.793 420.739 112.568C420.572 112.304 420.405 112.039 420.242 111.76C420.159 111.617 420.081 111.472 420.009 111.323C419.872 111.058 419.766 110.778 419.694 110.488C419.695 110.46 419.674 110.435 419.646 110.432C419.633 110.428 419.619 110.428 419.606 110.432C419.603 110.433 419.599 110.436 419.595 110.437C419.591 110.439 419.559 110.458 419.56 110.456C414.257 113.562 412.486 119.286 412.321 122.161C410.203 122.306 408.178 123.086 406.51 124.4C406.336 124.252 406.153 124.114 405.963 123.987C405.482 122.303 405.462 120.521 405.904 118.827C403.735 119.815 402.048 121.376 400.822 122.754H400.812C399.975 121.694 400.034 118.197 400.082 117.467C400.072 117.422 399.458 117.786 399.377 117.841C398.639 118.368 397.948 118.959 397.314 119.608C396.592 120.34 395.933 121.131 395.342 121.973C395.342 121.974 395.342 121.975 395.341 121.976C395.341 121.975 395.342 121.974 395.342 121.973C393.985 123.896 393.022 126.07 392.51 128.368C392.499 128.414 392.491 128.462 392.481 128.508C392.441 128.694 392.298 129.623 392.273 129.825C392.271 129.841 392.271 129.856 392.269 129.872C392.084 130.833 391.969 131.806 391.926 132.784C391.926 132.82 391.924 132.856 391.924 132.892C391.924 144.551 401.377 154.002 413.037 154.002C423.479 154.002 432.149 146.422 433.847 136.465C433.883 136.195 433.911 135.923 433.943 135.65C434.362 132.03 433.896 128.225 432.573 125.043ZM408.239 141.567C408.338 141.614 408.431 141.665 408.532 141.711C408.537 141.714 408.542 141.717 408.547 141.719C408.443 141.67 408.341 141.619 408.239 141.567ZM430.482 126.147L430.479 126.127C430.48 126.134 430.481 126.142 430.482 126.15L430.482 126.147Z" fill="url(#paint0_linear_1805_1851)"/>
<path d="M432.573 125.037C431.656 122.83 429.797 120.447 428.338 119.694C429.525 122.023 430.213 124.359 430.476 126.102C430.476 126.097 430.476 126.106 430.479 126.122C430.48 126.129 430.481 126.137 430.482 126.144C432.474 131.544 431.389 137.036 429.825 140.391C427.406 145.583 421.548 150.904 412.38 150.645C402.475 150.364 393.748 143.015 392.119 133.388C391.822 131.87 392.119 131.099 392.269 129.867C392.087 130.817 392.017 131.091 391.926 132.78C391.926 132.816 391.924 132.851 391.924 132.888C391.924 144.546 401.377 153.997 413.036 153.997C423.479 153.997 432.149 146.416 433.847 136.459C433.882 136.189 433.911 135.918 433.942 135.645C434.362 132.025 433.896 128.219 432.573 125.037Z" fill="url(#paint1_radial_1805_1851)"/>
<path d="M432.573 125.037C431.656 122.83 429.797 120.447 428.338 119.694C429.525 122.023 430.213 124.359 430.476 126.102C430.476 126.097 430.476 126.106 430.479 126.122C430.48 126.129 430.481 126.137 430.482 126.144C432.474 131.544 431.389 137.036 429.825 140.391C427.406 145.583 421.548 150.904 412.38 150.645C402.475 150.364 393.748 143.015 392.119 133.388C391.822 131.87 392.119 131.099 392.269 129.867C392.087 130.817 392.017 131.091 391.926 132.78C391.926 132.816 391.924 132.851 391.924 132.888C391.924 144.546 401.377 153.997 413.036 153.997C423.479 153.997 432.149 146.416 433.847 136.459C433.882 136.189 433.911 135.918 433.942 135.645C434.362 132.025 433.896 128.219 432.573 125.037Z" fill="url(#paint2_radial_1805_1851)"/>
<path d="M422.315 127.521C422.361 127.553 422.402 127.585 422.446 127.617C421.916 126.677 421.256 125.816 420.486 125.06C413.923 118.498 419.565 110.452 419.567 110.45C414.263 113.556 412.488 119.282 412.322 122.157C412.568 122.14 412.814 122.119 413.064 122.119C417.022 122.119 420.469 124.295 422.315 127.521Z" fill="url(#paint3_radial_1805_1851)"/>
<path d="M413.077 128.829C413.043 129.354 411.188 131.165 410.539 131.165C404.535 131.165 403.561 134.797 403.561 134.797C403.826 137.855 405.955 140.373 408.534 141.705C408.651 141.766 408.77 141.821 408.89 141.875C409.094 141.966 409.301 142.05 409.51 142.129C410.394 142.442 411.32 142.62 412.257 142.659C422.78 143.152 424.818 130.079 417.224 126.283C419.169 125.945 421.188 126.727 422.315 127.519C420.469 124.293 417.022 122.117 413.064 122.117C412.814 122.117 412.569 122.138 412.323 122.155C410.205 122.301 408.18 123.081 406.512 124.394C406.834 124.666 407.197 125.03 407.963 125.784C409.395 127.196 413.07 128.658 413.077 128.829Z" fill="url(#paint4_radial_1805_1851)"/>
<path d="M413.077 128.829C413.043 129.354 411.188 131.165 410.539 131.165C404.535 131.165 403.561 134.797 403.561 134.797C403.826 137.855 405.955 140.373 408.534 141.705C408.651 141.766 408.77 141.821 408.89 141.875C409.094 141.966 409.301 142.05 409.51 142.129C410.394 142.442 411.32 142.62 412.257 142.659C422.78 143.152 424.818 130.079 417.224 126.283C419.169 125.945 421.188 126.727 422.315 127.519C420.469 124.293 417.022 122.117 413.064 122.117C412.814 122.117 412.569 122.138 412.323 122.155C410.205 122.301 408.18 123.081 406.512 124.394C406.834 124.666 407.197 125.03 407.963 125.784C409.395 127.196 413.07 128.658 413.077 128.829Z" fill="url(#paint5_radial_1805_1851)"/>
<path d="M405.528 123.692C405.675 123.787 405.821 123.883 405.966 123.982C405.484 122.298 405.464 120.516 405.906 118.822C403.738 119.81 402.051 121.371 400.824 122.749C400.926 122.746 403.988 122.691 405.528 123.692Z" fill="url(#paint6_radial_1805_1851)"/>
<path d="M392.118 133.39C393.747 143.016 402.474 150.366 412.379 150.646C421.547 150.906 427.405 145.584 429.824 140.393C431.388 137.037 432.473 131.546 430.481 126.146L430.48 126.144L430.477 126.123C430.475 126.108 430.474 126.098 430.474 126.103C430.474 126.107 430.476 126.115 430.478 126.138C431.227 131.028 428.74 135.765 424.852 138.968L424.84 138.996C417.263 145.165 410.013 142.718 408.545 141.716C408.442 141.667 408.34 141.616 408.238 141.563C403.82 139.452 401.996 135.428 402.387 131.977C398.657 131.977 397.385 128.831 397.385 128.831C397.385 128.831 400.734 126.443 405.148 128.52C409.235 130.443 413.074 128.831 413.074 128.831C413.067 128.659 409.392 127.198 407.96 125.786C407.194 125.032 406.831 124.669 406.509 124.396C406.334 124.248 406.152 124.111 405.962 123.983C405.817 123.885 405.671 123.788 405.524 123.693C403.985 122.692 400.922 122.747 400.821 122.75H400.811C399.974 121.69 400.033 118.193 400.081 117.463C400.071 117.418 399.456 117.782 399.376 117.837C398.637 118.364 397.947 118.955 397.313 119.604C396.591 120.336 395.931 121.127 395.341 121.969C395.341 121.97 395.34 121.971 395.34 121.972C395.34 121.971 395.341 121.97 395.341 121.969C393.983 123.893 393.021 126.067 392.508 128.365C392.498 128.411 391.748 131.689 392.118 133.39Z" fill="url(#paint7_radial_1805_1851)"/>
<path d="M420.486 125.061C421.256 125.817 421.916 126.678 422.446 127.619C422.562 127.706 422.671 127.793 422.763 127.878C427.549 132.288 425.041 138.525 424.854 138.97C428.743 135.767 431.23 131.03 430.481 126.14C428.094 120.19 424.046 117.79 420.74 112.566C420.573 112.302 420.406 112.037 420.243 111.758C420.16 111.615 420.082 111.47 420.011 111.321C419.873 111.056 419.767 110.776 419.695 110.486C419.696 110.458 419.675 110.433 419.647 110.429C419.634 110.426 419.626 110.424 419.613 110.428C419.61 110.429 419.6 110.434 419.597 110.435C419.592 110.437 419.586 110.441 419.581 110.444C418.777 110.858 413.923 118.499 420.486 125.061Z" fill="url(#paint8_radial_1805_1851)"/>
<path d="M422.757 127.877C422.664 127.792 422.556 127.705 422.44 127.617C422.397 127.585 422.355 127.553 422.309 127.521C421.181 126.729 419.163 125.947 417.218 126.285C424.812 130.081 422.773 143.154 412.25 142.661C411.313 142.623 410.387 142.444 409.503 142.131C409.294 142.052 409.087 141.968 408.883 141.878C408.764 141.823 408.645 141.768 408.527 141.708C408.532 141.71 408.537 141.714 408.542 141.716C410.01 142.718 417.26 145.165 424.836 138.996L424.848 138.969C425.035 138.524 427.543 132.287 422.757 127.877Z" fill="url(#paint9_radial_1805_1851)"/>
<path d="M403.559 134.799C403.559 134.799 404.534 131.168 410.537 131.168C411.186 131.168 413.042 129.357 413.076 128.832C413.11 128.306 409.237 130.444 405.149 128.521C400.735 126.444 397.387 128.832 397.387 128.832C397.387 128.832 398.659 131.977 402.388 131.977C401.997 135.429 403.822 139.453 408.239 141.564C408.338 141.611 408.431 141.663 408.532 141.708C405.954 140.375 403.825 137.857 403.559 134.799Z" fill="url(#paint10_radial_1805_1851)"/>
<path d="M432.573 125.041C431.655 122.833 429.797 120.451 428.338 119.698C429.525 122.026 430.213 124.362 430.475 126.105C430.475 126.108 430.477 126.117 430.48 126.14C428.092 120.19 424.044 117.79 420.739 112.566C420.572 112.302 420.404 112.037 420.241 111.758C420.158 111.615 420.081 111.47 420.009 111.321C419.872 111.056 419.766 110.776 419.693 110.486C419.694 110.458 419.674 110.433 419.645 110.429C419.632 110.426 419.625 110.424 419.612 110.428C419.609 110.429 419.598 110.434 419.595 110.435C419.59 110.437 419.574 110.447 419.572 110.448C414.118 113.712 412.486 119.284 412.32 122.158C412.566 122.141 412.812 122.121 413.062 122.121C417.02 122.121 420.467 124.297 422.313 127.522C421.185 126.73 419.167 125.948 417.222 126.286C424.816 130.083 422.777 143.156 412.254 142.662C411.317 142.624 410.391 142.445 409.507 142.133C409.298 142.054 409.091 141.969 408.887 141.879C408.768 141.825 408.649 141.77 408.531 141.709C408.536 141.712 408.541 141.715 408.546 141.718C408.442 141.668 408.34 141.617 408.238 141.565C408.337 141.612 408.43 141.663 408.531 141.709C405.953 140.376 403.824 137.858 403.558 134.8C403.558 134.8 404.532 131.169 410.536 131.169C411.185 131.169 413.04 129.358 413.075 128.832C413.067 128.661 409.392 127.199 407.96 125.788C407.195 125.034 406.831 124.67 406.509 124.397C406.335 124.25 406.152 124.112 405.962 123.984C405.481 122.301 405.461 120.519 405.903 118.825C403.734 119.812 402.047 121.373 400.821 122.752H400.811C399.974 121.692 400.033 118.195 400.081 117.465C400.071 117.419 399.457 117.783 399.376 117.838C398.638 118.365 397.947 118.957 397.313 119.606C396.591 120.338 395.932 121.129 395.342 121.97C395.342 121.971 395.341 121.973 395.341 121.974C395.341 121.973 395.342 121.971 395.342 121.97C393.984 123.894 393.022 126.068 392.509 128.366C392.499 128.412 392.49 128.46 392.481 128.506C392.441 128.692 392.262 129.635 392.237 129.837C392.235 129.853 392.239 129.822 392.237 129.837C392.074 130.812 391.97 131.795 391.926 132.783C391.926 132.819 391.924 132.854 391.924 132.891C391.924 144.549 401.376 154 413.036 154C423.479 154 432.149 146.42 433.846 136.463C433.882 136.192 433.911 135.921 433.942 135.648C434.362 132.028 433.896 128.223 432.573 125.041ZM430.479 126.125C430.48 126.132 430.481 126.14 430.482 126.147L430.481 126.145L430.479 126.125Z" fill="url(#paint11_linear_1805_1851)"/>
</g>
<g clip-path="url(#clip4_1805_1851)">
<g opacity="0.08">
<path d="M480.337 153.998C491.778 153.998 501.052 144.723 501.052 133.282C501.052 121.841 491.778 112.566 480.337 112.566C468.896 112.566 459.621 121.841 459.621 133.282C459.621 144.723 468.896 153.998 480.337 153.998Z" fill="black"/>
</g>
<path d="M480.344 153.285C492.179 153.285 501.773 143.691 501.773 131.855C501.773 120.02 492.179 110.426 480.344 110.426C468.508 110.426 458.914 120.02 458.914 131.855C458.914 143.691 468.508 153.285 480.344 153.285Z" fill="url(#paint12_linear_1805_1851)"/>
<g opacity="0.08">
<path d="M480.342 110.426C468.506 110.426 458.912 120.02 458.912 131.856C458.912 143.691 468.506 153.286 480.342 153.286C492.178 153.286 501.772 143.692 501.772 131.856C501.772 120.02 492.178 110.426 480.342 110.426ZM480.342 151.857C469.313 151.857 460.341 142.884 460.341 131.856C460.341 120.827 469.313 111.854 480.342 111.854C491.371 111.854 500.343 120.827 500.343 131.856C500.343 142.884 491.371 151.857 480.342 151.857Z" fill="url(#paint13_linear_1805_1851)"/>
</g>
<g opacity="0.16">
<path d="M480.342 110.426C468.506 110.426 458.912 120.02 458.912 131.856C458.912 143.691 468.506 153.286 480.342 153.286C492.178 153.286 501.772 143.692 501.772 131.856C501.772 120.02 492.178 110.426 480.342 110.426ZM480.342 152.571C468.901 152.571 459.626 143.296 459.626 131.856C459.626 120.415 468.901 111.14 480.342 111.14C491.783 111.14 501.058 120.415 501.058 131.856C501.058 143.296 491.783 152.571 480.342 152.571Z" fill="black"/>
</g>
<path d="M480.343 151.142C490.995 151.142 499.63 142.507 499.63 131.855C499.63 121.203 490.995 112.568 480.343 112.568C469.692 112.568 461.057 121.203 461.057 131.855C461.057 142.507 469.692 151.142 480.343 151.142Z" fill="url(#paint14_linear_1805_1851)"/>
<g opacity="0.16">
<path d="M480.34 112.566C469.688 112.566 461.053 121.201 461.053 131.853C461.053 142.505 469.688 151.14 480.34 151.14C490.992 151.14 499.627 142.505 499.627 131.853C499.627 121.201 490.992 112.566 480.34 112.566ZM480.34 150.426C470.083 150.426 461.767 142.11 461.767 131.853C461.767 121.596 470.083 113.281 480.34 113.281C490.597 113.281 498.912 121.596 498.912 131.853C498.912 142.11 490.597 150.426 480.34 150.426Z" fill="url(#paint15_linear_1805_1851)"/>
</g>
<g opacity="0.36">
<path d="M480.343 117.509C480.178 117.509 480.045 117.375 480.045 117.211V114.354C480.045 114.189 480.178 114.056 480.343 114.056C480.507 114.056 480.641 114.189 480.641 114.354V117.211C480.641 117.375 480.507 117.509 480.343 117.509Z" fill="white"/>
<path d="M478.248 116.221C478.1 116.221 477.972 116.112 477.953 115.962L477.766 114.547C477.745 114.384 477.86 114.234 478.023 114.212C478.185 114.191 478.335 114.306 478.357 114.469L478.543 115.885C478.565 116.048 478.45 116.197 478.287 116.219C478.274 116.221 478.261 116.221 478.248 116.221Z" fill="white"/>
<path d="M474.205 117.308C474.088 117.308 473.977 117.238 473.929 117.124L473.382 115.804C473.319 115.652 473.391 115.477 473.543 115.414C473.695 115.351 473.87 115.424 473.933 115.575L474.48 116.896C474.543 117.048 474.471 117.222 474.319 117.285C474.281 117.3 474.243 117.308 474.205 117.308Z" fill="white"/>
<path d="M470.576 119.402C470.487 119.402 470.398 119.362 470.34 119.286L469.47 118.152C469.37 118.022 469.394 117.835 469.525 117.734C469.655 117.634 469.842 117.659 469.942 117.789L470.812 118.923C470.913 119.053 470.888 119.24 470.757 119.341C470.703 119.382 470.64 119.402 470.576 119.402Z" fill="white"/>
<path d="M467.599 122.372C467.536 122.372 467.472 122.352 467.418 122.31L466.285 121.44C466.154 121.34 466.129 121.153 466.23 121.023C466.33 120.892 466.517 120.868 466.647 120.968L467.781 121.838C467.911 121.938 467.936 122.125 467.836 122.255C467.777 122.332 467.689 122.372 467.599 122.372Z" fill="white"/>
<path d="M465.499 126.005C465.461 126.005 465.422 125.998 465.385 125.983L464.065 125.435C463.913 125.373 463.841 125.198 463.904 125.046C463.967 124.894 464.141 124.822 464.293 124.885L465.613 125.432C465.765 125.495 465.837 125.67 465.774 125.822C465.727 125.936 465.616 126.005 465.499 126.005Z" fill="white"/>
<path d="M464.413 130.057C464.4 130.057 464.387 130.057 464.374 130.055L462.958 129.868C462.795 129.847 462.68 129.697 462.702 129.534C462.723 129.371 462.873 129.257 463.036 129.278L464.452 129.464C464.615 129.486 464.73 129.635 464.708 129.799C464.689 129.948 464.56 130.057 464.413 130.057Z" fill="white"/>
<path d="M476.56 118.014C476.429 118.014 476.309 117.927 476.273 117.793L475.534 115.033C475.491 114.874 475.585 114.711 475.744 114.668C475.903 114.626 476.066 114.72 476.109 114.879L476.848 117.639C476.891 117.798 476.797 117.961 476.638 118.004C476.612 118.011 476.586 118.014 476.56 118.014Z" fill="white"/>
<path d="M473.03 119.474C472.927 119.474 472.827 119.421 472.771 119.326L471.343 116.851C471.26 116.709 471.309 116.527 471.452 116.444C471.594 116.362 471.776 116.411 471.859 116.553L473.287 119.028C473.369 119.17 473.321 119.352 473.178 119.435C473.131 119.462 473.08 119.474 473.03 119.474Z" fill="white"/>
<path d="M469.998 121.802C469.921 121.802 469.845 121.773 469.787 121.715L467.767 119.695C467.651 119.579 467.651 119.39 467.767 119.274C467.883 119.157 468.072 119.157 468.188 119.274L470.208 121.294C470.325 121.41 470.325 121.599 470.208 121.715C470.15 121.773 470.074 121.802 469.998 121.802Z" fill="white"/>
<path d="M467.667 124.833C467.616 124.833 467.565 124.82 467.518 124.793L465.044 123.364C464.901 123.282 464.852 123.1 464.935 122.958C465.017 122.815 465.199 122.766 465.341 122.848L467.816 124.277C467.958 124.359 468.007 124.542 467.925 124.684C467.87 124.78 467.77 124.833 467.667 124.833Z" fill="white"/>
<path d="M466.205 128.365C466.179 128.365 466.153 128.362 466.127 128.355L463.367 127.616C463.208 127.573 463.114 127.41 463.157 127.251C463.199 127.092 463.362 126.998 463.522 127.04L466.282 127.78C466.441 127.822 466.535 127.986 466.492 128.145C466.457 128.278 466.336 128.365 466.205 128.365Z" fill="white"/>
<path d="M465.708 132.157H462.851C462.686 132.157 462.553 132.024 462.553 131.859C462.553 131.695 462.686 131.562 462.851 131.562H465.708C465.872 131.562 466.006 131.695 466.006 131.859C466.006 132.024 465.872 132.157 465.708 132.157Z" fill="white"/>
<path d="M462.997 134.442C462.85 134.442 462.722 134.333 462.702 134.183C462.68 134.02 462.795 133.871 462.958 133.849L464.374 133.663C464.538 133.641 464.687 133.756 464.708 133.919C464.73 134.082 464.615 134.232 464.452 134.253L463.036 134.44C463.023 134.441 463.01 134.442 462.997 134.442Z" fill="white"/>
<path d="M464.179 138.854C464.062 138.854 463.951 138.785 463.904 138.67C463.841 138.518 463.913 138.344 464.065 138.281L465.385 137.734C465.537 137.671 465.711 137.743 465.774 137.895C465.837 138.047 465.765 138.221 465.613 138.284L464.293 138.831C464.256 138.847 464.217 138.854 464.179 138.854Z" fill="white"/>
<path d="M466.468 142.81C466.379 142.81 466.29 142.769 466.232 142.693C466.131 142.563 466.156 142.376 466.286 142.275L467.42 141.405C467.551 141.305 467.738 141.33 467.838 141.46C467.938 141.591 467.913 141.778 467.783 141.878L466.649 142.748C466.595 142.79 466.531 142.81 466.468 142.81Z" fill="white"/>
<path d="M469.69 146.042C469.627 146.042 469.563 146.022 469.509 145.98C469.379 145.88 469.354 145.693 469.454 145.563L470.324 144.429C470.424 144.299 470.611 144.274 470.742 144.374C470.872 144.474 470.897 144.661 470.797 144.792L469.927 145.925C469.868 146.002 469.78 146.042 469.69 146.042Z" fill="white"/>
<path d="M473.647 148.329C473.609 148.329 473.571 148.322 473.533 148.306C473.381 148.243 473.309 148.069 473.372 147.917L473.92 146.597C473.983 146.445 474.157 146.373 474.309 146.436C474.461 146.499 474.533 146.673 474.47 146.825L473.923 148.145C473.875 148.26 473.764 148.329 473.647 148.329Z" fill="white"/>
<path d="M478.062 149.507C478.049 149.507 478.036 149.506 478.023 149.504C477.86 149.483 477.745 149.333 477.766 149.17L477.953 147.754C477.974 147.591 478.124 147.476 478.287 147.498C478.45 147.519 478.565 147.669 478.543 147.832L478.357 149.248C478.337 149.398 478.209 149.507 478.062 149.507Z" fill="white"/>
<path d="M463.444 136.682C463.313 136.682 463.192 136.594 463.157 136.461C463.114 136.302 463.208 136.139 463.367 136.096L466.127 135.357C466.287 135.315 466.45 135.409 466.492 135.568C466.535 135.726 466.441 135.89 466.282 135.932L463.522 136.672C463.496 136.679 463.47 136.682 463.444 136.682Z" fill="white"/>
<path d="M465.189 140.907C465.086 140.907 464.986 140.854 464.931 140.758C464.848 140.616 464.897 140.434 465.04 140.352L467.514 138.923C467.657 138.84 467.839 138.889 467.921 139.032C468.003 139.174 467.954 139.356 467.812 139.439L465.337 140.867C465.291 140.895 465.239 140.907 465.189 140.907Z" fill="white"/>
<path d="M471.6 147.311C471.55 147.311 471.499 147.298 471.452 147.271C471.309 147.188 471.26 147.006 471.343 146.864L472.771 144.389C472.854 144.247 473.036 144.198 473.178 144.28C473.321 144.362 473.37 144.545 473.287 144.687L471.859 147.162C471.803 147.257 471.703 147.311 471.6 147.311Z" fill="white"/>
<path d="M475.818 149.061C475.792 149.061 475.766 149.058 475.74 149.051C475.581 149.008 475.487 148.845 475.53 148.686L476.269 145.926C476.312 145.767 476.475 145.673 476.634 145.715C476.793 145.758 476.887 145.921 476.845 146.08L476.105 148.84C476.07 148.973 475.949 149.061 475.818 149.061Z" fill="white"/>
<path d="M480.351 149.658C480.186 149.658 480.053 149.525 480.053 149.36V146.503C480.053 146.338 480.186 146.205 480.351 146.205C480.515 146.205 480.648 146.338 480.648 146.503V149.36C480.648 149.525 480.515 149.658 480.351 149.658Z" fill="white"/>
<path d="M482.636 149.505C482.489 149.505 482.361 149.396 482.341 149.246L482.155 147.83C482.133 147.667 482.248 147.517 482.411 147.496C482.575 147.474 482.724 147.589 482.746 147.752L482.932 149.168C482.953 149.331 482.839 149.481 482.676 149.502C482.662 149.504 482.649 149.505 482.636 149.505Z" fill="white"/>
<path d="M487.052 148.326C486.935 148.326 486.825 148.257 486.777 148.142L486.23 146.822C486.167 146.67 486.239 146.496 486.391 146.433C486.542 146.37 486.717 146.442 486.78 146.594L487.327 147.914C487.39 148.066 487.318 148.24 487.166 148.303C487.129 148.319 487.09 148.326 487.052 148.326Z" fill="white"/>
<path d="M491.006 146.04C490.917 146.04 490.828 146 490.77 145.923L489.899 144.79C489.799 144.659 489.824 144.472 489.954 144.372C490.085 144.272 490.272 144.297 490.372 144.427L491.242 145.561C491.342 145.691 491.318 145.878 491.187 145.978C491.133 146.02 491.069 146.04 491.006 146.04Z" fill="white"/>
<path d="M494.234 142.808C494.171 142.808 494.107 142.788 494.053 142.746L492.919 141.876C492.789 141.776 492.764 141.589 492.864 141.458C492.964 141.328 493.151 141.303 493.282 141.403L494.415 142.273C494.546 142.374 494.571 142.561 494.47 142.691C494.412 142.768 494.323 142.808 494.234 142.808Z" fill="white"/>
<path d="M496.524 138.855C496.486 138.855 496.448 138.848 496.41 138.832L495.09 138.285C494.938 138.222 494.866 138.048 494.929 137.896C494.992 137.744 495.166 137.672 495.318 137.735L496.638 138.282C496.79 138.345 496.862 138.519 496.799 138.671C496.752 138.786 496.641 138.855 496.524 138.855Z" fill="white"/>
<path d="M497.702 134.44C497.69 134.44 497.676 134.44 497.663 134.438L496.247 134.251C496.084 134.23 495.969 134.08 495.991 133.917C496.012 133.754 496.162 133.639 496.325 133.661L497.741 133.847C497.904 133.869 498.019 134.018 497.997 134.181C497.978 134.331 497.85 134.44 497.702 134.44Z" fill="white"/>
<path d="M484.885 149.059C484.753 149.059 484.633 148.972 484.597 148.838L483.858 146.078C483.815 145.919 483.91 145.756 484.069 145.713C484.227 145.671 484.391 145.765 484.433 145.924L485.173 148.684C485.215 148.843 485.121 149.006 484.962 149.049C484.936 149.056 484.91 149.059 484.885 149.059Z" fill="white"/>
<path d="M489.104 147.309C489.001 147.309 488.901 147.255 488.846 147.16L487.417 144.685C487.335 144.543 487.383 144.361 487.526 144.278C487.668 144.196 487.851 144.245 487.933 144.387L489.361 146.862C489.444 147.004 489.395 147.186 489.252 147.269C489.206 147.296 489.154 147.309 489.104 147.309Z" fill="white"/>
<path d="M492.724 144.53C492.648 144.53 492.572 144.501 492.514 144.443L490.494 142.423C490.377 142.306 490.377 142.118 490.494 142.001C490.61 141.885 490.798 141.885 490.915 142.001L492.935 144.021C493.051 144.138 493.051 144.326 492.935 144.443C492.877 144.501 492.801 144.53 492.724 144.53Z" fill="white"/>
<path d="M495.51 140.905C495.46 140.905 495.409 140.893 495.362 140.865L492.887 139.437C492.745 139.354 492.696 139.172 492.778 139.03C492.861 138.887 493.043 138.839 493.185 138.921L495.66 140.349C495.802 140.432 495.851 140.614 495.769 140.756C495.713 140.852 495.613 140.905 495.51 140.905Z" fill="white"/>
<path d="M497.254 136.686C497.228 136.686 497.202 136.683 497.176 136.676L494.416 135.936C494.257 135.894 494.163 135.73 494.206 135.571C494.248 135.413 494.412 135.318 494.57 135.361L497.331 136.1C497.489 136.143 497.584 136.306 497.541 136.465C497.506 136.598 497.385 136.686 497.254 136.686Z" fill="white"/>
<path d="M497.856 132.157H494.999C494.835 132.157 494.701 132.024 494.701 131.859C494.701 131.695 494.835 131.562 494.999 131.562H497.856C498.021 131.562 498.154 131.695 498.154 131.859C498.154 132.024 498.021 132.157 497.856 132.157Z" fill="white"/>
<path d="M497.849 132.154H494.991C494.827 132.154 494.693 132.021 494.693 131.856C494.693 131.692 494.827 131.559 494.991 131.559H497.849C498.013 131.559 498.146 131.692 498.146 131.856C498.146 132.021 498.013 132.154 497.849 132.154Z" fill="white"/>
<path d="M496.286 130.058C496.139 130.058 496.011 129.948 495.991 129.799C495.969 129.635 496.084 129.486 496.247 129.464L497.663 129.278C497.826 129.257 497.976 129.371 497.997 129.534C498.019 129.697 497.904 129.847 497.741 129.868L496.325 130.055C496.312 130.057 496.299 130.058 496.286 130.058Z" fill="white"/>
<path d="M495.204 126.006C495.087 126.006 494.977 125.937 494.929 125.822C494.866 125.67 494.938 125.496 495.09 125.433L496.41 124.886C496.562 124.823 496.737 124.895 496.799 125.047C496.862 125.199 496.79 125.373 496.638 125.436L495.318 125.984C495.281 125.999 495.242 126.006 495.204 126.006Z" fill="white"/>
<path d="M493.101 122.375C493.011 122.375 492.923 122.335 492.864 122.258C492.764 122.128 492.789 121.941 492.919 121.841L494.053 120.971C494.183 120.871 494.37 120.895 494.471 121.026C494.571 121.156 494.546 121.343 494.416 121.443L493.282 122.313C493.228 122.355 493.164 122.375 493.101 122.375Z" fill="white"/>
<path d="M490.136 119.402C490.072 119.402 490.009 119.382 489.954 119.341C489.824 119.241 489.799 119.054 489.899 118.923L490.77 117.789C490.87 117.659 491.056 117.634 491.187 117.734C491.318 117.835 491.342 118.022 491.242 118.152L490.372 119.286C490.313 119.362 490.225 119.402 490.136 119.402Z" fill="white"/>
<path d="M486.505 117.309C486.467 117.309 486.428 117.301 486.391 117.286C486.239 117.223 486.167 117.049 486.23 116.897L486.777 115.576C486.84 115.424 487.015 115.352 487.166 115.415C487.318 115.478 487.39 115.653 487.327 115.805L486.78 117.125C486.733 117.239 486.622 117.309 486.505 117.309Z" fill="white"/>
<path d="M482.451 116.221C482.438 116.221 482.425 116.221 482.411 116.219C482.248 116.197 482.133 116.048 482.155 115.885L482.341 114.469C482.363 114.306 482.512 114.191 482.676 114.212C482.839 114.234 482.953 114.384 482.932 114.547L482.746 115.962C482.726 116.112 482.598 116.221 482.451 116.221Z" fill="white"/>
<path d="M494.493 128.365C494.362 128.365 494.241 128.278 494.206 128.145C494.163 127.986 494.257 127.822 494.416 127.78L497.176 127.04C497.335 126.998 497.499 127.092 497.541 127.251C497.584 127.41 497.49 127.573 497.331 127.616L494.57 128.355C494.545 128.362 494.519 128.365 494.493 128.365Z" fill="white"/>
<path d="M493.036 124.836C492.934 124.836 492.833 124.783 492.778 124.687C492.696 124.545 492.745 124.362 492.887 124.28L495.362 122.851C495.504 122.769 495.686 122.818 495.769 122.96C495.851 123.103 495.802 123.285 495.66 123.367L493.185 124.796C493.138 124.823 493.087 124.836 493.036 124.836Z" fill="white"/>
<path d="M487.675 119.474C487.624 119.474 487.573 119.462 487.526 119.435C487.383 119.352 487.335 119.17 487.417 119.028L488.846 116.553C488.928 116.411 489.11 116.362 489.252 116.444C489.395 116.526 489.444 116.709 489.361 116.851L487.933 119.326C487.878 119.421 487.778 119.474 487.675 119.474Z" fill="white"/>
<path d="M484.146 118.014C484.12 118.014 484.094 118.011 484.069 118.004C483.91 117.961 483.815 117.798 483.858 117.639L484.597 114.879C484.64 114.72 484.803 114.626 484.962 114.668C485.121 114.711 485.215 114.874 485.173 115.033L484.433 117.793C484.398 117.926 484.277 118.014 484.146 118.014Z" fill="white"/>
<path d="M480.349 117.509C480.184 117.509 480.051 117.375 480.051 117.211V114.354C480.051 114.189 480.184 114.056 480.349 114.056C480.513 114.056 480.647 114.189 480.647 114.354V117.211C480.647 117.375 480.513 117.509 480.349 117.509Z" fill="white"/>
</g>
<path d="M492.911 119.292L477.818 129.333L480.344 131.858L492.911 119.292Z" fill="#F4413D"/>
<path d="M492.906 119.292L480.34 131.858L482.866 134.384L492.906 119.292Z" fill="#CC2B2B"/>
<path d="M477.818 129.329L467.777 144.422L480.344 131.855L477.818 129.329Z" fill="white"/>
<path d="M467.777 144.425L482.87 134.384L480.344 131.858L467.777 144.425Z" fill="#D8D8D8"/>
</g>
</g>
<defs>
<linearGradient id="paint0_linear_1805_1851" x1="428.704" y1="117.169" x2="394.804" y2="149.882" gradientUnits="userSpaceOnUse">
<stop offset="0.05" stop-color="#FFF339"/>
<stop offset="0.37" stop-color="#FF9800"/>
<stop offset="0.53" stop-color="#FF3346"/>
<stop offset="0.7" stop-color="#FF0D8A"/>
</linearGradient>
<radialGradient id="paint1_radial_1805_1851" cx="0" cy="0" r="1" gradientUnits="userSpaceOnUse" gradientTransform="translate(428.913 119.697) scale(43.1803 43.9074)">
<stop offset="0.13" stop-color="#FFBD44"/>
<stop offset="0.28" stop-color="#FF9800"/>
<stop offset="0.47" stop-color="#FF3450"/>
<stop offset="0.78" stop-color="#FF027B"/>
<stop offset="0.86" stop-color="#FF0083"/>
</radialGradient>
<radialGradient id="paint2_radial_1805_1851" cx="0" cy="0" r="1" gradientUnits="userSpaceOnUse" gradientTransform="translate(412.584 133.431) scale(44.2598 43.9074)">
<stop offset="0.3" stop-color="#AF0611"/>
<stop offset="0.35" stop-color="#CE1223" stop-opacity="0.74"/>
<stop offset="0.43" stop-color="#FD243B" stop-opacity="0.34"/>
<stop offset="0.5" stop-color="#FF304B" stop-opacity="0.09"/>
<stop offset="0.53" stop-color="#FF3450" stop-opacity="0"/>
</radialGradient>
<radialGradient id="paint3_radial_1805_1851" cx="0" cy="0" r="1" gradientUnits="userSpaceOnUse" gradientTransform="translate(417.181 108.391) scale(14.1722 24.0609)">
<stop offset="0.13" stop-color="#FFF339"/>
<stop offset="0.53" stop-color="#FF9800"/>
</radialGradient>
<radialGradient id="paint4_radial_1805_1851" cx="0" cy="0" r="1" gradientUnits="userSpaceOnUse" gradientTransform="translate(407.828 144.756) scale(18.7551 20.5559)">
<stop offset="0.35" stop-color="#008EE9"/>
<stop offset="0.67" stop-color="#A059FF"/>
<stop offset="1" stop-color="#DF36EA"/>
</radialGradient>
<radialGradient id="paint5_radial_1805_1851" cx="0" cy="0" r="1" gradientUnits="userSpaceOnUse" gradientTransform="translate(412.337 128.897) scale(9.95805 12.1268)">
<stop offset="0.21" stop-color="#A059FF" stop-opacity="0"/>
<stop offset="0.97" stop-color="#80008E" stop-opacity="0.6"/>
</radialGradient>
<radialGradient id="paint6_radial_1805_1851" cx="0" cy="0" r="1" gradientUnits="userSpaceOnUse" gradientTransform="translate(411.621 113.662) scale(14.91 14.963)">
<stop offset="0.1" stop-color="#FFE200"/>
<stop offset="0.79" stop-color="#FF7232"/>
</radialGradient>
<radialGradient id="paint7_radial_1805_1851" cx="0" cy="0" r="1" gradientUnits="userSpaceOnUse" gradientTransform="translate(425.23 103.851) scale(71.1839 59.755)">
<stop offset="0.11" stop-color="#FFF339"/>
<stop offset="0.46" stop-color="#FF9800"/>
<stop offset="0.72" stop-color="#FF3346"/>
<stop offset="0.9" stop-color="#FF0D8A"/>
</radialGradient>
<radialGradient id="paint8_radial_1805_1851" cx="0" cy="0" r="1" gradientUnits="userSpaceOnUse" gradientTransform="translate(419.214 105.021) rotate(83.9544) scale(46.7975 47.1478)">
<stop stop-color="#FFF339"/>
<stop offset="0.3" stop-color="#FF9800"/>
<stop offset="0.57" stop-color="#FF3346"/>
<stop offset="0.74" stop-color="#FF0D8A"/>
</radialGradient>
<radialGradient id="paint9_radial_1805_1851" cx="0" cy="0" r="1" gradientUnits="userSpaceOnUse" gradientTransform="translate(411.767 119.046) scale(40.8691 40.1512)">
<stop offset="0.14" stop-color="#FFF339"/>
<stop offset="0.48" stop-color="#FF9800"/>
<stop offset="0.66" stop-color="#FF3346"/>
<stop offset="0.9" stop-color="#FF0D8A"/>
</radialGradient>
<radialGradient id="paint10_radial_1805_1851" cx="0" cy="0" r="1" gradientUnits="userSpaceOnUse" gradientTransform="translate(422.381 121.392) scale(49.1234 43.9467)">
<stop offset="0.09" stop-color="#FFF339"/>
<stop offset="0.63" stop-color="#FF9800"/>
</radialGradient>
<linearGradient id="paint11_linear_1805_1851" x1="426.625" y1="117.416" x2="399.513" y2="147.039" gradientUnits="userSpaceOnUse">
<stop offset="0.17" stop-color="#FFF339" stop-opacity="0.8"/>
<stop offset="0.6" stop-color="#FFF339" stop-opacity="0"/>
</linearGradient>
<linearGradient id="paint12_linear_1805_1851" x1="480.344" y1="153.285" x2="480.344" y2="110.426" gradientUnits="userSpaceOnUse">
<stop stop-color="#F2F2F2"/>
<stop offset="1" stop-color="white"/>
</linearGradient>
<linearGradient id="paint13_linear_1805_1851" x1="480.342" y1="153.286" x2="480.342" y2="110.426" gradientUnits="userSpaceOnUse">
<stop/>
<stop offset="0.36" stop-opacity="0"/>
</linearGradient>
<linearGradient id="paint14_linear_1805_1851" x1="480.343" y1="151.142" x2="480.343" y2="112.568" gradientUnits="userSpaceOnUse">
<stop stop-color="#3871E9"/>
<stop offset="1" stop-color="#61C5F6"/>
</linearGradient>
<linearGradient id="paint15_linear_1805_1851" x1="480.34" y1="151.14" x2="480.34" y2="112.566" gradientUnits="userSpaceOnUse">
<stop/>
<stop offset="0.36" stop-opacity="0"/>
</linearGradient>
<clipPath id="clip0_1805_1851">
<rect width="526" height="200" fill="white"/>
</clipPath>
<clipPath id="clip1_1805_1851">
<rect width="23.6843" height="23.6843" fill="white" transform="translate(18.9473 60.2637)"/>
</clipPath>
<clipPath id="clip2_1805_1851">
<rect width="43.5745" height="43.5742" fill="white" transform="translate(323.875 110.426)"/>
</clipPath>
<clipPath id="clip3_1805_1851">
<rect width="43.5742" height="43.5742" fill="white" transform="translate(391.217 110.426)"/>
</clipPath>
<clipPath id="clip4_1805_1851">
<rect width="43.5742" height="43.5742" fill="white" transform="translate(458.559 110.426)"/>
</clipPath>
</defs>
</svg>
